<svg width="1040" height="784" viewBox="0 0 1040 784" fill="none" xmlns="http://www.w3.org/2000/svg">
<g filter="url(#filter0_d_871_4268)">
<rect x="7" y="6" width="1024" height="768" rx="40" fill="#F2F2FD"/>
<rect x="7.25" y="6.25" width="1023.5" height="767.5" rx="39.75" stroke="#A09EF1" stroke-width="0.5"/>
<path d="M382.691 306.627C428.989 306.627 466.519 344.094 466.519 390.31C466.518 436.525 428.989 473.992 382.691 473.992C336.394 473.992 298.863 436.525 298.863 390.31C298.863 344.094 336.394 306.627 382.691 306.627Z" stroke="#A5A5A5"/>
<path d="M383.498 347.099C406.957 347.099 425.973 366.083 425.973 389.5C425.973 412.916 406.957 431.901 383.498 431.901C360.039 431.901 341.023 412.916 341.023 389.5C341.024 366.083 360.039 347.099 383.498 347.099Z" stroke="#A5A5A5"/>
<path d="M383.498 262.917C454.426 262.917 511.923 320.316 511.923 391.119C511.923 461.922 454.425 519.321 383.498 519.321C312.571 519.321 255.074 461.922 255.074 391.119C255.074 320.316 312.571 262.917 383.498 262.917Z" stroke="#A5A5A5"/>
<path d="M384.312 177.116C501.365 177.116 596.253 271.842 596.253 388.691C596.253 505.539 501.365 600.265 384.312 600.265C267.26 600.265 172.371 505.54 172.371 388.691C172.371 271.842 267.26 177.116 384.312 177.116Z" stroke="#A5A5A5"/>
<path d="M384.312 220.826C478.078 220.826 554.09 296.707 554.09 390.309C554.09 483.911 478.079 559.793 384.312 559.793C290.546 559.793 214.535 483.912 214.535 390.309C214.535 296.707 290.546 220.826 384.312 220.826Z" stroke="#A5A5A5"/>
<path d="M383.363 170.14L382.69 605.622" stroke="#A5A5A5"/>
<path d="M564.613 509.579L201.061 268.892" stroke="#A5A5A5"/>
<path d="M201.059 509.579L564.611 268.892" stroke="#A5A5A5"/>
<path d="M344.212 164L336.02 141.12H339.188L345.78 161.216H345.812L352.34 141.12H355.348L347.348 164H344.212ZM360.296 164.448C357 164.448 354.92 162.56 354.92 159.808C354.92 156.064 357.672 155.04 361.896 154.272C364.68 153.76 365.96 153.44 365.96 151.84C365.96 150.56 365.256 149.44 362.568 149.44C359.464 149.44 358.568 150.368 358.408 152.736H355.72C355.88 149.6 357.864 147.2 362.664 147.2C365.704 147.2 368.456 148.48 368.456 152.48V160.32C368.456 161.6 368.648 162.24 369.288 162.24C369.384 162.24 369.48 162.24 369.672 162.208V164C369.256 164.096 368.872 164.16 368.424 164.16C367.016 164.16 366.152 163.616 365.992 161.6H365.928C364.872 163.36 363.016 164.448 360.296 164.448ZM357.608 159.68C357.608 161.28 358.44 162.208 360.552 162.208C363.624 162.208 365.96 160.832 365.96 157.696V155.104C365.48 155.616 363.88 156.032 362.12 156.384C358.952 157.024 357.608 157.792 357.608 159.68ZM372.791 164V141.12H375.351V164H372.791ZM384.737 164.448C381.761 164.448 379.265 162.816 379.265 159.072V147.68H381.825V158.432C381.825 160.544 382.817 162.208 385.377 162.208C388.257 162.208 390.177 160.384 390.177 157.856V147.68H392.737V164H390.177V162.048H390.113C389.249 163.2 387.521 164.448 384.737 164.448ZM403.847 164.48C398.695 164.48 395.911 160.768 395.911 155.808C395.911 150.592 399.015 147.2 403.847 147.2C408.615 147.2 411.399 150.464 411.399 155.232C411.399 155.712 411.399 156.256 411.367 156.512H398.599C398.663 159.392 400.263 162.272 403.879 162.272C407.079 162.272 408.295 160.128 408.583 158.976H411.175C410.343 162.016 408.039 164.48 403.847 164.48ZM398.599 154.272H408.679C408.679 151.584 406.759 149.408 403.719 149.408C400.903 149.408 398.759 151.424 398.599 154.272ZM420.709 164.448C416.005 164.448 413.477 161.92 413.381 158.56H416.069C416.197 160.544 417.349 162.208 420.709 162.208C423.845 162.208 424.581 160.768 424.581 159.52C424.581 157.28 422.245 157.056 420.229 156.608C417.381 155.968 414.021 155.2 414.021 151.808C414.021 149.056 416.229 147.232 419.973 147.232C424.197 147.232 426.373 149.536 426.629 152.352H423.941C423.685 151.104 423.045 149.472 420.005 149.472C417.701 149.472 416.709 150.4 416.709 151.712C416.709 153.6 418.789 153.792 421.061 154.304C423.973 154.976 427.269 155.808 427.269 159.424C427.269 162.496 424.869 164.448 420.709 164.448Z" fill="#0D0C50"/>
<path d="M347.58 643.64C341.852 643.64 337.884 640.632 337.564 635.512H340.572C340.892 638.68 342.684 641.112 347.452 641.112C351.58 641.112 352.732 639.288 352.732 636.952C352.732 633.752 350.492 633.368 346.044 632.248C342.588 631.384 338.524 630.328 338.524 625.912C338.524 622.264 341.34 619.864 346.268 619.864C351.452 619.864 354.62 622.488 355.004 627.096H351.996C351.58 624.024 349.98 622.392 346.3 622.392C343.1 622.392 341.532 623.608 341.532 625.784C341.532 628.632 344.284 629.208 347.228 629.912C351.676 630.968 355.74 631.992 355.74 636.856C355.74 640.632 353.276 643.64 347.58 643.64ZM365.981 643.672C360.829 643.672 358.045 639.96 358.045 635C358.045 629.784 361.149 626.392 365.981 626.392C370.749 626.392 373.533 629.656 373.533 634.424C373.533 634.904 373.533 635.448 373.501 635.704H360.733C360.797 638.584 362.397 641.464 366.013 641.464C369.213 641.464 370.429 639.32 370.717 638.168H373.309C372.477 641.208 370.173 643.672 365.981 643.672ZM360.733 633.464H370.813C370.813 630.776 368.893 628.6 365.853 628.6C363.037 628.6 360.893 630.616 360.733 633.464ZM383.674 643.64C378.906 643.64 375.77 640.152 375.77 635.032C375.77 629.912 378.906 626.424 383.674 626.424C387.706 626.424 390.458 629.112 390.842 632.76H388.154C388.026 630.968 386.938 628.664 383.674 628.664C379.802 628.664 378.458 631.96 378.458 635.032C378.458 638.104 379.802 641.4 383.674 641.4C386.97 641.4 388.026 639.128 388.154 637.176H390.842C390.618 640.888 387.706 643.64 383.674 643.64ZM398.761 643.352C396.361 643.352 394.697 642.52 394.697 638.808V629.112H392.297V626.872H394.697V621.432H397.257V626.872H400.457V629.112H397.257V638.936C397.257 640.664 397.673 641.112 399.113 641.112C399.657 641.112 399.913 641.08 400.457 641.016V643.192C399.721 643.32 399.337 643.352 398.761 643.352ZM410.223 643.672C405.231 643.672 402.223 640.12 402.223 635.032C402.223 629.944 405.231 626.392 410.223 626.392C415.183 626.392 418.191 629.944 418.191 635.032C418.191 640.12 415.183 643.672 410.223 643.672ZM404.911 635.032C404.911 638.52 406.543 641.432 410.223 641.432C413.871 641.432 415.503 638.52 415.503 635.032C415.503 631.544 413.871 628.632 410.223 628.632C406.543 628.632 404.911 631.544 404.911 635.032ZM423.874 634.488V643.192H421.314V626.872H423.874V630.104H423.938C424.802 627.96 426.114 626.424 428.45 626.424C429.058 626.424 429.506 626.456 429.954 626.52V629.08C429.57 629.016 429.282 628.984 428.898 628.984C425.89 628.984 423.874 631.352 423.874 634.488Z" fill="#0D0C50"/>
<path d="M76.194 531.488V508.608H79.074V531.488H76.194ZM94.289 520.736C94.289 518.624 93.297 516.96 90.737 516.96C87.857 516.96 85.937 518.784 85.937 521.312V531.488H83.377V515.168H85.937V517.12H86.001C86.865 515.968 88.593 514.72 91.377 514.72C94.353 514.72 96.849 516.352 96.849 520.096V531.488H94.289V520.736ZM105.659 531.648C103.259 531.648 101.595 530.816 101.595 527.104V517.408H99.1953V515.168H101.595V509.728H104.155V515.168H107.355V517.408H104.155V527.232C104.155 528.96 104.571 529.408 106.011 529.408C106.555 529.408 106.811 529.376 107.355 529.312V531.488C106.619 531.616 106.235 531.648 105.659 531.648ZM117.089 531.968C111.937 531.968 109.153 528.256 109.153 523.296C109.153 518.08 112.257 514.688 117.089 514.688C121.857 514.688 124.641 517.952 124.641 522.72C124.641 523.2 124.641 523.744 124.609 524H111.841C111.905 526.88 113.505 529.76 117.121 529.76C120.321 529.76 121.537 527.616 121.825 526.464H124.417C123.585 529.504 121.281 531.968 117.089 531.968ZM111.841 521.76H121.921C121.921 519.072 120.001 516.896 116.961 516.896C114.145 516.896 112.001 518.912 111.841 521.76ZM130.335 522.784V531.488H127.775V515.168H130.335V518.4H130.399C131.263 516.256 132.575 514.72 134.911 514.72C135.519 514.72 135.967 514.752 136.415 514.816V517.376C136.031 517.312 135.743 517.28 135.359 517.28C132.351 517.28 130.335 519.648 130.335 522.784ZM145.198 531.968C140.046 531.968 137.262 528.256 137.262 523.296C137.262 518.08 140.366 514.688 145.198 514.688C149.966 514.688 152.75 517.952 152.75 522.72C152.75 523.2 152.75 523.744 152.718 524H139.95C140.014 526.88 141.614 529.76 145.23 529.76C148.43 529.76 149.646 527.616 149.934 526.464H152.526C151.694 529.504 149.39 531.968 145.198 531.968ZM139.95 521.76H150.03C150.03 519.072 148.11 516.896 145.07 516.896C142.254 516.896 140.11 518.912 139.95 521.76ZM162.059 531.936C157.355 531.936 154.827 529.408 154.731 526.048H157.419C157.547 528.032 158.699 529.696 162.059 529.696C165.195 529.696 165.931 528.256 165.931 527.008C165.931 524.768 163.595 524.544 161.579 524.096C158.731 523.456 155.371 522.688 155.371 519.296C155.371 516.544 157.579 514.72 161.323 514.72C165.547 514.72 167.723 517.024 167.979 519.84H165.291C165.035 518.592 164.395 516.96 161.355 516.96C159.051 516.96 158.059 517.888 158.059 519.2C158.059 521.088 160.139 521.28 162.411 521.792C165.323 522.464 168.619 523.296 168.619 526.912C168.619 529.984 166.219 531.936 162.059 531.936ZM176.416 531.648C174.016 531.648 172.352 530.816 172.352 527.104V517.408H169.952V515.168H172.352V509.728H174.912V515.168H178.112V517.408H174.912V527.232C174.912 528.96 175.328 529.408 176.768 529.408C177.312 529.408 177.568 529.376 178.112 529.312V531.488C177.376 531.616 176.992 531.648 176.416 531.648ZM187.293 531.936C182.589 531.936 180.061 529.408 179.965 526.048H182.653C182.781 528.032 183.933 529.696 187.293 529.696C190.429 529.696 191.165 528.256 191.165 527.008C191.165 524.768 188.829 524.544 186.813 524.096C183.965 523.456 180.605 522.688 180.605 519.296C180.605 516.544 182.813 514.72 186.557 514.72C190.781 514.72 192.957 517.024 193.213 519.84H190.525C190.269 518.592 189.629 516.96 186.589 516.96C184.285 516.96 183.293 517.888 183.293 519.2C183.293 521.088 185.373 521.28 187.645 521.792C190.557 522.464 193.853 523.296 193.853 526.912C193.853 529.984 191.453 531.936 187.293 531.936Z" fill="#0D0C50"/>
<path d="M74.8153 275.704L69.1513 252.824H72.1913L76.5433 271.576H76.6073L81.7273 252.824H84.9273L90.0473 271.576H90.1113L94.4633 252.824H97.5033L91.8393 275.704H88.6393L83.3593 256.088H83.2953L78.0153 275.704H74.8153ZM105.982 276.184C100.99 276.184 97.9818 272.632 97.9818 267.544C97.9818 262.456 100.99 258.904 105.982 258.904C110.942 258.904 113.95 262.456 113.95 267.544C113.95 272.632 110.942 276.184 105.982 276.184ZM100.67 267.544C100.67 271.032 102.302 273.944 105.982 273.944C109.63 273.944 111.262 271.032 111.262 267.544C111.262 264.056 109.63 261.144 105.982 261.144C102.302 261.144 100.67 264.056 100.67 267.544ZM119.633 267V275.704H117.073V259.384H119.633V262.616H119.697C120.561 260.472 121.873 258.936 124.209 258.936C124.817 258.936 125.265 258.968 125.713 259.032V261.592C125.329 261.528 125.041 261.496 124.657 261.496C121.649 261.496 119.633 263.864 119.633 267ZM128.174 275.704V252.824H130.734V266.52L138.35 259.384H141.422L134.99 265.304L142.094 275.704H139.054L133.262 266.904L130.734 269.208V275.704H128.174ZM143.869 275.704V259.384H146.429V275.704H143.869ZM143.613 256.216V253.144H146.685V256.216H143.613ZM161.382 264.952C161.382 262.84 160.39 261.176 157.83 261.176C154.95 261.176 153.03 263 153.03 265.528V275.704H150.47V259.384H153.03V261.336H153.094C153.958 260.184 155.686 258.936 158.47 258.936C161.446 258.936 163.942 260.568 163.942 264.312V275.704H161.382V264.952ZM174.669 281.56C170.125 281.56 167.789 279.448 167.533 276.408H170.221C170.541 278.072 171.757 279.32 174.669 279.32C177.837 279.32 179.597 278.008 179.597 274.872V272.312H179.533C178.573 273.72 177.037 274.872 174.349 274.872C170.317 274.872 167.053 272.28 167.053 266.904C167.053 261.528 170.317 258.936 174.349 258.936C177.037 258.936 178.573 260.152 179.533 261.4H179.597V259.384H182.157V274.616C182.157 279.256 179.245 281.56 174.669 281.56ZM169.741 266.904C169.741 270.104 171.309 272.632 174.669 272.632C177.709 272.632 179.597 270.744 179.597 266.904C179.597 263.064 177.709 261.176 174.669 261.176C171.309 261.176 169.741 263.704 169.741 266.904ZM101.823 321.152C97.1192 321.152 94.5912 318.624 94.4952 315.264H97.1832C97.3112 317.248 98.4632 318.912 101.823 318.912C104.959 318.912 105.695 317.472 105.695 316.224C105.695 313.984 103.359 313.76 101.343 313.312C98.4952 312.672 95.1352 311.904 95.1352 308.512C95.1352 305.76 97.3432 303.936 101.087 303.936C105.311 303.936 107.487 306.24 107.743 309.056H105.055C104.799 307.808 104.159 306.176 101.119 306.176C98.8152 306.176 97.8232 307.104 97.8232 308.416C97.8232 310.304 99.9032 310.496 102.175 311.008C105.087 311.68 108.383 312.512 108.383 316.128C108.383 319.2 105.983 321.152 101.823 321.152ZM116.179 320.864C113.779 320.864 112.115 320.032 112.115 316.32V306.624H109.715V304.384H112.115V298.944H114.675V304.384H117.875V306.624H114.675V316.448C114.675 318.176 115.091 318.624 116.531 318.624C117.075 318.624 117.331 318.592 117.875 318.528V320.704C117.139 320.832 116.755 320.864 116.179 320.864ZM122.577 326.432C122.001 326.432 121.617 326.4 120.881 326.272V324.096C121.425 324.16 121.681 324.192 122.161 324.192C123.505 324.192 124.977 323.36 125.681 320.544L119.057 304.384H121.937L126.961 317.376H127.025L131.825 304.384H134.577L127.985 321.184C126.353 325.312 124.785 326.432 122.577 326.432ZM136.951 320.704V297.824H139.511V320.704H136.951ZM150.624 321.184C145.472 321.184 142.688 317.472 142.688 312.512C142.688 307.296 145.792 303.904 150.624 303.904C155.392 303.904 158.176 307.168 158.176 311.936C158.176 312.416 158.176 312.96 158.144 313.216H145.376C145.44 316.096 147.04 318.976 150.656 318.976C153.856 318.976 155.072 316.832 155.36 315.68H157.952C157.12 318.72 154.816 321.184 150.624 321.184ZM145.376 310.976H155.456C155.456 308.288 153.536 306.112 150.496 306.112C147.68 306.112 145.536 308.128 145.376 310.976Z" fill="#0D0C50"/>
<path d="M583.242 531.936C577.514 531.936 573.546 528.928 573.226 523.808H576.234C576.554 526.976 578.346 529.408 583.114 529.408C587.242 529.408 588.394 527.584 588.394 525.248C588.394 522.048 586.154 521.664 581.706 520.544C578.25 519.68 574.186 518.624 574.186 514.208C574.186 510.56 577.002 508.16 581.93 508.16C587.114 508.16 590.282 510.784 590.666 515.392H587.658C587.242 512.32 585.642 510.688 581.962 510.688C578.762 510.688 577.194 511.904 577.194 514.08C577.194 516.928 579.946 517.504 582.89 518.208C587.338 519.264 591.402 520.288 591.402 525.152C591.402 528.928 588.938 531.936 583.242 531.936ZM594.571 531.488V508.608H597.131V522.304L604.747 515.168H607.819L601.387 521.088L608.491 531.488H605.451L599.659 522.688L597.131 524.992V531.488H594.571ZM610.266 531.488V515.168H612.826V531.488H610.266ZM610.01 512V508.928H613.082V512H610.01ZM616.867 531.488V508.608H619.427V531.488H616.867ZM623.468 531.488V508.608H626.028V531.488H623.468ZM636.245 531.936C631.541 531.936 629.013 529.408 628.917 526.048H631.605C631.733 528.032 632.885 529.696 636.245 529.696C639.381 529.696 640.117 528.256 640.117 527.008C640.117 524.768 637.781 524.544 635.765 524.096C632.917 523.456 629.557 522.688 629.557 519.296C629.557 516.544 631.765 514.72 635.509 514.72C639.733 514.72 641.909 517.024 642.165 519.84H639.477C639.221 518.592 638.581 516.96 635.541 516.96C633.237 516.96 632.245 517.888 632.245 519.2C632.245 521.088 634.325 521.28 636.597 521.792C639.509 522.464 642.805 523.296 642.805 526.912C642.805 529.984 640.405 531.936 636.245 531.936Z" fill="#0D0C50"/>
<path d="M583.978 276.152C577.322 276.152 573.674 271.16 573.674 264.248C573.674 257.368 577.962 252.376 584.298 252.376C590.09 252.376 593.13 255.384 593.93 259.736H590.922C590.25 256.472 587.754 254.936 584.298 254.936C578.858 254.936 576.682 259.96 576.682 264.248C576.682 268.568 578.218 273.592 583.978 273.592C588.074 273.592 591.434 270.648 591.434 266.36H583.978V263.8H594.314V275.704H592.394L591.434 272.472H591.37C589.642 274.872 587.498 276.152 583.978 276.152ZM605.175 276.184C600.183 276.184 597.175 272.632 597.175 267.544C597.175 262.456 600.183 258.904 605.175 258.904C610.135 258.904 613.143 262.456 613.143 267.544C613.143 272.632 610.135 276.184 605.175 276.184ZM599.863 267.544C599.863 271.032 601.495 273.944 605.175 273.944C608.823 273.944 610.455 271.032 610.455 267.544C610.455 264.056 608.823 261.144 605.175 261.144C601.495 261.144 599.863 264.056 599.863 267.544ZM620.778 276.152C617.482 276.152 615.402 274.264 615.402 271.512C615.402 267.768 618.154 266.744 622.378 265.976C625.162 265.464 626.442 265.144 626.442 263.544C626.442 262.264 625.738 261.144 623.05 261.144C619.946 261.144 619.05 262.072 618.89 264.44H616.202C616.362 261.304 618.346 258.904 623.146 258.904C626.186 258.904 628.938 260.184 628.938 264.184V272.024C628.938 273.304 629.13 273.944 629.77 273.944C629.866 273.944 629.962 273.944 630.154 273.912V275.704C629.738 275.8 629.354 275.864 628.906 275.864C627.498 275.864 626.634 275.32 626.474 273.304H626.41C625.354 275.064 623.498 276.152 620.778 276.152ZM618.09 271.384C618.09 272.984 618.922 273.912 621.034 273.912C624.106 273.912 626.442 272.536 626.442 269.4V266.808C625.962 267.32 624.362 267.736 622.602 268.088C619.434 268.728 618.09 269.496 618.09 271.384ZM633.273 275.704V252.824H635.833V275.704H633.273ZM646.05 276.152C641.346 276.152 638.818 273.624 638.722 270.264H641.41C641.538 272.248 642.69 273.912 646.05 273.912C649.186 273.912 649.922 272.472 649.922 271.224C649.922 268.984 647.586 268.76 645.57 268.312C642.722 267.672 639.362 266.904 639.362 263.512C639.362 260.76 641.57 258.936 645.314 258.936C649.538 258.936 651.714 261.24 651.97 264.056H649.282C649.026 262.808 648.386 261.176 645.346 261.176C643.042 261.176 642.05 262.104 642.05 263.416C642.05 265.304 644.13 265.496 646.402 266.008C649.314 266.68 652.61 267.512 652.61 271.128C652.61 274.2 650.21 276.152 646.05 276.152Z" fill="#0D0C50"/>
<path opacity="0.5" d="M561.075 507.679L382.69 570.816L227.008 489.062V285.081L384.311 185.52L503.505 306.936L561.075 507.679Z" fill="#A1A0F2" stroke="#0D0C50"/>
<path d="M383.497 536.01L273.224 460.731L229.438 285.081L308.901 242.181L383.497 202.519L544.856 281.844L426.473 417.831L383.497 536.01Z" stroke="#0D0C50" stroke-width="3" stroke-dasharray="2 2"/>
<path d="M760.096 225.12H766.4L770.72 241.152H770.784L775.136 225.12H781.216L773.792 248H767.712L760.096 225.12ZM782.471 231.616H787.591V248H782.471V231.616ZM782.471 225.12H787.591V229.664H782.471V225.12ZM789.064 231.616H794.248L797.576 242.432H797.64L800.968 231.616H806.024L800.36 248H794.728L789.064 231.616ZM807.502 231.616H812.622V248H807.502V231.616ZM807.502 225.12H812.622V229.664H807.502V225.12ZM823.247 248.544C821.498 248.544 819.983 248.181 818.703 247.456C817.423 246.709 816.442 245.675 815.759 244.352C815.077 243.029 814.735 241.515 814.735 239.808C814.735 238.187 815.066 236.715 815.727 235.392C816.389 234.069 817.359 233.024 818.639 232.256C819.941 231.467 821.477 231.072 823.247 231.072C826.021 231.072 828.111 231.872 829.519 233.472C830.927 235.051 831.631 237.365 831.631 240.416V241.184H819.855C819.855 242.272 820.186 243.136 820.847 243.776C821.53 244.395 822.373 244.704 823.375 244.704C824.89 244.704 825.861 244.149 826.287 243.04H831.503C831.034 244.768 830.095 246.123 828.687 247.104C827.301 248.064 825.487 248.544 823.247 248.544ZM826.479 238.016C826.479 236.971 826.191 236.171 825.615 235.616C825.039 235.061 824.25 234.784 823.247 234.784C822.266 234.784 821.477 235.061 820.879 235.616C820.282 236.171 819.951 236.971 819.887 238.016H826.479ZM844.535 238.56C844.535 237.365 844.322 236.523 843.895 236.032C843.49 235.52 842.85 235.264 841.975 235.264C839.927 235.264 838.903 236.352 838.903 238.528V248H833.783V231.616H838.903V233.984H838.967C840.076 232.064 841.868 231.104 844.343 231.104C845.964 231.104 847.255 231.616 848.215 232.64C849.175 233.664 849.655 235.093 849.655 236.928V248H844.535V238.56ZM863.129 238.56C863.129 237.365 862.915 236.523 862.489 236.032C862.083 235.52 861.443 235.264 860.569 235.264C858.521 235.264 857.497 236.352 857.497 238.528V248H852.377V231.616H857.497V233.984H857.561C858.67 232.064 860.462 231.104 862.937 231.104C864.558 231.104 865.849 231.616 866.809 232.64C867.769 233.664 868.249 235.093 868.249 236.928V248H863.129V238.56ZM878.779 248.544C877.029 248.544 875.515 248.181 874.235 247.456C872.955 246.709 871.973 245.675 871.291 244.352C870.608 243.029 870.267 241.515 870.267 239.808C870.267 238.187 870.597 236.715 871.259 235.392C871.92 234.069 872.891 233.024 874.171 232.256C875.472 231.467 877.008 231.072 878.779 231.072C881.552 231.072 883.643 231.872 885.051 233.472C886.459 235.051 887.163 237.365 887.163 240.416V241.184H875.387C875.387 242.272 875.717 243.136 876.379 243.776C877.061 244.395 877.904 244.704 878.907 244.704C880.421 244.704 881.392 244.149 881.819 243.04H887.035C886.565 244.768 885.627 246.123 884.219 247.104C882.832 248.064 881.019 248.544 878.779 248.544ZM882.011 238.016C882.011 236.971 881.723 236.171 881.147 235.616C880.571 235.061 879.781 234.784 878.779 234.784C877.797 234.784 877.008 235.061 876.411 235.616C875.813 236.171 875.483 236.971 875.419 238.016H882.011Z" fill="#0D0C50"/>
<path d="M761.92 454.12H767.68V472.296H777.856V477H761.92V454.12ZM786.872 477.544C785.123 477.544 783.608 477.181 782.328 476.456C781.048 475.709 780.067 474.675 779.384 473.352C778.702 472.029 778.36 470.515 778.36 468.808C778.36 467.187 778.691 465.715 779.352 464.392C780.014 463.069 780.984 462.024 782.264 461.256C783.566 460.467 785.102 460.072 786.872 460.072C789.646 460.072 791.736 460.872 793.144 462.472C794.552 464.051 795.256 466.365 795.256 469.416V470.184H783.48C783.48 471.272 783.811 472.136 784.472 472.776C785.155 473.395 785.998 473.704 787 473.704C788.515 473.704 789.486 473.149 789.912 472.04H795.128C794.659 473.768 793.72 475.123 792.312 476.104C790.926 477.064 789.112 477.544 786.872 477.544ZM790.104 467.016C790.104 465.971 789.816 465.171 789.24 464.616C788.664 464.061 787.875 463.784 786.872 463.784C785.891 463.784 785.102 464.061 784.504 464.616C783.907 465.171 783.576 465.971 783.512 467.016H790.104ZM801.952 477.512C800.352 477.512 799.083 477.075 798.144 476.2C797.205 475.325 796.736 474.163 796.736 472.712C796.736 471.133 797.28 469.939 798.368 469.128C799.477 468.317 801.024 467.699 803.008 467.272C803.136 467.229 803.371 467.187 803.712 467.144C804.907 466.888 805.803 466.632 806.4 466.376C807.019 466.099 807.328 465.64 807.328 465C807.328 464.531 807.147 464.168 806.784 463.912C806.421 463.656 805.877 463.528 805.152 463.528C804.213 463.528 803.509 463.72 803.04 464.104C802.592 464.488 802.325 465.085 802.24 465.896H797.376C797.461 464.189 798.165 462.792 799.488 461.704C800.811 460.616 802.773 460.072 805.376 460.072C807.68 460.072 809.408 460.605 810.56 461.672C811.712 462.717 812.288 464.456 812.288 466.888V473.224C812.288 473.693 812.331 474.024 812.416 474.216C812.501 474.387 812.661 474.472 812.896 474.472C813.045 474.472 813.184 474.461 813.312 474.44V476.872C812.288 477.064 811.349 477.16 810.496 477.16C809.515 477.16 808.789 476.989 808.32 476.648C807.851 476.285 807.552 475.741 807.424 475.016H807.36C806.763 475.784 805.995 476.392 805.056 476.84C804.117 477.288 803.083 477.512 801.952 477.512ZM801.984 472.168C801.984 472.787 802.165 473.245 802.528 473.544C802.891 473.843 803.413 473.992 804.096 473.992C805.077 473.992 805.856 473.64 806.432 472.936C807.029 472.232 807.328 471.379 807.328 470.376V469C806.837 469.192 805.909 469.448 804.544 469.768C803.627 469.981 802.965 470.291 802.56 470.696C802.176 471.08 801.984 471.571 801.984 472.168Z" fill="#0D0C50"/>
<path d="M768.736 283.312C767.104 283.312 765.704 282.936 764.536 282.184C763.368 281.416 762.48 280.368 761.872 279.04C761.28 277.696 760.984 276.16 760.984 274.432C760.984 272.736 761.312 271.216 761.968 269.872C762.624 268.512 763.552 267.448 764.752 266.68C765.968 265.912 767.368 265.528 768.952 265.528C770.952 265.528 772.552 266.008 773.752 266.968C774.952 267.928 775.704 269.248 776.008 270.928H774.208C773.952 269.696 773.36 268.744 772.432 268.072C771.504 267.4 770.344 267.064 768.952 267.064C767.592 267.064 766.448 267.416 765.52 268.12C764.608 268.824 763.928 269.736 763.48 270.856C763.032 271.976 762.808 273.168 762.808 274.432C762.808 275.728 763 276.928 763.384 278.032C763.784 279.136 764.424 280.04 765.304 280.744C766.184 281.432 767.328 281.776 768.736 281.776C769.84 281.776 770.832 281.528 771.712 281.032C772.592 280.52 773.28 279.808 773.776 278.896C774.288 277.984 774.544 276.936 774.544 275.752H768.856V274.192H776.296V283H775.096L774.568 279.952H774.52C773.32 282.192 771.392 283.312 768.736 283.312ZM780.484 283H778.924V270.76H780.484V273.256H780.532C780.868 272.408 781.324 271.736 781.9 271.24C782.492 270.728 783.196 270.472 784.012 270.472C784.428 270.472 784.78 270.496 785.068 270.544V272.08C784.828 272.032 784.58 272.008 784.324 272.008C783.604 272.008 782.948 272.192 782.356 272.56C781.78 272.912 781.324 273.408 780.988 274.048C780.652 274.672 780.484 275.376 780.484 276.16V283ZM789.573 283.312C788.357 283.312 787.381 283 786.645 282.376C785.925 281.752 785.565 280.928 785.565 279.904C785.565 279.056 785.757 278.368 786.141 277.84C786.525 277.312 787.077 276.904 787.797 276.616C788.517 276.328 789.453 276.08 790.605 275.872C791.517 275.712 792.165 275.584 792.549 275.488C792.949 275.376 793.277 275.2 793.533 274.96C793.789 274.72 793.917 274.368 793.917 273.904C793.917 273.248 793.685 272.736 793.221 272.368C792.773 272 792.077 271.816 791.133 271.816C789.981 271.816 789.149 272.024 788.637 272.44C788.141 272.856 787.861 273.528 787.797 274.456H786.141C786.205 273.272 786.645 272.312 787.461 271.576C788.277 270.824 789.517 270.448 791.181 270.448C792.429 270.448 793.445 270.76 794.229 271.384C795.029 271.992 795.429 272.976 795.429 274.336V280.456C795.429 280.968 795.477 281.336 795.573 281.56C795.669 281.784 795.853 281.896 796.125 281.896C796.253 281.896 796.365 281.888 796.461 281.872V283C796.109 283.064 795.837 283.096 795.645 283.096C795.101 283.096 794.685 282.96 794.397 282.688C794.125 282.4 793.965 281.888 793.917 281.152H793.869C793.453 281.856 792.877 282.392 792.141 282.76C791.421 283.128 790.565 283.312 789.573 283.312ZM787.197 279.76C787.197 281.216 788.053 281.944 789.765 281.944C791.029 281.944 792.037 281.632 792.789 281.008C793.541 280.368 793.917 279.504 793.917 278.416V276.136C793.757 276.36 793.405 276.552 792.861 276.712C792.333 276.872 791.645 277.024 790.797 277.168C789.533 277.392 788.613 277.696 788.037 278.08C787.477 278.448 787.197 279.008 787.197 279.76ZM804.278 283.288C803.27 283.288 802.43 283.08 801.758 282.664C801.086 282.232 800.55 281.656 800.15 280.936H800.102V287.248H798.542V270.76H800.102V272.728H800.15C800.566 272.056 801.11 271.512 801.782 271.096C802.454 270.664 803.286 270.448 804.278 270.448C805.286 270.448 806.198 270.712 807.014 271.24C807.83 271.752 808.478 272.496 808.958 273.472C809.438 274.432 809.678 275.568 809.678 276.88C809.678 278.176 809.438 279.312 808.958 280.288C808.478 281.248 807.83 281.992 807.014 282.52C806.198 283.032 805.286 283.288 804.278 283.288ZM800.102 276.88C800.102 277.888 800.27 278.776 800.606 279.544C800.942 280.296 801.414 280.88 802.022 281.296C802.63 281.712 803.326 281.92 804.11 281.92C804.926 281.92 805.63 281.696 806.222 281.248C806.83 280.8 807.286 280.192 807.59 279.424C807.894 278.656 808.046 277.808 808.046 276.88C808.046 275.44 807.694 274.24 806.99 273.28C806.302 272.304 805.342 271.816 804.11 271.816C803.326 271.816 802.63 272.024 802.022 272.44C801.414 272.856 800.942 273.448 800.606 274.216C800.27 274.984 800.102 275.872 800.102 276.88ZM820.157 274.744C820.157 273.88 819.933 273.184 819.485 272.656C819.037 272.112 818.317 271.84 817.325 271.84C816.573 271.84 815.901 272 815.309 272.32C814.733 272.64 814.277 273.064 813.941 273.592C813.621 274.104 813.461 274.664 813.461 275.272V283H811.901V265.84H813.461V272.512H813.509C813.909 271.92 814.453 271.432 815.141 271.048C815.845 270.664 816.701 270.472 817.709 270.472C818.877 270.472 819.837 270.808 820.589 271.48C821.341 272.136 821.717 273.112 821.717 274.408V283H820.157V274.744ZM824.51 270.76H826.07V283H824.51V270.76ZM824.27 266.296H826.286V268.312H824.27V266.296ZM834.124 283.312C832.972 283.312 831.948 283.048 831.052 282.52C830.172 281.976 829.484 281.216 828.988 280.24C828.508 279.264 828.268 278.144 828.268 276.88C828.268 275.616 828.508 274.504 828.988 273.544C829.484 272.568 830.172 271.816 831.052 271.288C831.948 270.744 832.972 270.472 834.124 270.472C835.1 270.472 835.964 270.672 836.716 271.072C837.484 271.472 838.092 272.024 838.54 272.728C839.004 273.416 839.284 274.192 839.38 275.056H837.748C837.716 274.544 837.564 274.048 837.292 273.568C837.036 273.072 836.644 272.664 836.116 272.344C835.588 272.008 834.924 271.84 834.124 271.84C833.18 271.84 832.388 272.08 831.748 272.56C831.108 273.024 830.636 273.64 830.332 274.408C830.044 275.176 829.9 276 829.9 276.88C829.9 277.776 830.044 278.608 830.332 279.376C830.636 280.144 831.108 280.768 831.748 281.248C832.388 281.728 833.18 281.968 834.124 281.968C835.292 281.968 836.172 281.632 836.764 280.96C837.356 280.288 837.684 279.512 837.748 278.632H839.38C839.332 279.512 839.076 280.312 838.612 281.032C838.148 281.736 837.524 282.296 836.74 282.712C835.972 283.112 835.1 283.312 834.124 283.312ZM851.457 283.312C850.465 283.312 849.553 283.056 848.721 282.544C847.905 282.016 847.257 281.272 846.777 280.312C846.313 279.336 846.081 278.192 846.081 276.88C846.081 275.584 846.313 274.456 846.777 273.496C847.257 272.52 847.905 271.776 848.721 271.264C849.553 270.736 850.465 270.472 851.457 270.472C852.465 270.472 853.305 270.688 853.977 271.12C854.649 271.536 855.185 272.104 855.585 272.824H855.633V265.84H857.193V283H855.633V281.008H855.585C855.185 281.68 854.641 282.232 853.953 282.664C853.281 283.096 852.449 283.312 851.457 283.312ZM847.713 276.88C847.713 278.32 848.057 279.528 848.745 280.504C849.449 281.464 850.417 281.944 851.649 281.944C852.433 281.944 853.121 281.736 853.713 281.32C854.321 280.904 854.793 280.32 855.129 279.568C855.465 278.8 855.633 277.904 855.633 276.88C855.633 275.872 855.465 274.992 855.129 274.24C854.793 273.472 854.321 272.88 853.713 272.464C853.121 272.048 852.433 271.84 851.649 271.84C850.833 271.84 850.121 272.064 849.513 272.512C848.921 272.96 848.473 273.568 848.169 274.336C847.865 275.104 847.713 275.952 847.713 276.88ZM865.272 283.336C864.056 283.336 863.008 283.064 862.128 282.52C861.248 281.96 860.576 281.192 860.112 280.216C859.664 279.24 859.44 278.128 859.44 276.88C859.44 275.584 859.68 274.456 860.16 273.496C860.64 272.52 861.32 271.768 862.2 271.24C863.08 270.712 864.104 270.448 865.272 270.448C866.424 270.448 867.416 270.704 868.248 271.216C869.08 271.712 869.712 272.408 870.144 273.304C870.576 274.184 870.792 275.192 870.792 276.328C870.792 276.776 870.784 277.064 870.768 277.192H861.072C861.088 278.056 861.248 278.856 861.552 279.592C861.872 280.312 862.344 280.896 862.968 281.344C863.608 281.776 864.384 281.992 865.296 281.992C866.416 281.992 867.28 281.704 867.888 281.128C868.496 280.552 868.88 279.928 869.04 279.256H870.624C870.304 280.472 869.696 281.456 868.8 282.208C867.904 282.96 866.728 283.336 865.272 283.336ZM869.136 275.824C869.136 275.088 868.976 274.416 868.656 273.808C868.352 273.184 867.904 272.696 867.312 272.344C866.72 271.976 866.016 271.792 865.2 271.792C864.032 271.792 863.064 272.176 862.296 272.944C861.544 273.712 861.136 274.672 861.072 275.824H869.136ZM877.491 283.312C875.827 283.312 874.523 282.912 873.579 282.112C872.635 281.296 872.147 280.256 872.115 278.992H873.747C873.795 279.888 874.131 280.608 874.755 281.152C875.379 281.68 876.299 281.944 877.515 281.944C878.603 281.944 879.395 281.736 879.891 281.32C880.387 280.888 880.635 280.336 880.635 279.664C880.635 279.168 880.499 278.776 880.227 278.488C879.971 278.184 879.643 277.96 879.243 277.816C878.843 277.672 878.315 277.528 877.659 277.384C877.563 277.368 877.379 277.328 877.107 277.264C876.083 277.008 875.275 276.768 874.683 276.544C874.091 276.32 873.587 275.984 873.171 275.536C872.771 275.088 872.571 274.496 872.571 273.76C872.571 272.752 872.955 271.952 873.723 271.36C874.491 270.768 875.555 270.472 876.915 270.472C878.419 270.472 879.579 270.824 880.395 271.528C881.227 272.216 881.699 273.104 881.811 274.192H880.179C879.859 272.624 878.779 271.84 876.939 271.84C876.059 271.84 875.379 272 874.899 272.32C874.435 272.64 874.203 273.088 874.203 273.664C874.203 274.096 874.331 274.44 874.587 274.696C874.843 274.952 875.163 275.152 875.547 275.296C875.947 275.44 876.483 275.584 877.155 275.728L877.707 275.872C878.683 276.112 879.483 276.36 880.107 276.616C880.731 276.856 881.251 277.216 881.667 277.696C882.083 278.176 882.291 278.816 882.291 279.616C882.291 280.736 881.867 281.632 881.019 282.304C880.171 282.976 878.995 283.312 877.491 283.312ZM884.299 270.76H885.859V283H884.299V270.76ZM884.059 266.296H886.075V268.312H884.059V266.296ZM893.721 287.392C892.121 287.392 890.865 287.048 889.953 286.36C889.057 285.672 888.561 284.768 888.465 283.648H890.097C890.225 284.352 890.585 284.92 891.177 285.352C891.769 285.8 892.625 286.024 893.745 286.024C896.369 286.024 897.681 284.832 897.681 282.448V280.168H897.633C897.249 280.856 896.705 281.408 896.001 281.824C895.313 282.224 894.481 282.424 893.505 282.424C892.497 282.424 891.585 282.2 890.769 281.752C889.969 281.304 889.329 280.632 888.849 279.736C888.369 278.84 888.129 277.736 888.129 276.424C888.129 275.128 888.369 274.032 888.849 273.136C889.329 272.24 889.969 271.576 890.769 271.144C891.585 270.696 892.497 270.472 893.505 270.472C894.481 270.472 895.313 270.68 896.001 271.096C896.705 271.496 897.249 272.024 897.633 272.68H897.681V270.76H899.241V282.232C899.241 283.928 898.753 285.208 897.777 286.072C896.801 286.952 895.449 287.392 893.721 287.392ZM889.761 276.424C889.761 277.848 890.105 278.976 890.793 279.808C891.497 280.64 892.473 281.056 893.721 281.056C894.905 281.056 895.857 280.664 896.577 279.88C897.313 279.096 897.681 277.944 897.681 276.424C897.681 274.936 897.313 273.8 896.577 273.016C895.857 272.232 894.905 271.84 893.721 271.84C892.473 271.84 891.497 272.256 890.793 273.088C890.105 273.92 889.761 275.032 889.761 276.424ZM910.344 274.744C910.344 273.88 910.12 273.184 909.672 272.656C909.224 272.112 908.504 271.84 907.512 271.84C906.76 271.84 906.088 272 905.496 272.32C904.92 272.64 904.464 273.064 904.128 273.592C903.808 274.104 903.648 274.664 903.648 275.272V283H902.088V270.76H903.648V272.512H903.696C904.096 271.92 904.64 271.432 905.328 271.048C906.032 270.664 906.888 270.472 907.896 270.472C909.064 270.472 910.024 270.808 910.776 271.48C911.528 272.136 911.904 273.112 911.904 274.408V283H910.344V274.744ZM919.882 283.336C918.666 283.336 917.618 283.064 916.738 282.52C915.858 281.96 915.186 281.192 914.722 280.216C914.274 279.24 914.05 278.128 914.05 276.88C914.05 275.584 914.29 274.456 914.77 273.496C915.25 272.52 915.93 271.768 916.81 271.24C917.69 270.712 918.714 270.448 919.882 270.448C921.034 270.448 922.026 270.704 922.858 271.216C923.69 271.712 924.322 272.408 924.754 273.304C925.186 274.184 925.402 275.192 925.402 276.328C925.402 276.776 925.394 277.064 925.378 277.192H915.682C915.698 278.056 915.858 278.856 916.162 279.592C916.482 280.312 916.954 280.896 917.578 281.344C918.218 281.776 918.994 281.992 919.906 281.992C921.026 281.992 921.89 281.704 922.498 281.128C923.106 280.552 923.49 279.928 923.65 279.256H925.234C924.914 280.472 924.306 281.456 923.41 282.208C922.514 282.96 921.338 283.336 919.882 283.336ZM923.746 275.824C923.746 275.088 923.586 274.416 923.266 273.808C922.962 273.184 922.514 272.696 921.922 272.344C921.33 271.976 920.626 271.792 919.81 271.792C918.642 271.792 917.674 272.176 916.906 272.944C916.154 273.712 915.746 274.672 915.682 275.824H923.746ZM929.148 283H927.588V270.76H929.148V273.256H929.196C929.532 272.408 929.988 271.736 930.564 271.24C931.156 270.728 931.86 270.472 932.676 270.472C933.092 270.472 933.444 270.496 933.732 270.544V272.08C933.492 272.032 933.244 272.008 932.988 272.008C932.268 272.008 931.612 272.192 931.02 272.56C930.444 272.912 929.988 273.408 929.652 274.048C929.316 274.672 929.148 275.376 929.148 276.16V283ZM933.489 284.872C933.873 284.728 934.137 284.52 934.281 284.248C934.425 283.992 934.489 283.576 934.473 283H933.489V280.984H935.505V283C935.505 283.736 935.361 284.344 935.073 284.824C934.785 285.304 934.257 285.664 933.489 285.904V284.872ZM764.8 317.312C763.584 317.312 762.608 317 761.872 316.376C761.152 315.752 760.792 314.928 760.792 313.904C760.792 313.056 760.984 312.368 761.368 311.84C761.752 311.312 762.304 310.904 763.024 310.616C763.744 310.328 764.68 310.08 765.832 309.872C766.744 309.712 767.392 309.584 767.776 309.488C768.176 309.376 768.504 309.2 768.76 308.96C769.016 308.72 769.144 308.368 769.144 307.904C769.144 307.248 768.912 306.736 768.448 306.368C768 306 767.304 305.816 766.36 305.816C765.208 305.816 764.376 306.024 763.864 306.44C763.368 306.856 763.088 307.528 763.024 308.456H761.368C761.432 307.272 761.872 306.312 762.688 305.576C763.504 304.824 764.744 304.448 766.408 304.448C767.656 304.448 768.672 304.76 769.456 305.384C770.256 305.992 770.656 306.976 770.656 308.336V314.456C770.656 314.968 770.704 315.336 770.8 315.56C770.896 315.784 771.08 315.896 771.352 315.896C771.48 315.896 771.592 315.888 771.688 315.872V317C771.336 317.064 771.064 317.096 770.872 317.096C770.328 317.096 769.912 316.96 769.624 316.688C769.352 316.4 769.192 315.888 769.144 315.152H769.096C768.68 315.856 768.104 316.392 767.368 316.76C766.648 317.128 765.792 317.312 764.8 317.312ZM762.424 313.76C762.424 315.216 763.28 315.944 764.992 315.944C766.256 315.944 767.264 315.632 768.016 315.008C768.768 314.368 769.144 313.504 769.144 312.416V310.136C768.984 310.36 768.632 310.552 768.088 310.712C767.56 310.872 766.872 311.024 766.024 311.168C764.76 311.392 763.84 311.696 763.264 312.08C762.704 312.448 762.424 313.008 762.424 313.76ZM778.835 317.312C777.683 317.312 776.659 317.048 775.763 316.52C774.883 315.976 774.195 315.216 773.699 314.24C773.219 313.264 772.979 312.144 772.979 310.88C772.979 309.616 773.219 308.504 773.699 307.544C774.195 306.568 774.883 305.816 775.763 305.288C776.659 304.744 777.683 304.472 778.835 304.472C779.811 304.472 780.675 304.672 781.427 305.072C782.195 305.472 782.803 306.024 783.251 306.728C783.715 307.416 783.995 308.192 784.091 309.056H782.459C782.427 308.544 782.275 308.048 782.003 307.568C781.747 307.072 781.355 306.664 780.827 306.344C780.299 306.008 779.635 305.84 778.835 305.84C777.891 305.84 777.099 306.08 776.459 306.56C775.819 307.024 775.347 307.64 775.043 308.408C774.755 309.176 774.611 310 774.611 310.88C774.611 311.776 774.755 312.608 775.043 313.376C775.347 314.144 775.819 314.768 776.459 315.248C777.099 315.728 777.891 315.968 778.835 315.968C780.003 315.968 780.883 315.632 781.475 314.96C782.067 314.288 782.395 313.512 782.459 312.632H784.091C784.043 313.512 783.787 314.312 783.323 315.032C782.859 315.736 782.235 316.296 781.451 316.712C780.683 317.112 779.811 317.312 778.835 317.312ZM789.672 317.096C788.696 317.096 787.968 316.864 787.488 316.4C787.024 315.936 786.792 315.08 786.792 313.832V306.128H784.992V304.76H786.792V300.68H788.352V304.76H790.824V306.128H788.352V313.856C788.352 314.608 788.456 315.112 788.664 315.368C788.872 315.608 789.28 315.728 789.888 315.728C790.032 315.728 790.344 315.712 790.824 315.68V317C790.392 317.064 790.008 317.096 789.672 317.096ZM792.846 304.76H794.406V317H792.846V304.76ZM792.606 300.296H794.622V302.312H792.606V300.296ZM796.076 304.76H797.804L801.476 315.416H801.5L805.148 304.76H806.828L802.34 317H800.564L796.076 304.76ZM808.503 304.76H810.062V317H808.503V304.76ZM808.263 300.296H810.279V302.312H808.263V300.296ZM817.444 317.312C815.78 317.312 814.476 316.912 813.532 316.112C812.588 315.296 812.1 314.256 812.068 312.992H813.7C813.748 313.888 814.084 314.608 814.708 315.152C815.332 315.68 816.252 315.944 817.468 315.944C818.556 315.944 819.348 315.736 819.844 315.32C820.34 314.888 820.588 314.336 820.588 313.664C820.588 313.168 820.452 312.776 820.18 312.488C819.924 312.184 819.596 311.96 819.196 311.816C818.796 311.672 818.268 311.528 817.612 311.384C817.516 311.368 817.332 311.328 817.06 311.264C816.036 311.008 815.228 310.768 814.636 310.544C814.044 310.32 813.54 309.984 813.124 309.536C812.724 309.088 812.524 308.496 812.524 307.76C812.524 306.752 812.908 305.952 813.676 305.36C814.444 304.768 815.508 304.472 816.868 304.472C818.372 304.472 819.532 304.824 820.348 305.528C821.18 306.216 821.652 307.104 821.764 308.192H820.132C819.812 306.624 818.732 305.84 816.892 305.84C816.012 305.84 815.332 306 814.852 306.32C814.388 306.64 814.156 307.088 814.156 307.664C814.156 308.096 814.284 308.44 814.54 308.696C814.796 308.952 815.116 309.152 815.5 309.296C815.9 309.44 816.436 309.584 817.108 309.728L817.66 309.872C818.636 310.112 819.436 310.36 820.06 310.616C820.684 310.856 821.204 311.216 821.62 311.696C822.036 312.176 822.244 312.816 822.244 313.616C822.244 314.736 821.82 315.632 820.972 316.304C820.124 316.976 818.948 317.312 817.444 317.312ZM827.687 317.096C826.711 317.096 825.983 316.864 825.503 316.4C825.039 315.936 824.807 315.08 824.807 313.832V306.128H823.007V304.76H824.807V300.68H826.367V304.76H828.839V306.128H826.367V313.856C826.367 314.608 826.471 315.112 826.679 315.368C826.887 315.608 827.295 315.728 827.903 315.728C828.047 315.728 828.359 315.712 828.839 315.68V317C828.407 317.064 828.023 317.096 827.687 317.096Z" fill="#0D0C50"/>
<path d="M768.832 512.312C767.296 512.312 765.928 511.936 764.728 511.184C763.544 510.432 762.616 509.384 761.944 508.04C761.288 506.68 760.96 505.144 760.96 503.432C760.96 501.72 761.288 500.192 761.944 498.848C762.616 497.488 763.544 496.432 764.728 495.68C765.928 494.912 767.304 494.528 768.856 494.528C770.152 494.528 771.304 494.784 772.312 495.296C773.336 495.808 774.152 496.504 774.76 497.384C775.384 498.248 775.768 499.224 775.912 500.312H774.088C773.88 499.16 773.352 498.168 772.504 497.336C771.656 496.488 770.432 496.064 768.832 496.064C767.504 496.064 766.384 496.4 765.472 497.072C764.576 497.744 763.904 498.64 763.456 499.76C763.008 500.88 762.784 502.104 762.784 503.432C762.784 504.76 763.008 505.984 763.456 507.104C763.904 508.208 764.584 509.096 765.496 509.768C766.408 510.44 767.52 510.776 768.832 510.776C769.984 510.776 770.944 510.544 771.712 510.08C772.48 509.616 773.064 509.016 773.464 508.28C773.864 507.544 774.096 506.752 774.16 505.904H775.984C775.84 507.152 775.456 508.264 774.832 509.24C774.224 510.2 773.4 510.952 772.36 511.496C771.336 512.04 770.16 512.312 768.832 512.312ZM778.174 494.84H779.734V512H778.174V494.84ZM782.604 499.76H784.164V512H782.604V499.76ZM782.364 495.296H784.38V497.312H782.364V495.296ZM794.426 503.744C794.426 502.848 794.258 502.144 793.922 501.632C793.586 501.104 792.954 500.84 792.026 500.84C791.338 500.84 790.73 501 790.202 501.32C789.69 501.64 789.29 502.064 789.002 502.592C788.73 503.104 788.594 503.664 788.594 504.272V512H787.034V499.76H788.594V501.488H788.642C789.026 500.912 789.522 500.432 790.13 500.048C790.738 499.664 791.482 499.472 792.362 499.472C794.09 499.472 795.186 500.224 795.65 501.728H795.698C796.13 501.056 796.682 500.512 797.354 500.096C798.042 499.68 798.842 499.472 799.754 499.472C800.922 499.472 801.81 499.808 802.418 500.48C803.042 501.152 803.354 502.128 803.354 503.408V512H801.794V503.744C801.794 502.848 801.626 502.144 801.29 501.632C800.97 501.104 800.346 500.84 799.418 500.84C798.73 500.84 798.122 501 797.594 501.32C797.082 501.64 796.682 502.064 796.394 502.592C796.122 503.104 795.986 503.664 795.986 504.272V512H794.426V503.744ZM809.495 512.312C808.279 512.312 807.303 512 806.567 511.376C805.847 510.752 805.487 509.928 805.487 508.904C805.487 508.056 805.679 507.368 806.063 506.84C806.447 506.312 806.999 505.904 807.719 505.616C808.439 505.328 809.375 505.08 810.527 504.872C811.439 504.712 812.087 504.584 812.471 504.488C812.871 504.376 813.199 504.2 813.455 503.96C813.711 503.72 813.839 503.368 813.839 502.904C813.839 502.248 813.607 501.736 813.143 501.368C812.695 501 811.999 500.816 811.055 500.816C809.903 500.816 809.071 501.024 808.559 501.44C808.063 501.856 807.783 502.528 807.719 503.456H806.063C806.127 502.272 806.567 501.312 807.383 500.576C808.199 499.824 809.439 499.448 811.103 499.448C812.351 499.448 813.367 499.76 814.151 500.384C814.951 500.992 815.351 501.976 815.351 503.336V509.456C815.351 509.968 815.399 510.336 815.495 510.56C815.591 510.784 815.775 510.896 816.047 510.896C816.175 510.896 816.287 510.888 816.383 510.872V512C816.031 512.064 815.759 512.096 815.567 512.096C815.023 512.096 814.607 511.96 814.319 511.688C814.047 511.4 813.887 510.888 813.839 510.152H813.791C813.375 510.856 812.799 511.392 812.063 511.76C811.343 512.128 810.487 512.312 809.495 512.312ZM807.119 508.76C807.119 510.216 807.975 510.944 809.687 510.944C810.951 510.944 811.959 510.632 812.711 510.008C813.463 509.368 813.839 508.504 813.839 507.416V505.136C813.679 505.36 813.327 505.552 812.783 505.712C812.255 505.872 811.567 506.024 810.719 506.168C809.455 506.392 808.535 506.696 807.959 507.08C807.399 507.448 807.119 508.008 807.119 508.76ZM821.805 512.096C820.829 512.096 820.101 511.864 819.621 511.4C819.157 510.936 818.925 510.08 818.925 508.832V501.128H817.125V499.76H818.925V495.68H820.485V499.76H822.957V501.128H820.485V508.856C820.485 509.608 820.589 510.112 820.797 510.368C821.005 510.608 821.413 510.728 822.021 510.728C822.165 510.728 822.477 510.712 822.957 510.68V512C822.525 512.064 822.141 512.096 821.805 512.096ZM829.882 512.336C828.666 512.336 827.618 512.064 826.738 511.52C825.858 510.96 825.186 510.192 824.722 509.216C824.274 508.24 824.05 507.128 824.05 505.88C824.05 504.584 824.29 503.456 824.77 502.496C825.25 501.52 825.93 500.768 826.81 500.24C827.69 499.712 828.714 499.448 829.882 499.448C831.034 499.448 832.026 499.704 832.858 500.216C833.69 500.712 834.322 501.408 834.754 502.304C835.186 503.184 835.402 504.192 835.402 505.328C835.402 505.776 835.394 506.064 835.378 506.192H825.682C825.698 507.056 825.858 507.856 826.162 508.592C826.482 509.312 826.954 509.896 827.578 510.344C828.218 510.776 828.994 510.992 829.906 510.992C831.026 510.992 831.89 510.704 832.498 510.128C833.106 509.552 833.49 508.928 833.65 508.256H835.234C834.914 509.472 834.306 510.456 833.41 511.208C832.514 511.96 831.338 512.336 829.882 512.336ZM833.746 504.824C833.746 504.088 833.586 503.416 833.266 502.808C832.962 502.184 832.514 501.696 831.922 501.344C831.33 500.976 830.626 500.792 829.81 500.792C828.642 500.792 827.674 501.176 826.906 501.944C826.154 502.712 825.746 503.672 825.682 504.824H833.746ZM847.278 512.312C846.238 512.312 845.326 512.12 844.542 511.736C843.774 511.336 843.182 510.792 842.766 510.104C842.366 509.416 842.166 508.64 842.166 507.776C842.166 506.56 842.526 505.56 843.246 504.776C843.982 503.992 844.982 503.248 846.246 502.544C845.542 501.664 845.022 500.912 844.686 500.288C844.35 499.664 844.182 498.992 844.182 498.272C844.182 497.632 844.326 497.024 844.614 496.448C844.902 495.872 845.334 495.408 845.91 495.056C846.502 494.704 847.214 494.528 848.046 494.528C848.846 494.528 849.534 494.704 850.11 495.056C850.702 495.392 851.15 495.848 851.454 496.424C851.758 496.984 851.91 497.608 851.91 498.296C851.91 499.24 851.622 500.04 851.046 500.696C850.47 501.336 849.566 502.032 848.334 502.784L852.102 507.512C852.63 506.472 852.982 505.256 853.158 503.864H854.742C854.518 505.736 853.99 507.384 853.158 508.808L855.702 512H853.83L852.27 510.056C850.958 511.56 849.294 512.312 847.278 512.312ZM843.75 507.656C843.75 508.584 844.07 509.336 844.71 509.912C845.35 510.488 846.214 510.776 847.302 510.776C848.934 510.776 850.262 510.128 851.286 508.832L847.062 503.552C845.974 504.192 845.15 504.816 844.59 505.424C844.03 506.016 843.75 506.76 843.75 507.656ZM845.766 498.272C845.766 498.816 845.918 499.368 846.222 499.928C846.526 500.472 846.966 501.096 847.542 501.8C848.486 501.256 849.182 500.728 849.63 500.216C850.094 499.704 850.326 499.096 850.326 498.392C850.326 497.688 850.118 497.112 849.702 496.664C849.302 496.216 848.75 495.992 848.046 495.992C847.326 495.992 846.766 496.216 846.366 496.664C845.966 497.112 845.766 497.648 845.766 498.272ZM866.733 512.312C865.069 512.312 863.765 511.912 862.821 511.112C861.877 510.296 861.389 509.256 861.357 507.992H862.989C863.037 508.888 863.373 509.608 863.997 510.152C864.621 510.68 865.541 510.944 866.757 510.944C867.845 510.944 868.637 510.736 869.133 510.32C869.629 509.888 869.877 509.336 869.877 508.664C869.877 508.168 869.741 507.776 869.469 507.488C869.213 507.184 868.885 506.96 868.485 506.816C868.085 506.672 867.557 506.528 866.901 506.384C866.805 506.368 866.621 506.328 866.349 506.264C865.325 506.008 864.517 505.768 863.925 505.544C863.333 505.32 862.829 504.984 862.413 504.536C862.013 504.088 861.813 503.496 861.813 502.76C861.813 501.752 862.197 500.952 862.965 500.36C863.733 499.768 864.797 499.472 866.157 499.472C867.661 499.472 868.821 499.824 869.637 500.528C870.469 501.216 870.941 502.104 871.053 503.192H869.421C869.101 501.624 868.021 500.84 866.181 500.84C865.301 500.84 864.621 501 864.141 501.32C863.677 501.64 863.445 502.088 863.445 502.664C863.445 503.096 863.573 503.44 863.829 503.696C864.085 503.952 864.405 504.152 864.789 504.296C865.189 504.44 865.725 504.584 866.397 504.728L866.949 504.872C867.925 505.112 868.725 505.36 869.349 505.616C869.973 505.856 870.493 506.216 870.909 506.696C871.325 507.176 871.533 507.816 871.533 508.616C871.533 509.736 871.109 510.632 870.261 511.304C869.413 511.976 868.237 512.312 866.733 512.312ZM877.454 512.288C876.286 512.288 875.326 511.96 874.574 511.304C873.822 510.632 873.446 509.648 873.446 508.352V499.76H875.006V508.016C875.006 508.88 875.23 509.584 875.678 510.128C876.126 510.656 876.846 510.92 877.838 510.92C878.59 510.92 879.254 510.76 879.83 510.44C880.422 510.12 880.878 509.704 881.198 509.192C881.534 508.664 881.702 508.096 881.702 507.488V499.76H883.262V512H881.702V510.272H881.654C881.254 510.848 880.702 511.328 879.998 511.712C879.31 512.096 878.462 512.288 877.454 512.288ZM890.663 512.312C888.999 512.312 887.695 511.912 886.751 511.112C885.807 510.296 885.319 509.256 885.287 507.992H886.919C886.967 508.888 887.303 509.608 887.927 510.152C888.551 510.68 889.471 510.944 890.687 510.944C891.775 510.944 892.567 510.736 893.063 510.32C893.559 509.888 893.807 509.336 893.807 508.664C893.807 508.168 893.671 507.776 893.399 507.488C893.143 507.184 892.815 506.96 892.415 506.816C892.015 506.672 891.487 506.528 890.831 506.384C890.735 506.368 890.551 506.328 890.279 506.264C889.255 506.008 888.447 505.768 887.855 505.544C887.263 505.32 886.759 504.984 886.343 504.536C885.943 504.088 885.743 503.496 885.743 502.76C885.743 501.752 886.127 500.952 886.895 500.36C887.663 499.768 888.727 499.472 890.087 499.472C891.591 499.472 892.751 499.824 893.567 500.528C894.399 501.216 894.871 502.104 894.983 503.192H893.351C893.031 501.624 891.951 500.84 890.111 500.84C889.231 500.84 888.551 501 888.071 501.32C887.607 501.64 887.375 502.088 887.375 502.664C887.375 503.096 887.503 503.44 887.759 503.696C888.015 503.952 888.335 504.152 888.719 504.296C889.119 504.44 889.655 504.584 890.327 504.728L890.879 504.872C891.855 505.112 892.655 505.36 893.279 505.616C893.903 505.856 894.423 506.216 894.839 506.696C895.255 507.176 895.463 507.816 895.463 508.616C895.463 509.736 895.039 510.632 894.191 511.304C893.343 511.976 892.167 512.312 890.663 512.312ZM900.906 512.096C899.93 512.096 899.202 511.864 898.722 511.4C898.258 510.936 898.026 510.08 898.026 508.832V501.128H896.226V499.76H898.026V495.68H899.586V499.76H902.058V501.128H899.586V508.856C899.586 509.608 899.69 510.112 899.898 510.368C900.106 510.608 900.514 510.728 901.122 510.728C901.266 510.728 901.578 510.712 902.058 510.68V512C901.626 512.064 901.242 512.096 900.906 512.096ZM907.441 512.312C906.225 512.312 905.249 512 904.513 511.376C903.793 510.752 903.433 509.928 903.433 508.904C903.433 508.056 903.625 507.368 904.009 506.84C904.393 506.312 904.945 505.904 905.665 505.616C906.385 505.328 907.321 505.08 908.473 504.872C909.385 504.712 910.033 504.584 910.417 504.488C910.817 504.376 911.145 504.2 911.401 503.96C911.657 503.72 911.785 503.368 911.785 502.904C911.785 502.248 911.553 501.736 911.089 501.368C910.641 501 909.945 500.816 909.001 500.816C907.849 500.816 907.017 501.024 906.505 501.44C906.009 501.856 905.729 502.528 905.665 503.456H904.009C904.073 502.272 904.513 501.312 905.329 500.576C906.145 499.824 907.385 499.448 909.049 499.448C910.297 499.448 911.313 499.76 912.097 500.384C912.897 500.992 913.297 501.976 913.297 503.336V509.456C913.297 509.968 913.345 510.336 913.441 510.56C913.537 510.784 913.721 510.896 913.993 510.896C914.121 510.896 914.233 510.888 914.329 510.872V512C913.977 512.064 913.705 512.096 913.513 512.096C912.969 512.096 912.553 511.96 912.265 511.688C911.993 511.4 911.833 510.888 911.785 510.152H911.737C911.321 510.856 910.745 511.392 910.009 511.76C909.289 512.128 908.433 512.312 907.441 512.312ZM905.065 508.76C905.065 510.216 905.921 510.944 907.633 510.944C908.897 510.944 909.905 510.632 910.657 510.008C911.409 509.368 911.785 508.504 911.785 507.416V505.136C911.625 505.36 911.273 505.552 910.729 505.712C910.201 505.872 909.513 506.024 908.665 506.168C907.401 506.392 906.481 506.696 905.905 507.08C905.345 507.448 905.065 508.008 905.065 508.76ZM916.409 499.76H917.969V512H916.409V499.76ZM916.169 495.296H918.185V497.312H916.169V495.296ZM929.094 503.744C929.094 502.88 928.87 502.184 928.422 501.656C927.974 501.112 927.254 500.84 926.262 500.84C925.51 500.84 924.838 501 924.246 501.32C923.67 501.64 923.214 502.064 922.878 502.592C922.558 503.104 922.398 503.664 922.398 504.272V512H920.838V499.76H922.398V501.512H922.446C922.846 500.92 923.39 500.432 924.078 500.048C924.782 499.664 925.638 499.472 926.646 499.472C927.814 499.472 928.774 499.808 929.526 500.48C930.278 501.136 930.654 502.112 930.654 503.408V512H929.094V503.744ZM936.808 512.312C935.592 512.312 934.616 512 933.88 511.376C933.16 510.752 932.8 509.928 932.8 508.904C932.8 508.056 932.992 507.368 933.376 506.84C933.76 506.312 934.312 505.904 935.032 505.616C935.752 505.328 936.688 505.08 937.84 504.872C938.752 504.712 939.4 504.584 939.784 504.488C940.184 504.376 940.512 504.2 940.768 503.96C941.024 503.72 941.152 503.368 941.152 502.904C941.152 502.248 940.92 501.736 940.456 501.368C940.008 501 939.312 500.816 938.368 500.816C937.216 500.816 936.384 501.024 935.872 501.44C935.376 501.856 935.096 502.528 935.032 503.456H933.376C933.44 502.272 933.88 501.312 934.696 500.576C935.512 499.824 936.752 499.448 938.416 499.448C939.664 499.448 940.68 499.76 941.464 500.384C942.264 500.992 942.664 501.976 942.664 503.336V509.456C942.664 509.968 942.712 510.336 942.808 510.56C942.904 510.784 943.088 510.896 943.36 510.896C943.488 510.896 943.6 510.888 943.696 510.872V512C943.344 512.064 943.072 512.096 942.88 512.096C942.336 512.096 941.92 511.96 941.632 511.688C941.36 511.4 941.2 510.888 941.152 510.152H941.104C940.688 510.856 940.112 511.392 939.376 511.76C938.656 512.128 937.8 512.312 936.808 512.312ZM934.432 508.76C934.432 510.216 935.288 510.944 937 510.944C938.264 510.944 939.272 510.632 940.024 510.008C940.776 509.368 941.152 508.504 941.152 507.416V505.136C940.992 505.36 940.64 505.552 940.096 505.712C939.568 505.872 938.88 506.024 938.032 506.168C936.768 506.392 935.848 506.696 935.272 507.08C934.712 507.448 934.432 508.008 934.432 508.76ZM951.512 512.288C949.624 512.288 948.248 511.496 947.384 509.912H947.336V512H945.776V494.84H947.336V501.728H947.384C947.8 501.056 948.344 500.512 949.016 500.096C949.688 499.664 950.52 499.448 951.512 499.448C952.52 499.448 953.432 499.712 954.248 500.24C955.064 500.752 955.712 501.496 956.192 502.472C956.672 503.432 956.912 504.568 956.912 505.88C956.912 507.176 956.672 508.312 956.192 509.288C955.712 510.248 955.064 510.992 954.248 511.52C953.432 512.032 952.52 512.288 951.512 512.288ZM947.336 505.88C947.336 506.888 947.504 507.776 947.84 508.544C948.176 509.296 948.648 509.88 949.256 510.296C949.864 510.712 950.56 510.92 951.344 510.92C952.16 510.92 952.864 510.696 953.456 510.248C954.064 509.8 954.52 509.192 954.824 508.424C955.128 507.656 955.28 506.808 955.28 505.88C955.28 504.952 955.128 504.104 954.824 503.336C954.52 502.552 954.064 501.936 953.456 501.488C952.864 501.024 952.16 500.792 951.344 500.792C950.56 500.792 949.864 501 949.256 501.416C948.648 501.832 948.176 502.424 947.84 503.192C947.504 503.96 947.336 504.856 947.336 505.88ZM959.135 499.76H960.695V512H959.135V499.76ZM958.895 495.296H960.911V497.312H958.895V495.296ZM963.565 494.84H965.125V512H963.565V494.84ZM967.995 499.76H969.555V512H967.995V499.76ZM967.755 495.296H969.771V497.312H967.755V495.296ZM975.976 512.096C975 512.096 974.272 511.864 973.792 511.4C973.328 510.936 973.096 510.08 973.096 508.832V501.128H971.296V499.76H973.096V495.68H974.656V499.76H977.128V501.128H974.656V508.856C974.656 509.608 974.76 510.112 974.968 510.368C975.176 510.608 975.584 510.728 976.192 510.728C976.336 510.728 976.648 510.712 977.128 510.68V512C976.696 512.064 976.312 512.096 975.976 512.096ZM980.231 516.296C979.895 516.296 979.503 516.264 979.055 516.2V514.856C979.423 514.904 979.735 514.928 979.991 514.928C980.599 514.928 981.127 514.696 981.575 514.232C982.039 513.768 982.431 513 982.751 511.928L977.807 499.76H979.535L983.519 509.96H983.567L987.359 499.76H989.039L984.143 512.36C983.567 513.848 982.983 514.872 982.391 515.432C981.799 516.008 981.079 516.296 980.231 516.296ZM766.624 546.312C765.472 546.312 764.448 546.048 763.552 545.52C762.672 544.976 761.984 544.216 761.488 543.24C761.008 542.264 760.768 541.144 760.768 539.88C760.768 538.616 761.008 537.504 761.488 536.544C761.984 535.568 762.672 534.816 763.552 534.288C764.448 533.744 765.472 533.472 766.624 533.472C767.6 533.472 768.464 533.672 769.216 534.072C769.984 534.472 770.592 535.024 771.04 535.728C771.504 536.416 771.784 537.192 771.88 538.056H770.248C770.216 537.544 770.064 537.048 769.792 536.568C769.536 536.072 769.144 535.664 768.616 535.344C768.088 535.008 767.424 534.84 766.624 534.84C765.68 534.84 764.888 535.08 764.248 535.56C763.608 536.024 763.136 536.64 762.832 537.408C762.544 538.176 762.4 539 762.4 539.88C762.4 540.776 762.544 541.608 762.832 542.376C763.136 543.144 763.608 543.768 764.248 544.248C764.888 544.728 765.68 544.968 766.624 544.968C767.792 544.968 768.672 544.632 769.264 543.96C769.856 543.288 770.184 542.512 770.248 541.632H771.88C771.832 542.512 771.576 543.312 771.112 544.032C770.648 544.736 770.024 545.296 769.24 545.712C768.472 546.112 767.6 546.312 766.624 546.312ZM779.187 546.336C777.987 546.336 776.939 546.064 776.043 545.52C775.163 544.976 774.483 544.224 774.003 543.264C773.539 542.288 773.307 541.168 773.307 539.904C773.307 538.64 773.539 537.52 774.003 536.544C774.483 535.568 775.163 534.808 776.043 534.264C776.939 533.72 777.987 533.448 779.187 533.448C780.387 533.448 781.427 533.72 782.307 534.264C783.203 534.808 783.883 535.568 784.347 536.544C784.827 537.52 785.067 538.64 785.067 539.904C785.067 541.168 784.827 542.288 784.347 543.264C783.883 544.224 783.203 544.976 782.307 545.52C781.427 546.064 780.387 546.336 779.187 546.336ZM774.939 539.904C774.939 541.376 775.299 542.592 776.019 543.552C776.755 544.496 777.811 544.968 779.187 544.968C780.563 544.968 781.611 544.496 782.331 543.552C783.067 542.592 783.435 541.376 783.435 539.904C783.435 538.416 783.067 537.2 782.331 536.256C781.611 535.296 780.563 534.816 779.187 534.816C777.811 534.816 776.755 535.296 776.019 536.256C775.299 537.2 774.939 538.416 774.939 539.904ZM795.524 537.744C795.524 536.88 795.3 536.184 794.852 535.656C794.404 535.112 793.684 534.84 792.692 534.84C791.94 534.84 791.268 535 790.676 535.32C790.1 535.64 789.644 536.064 789.308 536.592C788.988 537.104 788.828 537.664 788.828 538.272V546H787.268V533.76H788.828V535.512H788.876C789.276 534.92 789.82 534.432 790.508 534.048C791.212 533.664 792.068 533.472 793.076 533.472C794.244 533.472 795.204 533.808 795.956 534.48C796.708 535.136 797.084 536.112 797.084 537.408V546H795.524V537.744ZM804.39 546.312C802.726 546.312 801.422 545.912 800.478 545.112C799.534 544.296 799.046 543.256 799.014 541.992H800.646C800.694 542.888 801.03 543.608 801.654 544.152C802.278 544.68 803.198 544.944 804.414 544.944C805.502 544.944 806.294 544.736 806.79 544.32C807.286 543.888 807.534 543.336 807.534 542.664C807.534 542.168 807.398 541.776 807.126 541.488C806.87 541.184 806.542 540.96 806.142 540.816C805.742 540.672 805.214 540.528 804.558 540.384C804.462 540.368 804.278 540.328 804.006 540.264C802.982 540.008 802.174 539.768 801.582 539.544C800.99 539.32 800.486 538.984 800.07 538.536C799.67 538.088 799.47 537.496 799.47 536.76C799.47 535.752 799.854 534.952 800.622 534.36C801.39 533.768 802.454 533.472 803.814 533.472C805.318 533.472 806.478 533.824 807.294 534.528C808.126 535.216 808.598 536.104 808.71 537.192H807.078C806.758 535.624 805.678 534.84 803.838 534.84C802.958 534.84 802.278 535 801.798 535.32C801.334 535.64 801.102 536.088 801.102 536.664C801.102 537.096 801.23 537.44 801.486 537.696C801.742 537.952 802.062 538.152 802.446 538.296C802.846 538.44 803.382 538.584 804.054 538.728L804.605 538.872C805.582 539.112 806.382 539.36 807.006 539.616C807.63 539.856 808.15 540.216 808.566 540.696C808.982 541.176 809.19 541.816 809.19 542.616C809.19 543.736 808.766 544.632 807.918 545.304C807.07 545.976 805.894 546.312 804.39 546.312ZM815.11 546.288C813.942 546.288 812.982 545.96 812.23 545.304C811.478 544.632 811.102 543.648 811.102 542.352V533.76H812.662V542.016C812.662 542.88 812.886 543.584 813.334 544.128C813.782 544.656 814.502 544.92 815.494 544.92C816.246 544.92 816.91 544.76 817.486 544.44C818.078 544.12 818.534 543.704 818.854 543.192C819.19 542.664 819.358 542.096 819.358 541.488V533.76H820.918V546H819.358V544.272H819.31C818.91 544.848 818.358 545.328 817.654 545.712C816.966 546.096 816.118 546.288 815.11 546.288ZM823.807 528.84H825.367V546H823.807V528.84ZM831.789 546.096C830.813 546.096 830.085 545.864 829.605 545.4C829.141 544.936 828.909 544.08 828.909 542.832V535.128H827.109V533.76H828.909V529.68H830.469V533.76H832.941V535.128H830.469V542.856C830.469 543.608 830.573 544.112 830.781 544.368C830.989 544.608 831.397 544.728 832.005 544.728C832.149 544.728 832.461 544.712 832.941 544.68V546C832.509 546.064 832.125 546.096 831.789 546.096ZM838.323 546.312C837.107 546.312 836.131 546 835.395 545.376C834.675 544.752 834.315 543.928 834.315 542.904C834.315 542.056 834.507 541.368 834.891 540.84C835.275 540.312 835.827 539.904 836.547 539.616C837.267 539.328 838.203 539.08 839.355 538.872C840.267 538.712 840.915 538.584 841.299 538.488C841.699 538.376 842.027 538.2 842.283 537.96C842.539 537.72 842.667 537.368 842.667 536.904C842.667 536.248 842.435 535.736 841.971 535.368C841.523 535 840.827 534.816 839.883 534.816C838.731 534.816 837.899 535.024 837.387 535.44C836.891 535.856 836.611 536.528 836.547 537.456H834.891C834.955 536.272 835.395 535.312 836.211 534.576C837.027 533.824 838.267 533.448 839.931 533.448C841.179 533.448 842.195 533.76 842.979 534.384C843.779 534.992 844.179 535.976 844.179 537.336V543.456C844.179 543.968 844.227 544.336 844.323 544.56C844.419 544.784 844.603 544.896 844.875 544.896C845.003 544.896 845.115 544.888 845.211 544.872V546C844.859 546.064 844.587 546.096 844.395 546.096C843.851 546.096 843.435 545.96 843.147 545.688C842.875 545.4 842.715 544.888 842.667 544.152H842.619C842.203 544.856 841.627 545.392 840.891 545.76C840.171 546.128 839.315 546.312 838.323 546.312ZM835.947 542.76C835.947 544.216 836.803 544.944 838.515 544.944C839.779 544.944 840.787 544.632 841.539 544.008C842.291 543.368 842.667 542.504 842.667 541.416V539.136C842.507 539.36 842.155 539.552 841.611 539.712C841.083 539.872 840.395 540.024 839.547 540.168C838.283 540.392 837.363 540.696 836.787 541.08C836.227 541.448 835.947 542.008 835.947 542.76ZM855.548 537.744C855.548 536.88 855.324 536.184 854.876 535.656C854.428 535.112 853.708 534.84 852.716 534.84C851.964 534.84 851.292 535 850.7 535.32C850.124 535.64 849.668 536.064 849.332 536.592C849.012 537.104 848.852 537.664 848.852 538.272V546H847.292V533.76H848.852V535.512H848.9C849.3 534.92 849.844 534.432 850.532 534.048C851.236 533.664 852.092 533.472 853.1 533.472C854.268 533.472 855.228 533.808 855.98 534.48C856.732 535.136 857.108 536.112 857.108 537.408V546H855.548V537.744ZM863.336 546.096C862.36 546.096 861.632 545.864 861.152 545.4C860.688 544.936 860.456 544.08 860.456 542.832V535.128H858.656V533.76H860.456V529.68H862.016V533.76H864.488V535.128H862.016V542.856C862.016 543.608 862.12 544.112 862.328 544.368C862.536 544.608 862.944 544.728 863.552 544.728C863.696 544.728 864.008 544.712 864.488 544.68V546C864.056 546.064 863.672 546.096 863.336 546.096Z" fill="#0D0C50"/>
<path opacity="0.5" d="M737 320V221" stroke="#BE9EE7" stroke-width="5"/>
<path d="M736.98 448L737 555.5" stroke="#0D0C50" stroke-width="3" stroke-dasharray="2 2"/>
</g>
<defs>
<filter id="filter0_d_871_4268" x="0" y="0" width="1040" height="784" filterUnits="userSpaceOnUse" color-interpolation-filters="sRGB">
<feFlood flood-opacity="0" result="BackgroundImageFix"/>
<feColorMatrix in="SourceAlpha" type="matrix" values="0 0 0 0 0 0 0 0 0 0 0 0 0 0 0 0 0 0 127 0" result="hardAlpha"/>
<feOffset dx="1" dy="2"/>
<feGaussianBlur stdDeviation="4"/>
<feComposite in2="hardAlpha" operator="out"/>
<feColorMatrix type="matrix" values="0 0 0 0 0 0 0 0 0 0 0 0 0 0 0 0 0 0 0.08 0"/>
<feBlend mode="normal" in2="BackgroundImageFix" result="effect1_dropShadow_871_4268"/>
<feBlend mode="normal" in="SourceGraphic" in2="effect1_dropShadow_871_4268" result="shape"/>
</filter>
</defs>
</svg>
