<svg width="442" height="372" viewBox="0 0 442 372" fill="none" xmlns="http://www.w3.org/2000/svg">
<rect width="442" height="372" fill="#E8E7FC"/>
<path d="M52.16 61.26H58.64V71.34H67.46V61.26H73.94V87H67.46V76.632H58.64V87H52.16V61.26ZM85.3874 87.612C83.3954 87.612 81.6554 87.204 80.1674 86.388C78.7034 85.572 77.5754 84.432 76.7834 82.968C75.9914 81.48 75.5954 79.764 75.5954 77.82C75.5954 75.876 75.9914 74.16 76.7834 72.672C77.5754 71.184 78.7154 70.032 80.2034 69.216C81.7154 68.376 83.4794 67.956 85.4954 67.956C87.4874 67.956 89.2154 68.364 90.6794 69.18C92.1674 69.996 93.3074 71.148 94.0994 72.636C94.8914 74.1 95.2874 75.792 95.2874 77.712C95.2874 79.656 94.8914 81.384 94.0994 82.896C93.3074 84.384 92.1674 85.548 90.6794 86.388C89.1914 87.204 87.4274 87.612 85.3874 87.612ZM81.4274 77.784C81.4274 79.56 81.7754 80.928 82.4714 81.888C83.1674 82.824 84.1634 83.292 85.4594 83.292C86.7314 83.292 87.7154 82.824 88.4114 81.888C89.1074 80.928 89.4554 79.56 89.4554 77.784C89.4554 76.008 89.1074 74.652 88.4114 73.716C87.7154 72.756 86.7314 72.276 85.4594 72.276C84.1634 72.276 83.1674 72.756 82.4714 73.716C81.7754 74.652 81.4274 76.008 81.4274 77.784ZM105.109 87.576C102.085 87.576 99.829 86.952 98.341 85.704C96.853 84.456 96.073 82.848 96.001 80.88H101.401C101.569 82.704 102.769 83.616 105.001 83.616C106.633 83.616 107.449 83.088 107.449 82.032C107.449 81.576 107.305 81.216 107.017 80.952C106.729 80.664 106.357 80.448 105.901 80.304C105.469 80.16 104.785 79.992 103.849 79.8L102.949 79.584C100.957 79.128 99.361 78.468 98.161 77.604C96.961 76.74 96.361 75.468 96.361 73.788C96.361 72.036 97.069 70.632 98.485 69.576C99.901 68.52 101.881 67.992 104.425 67.992C107.185 67.992 109.249 68.58 110.617 69.756C111.985 70.932 112.717 72.42 112.813 74.22H107.413C107.317 73.452 107.041 72.888 106.585 72.528C106.153 72.144 105.469 71.952 104.533 71.952C103.021 71.952 102.265 72.444 102.265 73.428C102.265 73.932 102.457 74.28 102.841 74.472C103.225 74.664 104.005 74.892 105.181 75.156L106.117 75.372C107.629 75.732 108.877 76.128 109.861 76.56C110.869 76.968 111.697 77.58 112.345 78.396C113.017 79.188 113.353 80.256 113.353 81.6C113.353 83.52 112.645 84.996 111.229 86.028C109.813 87.06 107.773 87.576 105.109 87.576ZM121.875 87.36C119.859 87.36 118.395 86.868 117.483 85.884C116.571 84.876 116.115 83.256 116.115 81.024V72.888H113.559V68.568H116.115V63.42H121.875V68.568H125.079V72.888H121.875V80.88C121.875 81.792 122.019 82.38 122.307 82.644C122.619 82.908 123.099 83.04 123.747 83.04C124.179 83.04 124.695 82.992 125.295 82.896V86.964C124.167 87.228 123.027 87.36 121.875 87.36ZM136.389 93.372C135.261 93.372 134.109 93.252 132.933 93.012V88.62C133.557 88.692 134.133 88.728 134.661 88.728C135.477 88.728 136.161 88.608 136.713 88.368C137.289 88.152 137.685 87.612 137.901 86.748L130.557 68.568H136.497L140.817 80.7H140.889L144.849 68.568H150.537L143.805 87.036C142.989 89.268 142.029 90.876 140.925 91.86C139.845 92.868 138.333 93.372 136.389 93.372ZM159.588 87.612C157.596 87.612 155.856 87.204 154.368 86.388C152.904 85.572 151.776 84.432 150.984 82.968C150.192 81.48 149.796 79.764 149.796 77.82C149.796 75.876 150.192 74.16 150.984 72.672C151.776 71.184 152.916 70.032 154.404 69.216C155.916 68.376 157.68 67.956 159.696 67.956C161.688 67.956 163.416 68.364 164.88 69.18C166.368 69.996 167.508 71.148 168.3 72.636C169.092 74.1 169.488 75.792 169.488 77.712C169.488 79.656 169.092 81.384 168.3 82.896C167.508 84.384 166.368 85.548 164.88 86.388C163.392 87.204 161.628 87.612 159.588 87.612ZM155.628 77.784C155.628 79.56 155.976 80.928 156.672 81.888C157.368 82.824 158.364 83.292 159.66 83.292C160.932 83.292 161.916 82.824 162.612 81.888C163.308 80.928 163.656 79.56 163.656 77.784C163.656 76.008 163.308 74.652 162.612 73.716C161.916 72.756 160.932 72.276 159.66 72.276C158.364 72.276 157.368 72.756 156.672 73.716C155.976 74.652 155.628 76.008 155.628 77.784ZM177.006 87.576C175.182 87.576 173.73 87 172.65 85.848C171.57 84.696 171.03 83.088 171.03 81.024V68.568H176.79V79.188C176.79 80.532 177.018 81.492 177.474 82.068C177.954 82.62 178.686 82.896 179.67 82.896C181.974 82.896 183.126 81.672 183.126 79.224V68.568H188.886V87H183.126V84.336H183.054C181.806 86.496 179.79 87.576 177.006 87.576ZM197.096 87H191.336V68.568H197.096V71.592H197.168C197.624 70.608 198.236 69.84 199.004 69.288C199.796 68.712 200.684 68.424 201.668 68.424C202.292 68.424 202.82 68.472 203.252 68.568V73.608C202.796 73.536 202.4 73.5 202.064 73.5C200.672 73.5 199.496 73.932 198.536 74.796C197.576 75.636 197.096 76.848 197.096 78.432V87ZM218.9 87.612C216.908 87.612 215.168 87.204 213.68 86.388C212.216 85.572 211.088 84.432 210.296 82.968C209.504 81.48 209.108 79.764 209.108 77.82C209.108 75.876 209.504 74.16 210.296 72.672C211.088 71.184 212.228 70.032 213.716 69.216C215.228 68.376 216.992 67.956 219.008 67.956C221 67.956 222.728 68.364 224.192 69.18C225.68 69.996 226.82 71.148 227.612 72.636C228.404 74.1 228.8 75.792 228.8 77.712C228.8 79.656 228.404 81.384 227.612 82.896C226.82 84.384 225.68 85.548 224.192 86.388C222.704 87.204 220.94 87.612 218.9 87.612ZM214.94 77.784C214.94 79.56 215.288 80.928 215.984 81.888C216.68 82.824 217.676 83.292 218.972 83.292C220.244 83.292 221.228 82.824 221.924 81.888C222.62 80.928 222.968 79.56 222.968 77.784C222.968 76.008 222.62 74.652 221.924 73.716C221.228 72.756 220.244 72.276 218.972 72.276C217.676 72.276 216.68 72.756 215.984 73.716C215.288 74.652 214.94 76.008 214.94 77.784ZM228.48 68.568H234.24L237.012 79.8H237.084L240.18 68.568H245.22L248.316 79.8H248.424L251.196 68.568H256.776L251.628 87H246.228L242.664 75.336H242.592L239.028 87H233.628L228.48 68.568ZM269.81 76.38C269.81 75.036 269.57 74.088 269.09 73.536C268.634 72.96 267.914 72.672 266.93 72.672C264.626 72.672 263.474 73.896 263.474 76.344V87H257.714V68.568H263.474V71.232H263.546C264.794 69.072 266.81 67.992 269.594 67.992C271.418 67.992 272.87 68.568 273.95 69.72C275.03 70.872 275.57 72.48 275.57 74.544V87H269.81V76.38ZM292.831 87.612C290.863 87.612 289.159 87.204 287.719 86.388C286.279 85.548 285.175 84.384 284.407 82.896C283.639 81.408 283.255 79.704 283.255 77.784C283.255 75.96 283.627 74.304 284.371 72.816C285.115 71.328 286.207 70.152 287.647 69.288C289.111 68.4 290.839 67.956 292.831 67.956C295.951 67.956 298.303 68.856 299.887 70.656C301.471 72.432 302.263 75.036 302.263 78.468V79.332H289.015C289.015 80.556 289.387 81.528 290.131 82.248C290.899 82.944 291.847 83.292 292.975 83.292C294.679 83.292 295.771 82.668 296.251 81.42H302.119C301.591 83.364 300.535 84.888 298.951 85.992C297.391 87.072 295.351 87.612 292.831 87.612ZM296.467 75.768C296.467 74.592 296.143 73.692 295.495 73.068C294.847 72.444 293.959 72.132 292.831 72.132C291.727 72.132 290.839 72.444 290.167 73.068C289.495 73.692 289.123 74.592 289.051 75.768H296.467ZM301.678 68.568H307.51L311.254 80.736H311.326L315.07 68.568H320.758L314.386 87H308.05L301.678 68.568ZM329.676 87.612C327.708 87.612 326.004 87.204 324.564 86.388C323.124 85.548 322.02 84.384 321.252 82.896C320.484 81.408 320.1 79.704 320.1 77.784C320.1 75.96 320.472 74.304 321.216 72.816C321.96 71.328 323.052 70.152 324.492 69.288C325.956 68.4 327.684 67.956 329.676 67.956C332.796 67.956 335.148 68.856 336.732 70.656C338.316 72.432 339.108 75.036 339.108 78.468V79.332H325.86C325.86 80.556 326.232 81.528 326.976 82.248C327.744 82.944 328.692 83.292 329.82 83.292C331.524 83.292 332.616 82.668 333.096 81.42H338.964C338.436 83.364 337.38 84.888 335.796 85.992C334.236 87.072 332.196 87.612 329.676 87.612ZM333.312 75.768C333.312 74.592 332.988 73.692 332.34 73.068C331.692 72.444 330.804 72.132 329.676 72.132C328.572 72.132 327.684 72.444 327.012 73.068C326.34 73.692 325.968 74.592 325.896 75.768H333.312ZM352.905 76.38C352.905 75.036 352.665 74.088 352.185 73.536C351.729 72.96 351.009 72.672 350.025 72.672C347.721 72.672 346.569 73.896 346.569 76.344V87H340.809V68.568H346.569V71.232H346.641C347.889 69.072 349.905 67.992 352.689 67.992C354.513 67.992 355.965 68.568 357.045 69.72C358.125 70.872 358.665 72.48 358.665 74.544V87H352.905V76.38ZM368.067 87.36C366.051 87.36 364.587 86.868 363.675 85.884C362.763 84.876 362.307 83.256 362.307 81.024V72.888H359.751V68.568H362.307V63.42H368.067V68.568H371.271V72.888H368.067V80.88C368.067 81.792 368.211 82.38 368.499 82.644C368.811 82.908 369.291 83.04 369.939 83.04C370.371 83.04 370.887 82.992 371.487 82.896V86.964C370.359 87.228 369.219 87.36 368.067 87.36Z" fill="black"/>
<path d="M51.824 126.84H63.464V128.376H53.576V134.28H62.408V135.816H53.576V142.464H63.728V144H51.824V126.84ZM73.9694 135.744C73.9694 134.88 73.7454 134.184 73.2974 133.656C72.8494 133.112 72.1294 132.84 71.1374 132.84C70.3854 132.84 69.7134 133 69.1214 133.32C68.5454 133.64 68.0894 134.064 67.7534 134.592C67.4334 135.104 67.2734 135.664 67.2734 136.272V144H65.7134V131.76H67.2734V133.512H67.3214C67.7214 132.92 68.2654 132.432 68.9534 132.048C69.6574 131.664 70.5134 131.472 71.5214 131.472C72.6894 131.472 73.6494 131.808 74.4014 132.48C75.1534 133.136 75.5294 134.112 75.5294 135.408V144H73.9694V135.744ZM81.6828 144.312C80.4668 144.312 79.4908 144 78.7548 143.376C78.0348 142.752 77.6748 141.928 77.6748 140.904C77.6748 140.056 77.8668 139.368 78.2508 138.84C78.6348 138.312 79.1868 137.904 79.9068 137.616C80.6268 137.328 81.5628 137.08 82.7148 136.872C83.6268 136.712 84.2748 136.584 84.6588 136.488C85.0588 136.376 85.3868 136.2 85.6428 135.96C85.8988 135.72 86.0268 135.368 86.0268 134.904C86.0268 134.248 85.7948 133.736 85.3308 133.368C84.8828 133 84.1868 132.816 83.2428 132.816C82.0908 132.816 81.2588 133.024 80.7468 133.44C80.2508 133.856 79.9708 134.528 79.9068 135.456H78.2508C78.3148 134.272 78.7548 133.312 79.5708 132.576C80.3868 131.824 81.6268 131.448 83.2908 131.448C84.5388 131.448 85.5548 131.76 86.3388 132.384C87.1388 132.992 87.5388 133.976 87.5388 135.336V141.456C87.5388 141.968 87.5868 142.336 87.6828 142.56C87.7788 142.784 87.9628 142.896 88.2348 142.896C88.3628 142.896 88.4748 142.888 88.5708 142.872V144C88.2188 144.064 87.9468 144.096 87.7548 144.096C87.2108 144.096 86.7948 143.96 86.5068 143.688C86.2348 143.4 86.0748 142.888 86.0268 142.152H85.9788C85.5628 142.856 84.9868 143.392 84.2508 143.76C83.5308 144.128 82.6748 144.312 81.6828 144.312ZM79.3068 140.76C79.3068 142.216 80.1628 142.944 81.8748 142.944C83.1388 142.944 84.1468 142.632 84.8988 142.008C85.6508 141.368 86.0268 140.504 86.0268 139.416V137.136C85.8668 137.36 85.5148 137.552 84.9708 137.712C84.4428 137.872 83.7548 138.024 82.9068 138.168C81.6428 138.392 80.7228 138.696 80.1468 139.08C79.5868 139.448 79.3068 140.008 79.3068 140.76ZM96.3869 144.288C94.4989 144.288 93.1229 143.496 92.2589 141.912H92.2109V144H90.6509V126.84H92.2109V133.728H92.2589C92.6749 133.056 93.2189 132.512 93.8909 132.096C94.5629 131.664 95.3949 131.448 96.3869 131.448C97.3949 131.448 98.3069 131.712 99.1229 132.24C99.9389 132.752 100.587 133.496 101.067 134.472C101.547 135.432 101.787 136.568 101.787 137.88C101.787 139.176 101.547 140.312 101.067 141.288C100.587 142.248 99.9389 142.992 99.1229 143.52C98.3069 144.032 97.3949 144.288 96.3869 144.288ZM92.2109 137.88C92.2109 138.888 92.3789 139.776 92.7149 140.544C93.0509 141.296 93.5229 141.88 94.1309 142.296C94.7389 142.712 95.4349 142.92 96.2189 142.92C97.0349 142.92 97.7389 142.696 98.3309 142.248C98.9389 141.8 99.3949 141.192 99.6989 140.424C100.003 139.656 100.155 138.808 100.155 137.88C100.155 136.952 100.003 136.104 99.6989 135.336C99.3949 134.552 98.9389 133.936 98.3309 133.488C97.7389 133.024 97.0349 132.792 96.2189 132.792C95.4349 132.792 94.7389 133 94.1309 133.416C93.5229 133.832 93.0509 134.424 92.7149 135.192C92.3789 135.96 92.2109 136.856 92.2109 137.88ZM104.01 126.84H105.57V144H104.01V126.84ZM113.624 144.336C112.408 144.336 111.36 144.064 110.48 143.52C109.6 142.96 108.928 142.192 108.464 141.216C108.016 140.24 107.792 139.128 107.792 137.88C107.792 136.584 108.032 135.456 108.512 134.496C108.992 133.52 109.672 132.768 110.552 132.24C111.432 131.712 112.456 131.448 113.624 131.448C114.776 131.448 115.768 131.704 116.6 132.216C117.432 132.712 118.064 133.408 118.496 134.304C118.928 135.184 119.144 136.192 119.144 137.328C119.144 137.776 119.136 138.064 119.12 138.192H109.424C109.44 139.056 109.6 139.856 109.904 140.592C110.224 141.312 110.696 141.896 111.32 142.344C111.96 142.776 112.736 142.992 113.648 142.992C114.768 142.992 115.632 142.704 116.24 142.128C116.848 141.552 117.232 140.928 117.392 140.256H118.976C118.656 141.472 118.048 142.456 117.152 143.208C116.256 143.96 115.08 144.336 113.624 144.336ZM117.488 136.824C117.488 136.088 117.328 135.416 117.008 134.808C116.704 134.184 116.256 133.696 115.664 133.344C115.072 132.976 114.368 132.792 113.552 132.792C112.384 132.792 111.416 133.176 110.648 133.944C109.896 134.712 109.488 135.672 109.424 136.824H117.488ZM130.493 144.288C129.325 144.288 128.365 143.96 127.613 143.304C126.861 142.632 126.485 141.648 126.485 140.352V131.76H128.045V140.016C128.045 140.88 128.269 141.584 128.717 142.128C129.165 142.656 129.885 142.92 130.877 142.92C131.629 142.92 132.293 142.76 132.869 142.44C133.461 142.12 133.917 141.704 134.237 141.192C134.573 140.664 134.741 140.096 134.741 139.488V131.76H136.301V144H134.741V142.272H134.693C134.293 142.848 133.741 143.328 133.037 143.712C132.349 144.096 131.501 144.288 130.493 144.288ZM143.702 144.312C142.038 144.312 140.734 143.912 139.79 143.112C138.846 142.296 138.358 141.256 138.326 139.992H139.958C140.006 140.888 140.342 141.608 140.966 142.152C141.59 142.68 142.51 142.944 143.726 142.944C144.814 142.944 145.606 142.736 146.102 142.32C146.598 141.888 146.846 141.336 146.846 140.664C146.846 140.168 146.71 139.776 146.438 139.488C146.182 139.184 145.854 138.96 145.454 138.816C145.054 138.672 144.526 138.528 143.87 138.384C143.774 138.368 143.59 138.328 143.318 138.264C142.294 138.008 141.486 137.768 140.894 137.544C140.302 137.32 139.798 136.984 139.382 136.536C138.982 136.088 138.782 135.496 138.782 134.76C138.782 133.752 139.166 132.952 139.934 132.36C140.702 131.768 141.766 131.472 143.126 131.472C144.63 131.472 145.79 131.824 146.606 132.528C147.438 133.216 147.91 134.104 148.022 135.192H146.39C146.07 133.624 144.99 132.84 143.15 132.84C142.27 132.84 141.59 133 141.11 133.32C140.646 133.64 140.414 134.088 140.414 134.664C140.414 135.096 140.542 135.44 140.798 135.696C141.054 135.952 141.374 136.152 141.758 136.296C142.158 136.44 142.694 136.584 143.366 136.728L143.918 136.872C144.894 137.112 145.694 137.36 146.318 137.616C146.942 137.856 147.462 138.216 147.878 138.696C148.294 139.176 148.502 139.816 148.502 140.616C148.502 141.736 148.078 142.632 147.23 143.304C146.382 143.976 145.206 144.312 143.702 144.312ZM155.694 144.336C154.478 144.336 153.43 144.064 152.55 143.52C151.67 142.96 150.998 142.192 150.534 141.216C150.086 140.24 149.862 139.128 149.862 137.88C149.862 136.584 150.102 135.456 150.582 134.496C151.062 133.52 151.742 132.768 152.622 132.24C153.502 131.712 154.526 131.448 155.694 131.448C156.846 131.448 157.838 131.704 158.67 132.216C159.502 132.712 160.134 133.408 160.566 134.304C160.998 135.184 161.214 136.192 161.214 137.328C161.214 137.776 161.206 138.064 161.19 138.192H151.494C151.51 139.056 151.67 139.856 151.974 140.592C152.294 141.312 152.766 141.896 153.39 142.344C154.03 142.776 154.806 142.992 155.718 142.992C156.838 142.992 157.702 142.704 158.31 142.128C158.918 141.552 159.302 140.928 159.462 140.256H161.046C160.726 141.472 160.118 142.456 159.222 143.208C158.326 143.96 157.15 144.336 155.694 144.336ZM159.558 136.824C159.558 136.088 159.398 135.416 159.078 134.808C158.774 134.184 158.326 133.696 157.734 133.344C157.142 132.976 156.438 132.792 155.622 132.792C154.454 132.792 153.486 133.176 152.718 133.944C151.966 134.712 151.558 135.672 151.494 136.824H159.558ZM164.961 144H163.401V131.76H164.961V134.256H165.009C165.345 133.408 165.801 132.736 166.377 132.24C166.969 131.728 167.673 131.472 168.489 131.472C168.905 131.472 169.257 131.496 169.545 131.544V133.08C169.305 133.032 169.057 133.008 168.801 133.008C168.081 133.008 167.425 133.192 166.833 133.56C166.257 133.912 165.801 134.408 165.465 135.048C165.129 135.672 164.961 136.376 164.961 137.16V144ZM175.413 144.312C173.749 144.312 172.445 143.912 171.501 143.112C170.557 142.296 170.069 141.256 170.037 139.992H171.669C171.717 140.888 172.053 141.608 172.677 142.152C173.301 142.68 174.221 142.944 175.437 142.944C176.525 142.944 177.317 142.736 177.813 142.32C178.309 141.888 178.557 141.336 178.557 140.664C178.557 140.168 178.421 139.776 178.149 139.488C177.893 139.184 177.565 138.96 177.165 138.816C176.765 138.672 176.237 138.528 175.581 138.384C175.485 138.368 175.301 138.328 175.029 138.264C174.005 138.008 173.197 137.768 172.605 137.544C172.013 137.32 171.509 136.984 171.093 136.536C170.693 136.088 170.493 135.496 170.493 134.76C170.493 133.752 170.877 132.952 171.645 132.36C172.413 131.768 173.477 131.472 174.837 131.472C176.341 131.472 177.501 131.824 178.317 132.528C179.149 133.216 179.621 134.104 179.733 135.192H178.101C177.781 133.624 176.701 132.84 174.861 132.84C173.981 132.84 173.301 133 172.821 133.32C172.357 133.64 172.125 134.088 172.125 134.664C172.125 135.096 172.253 135.44 172.509 135.696C172.765 135.952 173.085 136.152 173.469 136.296C173.869 136.44 174.405 136.584 175.077 136.728L175.629 136.872C176.605 137.112 177.405 137.36 178.029 137.616C178.653 137.856 179.173 138.216 179.589 138.696C180.005 139.176 180.213 139.816 180.213 140.616C180.213 141.736 179.789 142.632 178.941 143.304C178.093 143.976 176.917 144.312 175.413 144.312ZM191.023 144.096C190.047 144.096 189.319 143.864 188.839 143.4C188.375 142.936 188.143 142.08 188.143 140.832V133.128H186.343V131.76H188.143V127.68H189.703V131.76H192.175V133.128H189.703V140.856C189.703 141.608 189.807 142.112 190.015 142.368C190.223 142.608 190.631 142.728 191.239 142.728C191.383 142.728 191.695 142.712 192.175 142.68V144C191.743 144.064 191.359 144.096 191.023 144.096ZM199.125 144.336C197.925 144.336 196.877 144.064 195.981 143.52C195.101 142.976 194.421 142.224 193.941 141.264C193.477 140.288 193.245 139.168 193.245 137.904C193.245 136.64 193.477 135.52 193.941 134.544C194.421 133.568 195.101 132.808 195.981 132.264C196.877 131.72 197.925 131.448 199.125 131.448C200.325 131.448 201.365 131.72 202.245 132.264C203.141 132.808 203.821 133.568 204.285 134.544C204.765 135.52 205.005 136.64 205.005 137.904C205.005 139.168 204.765 140.288 204.285 141.264C203.821 142.224 203.141 142.976 202.245 143.52C201.365 144.064 200.325 144.336 199.125 144.336ZM194.877 137.904C194.877 139.376 195.237 140.592 195.957 141.552C196.693 142.496 197.749 142.968 199.125 142.968C200.501 142.968 201.549 142.496 202.269 141.552C203.005 140.592 203.373 139.376 203.373 137.904C203.373 136.416 203.005 135.2 202.269 134.256C201.549 133.296 200.501 132.816 199.125 132.816C197.749 132.816 196.693 133.296 195.957 134.256C195.237 135.2 194.877 136.416 194.877 137.904ZM56.648 178.336C55.448 178.336 54.4 178.064 53.504 177.52C52.624 176.976 51.944 176.224 51.464 175.264C51 174.288 50.768 173.168 50.768 171.904C50.768 170.64 51 169.52 51.464 168.544C51.944 167.568 52.624 166.808 53.504 166.264C54.4 165.72 55.448 165.448 56.648 165.448C57.848 165.448 58.888 165.72 59.768 166.264C60.664 166.808 61.344 167.568 61.808 168.544C62.288 169.52 62.528 170.64 62.528 171.904C62.528 173.168 62.288 174.288 61.808 175.264C61.344 176.224 60.664 176.976 59.768 177.52C58.888 178.064 57.848 178.336 56.648 178.336ZM52.4 171.904C52.4 173.376 52.76 174.592 53.48 175.552C54.216 176.496 55.272 176.968 56.648 176.968C58.024 176.968 59.072 176.496 59.792 175.552C60.528 174.592 60.896 173.376 60.896 171.904C60.896 170.416 60.528 169.2 59.792 168.256C59.072 167.296 58.024 166.816 56.648 166.816C55.272 166.816 54.216 167.296 53.48 168.256C52.76 169.2 52.4 170.416 52.4 171.904ZM66.2891 178H64.7291V165.76H66.2891V168.256H66.3371C66.6731 167.408 67.1291 166.736 67.7051 166.24C68.2971 165.728 69.0011 165.472 69.8171 165.472C70.2331 165.472 70.5851 165.496 70.8731 165.544V167.08C70.6331 167.032 70.3851 167.008 70.1291 167.008C69.4091 167.008 68.7531 167.192 68.1611 167.56C67.5851 167.912 67.1291 168.408 66.7931 169.048C66.4571 169.672 66.2891 170.376 66.2891 171.16V178ZM76.9164 182.392C75.3164 182.392 74.0604 182.048 73.1484 181.36C72.2524 180.672 71.7564 179.768 71.6604 178.648H73.2924C73.4204 179.352 73.7804 179.92 74.3724 180.352C74.9644 180.8 75.8204 181.024 76.9404 181.024C79.5644 181.024 80.8764 179.832 80.8764 177.448V175.168H80.8284C80.4444 175.856 79.9004 176.408 79.1964 176.824C78.5084 177.224 77.6764 177.424 76.7004 177.424C75.6924 177.424 74.7804 177.2 73.9644 176.752C73.1644 176.304 72.5244 175.632 72.0444 174.736C71.5644 173.84 71.3244 172.736 71.3244 171.424C71.3244 170.128 71.5644 169.032 72.0444 168.136C72.5244 167.24 73.1644 166.576 73.9644 166.144C74.7804 165.696 75.6924 165.472 76.7004 165.472C77.6764 165.472 78.5084 165.68 79.1964 166.096C79.9004 166.496 80.4444 167.024 80.8284 167.68H80.8764V165.76H82.4364V177.232C82.4364 178.928 81.9484 180.208 80.9724 181.072C79.9964 181.952 78.6444 182.392 76.9164 182.392ZM72.9564 171.424C72.9564 172.848 73.3004 173.976 73.9884 174.808C74.6924 175.64 75.6684 176.056 76.9164 176.056C78.1004 176.056 79.0524 175.664 79.7724 174.88C80.5084 174.096 80.8764 172.944 80.8764 171.424C80.8764 169.936 80.5084 168.8 79.7724 168.016C79.0524 167.232 78.1004 166.84 76.9164 166.84C75.6684 166.84 74.6924 167.256 73.9884 168.088C73.3004 168.92 72.9564 170.032 72.9564 171.424ZM88.6438 178.312C87.4278 178.312 86.4518 178 85.7158 177.376C84.9958 176.752 84.6357 175.928 84.6357 174.904C84.6357 174.056 84.8278 173.368 85.2118 172.84C85.5958 172.312 86.1478 171.904 86.8678 171.616C87.5878 171.328 88.5238 171.08 89.6758 170.872C90.5878 170.712 91.2358 170.584 91.6198 170.488C92.0198 170.376 92.3478 170.2 92.6038 169.96C92.8598 169.72 92.9878 169.368 92.9878 168.904C92.9878 168.248 92.7558 167.736 92.2918 167.368C91.8438 167 91.1478 166.816 90.2038 166.816C89.0518 166.816 88.2198 167.024 87.7078 167.44C87.2118 167.856 86.9318 168.528 86.8678 169.456H85.2118C85.2758 168.272 85.7158 167.312 86.5318 166.576C87.3478 165.824 88.5878 165.448 90.2518 165.448C91.4998 165.448 92.5158 165.76 93.2998 166.384C94.0998 166.992 94.4998 167.976 94.4998 169.336V175.456C94.4998 175.968 94.5478 176.336 94.6438 176.56C94.7398 176.784 94.9238 176.896 95.1958 176.896C95.3238 176.896 95.4358 176.888 95.5318 176.872V178C95.1798 178.064 94.9078 178.096 94.7158 178.096C94.1718 178.096 93.7558 177.96 93.4678 177.688C93.1958 177.4 93.0358 176.888 92.9878 176.152H92.9398C92.5238 176.856 91.9478 177.392 91.2118 177.76C90.4918 178.128 89.6358 178.312 88.6438 178.312ZM86.2678 174.76C86.2678 176.216 87.1238 176.944 88.8358 176.944C90.0998 176.944 91.1078 176.632 91.8598 176.008C92.6118 175.368 92.9878 174.504 92.9878 173.416V171.136C92.8278 171.36 92.4758 171.552 91.9318 171.712C91.4038 171.872 90.7158 172.024 89.8678 172.168C88.6038 172.392 87.6838 172.696 87.1078 173.08C86.5478 173.448 86.2678 174.008 86.2678 174.76ZM105.868 169.744C105.868 168.88 105.644 168.184 105.196 167.656C104.748 167.112 104.028 166.84 103.036 166.84C102.284 166.84 101.612 167 101.02 167.32C100.444 167.64 99.9879 168.064 99.6519 168.592C99.3319 169.104 99.1719 169.664 99.1719 170.272V178H97.6119V165.76H99.1719V167.512H99.2199C99.6199 166.92 100.164 166.432 100.852 166.048C101.556 165.664 102.412 165.472 103.42 165.472C104.588 165.472 105.548 165.808 106.3 166.48C107.052 167.136 107.428 168.112 107.428 169.408V178H105.868V169.744ZM110.221 165.76H111.781V178H110.221V165.76ZM109.981 161.296H111.997V163.312H109.981V161.296ZM119.163 178.312C117.499 178.312 116.195 177.912 115.251 177.112C114.307 176.296 113.819 175.256 113.787 173.992H115.419C115.467 174.888 115.803 175.608 116.427 176.152C117.051 176.68 117.971 176.944 119.187 176.944C120.275 176.944 121.067 176.736 121.563 176.32C122.059 175.888 122.307 175.336 122.307 174.664C122.307 174.168 122.171 173.776 121.899 173.488C121.643 173.184 121.315 172.96 120.915 172.816C120.515 172.672 119.987 172.528 119.331 172.384C119.235 172.368 119.051 172.328 118.779 172.264C117.755 172.008 116.947 171.768 116.355 171.544C115.763 171.32 115.259 170.984 114.843 170.536C114.443 170.088 114.243 169.496 114.243 168.76C114.243 167.752 114.627 166.952 115.395 166.36C116.163 165.768 117.227 165.472 118.587 165.472C120.091 165.472 121.251 165.824 122.067 166.528C122.899 167.216 123.371 168.104 123.483 169.192H121.851C121.531 167.624 120.451 166.84 118.611 166.84C117.731 166.84 117.051 167 116.571 167.32C116.107 167.64 115.875 168.088 115.875 168.664C115.875 169.096 116.003 169.44 116.259 169.696C116.515 169.952 116.835 170.152 117.219 170.296C117.619 170.44 118.155 170.584 118.827 170.728L119.379 170.872C120.355 171.112 121.155 171.36 121.779 171.616C122.403 171.856 122.923 172.216 123.339 172.696C123.755 173.176 123.963 173.816 123.963 174.616C123.963 175.736 123.539 176.632 122.691 177.304C121.843 177.976 120.667 178.312 119.163 178.312ZM131.155 178.336C129.939 178.336 128.891 178.064 128.011 177.52C127.131 176.96 126.459 176.192 125.995 175.216C125.547 174.24 125.323 173.128 125.323 171.88C125.323 170.584 125.563 169.456 126.043 168.496C126.523 167.52 127.203 166.768 128.083 166.24C128.963 165.712 129.987 165.448 131.155 165.448C132.307 165.448 133.299 165.704 134.131 166.216C134.963 166.712 135.595 167.408 136.027 168.304C136.459 169.184 136.675 170.192 136.675 171.328C136.675 171.776 136.667 172.064 136.651 172.192H126.955C126.971 173.056 127.131 173.856 127.435 174.592C127.755 175.312 128.227 175.896 128.851 176.344C129.491 176.776 130.267 176.992 131.179 176.992C132.299 176.992 133.163 176.704 133.771 176.128C134.379 175.552 134.763 174.928 134.923 174.256H136.507C136.187 175.472 135.579 176.456 134.683 177.208C133.787 177.96 132.611 178.336 131.155 178.336ZM135.019 170.824C135.019 170.088 134.859 169.416 134.539 168.808C134.235 168.184 133.787 167.696 133.195 167.344C132.603 166.976 131.899 166.792 131.083 166.792C129.915 166.792 128.947 167.176 128.179 167.944C127.427 168.712 127.019 169.672 126.955 170.824H135.019ZM147.472 178.312C146.256 178.312 145.28 178 144.544 177.376C143.824 176.752 143.464 175.928 143.464 174.904C143.464 174.056 143.656 173.368 144.04 172.84C144.424 172.312 144.976 171.904 145.696 171.616C146.416 171.328 147.352 171.08 148.504 170.872C149.416 170.712 150.064 170.584 150.448 170.488C150.848 170.376 151.176 170.2 151.432 169.96C151.688 169.72 151.816 169.368 151.816 168.904C151.816 168.248 151.584 167.736 151.12 167.368C150.672 167 149.976 166.816 149.032 166.816C147.88 166.816 147.048 167.024 146.536 167.44C146.04 167.856 145.76 168.528 145.696 169.456H144.04C144.104 168.272 144.544 167.312 145.36 166.576C146.176 165.824 147.416 165.448 149.08 165.448C150.328 165.448 151.344 165.76 152.128 166.384C152.928 166.992 153.328 167.976 153.328 169.336V175.456C153.328 175.968 153.376 176.336 153.472 176.56C153.568 176.784 153.752 176.896 154.024 176.896C154.152 176.896 154.264 176.888 154.36 176.872V178C154.008 178.064 153.736 178.096 153.544 178.096C153 178.096 152.584 177.96 152.296 177.688C152.024 177.4 151.864 176.888 151.816 176.152H151.768C151.352 176.856 150.776 177.392 150.04 177.76C149.32 178.128 148.464 178.312 147.472 178.312ZM145.096 174.76C145.096 176.216 145.952 176.944 147.664 176.944C148.928 176.944 149.936 176.632 150.688 176.008C151.44 175.368 151.816 174.504 151.816 173.416V171.136C151.656 171.36 151.304 171.552 150.76 171.712C150.232 171.872 149.544 172.024 148.696 172.168C147.432 172.392 146.512 172.696 145.936 173.08C145.376 173.448 145.096 174.008 145.096 174.76ZM164.696 169.744C164.696 168.88 164.472 168.184 164.024 167.656C163.576 167.112 162.856 166.84 161.864 166.84C161.112 166.84 160.44 167 159.848 167.32C159.272 167.64 158.816 168.064 158.48 168.592C158.16 169.104 158 169.664 158 170.272V178H156.44V165.76H158V167.512H158.048C158.448 166.92 158.992 166.432 159.68 166.048C160.384 165.664 161.24 165.472 162.248 165.472C163.416 165.472 164.376 165.808 165.128 166.48C165.88 167.136 166.256 168.112 166.256 169.408V178H164.696V169.744ZM173.777 178.312C172.785 178.312 171.873 178.056 171.041 177.544C170.225 177.016 169.577 176.272 169.097 175.312C168.633 174.336 168.401 173.192 168.401 171.88C168.401 170.584 168.633 169.456 169.097 168.496C169.577 167.52 170.225 166.776 171.041 166.264C171.873 165.736 172.785 165.472 173.777 165.472C174.785 165.472 175.625 165.688 176.297 166.12C176.969 166.536 177.505 167.104 177.905 167.824H177.953V160.84H179.513V178H177.953V176.008H177.905C177.505 176.68 176.961 177.232 176.273 177.664C175.601 178.096 174.769 178.312 173.777 178.312ZM170.033 171.88C170.033 173.32 170.377 174.528 171.065 175.504C171.769 176.464 172.737 176.944 173.969 176.944C174.753 176.944 175.441 176.736 176.033 176.32C176.641 175.904 177.113 175.32 177.449 174.568C177.785 173.8 177.953 172.904 177.953 171.88C177.953 170.872 177.785 169.992 177.449 169.24C177.113 168.472 176.641 167.88 176.033 167.464C175.441 167.048 174.753 166.84 173.969 166.84C173.153 166.84 172.441 167.064 171.833 167.512C171.241 167.96 170.793 168.568 170.489 169.336C170.185 170.104 170.033 170.952 170.033 171.88ZM58.832 203.744C58.832 202.848 58.664 202.144 58.328 201.632C57.992 201.104 57.36 200.84 56.432 200.84C55.744 200.84 55.136 201 54.608 201.32C54.096 201.64 53.696 202.064 53.408 202.592C53.136 203.104 53 203.664 53 204.272V212H51.44V199.76H53V201.488H53.048C53.432 200.912 53.928 200.432 54.536 200.048C55.144 199.664 55.888 199.472 56.768 199.472C58.496 199.472 59.592 200.224 60.056 201.728H60.104C60.536 201.056 61.088 200.512 61.76 200.096C62.448 199.68 63.248 199.472 64.16 199.472C65.328 199.472 66.216 199.808 66.824 200.48C67.448 201.152 67.76 202.128 67.76 203.408V212H66.2V203.744C66.2 202.848 66.032 202.144 65.696 201.632C65.376 201.104 64.752 200.84 63.824 200.84C63.136 200.84 62.528 201 62 201.32C61.488 201.64 61.088 202.064 60.8 202.592C60.528 203.104 60.392 203.664 60.392 204.272V212H58.832V203.744ZM73.9016 212.312C72.6856 212.312 71.7096 212 70.9736 211.376C70.2536 210.752 69.8936 209.928 69.8936 208.904C69.8936 208.056 70.0856 207.368 70.4696 206.84C70.8536 206.312 71.4056 205.904 72.1256 205.616C72.8456 205.328 73.7816 205.08 74.9336 204.872C75.8456 204.712 76.4936 204.584 76.8776 204.488C77.2776 204.376 77.6056 204.2 77.8616 203.96C78.1176 203.72 78.2456 203.368 78.2456 202.904C78.2456 202.248 78.0136 201.736 77.5496 201.368C77.1016 201 76.4056 200.816 75.4616 200.816C74.3096 200.816 73.4776 201.024 72.9656 201.44C72.4696 201.856 72.1896 202.528 72.1256 203.456H70.4696C70.5336 202.272 70.9736 201.312 71.7896 200.576C72.6056 199.824 73.8456 199.448 75.5096 199.448C76.7576 199.448 77.7736 199.76 78.5576 200.384C79.3576 200.992 79.7576 201.976 79.7576 203.336V209.456C79.7576 209.968 79.8056 210.336 79.9016 210.56C79.9976 210.784 80.1816 210.896 80.4536 210.896C80.5816 210.896 80.6936 210.888 80.7896 210.872V212C80.4376 212.064 80.1656 212.096 79.9736 212.096C79.4296 212.096 79.0136 211.96 78.7256 211.688C78.4536 211.4 78.2936 210.888 78.2456 210.152H78.1976C77.7816 210.856 77.2056 211.392 76.4696 211.76C75.7496 212.128 74.8936 212.312 73.9016 212.312ZM71.5256 208.76C71.5256 210.216 72.3816 210.944 74.0936 210.944C75.3576 210.944 76.3656 210.632 77.1176 210.008C77.8696 209.368 78.2456 208.504 78.2456 207.416V205.136C78.0856 205.36 77.7336 205.552 77.1896 205.712C76.6616 205.872 75.9736 206.024 75.1256 206.168C73.8616 206.392 72.9416 206.696 72.3656 207.08C71.8056 207.448 71.5256 208.008 71.5256 208.76ZM91.1257 203.744C91.1257 202.88 90.9017 202.184 90.4537 201.656C90.0057 201.112 89.2857 200.84 88.2937 200.84C87.5417 200.84 86.8697 201 86.2777 201.32C85.7017 201.64 85.2457 202.064 84.9097 202.592C84.5897 203.104 84.4297 203.664 84.4297 204.272V212H82.8697V199.76H84.4297V201.512H84.4777C84.8777 200.92 85.4217 200.432 86.1097 200.048C86.8137 199.664 87.6697 199.472 88.6777 199.472C89.8457 199.472 90.8057 199.808 91.5577 200.48C92.3097 201.136 92.6857 202.112 92.6857 203.408V212H91.1257V203.744ZM98.8391 212.312C97.6231 212.312 96.6471 212 95.9111 211.376C95.1911 210.752 94.8311 209.928 94.8311 208.904C94.8311 208.056 95.0231 207.368 95.4071 206.84C95.7911 206.312 96.3431 205.904 97.0631 205.616C97.7831 205.328 98.7191 205.08 99.8711 204.872C100.783 204.712 101.431 204.584 101.815 204.488C102.215 204.376 102.543 204.2 102.799 203.96C103.055 203.72 103.183 203.368 103.183 202.904C103.183 202.248 102.951 201.736 102.487 201.368C102.039 201 101.343 200.816 100.399 200.816C99.2471 200.816 98.4151 201.024 97.9031 201.44C97.4071 201.856 97.1271 202.528 97.0631 203.456H95.4071C95.4711 202.272 95.9111 201.312 96.7271 200.576C97.5431 199.824 98.7831 199.448 100.447 199.448C101.695 199.448 102.711 199.76 103.495 200.384C104.295 200.992 104.695 201.976 104.695 203.336V209.456C104.695 209.968 104.743 210.336 104.839 210.56C104.935 210.784 105.119 210.896 105.391 210.896C105.519 210.896 105.631 210.888 105.727 210.872V212C105.375 212.064 105.103 212.096 104.911 212.096C104.367 212.096 103.951 211.96 103.663 211.688C103.391 211.4 103.231 210.888 103.183 210.152H103.135C102.719 210.856 102.143 211.392 101.407 211.76C100.687 212.128 99.8311 212.312 98.8391 212.312ZM96.4631 208.76C96.4631 210.216 97.3191 210.944 99.0311 210.944C100.295 210.944 101.303 210.632 102.055 210.008C102.807 209.368 103.183 208.504 103.183 207.416V205.136C103.023 205.36 102.671 205.552 102.127 205.712C101.599 205.872 100.911 206.024 100.063 206.168C98.7991 206.392 97.8791 206.696 97.3031 207.08C96.7431 207.448 96.4631 208.008 96.4631 208.76ZM112.659 216.392C111.059 216.392 109.803 216.048 108.891 215.36C107.995 214.672 107.499 213.768 107.403 212.648H109.035C109.163 213.352 109.523 213.92 110.115 214.352C110.707 214.8 111.563 215.024 112.683 215.024C115.307 215.024 116.619 213.832 116.619 211.448V209.168H116.571C116.187 209.856 115.643 210.408 114.939 210.824C114.251 211.224 113.419 211.424 112.443 211.424C111.435 211.424 110.523 211.2 109.707 210.752C108.907 210.304 108.267 209.632 107.787 208.736C107.307 207.84 107.067 206.736 107.067 205.424C107.067 204.128 107.307 203.032 107.787 202.136C108.267 201.24 108.907 200.576 109.707 200.144C110.523 199.696 111.435 199.472 112.443 199.472C113.419 199.472 114.251 199.68 114.939 200.096C115.643 200.496 116.187 201.024 116.571 201.68H116.619V199.76H118.179V211.232C118.179 212.928 117.691 214.208 116.715 215.072C115.739 215.952 114.387 216.392 112.659 216.392ZM108.699 205.424C108.699 206.848 109.043 207.976 109.731 208.808C110.435 209.64 111.411 210.056 112.659 210.056C113.843 210.056 114.795 209.664 115.515 208.88C116.251 208.096 116.619 206.944 116.619 205.424C116.619 203.936 116.251 202.8 115.515 202.016C114.795 201.232 113.843 200.84 112.659 200.84C111.411 200.84 110.435 201.256 109.731 202.088C109.043 202.92 108.699 204.032 108.699 205.424ZM126.21 212.336C124.994 212.336 123.946 212.064 123.066 211.52C122.186 210.96 121.514 210.192 121.05 209.216C120.602 208.24 120.378 207.128 120.378 205.88C120.378 204.584 120.618 203.456 121.098 202.496C121.578 201.52 122.258 200.768 123.138 200.24C124.018 199.712 125.042 199.448 126.21 199.448C127.362 199.448 128.354 199.704 129.186 200.216C130.018 200.712 130.65 201.408 131.082 202.304C131.514 203.184 131.73 204.192 131.73 205.328C131.73 205.776 131.722 206.064 131.706 206.192H122.01C122.026 207.056 122.186 207.856 122.49 208.592C122.81 209.312 123.282 209.896 123.906 210.344C124.546 210.776 125.322 210.992 126.234 210.992C127.354 210.992 128.218 210.704 128.826 210.128C129.434 209.552 129.818 208.928 129.978 208.256H131.562C131.242 209.472 130.634 210.456 129.738 211.208C128.842 211.96 127.666 212.336 126.21 212.336ZM130.074 204.824C130.074 204.088 129.914 203.416 129.594 202.808C129.29 202.184 128.842 201.696 128.25 201.344C127.658 200.976 126.954 200.792 126.138 200.792C124.97 200.792 124.002 201.176 123.234 201.944C122.482 202.712 122.074 203.672 122.01 204.824H130.074ZM142.719 212.096C141.743 212.096 141.015 211.864 140.535 211.4C140.071 210.936 139.839 210.08 139.839 208.832V201.128H138.039V199.76H139.839V195.68H141.399V199.76H143.871V201.128H141.399V208.856C141.399 209.608 141.503 210.112 141.711 210.368C141.919 210.608 142.327 210.728 142.935 210.728C143.079 210.728 143.391 210.712 143.871 210.68V212C143.439 212.064 143.055 212.096 142.719 212.096ZM154.149 203.744C154.149 202.88 153.925 202.184 153.477 201.656C153.029 201.112 152.309 200.84 151.317 200.84C150.565 200.84 149.893 201 149.301 201.32C148.725 201.64 148.269 202.064 147.933 202.592C147.613 203.104 147.453 203.664 147.453 204.272V212H145.893V194.84H147.453V201.512H147.501C147.901 200.92 148.445 200.432 149.133 200.048C149.837 199.664 150.693 199.472 151.701 199.472C152.869 199.472 153.829 199.808 154.581 200.48C155.333 201.136 155.709 202.112 155.709 203.408V212H154.149V203.744ZM163.687 212.336C162.471 212.336 161.423 212.064 160.543 211.52C159.663 210.96 158.991 210.192 158.527 209.216C158.079 208.24 157.854 207.128 157.854 205.88C157.854 204.584 158.095 203.456 158.575 202.496C159.055 201.52 159.735 200.768 160.615 200.24C161.495 199.712 162.519 199.448 163.687 199.448C164.839 199.448 165.831 199.704 166.663 200.216C167.495 200.712 168.127 201.408 168.559 202.304C168.991 203.184 169.207 204.192 169.207 205.328C169.207 205.776 169.199 206.064 169.182 206.192H159.487C159.503 207.056 159.663 207.856 159.967 208.592C160.287 209.312 160.759 209.896 161.383 210.344C162.023 210.776 162.799 210.992 163.711 210.992C164.831 210.992 165.695 210.704 166.303 210.128C166.911 209.552 167.295 208.928 167.455 208.256H169.039C168.719 209.472 168.111 210.456 167.215 211.208C166.319 211.96 165.143 212.336 163.687 212.336ZM167.551 204.824C167.551 204.088 167.391 203.416 167.071 202.808C166.767 202.184 166.319 201.696 165.727 201.344C165.135 200.976 164.431 200.792 163.615 200.792C162.447 200.792 161.479 201.176 160.711 201.944C159.959 202.712 159.551 203.672 159.487 204.824H167.551ZM171.393 199.76H172.953V212H171.393V199.76ZM171.153 195.296H173.169V197.312H171.153V195.296ZM177.383 212H175.823V199.76H177.383V202.256H177.431C177.767 201.408 178.223 200.736 178.799 200.24C179.391 199.728 180.095 199.472 180.911 199.472C181.327 199.472 181.679 199.496 181.967 199.544V201.08C181.727 201.032 181.479 201.008 181.223 201.008C180.503 201.008 179.847 201.192 179.255 201.56C178.679 201.912 178.223 202.408 177.887 203.048C177.551 203.672 177.383 204.376 177.383 205.16V212ZM193.523 212.336C192.323 212.336 191.275 212.064 190.379 211.52C189.499 210.976 188.819 210.224 188.339 209.264C187.875 208.288 187.643 207.168 187.643 205.904C187.643 204.64 187.875 203.52 188.339 202.544C188.819 201.568 189.499 200.808 190.379 200.264C191.275 199.72 192.323 199.448 193.523 199.448C194.723 199.448 195.763 199.72 196.643 200.264C197.539 200.808 198.219 201.568 198.683 202.544C199.163 203.52 199.403 204.64 199.403 205.904C199.403 207.168 199.163 208.288 198.683 209.264C198.219 210.224 197.539 210.976 196.643 211.52C195.763 212.064 194.723 212.336 193.523 212.336ZM189.275 205.904C189.275 207.376 189.635 208.592 190.355 209.552C191.091 210.496 192.147 210.968 193.523 210.968C194.899 210.968 195.947 210.496 196.667 209.552C197.403 208.592 197.771 207.376 197.771 205.904C197.771 204.416 197.403 203.2 196.667 202.256C195.947 201.296 194.899 200.816 193.523 200.816C192.147 200.816 191.091 201.296 190.355 202.256C189.635 203.2 189.275 204.416 189.275 205.904ZM200.195 199.76H201.923L204.971 210.224H205.019L207.875 199.76H209.627L212.483 210.224H212.531L215.603 199.76H217.283L213.371 212H211.619L208.739 201.656H208.691L205.811 212H204.083L200.195 199.76ZM227.274 203.744C227.274 202.88 227.05 202.184 226.602 201.656C226.154 201.112 225.434 200.84 224.442 200.84C223.69 200.84 223.018 201 222.426 201.32C221.85 201.64 221.394 202.064 221.058 202.592C220.738 203.104 220.578 203.664 220.578 204.272V212H219.018V199.76H220.578V201.512H220.626C221.026 200.92 221.57 200.432 222.258 200.048C222.962 199.664 223.818 199.472 224.826 199.472C225.994 199.472 226.954 199.808 227.706 200.48C228.458 201.136 228.834 202.112 228.834 203.408V212H227.274V203.744ZM56.624 246.312C55.472 246.312 54.448 246.048 53.552 245.52C52.672 244.976 51.984 244.216 51.488 243.24C51.008 242.264 50.768 241.144 50.768 239.88C50.768 238.616 51.008 237.504 51.488 236.544C51.984 235.568 52.672 234.816 53.552 234.288C54.448 233.744 55.472 233.472 56.624 233.472C57.6 233.472 58.464 233.672 59.216 234.072C59.984 234.472 60.592 235.024 61.04 235.728C61.504 236.416 61.784 237.192 61.88 238.056H60.248C60.216 237.544 60.064 237.048 59.792 236.568C59.536 236.072 59.144 235.664 58.616 235.344C58.088 235.008 57.424 234.84 56.624 234.84C55.68 234.84 54.888 235.08 54.248 235.56C53.608 236.024 53.136 236.64 52.832 237.408C52.544 238.176 52.4 239 52.4 239.88C52.4 240.776 52.544 241.608 52.832 242.376C53.136 243.144 53.608 243.768 54.248 244.248C54.888 244.728 55.68 244.968 56.624 244.968C57.792 244.968 58.672 244.632 59.264 243.96C59.856 243.288 60.184 242.512 60.248 241.632H61.88C61.832 242.512 61.576 243.312 61.112 244.032C60.648 244.736 60.024 245.296 59.24 245.712C58.472 246.112 57.6 246.312 56.624 246.312ZM69.1871 246.336C67.9871 246.336 66.9391 246.064 66.0431 245.52C65.1631 244.976 64.4831 244.224 64.0031 243.264C63.5391 242.288 63.3071 241.168 63.3071 239.904C63.3071 238.64 63.5391 237.52 64.0031 236.544C64.4831 235.568 65.1631 234.808 66.0431 234.264C66.9391 233.72 67.9871 233.448 69.1871 233.448C70.3871 233.448 71.4271 233.72 72.3071 234.264C73.2031 234.808 73.8831 235.568 74.3471 236.544C74.8271 237.52 75.0671 238.64 75.0671 239.904C75.0671 241.168 74.8271 242.288 74.3471 243.264C73.8831 244.224 73.2031 244.976 72.3071 245.52C71.4271 246.064 70.3871 246.336 69.1871 246.336ZM64.9391 239.904C64.9391 241.376 65.2991 242.592 66.0191 243.552C66.7551 244.496 67.8111 244.968 69.1871 244.968C70.5631 244.968 71.6111 244.496 72.3311 243.552C73.0671 242.592 73.4351 241.376 73.4351 239.904C73.4351 238.416 73.0671 237.2 72.3311 236.256C71.6111 235.296 70.5631 234.816 69.1871 234.816C67.8111 234.816 66.7551 235.296 66.0191 236.256C65.2991 237.2 64.9391 238.416 64.9391 239.904ZM84.6601 237.744C84.6601 236.848 84.4921 236.144 84.1561 235.632C83.8201 235.104 83.1881 234.84 82.2601 234.84C81.5721 234.84 80.9641 235 80.4361 235.32C79.9241 235.64 79.5241 236.064 79.2361 236.592C78.9641 237.104 78.8281 237.664 78.8281 238.272V246H77.2681V233.76H78.8281V235.488H78.8761C79.2601 234.912 79.7561 234.432 80.3641 234.048C80.9721 233.664 81.7161 233.472 82.5961 233.472C84.3241 233.472 85.4201 234.224 85.8841 235.728H85.9321C86.3641 235.056 86.9161 234.512 87.5881 234.096C88.2761 233.68 89.0761 233.472 89.9881 233.472C91.1561 233.472 92.0441 233.808 92.6521 234.48C93.2761 235.152 93.5881 236.128 93.5881 237.408V246H92.0281V237.744C92.0281 236.848 91.8601 236.144 91.5241 235.632C91.2041 235.104 90.5801 234.84 89.6521 234.84C88.9641 234.84 88.3561 235 87.8281 235.32C87.3161 235.64 86.9161 236.064 86.6281 236.592C86.3561 237.104 86.2201 237.664 86.2201 238.272V246H84.6601V237.744ZM103.762 237.744C103.762 236.848 103.594 236.144 103.258 235.632C102.922 235.104 102.29 234.84 101.362 234.84C100.674 234.84 100.066 235 99.5377 235.32C99.0257 235.64 98.6257 236.064 98.3377 236.592C98.0657 237.104 97.9297 237.664 97.9297 238.272V246H96.3697V233.76H97.9297V235.488H97.9777C98.3617 234.912 98.8577 234.432 99.4657 234.048C100.074 233.664 100.818 233.472 101.698 233.472C103.426 233.472 104.522 234.224 104.986 235.728H105.034C105.466 235.056 106.018 234.512 106.69 234.096C107.378 233.68 108.178 233.472 109.09 233.472C110.258 233.472 111.146 233.808 111.754 234.48C112.378 235.152 112.69 236.128 112.69 237.408V246H111.13V237.744C111.13 236.848 110.962 236.144 110.626 235.632C110.306 235.104 109.682 234.84 108.754 234.84C108.066 234.84 107.458 235 106.93 235.32C106.418 235.64 106.018 236.064 105.73 236.592C105.458 237.104 105.322 237.664 105.322 238.272V246H103.762V237.744ZM119.383 246.288C118.215 246.288 117.255 245.96 116.503 245.304C115.751 244.632 115.375 243.648 115.375 242.352V233.76H116.935V242.016C116.935 242.88 117.159 243.584 117.607 244.128C118.055 244.656 118.775 244.92 119.767 244.92C120.519 244.92 121.183 244.76 121.759 244.44C122.351 244.12 122.807 243.704 123.127 243.192C123.463 242.664 123.631 242.096 123.631 241.488V233.76H125.191V246H123.631V244.272H123.583C123.183 244.848 122.631 245.328 121.927 245.712C121.239 246.096 120.391 246.288 119.383 246.288ZM136.337 237.744C136.337 236.88 136.113 236.184 135.665 235.656C135.217 235.112 134.497 234.84 133.505 234.84C132.753 234.84 132.081 235 131.489 235.32C130.913 235.64 130.457 236.064 130.121 236.592C129.801 237.104 129.641 237.664 129.641 238.272V246H128.081V233.76H129.641V235.512H129.689C130.089 234.92 130.633 234.432 131.321 234.048C132.025 233.664 132.881 233.472 133.889 233.472C135.057 233.472 136.017 233.808 136.769 234.48C137.521 235.136 137.897 236.112 137.897 237.408V246H136.337V237.744ZM140.69 233.76H142.25V246H140.69V233.76ZM140.45 229.296H142.466V231.312H140.45V229.296ZM148.672 246.096C147.696 246.096 146.968 245.864 146.488 245.4C146.024 244.936 145.792 244.08 145.792 242.832V235.128H143.992V233.76H145.792V229.68H147.352V233.76H149.824V235.128H147.352V242.856C147.352 243.608 147.456 244.112 147.664 244.368C147.872 244.608 148.28 244.728 148.888 244.728C149.032 244.728 149.344 244.712 149.824 244.68V246C149.392 246.064 149.008 246.096 148.672 246.096ZM152.926 250.296C152.59 250.296 152.198 250.264 151.75 250.2V248.856C152.118 248.904 152.43 248.928 152.686 248.928C153.294 248.928 153.822 248.696 154.27 248.232C154.734 247.768 155.126 247 155.446 245.928L150.502 233.76H152.23L156.214 243.96H156.262L160.054 233.76H161.734L156.838 246.36C156.262 247.848 155.678 248.872 155.086 249.432C154.494 250.008 153.774 250.296 152.926 250.296ZM162.429 239.112H168.861V240.648H162.429V239.112ZM177.035 246.288C175.147 246.288 173.771 245.496 172.907 243.912H172.859V246H171.299V228.84H172.859V235.728H172.907C173.323 235.056 173.867 234.512 174.539 234.096C175.211 233.664 176.043 233.448 177.035 233.448C178.043 233.448 178.955 233.712 179.771 234.24C180.587 234.752 181.235 235.496 181.715 236.472C182.195 237.432 182.435 238.568 182.435 239.88C182.435 241.176 182.195 242.312 181.715 243.288C181.235 244.248 180.587 244.992 179.771 245.52C178.955 246.032 178.043 246.288 177.035 246.288ZM172.859 239.88C172.859 240.888 173.027 241.776 173.363 242.544C173.699 243.296 174.171 243.88 174.779 244.296C175.387 244.712 176.083 244.92 176.867 244.92C177.683 244.92 178.387 244.696 178.979 244.248C179.587 243.8 180.043 243.192 180.347 242.424C180.651 241.656 180.803 240.808 180.803 239.88C180.803 238.952 180.651 238.104 180.347 237.336C180.043 236.552 179.587 235.936 178.979 235.488C178.387 235.024 177.683 234.792 176.867 234.792C176.083 234.792 175.387 235 174.779 235.416C174.171 235.832 173.699 236.424 173.363 237.192C173.027 237.96 172.859 238.856 172.859 239.88ZM188.571 246.288C187.403 246.288 186.443 245.96 185.691 245.304C184.939 244.632 184.563 243.648 184.563 242.352V233.76H186.123V242.016C186.123 242.88 186.347 243.584 186.795 244.128C187.243 244.656 187.963 244.92 188.955 244.92C189.707 244.92 190.371 244.76 190.947 244.44C191.539 244.12 191.995 243.704 192.315 243.192C192.651 242.664 192.819 242.096 192.819 241.488V233.76H194.379V246H192.819V244.272H192.771C192.371 244.848 191.819 245.328 191.115 245.712C190.427 246.096 189.579 246.288 188.571 246.288ZM197.268 233.76H198.828V246H197.268V233.76ZM197.028 229.296H199.044V231.312H197.028V229.296ZM201.698 228.84H203.258V246H201.698V228.84ZM210.855 246.312C209.864 246.312 208.952 246.056 208.12 245.544C207.304 245.016 206.656 244.272 206.176 243.312C205.712 242.336 205.479 241.192 205.479 239.88C205.479 238.584 205.712 237.456 206.176 236.496C206.656 235.52 207.304 234.776 208.12 234.264C208.952 233.736 209.864 233.472 210.855 233.472C211.864 233.472 212.704 233.688 213.376 234.12C214.048 234.536 214.584 235.104 214.984 235.824H215.032V228.84H216.592V246H215.032V244.008H214.984C214.584 244.68 214.04 245.232 213.352 245.664C212.68 246.096 211.848 246.312 210.855 246.312ZM207.112 239.88C207.112 241.32 207.456 242.528 208.144 243.504C208.848 244.464 209.816 244.944 211.048 244.944C211.832 244.944 212.52 244.736 213.112 244.32C213.72 243.904 214.192 243.32 214.528 242.568C214.864 241.8 215.032 240.904 215.032 239.88C215.032 238.872 214.864 237.992 214.528 237.24C214.192 236.472 213.72 235.88 213.112 235.464C212.52 235.048 211.832 234.84 211.048 234.84C210.232 234.84 209.52 235.064 208.912 235.512C208.32 235.96 207.872 236.568 207.568 237.336C207.264 238.104 207.112 238.952 207.112 239.88ZM219.487 233.76H221.047V246H219.487V233.76ZM219.247 229.296H221.263V231.312H219.247V229.296ZM232.173 237.744C232.173 236.88 231.949 236.184 231.501 235.656C231.053 235.112 230.333 234.84 229.341 234.84C228.589 234.84 227.917 235 227.325 235.32C226.749 235.64 226.293 236.064 225.957 236.592C225.637 237.104 225.477 237.664 225.477 238.272V246H223.917V233.76H225.477V235.512H225.525C225.925 234.92 226.469 234.432 227.157 234.048C227.861 233.664 228.717 233.472 229.725 233.472C230.893 233.472 231.853 233.808 232.605 234.48C233.357 235.136 233.733 236.112 233.733 237.408V246H232.173V237.744ZM241.518 250.392C239.918 250.392 238.662 250.048 237.75 249.36C236.854 248.672 236.358 247.768 236.262 246.648H237.894C238.022 247.352 238.382 247.92 238.974 248.352C239.566 248.8 240.422 249.024 241.542 249.024C244.166 249.024 245.478 247.832 245.478 245.448V243.168H245.43C245.046 243.856 244.502 244.408 243.798 244.824C243.11 245.224 242.278 245.424 241.302 245.424C240.294 245.424 239.382 245.2 238.566 244.752C237.766 244.304 237.126 243.632 236.646 242.736C236.166 241.84 235.926 240.736 235.926 239.424C235.926 238.128 236.166 237.032 236.646 236.136C237.126 235.24 237.766 234.576 238.566 234.144C239.382 233.696 240.294 233.472 241.302 233.472C242.278 233.472 243.11 233.68 243.798 234.096C244.502 234.496 245.046 235.024 245.43 235.68H245.478V233.76H247.038V245.232C247.038 246.928 246.55 248.208 245.574 249.072C244.598 249.952 243.246 250.392 241.518 250.392ZM237.558 239.424C237.558 240.848 237.902 241.976 238.59 242.808C239.294 243.64 240.27 244.056 241.518 244.056C242.702 244.056 243.654 243.664 244.374 242.88C245.11 242.096 245.478 240.944 245.478 239.424C245.478 237.936 245.11 236.8 244.374 236.016C243.654 235.232 242.702 234.84 241.518 234.84C240.27 234.84 239.294 235.256 238.59 236.088C237.902 236.92 237.558 238.032 237.558 239.424ZM56.624 280.336C55.408 280.336 54.36 280.064 53.48 279.52C52.6 278.96 51.928 278.192 51.464 277.216C51.016 276.24 50.792 275.128 50.792 273.88C50.792 272.584 51.032 271.456 51.512 270.496C51.992 269.52 52.672 268.768 53.552 268.24C54.432 267.712 55.456 267.448 56.624 267.448C57.776 267.448 58.768 267.704 59.6 268.216C60.432 268.712 61.064 269.408 61.496 270.304C61.928 271.184 62.144 272.192 62.144 273.328C62.144 273.776 62.136 274.064 62.12 274.192H52.424C52.44 275.056 52.6 275.856 52.904 276.592C53.224 277.312 53.696 277.896 54.32 278.344C54.96 278.776 55.736 278.992 56.648 278.992C57.768 278.992 58.632 278.704 59.24 278.128C59.848 277.552 60.232 276.928 60.392 276.256H61.976C61.656 277.472 61.048 278.456 60.152 279.208C59.256 279.96 58.08 280.336 56.624 280.336ZM60.488 272.824C60.488 272.088 60.328 271.416 60.008 270.808C59.704 270.184 59.256 269.696 58.664 269.344C58.072 268.976 57.368 268.792 56.552 268.792C55.384 268.792 54.416 269.176 53.648 269.944C52.896 270.712 52.488 271.672 52.424 272.824H60.488ZM62.8259 267.76H64.5539L68.2259 278.416H68.2499L71.8979 267.76H73.5779L69.0899 280H67.3139L62.8259 267.76ZM80.0849 280.336C78.8689 280.336 77.8209 280.064 76.9409 279.52C76.0609 278.96 75.3889 278.192 74.9249 277.216C74.4769 276.24 74.2529 275.128 74.2529 273.88C74.2529 272.584 74.4929 271.456 74.9729 270.496C75.4529 269.52 76.1329 268.768 77.0129 268.24C77.8929 267.712 78.9169 267.448 80.0849 267.448C81.2369 267.448 82.2289 267.704 83.0609 268.216C83.8929 268.712 84.5249 269.408 84.9569 270.304C85.3889 271.184 85.6049 272.192 85.6049 273.328C85.6049 273.776 85.5969 274.064 85.5809 274.192H75.8849C75.9009 275.056 76.0609 275.856 76.3649 276.592C76.6849 277.312 77.1569 277.896 77.7809 278.344C78.4209 278.776 79.1969 278.992 80.1089 278.992C81.2289 278.992 82.0929 278.704 82.7009 278.128C83.3089 277.552 83.6929 276.928 83.8529 276.256H85.4369C85.1169 277.472 84.5089 278.456 83.6129 279.208C82.7169 279.96 81.5409 280.336 80.0849 280.336ZM83.9489 272.824C83.9489 272.088 83.7889 271.416 83.4689 270.808C83.1649 270.184 82.7169 269.696 82.1249 269.344C81.5329 268.976 80.8289 268.792 80.0129 268.792C78.8449 268.792 77.8769 269.176 77.1089 269.944C76.3569 270.712 75.9489 271.672 75.8849 272.824H83.9489ZM96.0476 271.744C96.0476 270.88 95.8236 270.184 95.3756 269.656C94.9276 269.112 94.2076 268.84 93.2156 268.84C92.4636 268.84 91.7916 269 91.1996 269.32C90.6236 269.64 90.1676 270.064 89.8316 270.592C89.5116 271.104 89.3516 271.664 89.3516 272.272V280H87.7916V267.76H89.3516V269.512H89.3996C89.7996 268.92 90.3436 268.432 91.0316 268.048C91.7356 267.664 92.5916 267.472 93.5996 267.472C94.7676 267.472 95.7276 267.808 96.4796 268.48C97.2316 269.136 97.6076 270.112 97.6076 271.408V280H96.0476V271.744ZM103.836 280.096C102.86 280.096 102.132 279.864 101.652 279.4C101.188 278.936 100.956 278.08 100.956 276.832V269.128H99.1558V267.76H100.956V263.68H102.516V267.76H104.988V269.128H102.516V276.856C102.516 277.608 102.62 278.112 102.828 278.368C103.036 278.608 103.444 278.728 104.052 278.728C104.196 278.728 104.508 278.712 104.988 278.68V280C104.556 280.064 104.172 280.096 103.836 280.096ZM111.522 280.312C109.858 280.312 108.554 279.912 107.61 279.112C106.666 278.296 106.178 277.256 106.146 275.992H107.778C107.826 276.888 108.162 277.608 108.786 278.152C109.41 278.68 110.33 278.944 111.546 278.944C112.634 278.944 113.426 278.736 113.922 278.32C114.418 277.888 114.666 277.336 114.666 276.664C114.666 276.168 114.53 275.776 114.258 275.488C114.002 275.184 113.674 274.96 113.274 274.816C112.874 274.672 112.346 274.528 111.69 274.384C111.594 274.368 111.41 274.328 111.138 274.264C110.114 274.008 109.306 273.768 108.714 273.544C108.122 273.32 107.618 272.984 107.202 272.536C106.802 272.088 106.602 271.496 106.602 270.76C106.602 269.752 106.986 268.952 107.754 268.36C108.522 267.768 109.586 267.472 110.946 267.472C112.45 267.472 113.61 267.824 114.426 268.528C115.258 269.216 115.73 270.104 115.842 271.192H114.21C113.89 269.624 112.81 268.84 110.97 268.84C110.09 268.84 109.41 269 108.93 269.32C108.466 269.64 108.234 270.088 108.234 270.664C108.234 271.096 108.362 271.44 108.618 271.696C108.874 271.952 109.194 272.152 109.578 272.296C109.978 272.44 110.514 272.584 111.186 272.728L111.738 272.872C112.714 273.112 113.514 273.36 114.138 273.616C114.762 273.856 115.282 274.216 115.698 274.696C116.114 275.176 116.322 275.816 116.322 276.616C116.322 277.736 115.898 278.632 115.05 279.304C114.202 279.976 113.026 280.312 111.522 280.312Z" fill="black"/>
<path d="M391 191.5C391 222.152 366.152 247 335.5 247C304.848 247 280 222.152 280 191.5C280 160.848 304.848 136 335.5 136C366.152 136 391 160.848 391 191.5Z" fill="#EBF2A0"/>
<path d="M354.314 191.5C354.314 201.89 345.89 210.314 335.5 210.314C325.11 210.314 316.686 201.89 316.686 191.5C316.686 181.11 325.11 172.686 335.5 172.686C345.89 172.686 354.314 181.11 354.314 191.5Z" fill="#EBF2A0"/>
<path d="M373.127 191.5C373.127 212.281 356.281 229.127 335.5 229.127C314.719 229.127 297.873 212.281 297.873 191.5C297.873 170.719 314.719 153.873 335.5 153.873C356.281 153.873 373.127 170.719 373.127 191.5Z" fill="#EBF2A0"/>
<path d="M391 191.5C391 222.152 366.152 247 335.5 247C304.848 247 280 222.152 280 191.5C280 160.848 304.848 136 335.5 136C366.152 136 391 160.848 391 191.5Z" stroke="#0D0C50" stroke-width="1.51852"/>
<path d="M354.314 191.5C354.314 201.89 345.89 210.314 335.5 210.314C325.11 210.314 316.686 201.89 316.686 191.5C316.686 181.11 325.11 172.686 335.5 172.686C345.89 172.686 354.314 181.11 354.314 191.5Z" stroke="#0D0C50" stroke-width="1.51852"/>
<path d="M373.127 191.5C373.127 212.281 356.281 229.127 335.5 229.127C314.719 229.127 297.873 212.281 297.873 191.5C297.873 170.719 314.719 153.873 335.5 153.873C356.281 153.873 373.127 170.719 373.127 191.5Z" stroke="#0D0C50" stroke-width="1.51852"/>
</svg>
