<svg width="442" height="372" viewBox="0 0 442 372" fill="none" xmlns="http://www.w3.org/2000/svg">
<rect width="442" height="372" fill="#E8E7FC"/>
<path d="M62.708 87.576C58.916 87.576 56.168 86.76 54.464 85.128C52.784 83.472 51.944 81 51.944 77.712V61.26H58.424V77.712C58.424 79.344 58.772 80.52 59.468 81.24C60.164 81.936 61.244 82.284 62.708 82.284C64.172 82.284 65.252 81.936 65.948 81.24C66.644 80.52 66.992 79.344 66.992 77.712V61.26H73.472V77.712C73.472 81 72.62 83.472 70.916 85.128C69.236 86.76 66.5 87.576 62.708 87.576ZM83.9266 87.576C80.9026 87.576 78.6466 86.952 77.1586 85.704C75.6706 84.456 74.8906 82.848 74.8186 80.88H80.2186C80.3866 82.704 81.5866 83.616 83.8186 83.616C85.4506 83.616 86.2666 83.088 86.2666 82.032C86.2666 81.576 86.1226 81.216 85.8346 80.952C85.5466 80.664 85.1746 80.448 84.7186 80.304C84.2866 80.16 83.6026 79.992 82.6666 79.8L81.7666 79.584C79.7746 79.128 78.1786 78.468 76.9786 77.604C75.7786 76.74 75.1786 75.468 75.1786 73.788C75.1786 72.036 75.8866 70.632 77.3026 69.576C78.7186 68.52 80.6986 67.992 83.2426 67.992C86.0026 67.992 88.0666 68.58 89.4346 69.756C90.8026 70.932 91.5346 72.42 91.6306 74.22H86.2306C86.1346 73.452 85.8586 72.888 85.4026 72.528C84.9706 72.144 84.2866 71.952 83.3506 71.952C81.8386 71.952 81.0826 72.444 81.0826 73.428C81.0826 73.932 81.2746 74.28 81.6586 74.472C82.0426 74.664 82.8226 74.892 83.9986 75.156L84.9346 75.372C86.4466 75.732 87.6946 76.128 88.6786 76.56C89.6866 76.968 90.5146 77.58 91.1626 78.396C91.8346 79.188 92.1706 80.256 92.1706 81.6C92.1706 83.52 91.4626 84.996 90.0466 86.028C88.6306 87.06 86.5906 87.576 83.9266 87.576ZM102.522 87.612C100.554 87.612 98.8498 87.204 97.4098 86.388C95.9698 85.548 94.8658 84.384 94.0978 82.896C93.3298 81.408 92.9458 79.704 92.9458 77.784C92.9458 75.96 93.3178 74.304 94.0618 72.816C94.8058 71.328 95.8978 70.152 97.3378 69.288C98.8018 68.4 100.53 67.956 102.522 67.956C105.642 67.956 107.994 68.856 109.578 70.656C111.162 72.432 111.954 75.036 111.954 78.468V79.332H98.7058C98.7058 80.556 99.0778 81.528 99.8218 82.248C100.59 82.944 101.538 83.292 102.666 83.292C104.37 83.292 105.462 82.668 105.942 81.42H111.81C111.282 83.364 110.226 84.888 108.642 85.992C107.082 87.072 105.042 87.612 102.522 87.612ZM106.158 75.768C106.158 74.592 105.834 73.692 105.186 73.068C104.538 72.444 103.65 72.132 102.522 72.132C101.418 72.132 100.53 72.444 99.8578 73.068C99.1858 73.692 98.8138 74.592 98.7418 75.768H106.158ZM119.414 87H113.654V68.568H119.414V71.592H119.486C119.942 70.608 120.554 69.84 121.322 69.288C122.114 68.712 123.002 68.424 123.986 68.424C124.61 68.424 125.138 68.472 125.57 68.568V73.608C125.114 73.536 124.718 73.5 124.382 73.5C122.99 73.5 121.814 73.932 120.854 74.796C119.894 75.636 119.414 76.848 119.414 78.432V87ZM139.454 87.36C137.438 87.36 135.974 86.868 135.062 85.884C134.15 84.876 133.694 83.256 133.694 81.024V72.888H131.138V68.568H133.694V63.42H139.454V68.568H142.658V72.888H139.454V80.88C139.454 81.792 139.598 82.38 139.886 82.644C140.198 82.908 140.678 83.04 141.326 83.04C141.758 83.04 142.274 82.992 142.874 82.896V86.964C141.746 87.228 140.606 87.36 139.454 87.36ZM153.044 87.612C151.076 87.612 149.372 87.204 147.932 86.388C146.492 85.548 145.388 84.384 144.62 82.896C143.852 81.408 143.468 79.704 143.468 77.784C143.468 75.96 143.84 74.304 144.584 72.816C145.328 71.328 146.42 70.152 147.86 69.288C149.324 68.4 151.052 67.956 153.044 67.956C156.164 67.956 158.516 68.856 160.1 70.656C161.684 72.432 162.476 75.036 162.476 78.468V79.332H149.228C149.228 80.556 149.6 81.528 150.344 82.248C151.112 82.944 152.06 83.292 153.188 83.292C154.892 83.292 155.984 82.668 156.464 81.42H162.332C161.804 83.364 160.748 84.888 159.164 85.992C157.604 87.072 155.564 87.612 153.044 87.612ZM156.68 75.768C156.68 74.592 156.356 73.692 155.708 73.068C155.06 72.444 154.172 72.132 153.044 72.132C151.94 72.132 151.052 72.444 150.38 73.068C149.708 73.692 149.336 74.592 149.264 75.768H156.68ZM172.349 87.576C169.325 87.576 167.069 86.952 165.581 85.704C164.093 84.456 163.313 82.848 163.241 80.88H168.641C168.809 82.704 170.009 83.616 172.241 83.616C173.873 83.616 174.689 83.088 174.689 82.032C174.689 81.576 174.545 81.216 174.257 80.952C173.969 80.664 173.597 80.448 173.141 80.304C172.709 80.16 172.025 79.992 171.089 79.8L170.189 79.584C168.197 79.128 166.601 78.468 165.401 77.604C164.201 76.74 163.601 75.468 163.601 73.788C163.601 72.036 164.309 70.632 165.725 69.576C167.141 68.52 169.121 67.992 171.665 67.992C174.425 67.992 176.489 68.58 177.857 69.756C179.225 70.932 179.957 72.42 180.053 74.22H174.653C174.557 73.452 174.281 72.888 173.825 72.528C173.393 72.144 172.709 71.952 171.773 71.952C170.261 71.952 169.505 72.444 169.505 73.428C169.505 73.932 169.697 74.28 170.081 74.472C170.465 74.664 171.245 74.892 172.421 75.156L173.357 75.372C174.869 75.732 176.117 76.128 177.101 76.56C178.109 76.968 178.937 77.58 179.585 78.396C180.257 79.188 180.593 80.256 180.593 81.6C180.593 83.52 179.885 84.996 178.469 86.028C177.053 87.06 175.013 87.576 172.349 87.576ZM189.115 87.36C187.099 87.36 185.635 86.868 184.723 85.884C183.811 84.876 183.355 83.256 183.355 81.024V72.888H180.799V68.568H183.355V63.42H189.115V68.568H192.319V72.888H189.115V80.88C189.115 81.792 189.259 82.38 189.547 82.644C189.859 82.908 190.339 83.04 190.987 83.04C191.419 83.04 191.935 82.992 192.535 82.896V86.964C191.407 87.228 190.267 87.36 189.115 87.36ZM194.307 68.568H200.067V87H194.307V68.568ZM194.307 61.26H200.067V66.372H194.307V61.26ZM214.613 76.38C214.613 75.036 214.373 74.088 213.893 73.536C213.437 72.96 212.717 72.672 211.733 72.672C209.429 72.672 208.277 73.896 208.277 76.344V87H202.517V68.568H208.277V71.232H208.349C209.597 69.072 211.613 67.992 214.397 67.992C216.221 67.992 217.673 68.568 218.753 69.72C219.833 70.872 220.373 72.48 220.373 74.544V87H214.613V76.38ZM231.391 93.588C228.751 93.588 226.675 93.012 225.163 91.86C223.651 90.708 222.715 89.292 222.355 87.612H228.187C228.619 88.836 229.687 89.448 231.391 89.448C232.663 89.448 233.551 89.088 234.055 88.368C234.583 87.648 234.847 86.46 234.847 84.804V83.724H234.775C234.295 84.348 233.635 84.912 232.795 85.416C231.955 85.896 230.935 86.136 229.735 86.136C228.199 86.136 226.843 85.752 225.667 84.984C224.491 84.216 223.579 83.148 222.931 81.78C222.307 80.412 221.995 78.84 221.995 77.064C221.995 75.288 222.307 73.716 222.931 72.348C223.579 70.98 224.491 69.912 225.667 69.144C226.843 68.376 228.199 67.992 229.735 67.992C230.935 67.992 231.955 68.244 232.795 68.748C233.635 69.228 234.295 69.78 234.775 70.404H234.847V68.568H240.607V84.804C240.607 87.948 239.815 90.192 238.231 91.536C236.671 92.904 234.391 93.588 231.391 93.588ZM227.899 77.064C227.899 78.6 228.175 79.776 228.727 80.592C229.303 81.408 230.167 81.816 231.319 81.816C232.471 81.816 233.323 81.408 233.875 80.592C234.451 79.776 234.739 78.6 234.739 77.064C234.739 75.528 234.451 74.352 233.875 73.536C233.323 72.72 232.471 72.312 231.319 72.312C230.167 72.312 229.303 72.72 228.727 73.536C228.175 74.352 227.899 75.528 227.899 77.064Z" fill="black"/>
<path d="M58.16 144.312C55.984 144.312 54.36 143.776 53.288 142.704C52.232 141.616 51.704 140.12 51.704 138.216V126.84H53.456V138.216C53.456 139.752 53.84 140.896 54.608 141.648C55.392 142.4 56.576 142.776 58.16 142.776C59.744 142.776 60.92 142.4 61.688 141.648C62.472 140.896 62.864 139.752 62.864 138.216V126.84H64.616V138.216C64.616 140.12 64.08 141.616 63.008 142.704C61.952 143.776 60.336 144.312 58.16 144.312ZM72.077 144.312C70.413 144.312 69.109 143.912 68.165 143.112C67.221 142.296 66.733 141.256 66.701 139.992H68.333C68.381 140.888 68.717 141.608 69.341 142.152C69.965 142.68 70.885 142.944 72.101 142.944C73.189 142.944 73.981 142.736 74.477 142.32C74.973 141.888 75.221 141.336 75.221 140.664C75.221 140.168 75.085 139.776 74.813 139.488C74.557 139.184 74.229 138.96 73.829 138.816C73.429 138.672 72.901 138.528 72.245 138.384C72.149 138.368 71.965 138.328 71.693 138.264C70.669 138.008 69.861 137.768 69.269 137.544C68.677 137.32 68.173 136.984 67.757 136.536C67.357 136.088 67.157 135.496 67.157 134.76C67.157 133.752 67.541 132.952 68.309 132.36C69.077 131.768 70.141 131.472 71.501 131.472C73.005 131.472 74.165 131.824 74.981 132.528C75.813 133.216 76.285 134.104 76.397 135.192H74.765C74.445 133.624 73.365 132.84 71.525 132.84C70.645 132.84 69.965 133 69.485 133.32C69.021 133.64 68.789 134.088 68.789 134.664C68.789 135.096 68.917 135.44 69.173 135.696C69.429 135.952 69.749 136.152 70.133 136.296C70.533 136.44 71.069 136.584 71.741 136.728L72.293 136.872C73.269 137.112 74.069 137.36 74.693 137.616C75.317 137.856 75.837 138.216 76.253 138.696C76.669 139.176 76.877 139.816 76.877 140.616C76.877 141.736 76.453 142.632 75.605 143.304C74.757 143.976 73.581 144.312 72.077 144.312ZM84.0693 144.336C82.8533 144.336 81.8053 144.064 80.9253 143.52C80.0453 142.96 79.3733 142.192 78.9093 141.216C78.4613 140.24 78.2373 139.128 78.2373 137.88C78.2373 136.584 78.4773 135.456 78.9573 134.496C79.4373 133.52 80.1173 132.768 80.9973 132.24C81.8773 131.712 82.9013 131.448 84.0693 131.448C85.2213 131.448 86.2133 131.704 87.0453 132.216C87.8773 132.712 88.5093 133.408 88.9413 134.304C89.3733 135.184 89.5893 136.192 89.5893 137.328C89.5893 137.776 89.5813 138.064 89.5653 138.192H79.8693C79.8853 139.056 80.0453 139.856 80.3493 140.592C80.6693 141.312 81.1413 141.896 81.7653 142.344C82.4053 142.776 83.1813 142.992 84.0933 142.992C85.2133 142.992 86.0773 142.704 86.6853 142.128C87.2933 141.552 87.6773 140.928 87.8373 140.256H89.4213C89.1013 141.472 88.4933 142.456 87.5973 143.208C86.7013 143.96 85.5253 144.336 84.0693 144.336ZM87.9333 136.824C87.9333 136.088 87.7733 135.416 87.4533 134.808C87.1493 134.184 86.7013 133.696 86.1093 133.344C85.5173 132.976 84.8133 132.792 83.9973 132.792C82.8293 132.792 81.8613 133.176 81.0933 133.944C80.3413 134.712 79.9333 135.672 79.8693 136.824H87.9333ZM93.3359 144H91.7759V131.76H93.3359V134.256H93.3839C93.7199 133.408 94.1759 132.736 94.7519 132.24C95.3439 131.728 96.0479 131.472 96.8639 131.472C97.2799 131.472 97.6319 131.496 97.9199 131.544V133.08C97.6799 133.032 97.4319 133.008 97.1759 133.008C96.4559 133.008 95.7999 133.192 95.2079 133.56C94.6319 133.912 94.1759 134.408 93.8399 135.048C93.5039 135.672 93.3359 136.376 93.3359 137.16V144ZM107.82 144.096C106.844 144.096 106.116 143.864 105.636 143.4C105.172 142.936 104.94 142.08 104.94 140.832V133.128H103.14V131.76H104.94V127.68H106.5V131.76H108.972V133.128H106.5V140.856C106.5 141.608 106.604 142.112 106.812 142.368C107.02 142.608 107.428 142.728 108.036 142.728C108.18 142.728 108.492 142.712 108.972 142.68V144C108.54 144.064 108.156 144.096 107.82 144.096ZM115.897 144.336C114.681 144.336 113.633 144.064 112.753 143.52C111.873 142.96 111.201 142.192 110.737 141.216C110.289 140.24 110.065 139.128 110.065 137.88C110.065 136.584 110.305 135.456 110.785 134.496C111.265 133.52 111.945 132.768 112.825 132.24C113.705 131.712 114.729 131.448 115.897 131.448C117.049 131.448 118.041 131.704 118.873 132.216C119.705 132.712 120.337 133.408 120.769 134.304C121.201 135.184 121.417 136.192 121.417 137.328C121.417 137.776 121.409 138.064 121.393 138.192H111.697C111.713 139.056 111.873 139.856 112.177 140.592C112.497 141.312 112.969 141.896 113.593 142.344C114.233 142.776 115.009 142.992 115.921 142.992C117.041 142.992 117.905 142.704 118.513 142.128C119.121 141.552 119.505 140.928 119.665 140.256H121.249C120.929 141.472 120.321 142.456 119.425 143.208C118.529 143.96 117.353 144.336 115.897 144.336ZM119.761 136.824C119.761 136.088 119.601 135.416 119.281 134.808C118.977 134.184 118.529 133.696 117.937 133.344C117.345 132.976 116.641 132.792 115.825 132.792C114.657 132.792 113.689 133.176 112.921 133.944C112.169 134.712 111.761 135.672 111.697 136.824H119.761ZM128.116 144.312C126.452 144.312 125.148 143.912 124.204 143.112C123.26 142.296 122.772 141.256 122.74 139.992H124.372C124.42 140.888 124.756 141.608 125.38 142.152C126.004 142.68 126.924 142.944 128.14 142.944C129.228 142.944 130.02 142.736 130.516 142.32C131.012 141.888 131.26 141.336 131.26 140.664C131.26 140.168 131.124 139.776 130.852 139.488C130.596 139.184 130.268 138.96 129.868 138.816C129.468 138.672 128.94 138.528 128.284 138.384C128.188 138.368 128.004 138.328 127.732 138.264C126.708 138.008 125.9 137.768 125.308 137.544C124.716 137.32 124.212 136.984 123.796 136.536C123.396 136.088 123.196 135.496 123.196 134.76C123.196 133.752 123.58 132.952 124.348 132.36C125.116 131.768 126.18 131.472 127.54 131.472C129.044 131.472 130.204 131.824 131.02 132.528C131.852 133.216 132.324 134.104 132.436 135.192H130.804C130.484 133.624 129.404 132.84 127.564 132.84C126.684 132.84 126.004 133 125.524 133.32C125.06 133.64 124.828 134.088 124.828 134.664C124.828 135.096 124.956 135.44 125.212 135.696C125.468 135.952 125.788 136.152 126.172 136.296C126.572 136.44 127.108 136.584 127.78 136.728L128.332 136.872C129.308 137.112 130.108 137.36 130.732 137.616C131.356 137.856 131.876 138.216 132.292 138.696C132.708 139.176 132.916 139.816 132.916 140.616C132.916 141.736 132.492 142.632 131.644 143.304C130.796 143.976 129.62 144.312 128.116 144.312ZM138.359 144.096C137.383 144.096 136.655 143.864 136.175 143.4C135.711 142.936 135.479 142.08 135.479 140.832V133.128H133.679V131.76H135.479V127.68H137.039V131.76H139.511V133.128H137.039V140.856C137.039 141.608 137.143 142.112 137.351 142.368C137.559 142.608 137.967 142.728 138.575 142.728C138.719 142.728 139.031 142.712 139.511 142.68V144C139.079 144.064 138.695 144.096 138.359 144.096ZM141.534 131.76H143.094V144H141.534V131.76ZM141.294 127.296H143.31V129.312H141.294V127.296ZM154.219 135.744C154.219 134.88 153.995 134.184 153.547 133.656C153.099 133.112 152.379 132.84 151.387 132.84C150.635 132.84 149.963 133 149.371 133.32C148.795 133.64 148.339 134.064 148.003 134.592C147.683 135.104 147.523 135.664 147.523 136.272V144H145.963V131.76H147.523V133.512H147.571C147.971 132.92 148.515 132.432 149.203 132.048C149.907 131.664 150.763 131.472 151.771 131.472C152.939 131.472 153.899 131.808 154.651 132.48C155.403 133.136 155.779 134.112 155.779 135.408V144H154.219V135.744ZM163.565 148.392C161.965 148.392 160.709 148.048 159.797 147.36C158.901 146.672 158.405 145.768 158.309 144.648H159.941C160.069 145.352 160.429 145.92 161.021 146.352C161.613 146.8 162.469 147.024 163.589 147.024C166.213 147.024 167.525 145.832 167.525 143.448V141.168H167.477C167.093 141.856 166.549 142.408 165.845 142.824C165.157 143.224 164.325 143.424 163.349 143.424C162.341 143.424 161.429 143.2 160.613 142.752C159.813 142.304 159.173 141.632 158.693 140.736C158.213 139.84 157.973 138.736 157.973 137.424C157.973 136.128 158.213 135.032 158.693 134.136C159.173 133.24 159.813 132.576 160.613 132.144C161.429 131.696 162.341 131.472 163.349 131.472C164.325 131.472 165.157 131.68 165.845 132.096C166.549 132.496 167.093 133.024 167.477 133.68H167.525V131.76H169.085V143.232C169.085 144.928 168.597 146.208 167.621 147.072C166.645 147.952 165.293 148.392 163.565 148.392ZM159.605 137.424C159.605 138.848 159.949 139.976 160.637 140.808C161.341 141.64 162.317 142.056 163.565 142.056C164.749 142.056 165.701 141.664 166.421 140.88C167.157 140.096 167.525 138.944 167.525 137.424C167.525 135.936 167.157 134.8 166.421 134.016C165.701 133.232 164.749 132.84 163.565 132.84C162.317 132.84 161.341 133.256 160.637 134.088C159.949 134.92 159.605 136.032 159.605 137.424ZM175.609 131.76H177.337L180.385 142.224H180.433L183.289 131.76H185.041L187.897 142.224H187.945L191.017 131.76H192.697L188.785 144H187.033L184.153 133.656H184.105L181.225 144H179.497L175.609 131.76ZM194.432 131.76H195.992V144H194.432V131.76ZM194.192 127.296H196.208V129.312H194.192V127.296ZM202.414 144.096C201.438 144.096 200.71 143.864 200.23 143.4C199.766 142.936 199.534 142.08 199.534 140.832V133.128H197.734V131.76H199.534V127.68H201.094V131.76H203.566V133.128H201.094V140.856C201.094 141.608 201.198 142.112 201.406 142.368C201.614 142.608 202.022 142.728 202.63 142.728C202.774 142.728 203.086 142.712 203.566 142.68V144C203.134 144.064 202.75 144.096 202.414 144.096ZM213.844 135.744C213.844 134.88 213.62 134.184 213.172 133.656C212.724 133.112 212.004 132.84 211.012 132.84C210.26 132.84 209.588 133 208.996 133.32C208.42 133.64 207.964 134.064 207.628 134.592C207.308 135.104 207.148 135.664 207.148 136.272V144H205.588V126.84H207.148V133.512H207.196C207.596 132.92 208.14 132.432 208.828 132.048C209.532 131.664 210.388 131.472 211.396 131.472C212.564 131.472 213.524 131.808 214.276 132.48C215.028 133.136 215.404 134.112 215.404 135.408V144H213.844V135.744ZM228.68 144.312C227.48 144.312 226.448 144.08 225.584 143.616C224.72 143.152 224.064 142.544 223.616 141.792C223.168 141.024 222.928 140.2 222.896 139.32H224.696C224.792 140.344 225.152 141.176 225.776 141.816C226.416 142.456 227.36 142.776 228.608 142.776C229.824 142.776 230.8 142.4 231.536 141.648C232.272 140.896 232.64 139.808 232.64 138.384C232.64 137.072 232.296 136.096 231.608 135.456C230.92 134.816 229.992 134.496 228.824 134.496C227.976 134.496 227.224 134.656 226.568 134.976C225.912 135.296 225.392 135.72 225.008 136.248H223.136L224.888 127.416H233.6V128.952H226.304L225.176 134.496V134.544C226.104 133.488 227.448 132.96 229.208 132.96C230.248 132.96 231.16 133.2 231.944 133.68C232.744 134.144 233.36 134.792 233.792 135.624C234.24 136.44 234.464 137.36 234.464 138.384C234.464 139.552 234.216 140.584 233.72 141.48C233.224 142.376 232.536 143.072 231.656 143.568C230.776 144.064 229.784 144.312 228.68 144.312ZM58.832 169.744C58.832 168.848 58.664 168.144 58.328 167.632C57.992 167.104 57.36 166.84 56.432 166.84C55.744 166.84 55.136 167 54.608 167.32C54.096 167.64 53.696 168.064 53.408 168.592C53.136 169.104 53 169.664 53 170.272V178H51.44V165.76H53V167.488H53.048C53.432 166.912 53.928 166.432 54.536 166.048C55.144 165.664 55.888 165.472 56.768 165.472C58.496 165.472 59.592 166.224 60.056 167.728H60.104C60.536 167.056 61.088 166.512 61.76 166.096C62.448 165.68 63.248 165.472 64.16 165.472C65.328 165.472 66.216 165.808 66.824 166.48C67.448 167.152 67.76 168.128 67.76 169.408V178H66.2V169.744C66.2 168.848 66.032 168.144 65.696 167.632C65.376 167.104 64.752 166.84 63.824 166.84C63.136 166.84 62.528 167 62 167.32C61.488 167.64 61.088 168.064 60.8 168.592C60.528 169.104 60.392 169.664 60.392 170.272V178H58.832V169.744ZM75.7496 178.336C74.5496 178.336 73.5016 178.064 72.6056 177.52C71.7256 176.976 71.0456 176.224 70.5656 175.264C70.1016 174.288 69.8696 173.168 69.8696 171.904C69.8696 170.64 70.1016 169.52 70.5656 168.544C71.0456 167.568 71.7256 166.808 72.6056 166.264C73.5016 165.72 74.5496 165.448 75.7496 165.448C76.9496 165.448 77.9896 165.72 78.8696 166.264C79.7656 166.808 80.4456 167.568 80.9096 168.544C81.3896 169.52 81.6296 170.64 81.6296 171.904C81.6296 173.168 81.3896 174.288 80.9096 175.264C80.4456 176.224 79.7656 176.976 78.8696 177.52C77.9896 178.064 76.9496 178.336 75.7496 178.336ZM71.5016 171.904C71.5016 173.376 71.8616 174.592 72.5816 175.552C73.3176 176.496 74.3736 176.968 75.7496 176.968C77.1256 176.968 78.1736 176.496 78.8936 175.552C79.6296 174.592 79.9976 173.376 79.9976 171.904C79.9976 170.416 79.6296 169.2 78.8936 168.256C78.1736 167.296 77.1256 166.816 75.7496 166.816C74.3736 166.816 73.3176 167.296 72.5816 168.256C71.8616 169.2 71.5016 170.416 71.5016 171.904ZM85.3906 178H83.8306V165.76H85.3906V168.256H85.4386C85.7746 167.408 86.2306 166.736 86.8066 166.24C87.3986 165.728 88.1026 165.472 88.9186 165.472C89.3346 165.472 89.6866 165.496 89.9746 165.544V167.08C89.7346 167.032 89.4866 167.008 89.2306 167.008C88.5106 167.008 87.8546 167.192 87.2626 167.56C86.6866 167.912 86.2306 168.408 85.8946 169.048C85.5586 169.672 85.3906 170.376 85.3906 171.16V178ZM96.1396 178.336C94.9236 178.336 93.8756 178.064 92.9956 177.52C92.1156 176.96 91.4436 176.192 90.9796 175.216C90.5316 174.24 90.3076 173.128 90.3076 171.88C90.3076 170.584 90.5476 169.456 91.0276 168.496C91.5076 167.52 92.1876 166.768 93.0676 166.24C93.9476 165.712 94.9716 165.448 96.1396 165.448C97.2916 165.448 98.2836 165.704 99.1156 166.216C99.9476 166.712 100.58 167.408 101.012 168.304C101.444 169.184 101.66 170.192 101.66 171.328C101.66 171.776 101.652 172.064 101.636 172.192H91.9396C91.9556 173.056 92.1156 173.856 92.4196 174.592C92.7396 175.312 93.2116 175.896 93.8356 176.344C94.4756 176.776 95.2516 176.992 96.1636 176.992C97.2836 176.992 98.1476 176.704 98.7556 176.128C99.3636 175.552 99.7476 174.928 99.9076 174.256H101.492C101.172 175.472 100.564 176.456 99.6676 177.208C98.7716 177.96 97.5956 178.336 96.1396 178.336ZM100.004 170.824C100.004 170.088 99.8436 169.416 99.5236 168.808C99.2196 168.184 98.7716 167.696 98.1796 167.344C97.5876 166.976 96.8836 166.792 96.0676 166.792C94.8996 166.792 93.9316 167.176 93.1636 167.944C92.4116 168.712 92.0036 169.672 91.9396 170.824H100.004ZM114.832 178.288C113.824 178.288 112.984 178.08 112.312 177.664C111.64 177.232 111.104 176.656 110.704 175.936H110.656V182.248H109.096V165.76H110.656V167.728H110.704C111.12 167.056 111.664 166.512 112.336 166.096C113.008 165.664 113.84 165.448 114.832 165.448C115.84 165.448 116.752 165.712 117.568 166.24C118.384 166.752 119.032 167.496 119.512 168.472C119.992 169.432 120.232 170.568 120.232 171.88C120.232 173.176 119.992 174.312 119.512 175.288C119.032 176.248 118.384 176.992 117.568 177.52C116.752 178.032 115.84 178.288 114.832 178.288ZM110.656 171.88C110.656 172.888 110.824 173.776 111.16 174.544C111.496 175.296 111.968 175.88 112.576 176.296C113.184 176.712 113.88 176.92 114.664 176.92C115.48 176.92 116.184 176.696 116.776 176.248C117.384 175.8 117.84 175.192 118.144 174.424C118.448 173.656 118.6 172.808 118.6 171.88C118.6 170.44 118.248 169.24 117.544 168.28C116.856 167.304 115.896 166.816 114.664 166.816C113.88 166.816 113.184 167.024 112.576 167.44C111.968 167.856 111.496 168.448 111.16 169.216C110.824 169.984 110.656 170.872 110.656 171.88ZM127.64 178.336C126.424 178.336 125.376 178.064 124.496 177.52C123.616 176.96 122.944 176.192 122.48 175.216C122.032 174.24 121.808 173.128 121.808 171.88C121.808 170.584 122.048 169.456 122.528 168.496C123.008 167.52 123.688 166.768 124.568 166.24C125.448 165.712 126.472 165.448 127.64 165.448C128.792 165.448 129.784 165.704 130.616 166.216C131.448 166.712 132.08 167.408 132.512 168.304C132.944 169.184 133.16 170.192 133.16 171.328C133.16 171.776 133.152 172.064 133.136 172.192H123.44C123.456 173.056 123.616 173.856 123.92 174.592C124.24 175.312 124.712 175.896 125.336 176.344C125.976 176.776 126.752 176.992 127.664 176.992C128.784 176.992 129.648 176.704 130.256 176.128C130.864 175.552 131.248 174.928 131.408 174.256H132.992C132.672 175.472 132.064 176.456 131.168 177.208C130.272 177.96 129.096 178.336 127.64 178.336ZM131.504 170.824C131.504 170.088 131.344 169.416 131.024 168.808C130.72 168.184 130.272 167.696 129.68 167.344C129.088 166.976 128.384 166.792 127.568 166.792C126.4 166.792 125.432 167.176 124.664 167.944C123.912 168.712 123.504 169.672 123.44 170.824H131.504ZM140.554 178.336C139.354 178.336 138.306 178.064 137.41 177.52C136.53 176.976 135.85 176.224 135.37 175.264C134.906 174.288 134.674 173.168 134.674 171.904C134.674 170.64 134.906 169.52 135.37 168.544C135.85 167.568 136.53 166.808 137.41 166.264C138.306 165.72 139.354 165.448 140.554 165.448C141.754 165.448 142.794 165.72 143.674 166.264C144.57 166.808 145.25 167.568 145.714 168.544C146.194 169.52 146.434 170.64 146.434 171.904C146.434 173.168 146.194 174.288 145.714 175.264C145.25 176.224 144.57 176.976 143.674 177.52C142.794 178.064 141.754 178.336 140.554 178.336ZM136.306 171.904C136.306 173.376 136.666 174.592 137.386 175.552C138.122 176.496 139.178 176.968 140.554 176.968C141.93 176.968 142.978 176.496 143.698 175.552C144.434 174.592 144.802 173.376 144.802 171.904C144.802 170.416 144.434 169.2 143.698 168.256C142.978 167.296 141.93 166.816 140.554 166.816C139.178 166.816 138.122 167.296 137.386 168.256C136.666 169.2 136.306 170.416 136.306 171.904ZM154.371 178.288C153.363 178.288 152.523 178.08 151.851 177.664C151.179 177.232 150.643 176.656 150.243 175.936H150.195V182.248H148.635V165.76H150.195V167.728H150.243C150.659 167.056 151.203 166.512 151.875 166.096C152.547 165.664 153.379 165.448 154.371 165.448C155.379 165.448 156.291 165.712 157.107 166.24C157.923 166.752 158.571 167.496 159.051 168.472C159.531 169.432 159.771 170.568 159.771 171.88C159.771 173.176 159.531 174.312 159.051 175.288C158.571 176.248 157.923 176.992 157.107 177.52C156.291 178.032 155.379 178.288 154.371 178.288ZM150.195 171.88C150.195 172.888 150.363 173.776 150.699 174.544C151.035 175.296 151.507 175.88 152.115 176.296C152.723 176.712 153.419 176.92 154.203 176.92C155.019 176.92 155.723 176.696 156.315 176.248C156.923 175.8 157.379 175.192 157.683 174.424C157.987 173.656 158.139 172.808 158.139 171.88C158.139 170.44 157.787 169.24 157.083 168.28C156.395 167.304 155.435 166.816 154.203 166.816C153.419 166.816 152.723 167.024 152.115 167.44C151.507 167.856 151.035 168.448 150.699 169.216C150.363 169.984 150.195 170.872 150.195 171.88ZM161.995 160.84H163.555V178H161.995V160.84ZM171.608 178.336C170.392 178.336 169.344 178.064 168.464 177.52C167.584 176.96 166.912 176.192 166.448 175.216C166 174.24 165.776 173.128 165.776 171.88C165.776 170.584 166.016 169.456 166.496 168.496C166.976 167.52 167.656 166.768 168.536 166.24C169.416 165.712 170.44 165.448 171.608 165.448C172.76 165.448 173.752 165.704 174.584 166.216C175.416 166.712 176.048 167.408 176.48 168.304C176.912 169.184 177.128 170.192 177.128 171.328C177.128 171.776 177.12 172.064 177.104 172.192H167.408C167.424 173.056 167.584 173.856 167.888 174.592C168.208 175.312 168.68 175.896 169.304 176.344C169.944 176.776 170.72 176.992 171.632 176.992C172.752 176.992 173.616 176.704 174.224 176.128C174.832 175.552 175.216 174.928 175.376 174.256H176.96C176.64 175.472 176.032 176.456 175.136 177.208C174.24 177.96 173.064 178.336 171.608 178.336ZM175.472 170.824C175.472 170.088 175.312 169.416 174.992 168.808C174.688 168.184 174.24 167.696 173.648 167.344C173.056 166.976 172.352 166.792 171.536 166.792C170.368 166.792 169.4 167.176 168.632 167.944C167.88 168.712 167.472 169.672 167.408 170.824H175.472ZM188.117 178.096C187.141 178.096 186.413 177.864 185.933 177.4C185.469 176.936 185.237 176.08 185.237 174.832V167.128H183.437V165.76H185.237V161.68H186.797V165.76H189.269V167.128H186.797V174.856C186.797 175.608 186.901 176.112 187.109 176.368C187.317 176.608 187.725 176.728 188.333 176.728C188.477 176.728 188.789 176.712 189.269 176.68V178C188.837 178.064 188.453 178.096 188.117 178.096ZM196.218 178.336C195.018 178.336 193.97 178.064 193.074 177.52C192.194 176.976 191.514 176.224 191.034 175.264C190.57 174.288 190.338 173.168 190.338 171.904C190.338 170.64 190.57 169.52 191.034 168.544C191.514 167.568 192.194 166.808 193.074 166.264C193.97 165.72 195.018 165.448 196.218 165.448C197.418 165.448 198.458 165.72 199.338 166.264C200.234 166.808 200.914 167.568 201.378 168.544C201.858 169.52 202.098 170.64 202.098 171.904C202.098 173.168 201.858 174.288 201.378 175.264C200.914 176.224 200.234 176.976 199.338 177.52C198.458 178.064 197.418 178.336 196.218 178.336ZM191.97 171.904C191.97 173.376 192.33 174.592 193.05 175.552C193.786 176.496 194.842 176.968 196.218 176.968C197.594 176.968 198.642 176.496 199.362 175.552C200.098 174.592 200.466 173.376 200.466 171.904C200.466 170.416 200.098 169.2 199.362 168.256C198.642 167.296 197.594 166.816 196.218 166.816C194.842 166.816 193.786 167.296 193.05 168.256C192.33 169.2 191.97 170.416 191.97 171.904ZM50.24 199.76H51.968L55.64 210.416H55.664L59.312 199.76H60.992L56.504 212H54.728L50.24 199.76ZM65.6281 212.312C64.4121 212.312 63.4361 212 62.7001 211.376C61.9801 210.752 61.6201 209.928 61.6201 208.904C61.6201 208.056 61.8121 207.368 62.1961 206.84C62.5801 206.312 63.1321 205.904 63.8521 205.616C64.5721 205.328 65.5081 205.08 66.6601 204.872C67.5721 204.712 68.2201 204.584 68.6041 204.488C69.0041 204.376 69.3321 204.2 69.5881 203.96C69.8441 203.72 69.9721 203.368 69.9721 202.904C69.9721 202.248 69.7401 201.736 69.2761 201.368C68.8281 201 68.1321 200.816 67.1881 200.816C66.0361 200.816 65.2041 201.024 64.6921 201.44C64.1961 201.856 63.9161 202.528 63.8521 203.456H62.1961C62.2601 202.272 62.7001 201.312 63.5161 200.576C64.3321 199.824 65.5721 199.448 67.2361 199.448C68.4841 199.448 69.5001 199.76 70.2841 200.384C71.0841 200.992 71.4841 201.976 71.4841 203.336V209.456C71.4841 209.968 71.5321 210.336 71.6281 210.56C71.7241 210.784 71.9081 210.896 72.1801 210.896C72.3081 210.896 72.4201 210.888 72.5161 210.872V212C72.1641 212.064 71.8921 212.096 71.7001 212.096C71.1561 212.096 70.7401 211.96 70.4521 211.688C70.1801 211.4 70.0201 210.888 69.9721 210.152H69.9241C69.5081 210.856 68.9321 211.392 68.1961 211.76C67.4761 212.128 66.6201 212.312 65.6281 212.312ZM63.2521 208.76C63.2521 210.216 64.1081 210.944 65.8201 210.944C67.0841 210.944 68.0921 210.632 68.8441 210.008C69.5961 209.368 69.9721 208.504 69.9721 207.416V205.136C69.8121 205.36 69.4601 205.552 68.9161 205.712C68.3881 205.872 67.7001 206.024 66.8521 206.168C65.5881 206.392 64.6681 206.696 64.0921 207.08C63.5321 207.448 63.2521 208.008 63.2521 208.76ZM74.5963 194.84H76.1562V212H74.5963V194.84ZM79.0259 199.76H80.5859V212H79.0259V199.76ZM78.7859 195.296H80.8019V197.312H78.7859V195.296ZM88.1836 212.312C87.1916 212.312 86.2796 212.056 85.4476 211.544C84.6316 211.016 83.9836 210.272 83.5036 209.312C83.0396 208.336 82.8076 207.192 82.8076 205.88C82.8076 204.584 83.0396 203.456 83.5036 202.496C83.9836 201.52 84.6316 200.776 85.4476 200.264C86.2796 199.736 87.1916 199.472 88.1836 199.472C89.1916 199.472 90.0316 199.688 90.7036 200.12C91.3756 200.536 91.9116 201.104 92.3116 201.824H92.3596V194.84H93.9196V212H92.3596V210.008H92.3116C91.9116 210.68 91.3676 211.232 90.6796 211.664C90.0076 212.096 89.1756 212.312 88.1836 212.312ZM84.4396 205.88C84.4396 207.32 84.7836 208.528 85.4716 209.504C86.1756 210.464 87.1436 210.944 88.3756 210.944C89.1596 210.944 89.8476 210.736 90.4396 210.32C91.0476 209.904 91.5196 209.32 91.8556 208.568C92.1916 207.8 92.3596 206.904 92.3596 205.88C92.3596 204.872 92.1916 203.992 91.8556 203.24C91.5196 202.472 91.0476 201.88 90.4396 201.464C89.8476 201.048 89.1596 200.84 88.3756 200.84C87.5596 200.84 86.8476 201.064 86.2396 201.512C85.6476 201.96 85.1996 202.568 84.8956 203.336C84.5916 204.104 84.4396 204.952 84.4396 205.88ZM100.175 212.312C98.959 212.312 97.983 212 97.247 211.376C96.527 210.752 96.167 209.928 96.167 208.904C96.167 208.056 96.359 207.368 96.743 206.84C97.127 206.312 97.679 205.904 98.399 205.616C99.119 205.328 100.055 205.08 101.207 204.872C102.119 204.712 102.767 204.584 103.151 204.488C103.551 204.376 103.879 204.2 104.135 203.96C104.391 203.72 104.519 203.368 104.519 202.904C104.519 202.248 104.287 201.736 103.823 201.368C103.375 201 102.679 200.816 101.735 200.816C100.583 200.816 99.751 201.024 99.239 201.44C98.743 201.856 98.463 202.528 98.399 203.456H96.743C96.807 202.272 97.247 201.312 98.063 200.576C98.879 199.824 100.119 199.448 101.783 199.448C103.031 199.448 104.047 199.76 104.831 200.384C105.631 200.992 106.031 201.976 106.031 203.336V209.456C106.031 209.968 106.079 210.336 106.175 210.56C106.271 210.784 106.455 210.896 106.727 210.896C106.855 210.896 106.967 210.888 107.063 210.872V212C106.711 212.064 106.439 212.096 106.247 212.096C105.703 212.096 105.287 211.96 104.999 211.688C104.727 211.4 104.567 210.888 104.519 210.152H104.471C104.055 210.856 103.479 211.392 102.743 211.76C102.023 212.128 101.167 212.312 100.175 212.312ZM97.799 208.76C97.799 210.216 98.655 210.944 100.367 210.944C101.631 210.944 102.639 210.632 103.391 210.008C104.143 209.368 104.519 208.504 104.519 207.416V205.136C104.359 205.36 104.007 205.552 103.463 205.712C102.935 205.872 102.247 206.024 101.399 206.168C100.135 206.392 99.215 206.696 98.639 207.08C98.079 207.448 97.799 208.008 97.799 208.76ZM112.484 212.096C111.508 212.096 110.78 211.864 110.3 211.4C109.836 210.936 109.604 210.08 109.604 208.832V201.128H107.804V199.76H109.604V195.68H111.164V199.76H113.636V201.128H111.164V208.856C111.164 209.608 111.268 210.112 111.476 210.368C111.684 210.608 112.092 210.728 112.7 210.728C112.844 210.728 113.156 210.712 113.636 210.68V212C113.204 212.064 112.82 212.096 112.484 212.096ZM120.562 212.336C119.346 212.336 118.298 212.064 117.418 211.52C116.538 210.96 115.866 210.192 115.402 209.216C114.954 208.24 114.729 207.128 114.729 205.88C114.729 204.584 114.97 203.456 115.45 202.496C115.93 201.52 116.61 200.768 117.49 200.24C118.37 199.712 119.394 199.448 120.562 199.448C121.714 199.448 122.706 199.704 123.538 200.216C124.37 200.712 125.002 201.408 125.434 202.304C125.866 203.184 126.082 204.192 126.082 205.328C126.082 205.776 126.074 206.064 126.057 206.192H116.362C116.378 207.056 116.538 207.856 116.842 208.592C117.162 209.312 117.634 209.896 118.258 210.344C118.898 210.776 119.674 210.992 120.586 210.992C121.706 210.992 122.57 210.704 123.178 210.128C123.786 209.552 124.17 208.928 124.33 208.256H125.914C125.594 209.472 124.986 210.456 124.09 211.208C123.194 211.96 122.018 212.336 120.562 212.336ZM124.426 204.824C124.426 204.088 124.266 203.416 123.946 202.808C123.642 202.184 123.194 201.696 122.602 201.344C122.01 200.976 121.306 200.792 120.49 200.792C119.322 200.792 118.354 201.176 117.586 201.944C116.834 202.712 116.426 203.672 116.362 204.824H124.426ZM137.07 212.096C136.094 212.096 135.366 211.864 134.886 211.4C134.422 210.936 134.19 210.08 134.19 208.832V201.128H132.39V199.76H134.19V195.68H135.75V199.76H138.222V201.128H135.75V208.856C135.75 209.608 135.854 210.112 136.062 210.368C136.27 210.608 136.678 210.728 137.286 210.728C137.43 210.728 137.742 210.712 138.222 210.68V212C137.79 212.064 137.406 212.096 137.07 212.096ZM148.501 203.744C148.501 202.88 148.277 202.184 147.829 201.656C147.381 201.112 146.661 200.84 145.669 200.84C144.917 200.84 144.245 201 143.653 201.32C143.077 201.64 142.621 202.064 142.285 202.592C141.965 203.104 141.805 203.664 141.805 204.272V212H140.245V194.84H141.805V201.512H141.853C142.253 200.92 142.797 200.432 143.485 200.048C144.189 199.664 145.045 199.472 146.053 199.472C147.221 199.472 148.181 199.808 148.933 200.48C149.685 201.136 150.061 202.112 150.061 203.408V212H148.501V203.744ZM158.038 212.336C156.822 212.336 155.774 212.064 154.894 211.52C154.014 210.96 153.342 210.192 152.878 209.216C152.43 208.24 152.206 207.128 152.206 205.88C152.206 204.584 152.446 203.456 152.926 202.496C153.406 201.52 154.086 200.768 154.966 200.24C155.846 199.712 156.87 199.448 158.038 199.448C159.19 199.448 160.182 199.704 161.014 200.216C161.846 200.712 162.478 201.408 162.91 202.304C163.342 203.184 163.558 204.192 163.558 205.328C163.558 205.776 163.55 206.064 163.534 206.192H153.838C153.854 207.056 154.014 207.856 154.318 208.592C154.638 209.312 155.11 209.896 155.734 210.344C156.374 210.776 157.15 210.992 158.062 210.992C159.182 210.992 160.046 210.704 160.654 210.128C161.262 209.552 161.646 208.928 161.806 208.256H163.39C163.07 209.472 162.462 210.456 161.566 211.208C160.67 211.96 159.494 212.336 158.038 212.336ZM161.902 204.824C161.902 204.088 161.742 203.416 161.422 202.808C161.118 202.184 160.67 201.696 160.078 201.344C159.486 200.976 158.782 200.792 157.966 200.792C156.798 200.792 155.83 201.176 155.062 201.944C154.31 202.712 153.902 203.672 153.838 204.824H161.902ZM176.731 212.288C174.843 212.288 173.467 211.496 172.603 209.912H172.555V212H170.995V194.84H172.555V201.728H172.603C173.019 201.056 173.563 200.512 174.235 200.096C174.907 199.664 175.739 199.448 176.731 199.448C177.739 199.448 178.651 199.712 179.467 200.24C180.283 200.752 180.931 201.496 181.411 202.472C181.891 203.432 182.131 204.568 182.131 205.88C182.131 207.176 181.891 208.312 181.411 209.288C180.931 210.248 180.283 210.992 179.467 211.52C178.651 212.032 177.739 212.288 176.731 212.288ZM172.555 205.88C172.555 206.888 172.723 207.776 173.059 208.544C173.395 209.296 173.867 209.88 174.475 210.296C175.083 210.712 175.779 210.92 176.563 210.92C177.379 210.92 178.083 210.696 178.675 210.248C179.283 209.8 179.739 209.192 180.043 208.424C180.347 207.656 180.499 206.808 180.499 205.88C180.499 204.952 180.347 204.104 180.043 203.336C179.739 202.552 179.283 201.936 178.675 201.488C178.083 201.024 177.379 200.792 176.563 200.792C175.779 200.792 175.083 201 174.475 201.416C173.867 201.832 173.395 202.424 173.059 203.192C172.723 203.96 172.555 204.856 172.555 205.88ZM185.914 212H184.354V199.76H185.914V202.256H185.962C186.298 201.408 186.754 200.736 187.33 200.24C187.922 199.728 188.626 199.472 189.442 199.472C189.858 199.472 190.21 199.496 190.498 199.544V201.08C190.258 201.032 190.01 201.008 189.754 201.008C189.034 201.008 188.378 201.192 187.786 201.56C187.21 201.912 186.754 202.408 186.418 203.048C186.082 203.672 185.914 204.376 185.914 205.16V212ZM195.003 212.312C193.787 212.312 192.811 212 192.075 211.376C191.355 210.752 190.995 209.928 190.995 208.904C190.995 208.056 191.187 207.368 191.571 206.84C191.955 206.312 192.507 205.904 193.227 205.616C193.947 205.328 194.883 205.08 196.035 204.872C196.947 204.712 197.595 204.584 197.979 204.488C198.379 204.376 198.707 204.2 198.963 203.96C199.219 203.72 199.347 203.368 199.347 202.904C199.347 202.248 199.115 201.736 198.651 201.368C198.203 201 197.507 200.816 196.563 200.816C195.411 200.816 194.579 201.024 194.067 201.44C193.571 201.856 193.291 202.528 193.227 203.456H191.571C191.635 202.272 192.075 201.312 192.891 200.576C193.707 199.824 194.947 199.448 196.611 199.448C197.859 199.448 198.875 199.76 199.659 200.384C200.459 200.992 200.859 201.976 200.859 203.336V209.456C200.859 209.968 200.907 210.336 201.003 210.56C201.099 210.784 201.283 210.896 201.555 210.896C201.683 210.896 201.795 210.888 201.891 210.872V212C201.539 212.064 201.267 212.096 201.075 212.096C200.531 212.096 200.115 211.96 199.827 211.688C199.555 211.4 199.395 210.888 199.347 210.152H199.299C198.883 210.856 198.307 211.392 197.571 211.76C196.851 212.128 195.995 212.312 195.003 212.312ZM192.627 208.76C192.627 210.216 193.483 210.944 195.195 210.944C196.459 210.944 197.467 210.632 198.219 210.008C198.971 209.368 199.347 208.504 199.347 207.416V205.136C199.187 205.36 198.835 205.552 198.291 205.712C197.763 205.872 197.075 206.024 196.227 206.168C194.963 206.392 194.043 206.696 193.467 207.08C192.907 207.448 192.627 208.008 192.627 208.76ZM212.227 203.744C212.227 202.88 212.003 202.184 211.555 201.656C211.107 201.112 210.387 200.84 209.395 200.84C208.643 200.84 207.971 201 207.379 201.32C206.803 201.64 206.347 202.064 206.011 202.592C205.691 203.104 205.531 203.664 205.531 204.272V212H203.971V199.76H205.531V201.512H205.579C205.979 200.92 206.523 200.432 207.211 200.048C207.915 199.664 208.771 199.472 209.779 199.472C210.947 199.472 211.907 199.808 212.659 200.48C213.411 201.136 213.787 202.112 213.787 203.408V212H212.227V203.744ZM221.309 212.312C220.317 212.312 219.405 212.056 218.573 211.544C217.757 211.016 217.109 210.272 216.629 209.312C216.165 208.336 215.933 207.192 215.933 205.88C215.933 204.584 216.165 203.456 216.629 202.496C217.109 201.52 217.757 200.776 218.573 200.264C219.405 199.736 220.317 199.472 221.309 199.472C222.317 199.472 223.157 199.688 223.829 200.12C224.501 200.536 225.037 201.104 225.437 201.824H225.485V194.84H227.045V212H225.485V210.008H225.437C225.037 210.68 224.493 211.232 223.805 211.664C223.133 212.096 222.301 212.312 221.309 212.312ZM217.565 205.88C217.565 207.32 217.909 208.528 218.597 209.504C219.301 210.464 220.269 210.944 221.501 210.944C222.285 210.944 222.973 210.736 223.565 210.32C224.173 209.904 224.645 209.32 224.981 208.568C225.317 207.8 225.485 206.904 225.485 205.88C225.485 204.872 225.317 203.992 224.981 203.24C224.645 202.472 224.173 201.88 223.565 201.464C222.973 201.048 222.285 200.84 221.501 200.84C220.685 200.84 219.973 201.064 219.365 201.512C218.773 201.96 218.325 202.568 218.021 203.336C217.717 204.104 217.565 204.952 217.565 205.88ZM229.676 213.872C230.06 213.728 230.324 213.52 230.468 213.248C230.612 212.992 230.676 212.576 230.66 212H229.676V209.984H231.692V212C231.692 212.736 231.548 213.344 231.26 213.824C230.972 214.304 230.444 214.664 229.676 214.904V213.872ZM56.624 246.312C55.472 246.312 54.448 246.048 53.552 245.52C52.672 244.976 51.984 244.216 51.488 243.24C51.008 242.264 50.768 241.144 50.768 239.88C50.768 238.616 51.008 237.504 51.488 236.544C51.984 235.568 52.672 234.816 53.552 234.288C54.448 233.744 55.472 233.472 56.624 233.472C57.6 233.472 58.464 233.672 59.216 234.072C59.984 234.472 60.592 235.024 61.04 235.728C61.504 236.416 61.784 237.192 61.88 238.056H60.248C60.216 237.544 60.064 237.048 59.792 236.568C59.536 236.072 59.144 235.664 58.616 235.344C58.088 235.008 57.424 234.84 56.624 234.84C55.68 234.84 54.888 235.08 54.248 235.56C53.608 236.024 53.136 236.64 52.832 237.408C52.544 238.176 52.4 239 52.4 239.88C52.4 240.776 52.544 241.608 52.832 242.376C53.136 243.144 53.608 243.768 54.248 244.248C54.888 244.728 55.68 244.968 56.624 244.968C57.792 244.968 58.672 244.632 59.264 243.96C59.856 243.288 60.184 242.512 60.248 241.632H61.88C61.832 242.512 61.576 243.312 61.112 244.032C60.648 244.736 60.024 245.296 59.24 245.712C58.472 246.112 57.6 246.312 56.624 246.312ZM69.1871 246.336C67.9871 246.336 66.9391 246.064 66.0431 245.52C65.1631 244.976 64.4831 244.224 64.0031 243.264C63.5391 242.288 63.3071 241.168 63.3071 239.904C63.3071 238.64 63.5391 237.52 64.0031 236.544C64.4831 235.568 65.1631 234.808 66.0431 234.264C66.9391 233.72 67.9871 233.448 69.1871 233.448C70.3871 233.448 71.4271 233.72 72.3071 234.264C73.2031 234.808 73.8831 235.568 74.3471 236.544C74.8271 237.52 75.0671 238.64 75.0671 239.904C75.0671 241.168 74.8271 242.288 74.3471 243.264C73.8831 244.224 73.2031 244.976 72.3071 245.52C71.4271 246.064 70.3871 246.336 69.1871 246.336ZM64.9391 239.904C64.9391 241.376 65.2991 242.592 66.0191 243.552C66.7551 244.496 67.8111 244.968 69.1871 244.968C70.5631 244.968 71.6111 244.496 72.3311 243.552C73.0671 242.592 73.4351 241.376 73.4351 239.904C73.4351 238.416 73.0671 237.2 72.3311 236.256C71.6111 235.296 70.5631 234.816 69.1871 234.816C67.8111 234.816 66.7551 235.296 66.0191 236.256C65.2991 237.2 64.9391 238.416 64.9391 239.904ZM85.5241 237.744C85.5241 236.88 85.3001 236.184 84.8521 235.656C84.4041 235.112 83.6841 234.84 82.6921 234.84C81.9401 234.84 81.2681 235 80.6761 235.32C80.1001 235.64 79.6441 236.064 79.3081 236.592C78.9881 237.104 78.8281 237.664 78.8281 238.272V246H77.2681V233.76H78.8281V235.512H78.8761C79.2761 234.92 79.8201 234.432 80.5081 234.048C81.2121 233.664 82.0681 233.472 83.0761 233.472C84.2441 233.472 85.2041 233.808 85.9561 234.48C86.7081 235.136 87.0841 236.112 87.0841 237.408V246H85.5241V237.744ZM95.0615 246.312C93.9095 246.312 92.8855 246.048 91.9895 245.52C91.1095 244.976 90.4215 244.216 89.9255 243.24C89.4455 242.264 89.2055 241.144 89.2055 239.88C89.2055 238.616 89.4455 237.504 89.9255 236.544C90.4215 235.568 91.1095 234.816 91.9895 234.288C92.8855 233.744 93.9095 233.472 95.0615 233.472C96.0375 233.472 96.9015 233.672 97.6535 234.072C98.4215 234.472 99.0295 235.024 99.4775 235.728C99.9415 236.416 100.222 237.192 100.318 238.056H98.6855C98.6535 237.544 98.5015 237.048 98.2295 236.568C97.9735 236.072 97.5815 235.664 97.0535 235.344C96.5255 235.008 95.8615 234.84 95.0615 234.84C94.1175 234.84 93.3255 235.08 92.6855 235.56C92.0455 236.024 91.5735 236.64 91.2695 237.408C90.9815 238.176 90.8375 239 90.8375 239.88C90.8375 240.776 90.9815 241.608 91.2695 242.376C91.5735 243.144 92.0455 243.768 92.6855 244.248C93.3255 244.728 94.1175 244.968 95.0615 244.968C96.2295 244.968 97.1095 244.632 97.7015 243.96C98.2935 243.288 98.6215 242.512 98.6855 241.632H100.318C100.27 242.512 100.014 243.312 99.5495 244.032C99.0855 244.736 98.4615 245.296 97.6775 245.712C96.9095 246.112 96.0375 246.312 95.0615 246.312ZM107.601 246.336C106.385 246.336 105.337 246.064 104.457 245.52C103.577 244.96 102.905 244.192 102.441 243.216C101.993 242.24 101.769 241.128 101.769 239.88C101.769 238.584 102.009 237.456 102.489 236.496C102.969 235.52 103.649 234.768 104.529 234.24C105.409 233.712 106.433 233.448 107.601 233.448C108.753 233.448 109.745 233.704 110.577 234.216C111.409 234.712 112.041 235.408 112.473 236.304C112.905 237.184 113.121 238.192 113.121 239.328C113.121 239.776 113.113 240.064 113.097 240.192H103.401C103.417 241.056 103.577 241.856 103.881 242.592C104.201 243.312 104.673 243.896 105.297 244.344C105.937 244.776 106.713 244.992 107.625 244.992C108.745 244.992 109.609 244.704 110.217 244.128C110.825 243.552 111.209 242.928 111.369 242.256H112.953C112.633 243.472 112.025 244.456 111.129 245.208C110.233 245.96 109.057 246.336 107.601 246.336ZM111.465 238.824C111.465 238.088 111.305 237.416 110.985 236.808C110.681 236.184 110.233 235.696 109.641 235.344C109.049 234.976 108.345 234.792 107.529 234.792C106.361 234.792 105.393 235.176 104.625 235.944C103.873 236.712 103.465 237.672 103.401 238.824H111.465ZM121.043 246.288C120.035 246.288 119.195 246.08 118.523 245.664C117.851 245.232 117.315 244.656 116.915 243.936H116.867V250.248H115.307V233.76H116.867V235.728H116.915C117.331 235.056 117.875 234.512 118.547 234.096C119.219 233.664 120.051 233.448 121.043 233.448C122.051 233.448 122.963 233.712 123.779 234.24C124.595 234.752 125.243 235.496 125.723 236.472C126.203 237.432 126.443 238.568 126.443 239.88C126.443 241.176 126.203 242.312 125.723 243.288C125.243 244.248 124.595 244.992 123.779 245.52C122.963 246.032 122.051 246.288 121.043 246.288ZM116.867 239.88C116.867 240.888 117.035 241.776 117.371 242.544C117.707 243.296 118.179 243.88 118.787 244.296C119.395 244.712 120.091 244.92 120.875 244.92C121.691 244.92 122.395 244.696 122.987 244.248C123.595 243.8 124.051 243.192 124.355 242.424C124.659 241.656 124.811 240.808 124.811 239.88C124.811 238.44 124.459 237.24 123.755 236.28C123.067 235.304 122.107 234.816 120.875 234.816C120.091 234.816 119.395 235.024 118.787 235.44C118.179 235.856 117.707 236.448 117.371 237.216C117.035 237.984 116.867 238.872 116.867 239.88ZM132.008 246.096C131.032 246.096 130.304 245.864 129.824 245.4C129.36 244.936 129.128 244.08 129.128 242.832V235.128H127.328V233.76H129.128V229.68H130.688V233.76H133.16V235.128H130.688V242.856C130.688 243.608 130.792 244.112 131 244.368C131.208 244.608 131.616 244.728 132.224 244.728C132.368 244.728 132.68 244.712 133.16 244.68V246C132.728 246.064 132.344 246.096 132.008 246.096ZM134.918 247.872C135.302 247.728 135.566 247.52 135.71 247.248C135.854 246.992 135.918 246.576 135.902 246H134.918V243.984H136.934V246C136.934 246.736 136.79 247.344 136.502 247.824C136.214 248.304 135.686 248.664 134.918 248.904V247.872ZM147.519 246.312C146.303 246.312 145.327 246 144.591 245.376C143.871 244.752 143.511 243.928 143.511 242.904C143.511 242.056 143.703 241.368 144.087 240.84C144.471 240.312 145.023 239.904 145.743 239.616C146.463 239.328 147.399 239.08 148.551 238.872C149.463 238.712 150.111 238.584 150.495 238.488C150.895 238.376 151.223 238.2 151.479 237.96C151.735 237.72 151.863 237.368 151.863 236.904C151.863 236.248 151.631 235.736 151.167 235.368C150.719 235 150.023 234.816 149.079 234.816C147.927 234.816 147.095 235.024 146.583 235.44C146.087 235.856 145.807 236.528 145.743 237.456H144.087C144.151 236.272 144.591 235.312 145.407 234.576C146.223 233.824 147.463 233.448 149.127 233.448C150.375 233.448 151.391 233.76 152.175 234.384C152.975 234.992 153.375 235.976 153.375 237.336V243.456C153.375 243.968 153.423 244.336 153.519 244.56C153.615 244.784 153.799 244.896 154.071 244.896C154.199 244.896 154.311 244.888 154.407 244.872V246C154.055 246.064 153.783 246.096 153.591 246.096C153.047 246.096 152.631 245.96 152.343 245.688C152.071 245.4 151.911 244.888 151.863 244.152H151.815C151.399 244.856 150.823 245.392 150.087 245.76C149.367 246.128 148.511 246.312 147.519 246.312ZM145.143 242.76C145.143 244.216 145.999 244.944 147.711 244.944C148.975 244.944 149.983 244.632 150.735 244.008C151.487 243.368 151.863 242.504 151.863 241.416V239.136C151.703 239.36 151.351 239.552 150.807 239.712C150.279 239.872 149.591 240.024 148.743 240.168C147.479 240.392 146.559 240.696 145.983 241.08C145.423 241.448 145.143 242.008 145.143 242.76ZM164.743 237.744C164.743 236.88 164.519 236.184 164.071 235.656C163.623 235.112 162.903 234.84 161.911 234.84C161.159 234.84 160.487 235 159.895 235.32C159.319 235.64 158.863 236.064 158.527 236.592C158.207 237.104 158.047 237.664 158.047 238.272V246H156.487V233.76H158.047V235.512H158.095C158.495 234.92 159.039 234.432 159.727 234.048C160.431 233.664 161.287 233.472 162.295 233.472C163.463 233.472 164.423 233.808 165.175 234.48C165.927 235.136 166.303 236.112 166.303 237.408V246H164.743V237.744ZM173.824 246.312C172.832 246.312 171.92 246.056 171.088 245.544C170.272 245.016 169.624 244.272 169.144 243.312C168.68 242.336 168.448 241.192 168.448 239.88C168.448 238.584 168.68 237.456 169.144 236.496C169.624 235.52 170.272 234.776 171.088 234.264C171.92 233.736 172.832 233.472 173.824 233.472C174.832 233.472 175.672 233.688 176.344 234.12C177.016 234.536 177.552 235.104 177.952 235.824H178V228.84H179.56V246H178V244.008H177.952C177.552 244.68 177.008 245.232 176.32 245.664C175.648 246.096 174.816 246.312 173.824 246.312ZM170.08 239.88C170.08 241.32 170.424 242.528 171.112 243.504C171.816 244.464 172.784 244.944 174.016 244.944C174.8 244.944 175.488 244.736 176.08 244.32C176.688 243.904 177.16 243.32 177.496 242.568C177.832 241.8 178 240.904 178 239.88C178 238.872 177.832 237.992 177.496 237.24C177.16 236.472 176.688 235.88 176.08 235.464C175.488 235.048 174.8 234.84 174.016 234.84C173.2 234.84 172.488 235.064 171.88 235.512C171.288 235.96 170.84 236.568 170.536 237.336C170.232 238.104 170.08 238.952 170.08 239.88ZM55.352 280.288C54.184 280.288 53.224 279.96 52.472 279.304C51.72 278.632 51.344 277.648 51.344 276.352V267.76H52.904V276.016C52.904 276.88 53.128 277.584 53.576 278.128C54.024 278.656 54.744 278.92 55.736 278.92C56.488 278.92 57.152 278.76 57.728 278.44C58.32 278.12 58.776 277.704 59.096 277.192C59.432 276.664 59.6 276.096 59.6 275.488V267.76H61.16V280H59.6V278.272H59.552C59.152 278.848 58.6 279.328 57.896 279.712C57.208 280.096 56.36 280.288 55.352 280.288ZM68.5614 280.312C66.8974 280.312 65.5934 279.912 64.6494 279.112C63.7054 278.296 63.2174 277.256 63.1854 275.992H64.8174C64.8654 276.888 65.2014 277.608 65.8254 278.152C66.4494 278.68 67.3694 278.944 68.5854 278.944C69.6734 278.944 70.4654 278.736 70.9614 278.32C71.4574 277.888 71.7054 277.336 71.7054 276.664C71.7054 276.168 71.5694 275.776 71.2974 275.488C71.0414 275.184 70.7134 274.96 70.3134 274.816C69.9134 274.672 69.3854 274.528 68.7294 274.384C68.6334 274.368 68.4494 274.328 68.1774 274.264C67.1534 274.008 66.3454 273.768 65.7534 273.544C65.1614 273.32 64.6574 272.984 64.2414 272.536C63.8414 272.088 63.6414 271.496 63.6414 270.76C63.6414 269.752 64.0254 268.952 64.7934 268.36C65.5614 267.768 66.6254 267.472 67.9854 267.472C69.4894 267.472 70.6494 267.824 71.4654 268.528C72.2974 269.216 72.7694 270.104 72.8814 271.192H71.2494C70.9294 269.624 69.8494 268.84 68.0094 268.84C67.1294 268.84 66.4494 269 65.9694 269.32C65.5054 269.64 65.2734 270.088 65.2734 270.664C65.2734 271.096 65.4014 271.44 65.6574 271.696C65.9134 271.952 66.2334 272.152 66.6174 272.296C67.0174 272.44 67.5534 272.584 68.2254 272.728L68.7774 272.872C69.7534 273.112 70.5534 273.36 71.1774 273.616C71.8014 273.856 72.3214 274.216 72.7374 274.696C73.1534 275.176 73.3614 275.816 73.3614 276.616C73.3614 277.736 72.9374 278.632 72.0894 279.304C71.2414 279.976 70.0654 280.312 68.5614 280.312ZM78.7297 280.312C77.5137 280.312 76.5377 280 75.8017 279.376C75.0817 278.752 74.7217 277.928 74.7217 276.904C74.7217 276.056 74.9137 275.368 75.2977 274.84C75.6817 274.312 76.2337 273.904 76.9537 273.616C77.6737 273.328 78.6097 273.08 79.7617 272.872C80.6737 272.712 81.3217 272.584 81.7057 272.488C82.1057 272.376 82.4337 272.2 82.6897 271.96C82.9457 271.72 83.0737 271.368 83.0737 270.904C83.0737 270.248 82.8417 269.736 82.3777 269.368C81.9297 269 81.2337 268.816 80.2897 268.816C79.1377 268.816 78.3057 269.024 77.7937 269.44C77.2977 269.856 77.0177 270.528 76.9537 271.456H75.2977C75.3617 270.272 75.8017 269.312 76.6177 268.576C77.4337 267.824 78.6737 267.448 80.3377 267.448C81.5857 267.448 82.6017 267.76 83.3857 268.384C84.1857 268.992 84.5857 269.976 84.5857 271.336V277.456C84.5857 277.968 84.6337 278.336 84.7297 278.56C84.8257 278.784 85.0097 278.896 85.2817 278.896C85.4097 278.896 85.5217 278.888 85.6177 278.872V280C85.2657 280.064 84.9937 280.096 84.8017 280.096C84.2577 280.096 83.8417 279.96 83.5537 279.688C83.2817 279.4 83.1217 278.888 83.0737 278.152H83.0257C82.6097 278.856 82.0337 279.392 81.2977 279.76C80.5777 280.128 79.7217 280.312 78.7297 280.312ZM76.3537 276.76C76.3537 278.216 77.2097 278.944 78.9217 278.944C80.1857 278.944 81.1937 278.632 81.9457 278.008C82.6977 277.368 83.0737 276.504 83.0737 275.416V273.136C82.9137 273.36 82.5617 273.552 82.0177 273.712C81.4897 273.872 80.8017 274.024 79.9537 274.168C78.6897 274.392 77.7697 274.696 77.1937 275.08C76.6337 275.448 76.3537 276.008 76.3537 276.76ZM93.4338 280.288C91.5458 280.288 90.1698 279.496 89.3058 277.912H89.2578V280H87.6978V262.84H89.2578V269.728H89.3058C89.7218 269.056 90.2658 268.512 90.9378 268.096C91.6098 267.664 92.4418 267.448 93.4338 267.448C94.4418 267.448 95.3538 267.712 96.1698 268.24C96.9858 268.752 97.6338 269.496 98.1138 270.472C98.5938 271.432 98.8338 272.568 98.8338 273.88C98.8338 275.176 98.5938 276.312 98.1138 277.288C97.6338 278.248 96.9858 278.992 96.1698 279.52C95.3538 280.032 94.4418 280.288 93.4338 280.288ZM89.2578 273.88C89.2578 274.888 89.4258 275.776 89.7618 276.544C90.0978 277.296 90.5698 277.88 91.1778 278.296C91.7858 278.712 92.4818 278.92 93.2658 278.92C94.0818 278.92 94.7858 278.696 95.3778 278.248C95.9858 277.8 96.4418 277.192 96.7458 276.424C97.0498 275.656 97.2018 274.808 97.2018 273.88C97.2018 272.952 97.0498 272.104 96.7458 271.336C96.4418 270.552 95.9858 269.936 95.3778 269.488C94.7858 269.024 94.0818 268.792 93.2658 268.792C92.4818 268.792 91.7858 269 91.1778 269.416C90.5698 269.832 90.0978 270.424 89.7618 271.192C89.4258 271.96 89.2578 272.856 89.2578 273.88ZM101.057 267.76H102.617V280H101.057V267.76ZM100.817 263.296H102.833V265.312H100.817V263.296ZM105.487 262.84H107.047V280H105.487V262.84ZM109.917 267.76H111.477V280H109.917V267.76ZM109.677 263.296H111.693V265.312H109.677V263.296ZM117.898 280.096C116.922 280.096 116.194 279.864 115.714 279.4C115.25 278.936 115.018 278.08 115.018 276.832V269.128H113.218V267.76H115.018V263.68H116.578V267.76H119.05V269.128H116.578V276.856C116.578 277.608 116.682 278.112 116.89 278.368C117.098 278.608 117.506 278.728 118.114 278.728C118.258 278.728 118.57 278.712 119.05 278.68V280C118.618 280.064 118.234 280.096 117.898 280.096ZM122.153 284.296C121.817 284.296 121.425 284.264 120.977 284.2V282.856C121.345 282.904 121.657 282.928 121.913 282.928C122.521 282.928 123.049 282.696 123.497 282.232C123.961 281.768 124.353 281 124.673 279.928L119.729 267.76H121.457L125.441 277.96H125.489L129.281 267.76H130.961L126.065 280.36C125.489 281.848 124.905 282.872 124.313 283.432C123.721 284.008 123.001 284.296 122.153 284.296ZM130.91 277.984H132.926V280H130.91V277.984Z" fill="black"/>
<path d="M392 238C392 226.065 387.364 214.619 379.113 206.18C370.861 197.741 359.67 193 348 193C364.2 193 377.333 179.569 377.333 163C377.333 146.431 364.2 133 348 133" stroke="#0D0C50" stroke-width="3.5" stroke-linecap="round" stroke-linejoin="round"/>
<path d="M355 238C355 226.065 350.312 214.619 341.966 206.18C333.621 197.741 322.302 193 310.5 193M310.5 193C298.698 193 287.379 197.741 279.034 206.18C270.688 214.619 266 226.065 266 238M310.5 193C326.884 193 340.167 179.569 340.167 163C340.167 146.431 326.884 133 310.5 133C294.116 133 280.833 146.431 280.833 163C280.833 179.569 294.116 193 310.5 193Z" stroke="#0D0C50" stroke-width="3.5" stroke-linecap="round" stroke-linejoin="round"/>
</svg>
