<svg width="442" height="372" viewBox="0 0 442 372" fill="none" xmlns="http://www.w3.org/2000/svg">
<rect width="442" height="372" fill="#E8E7FC"/>
<g clip-path="url(#clip0_873_4451)">
<path d="M63.392 87.576C60.752 87.576 58.508 87.012 56.66 85.884C54.812 84.732 53.42 83.148 52.484 81.132C51.548 79.116 51.08 76.812 51.08 74.22C51.08 71.556 51.56 69.204 52.52 67.164C53.48 65.124 54.896 63.54 56.768 62.412C58.664 61.26 60.932 60.684 63.572 60.684C66.98 60.684 69.644 61.608 71.564 63.456C73.508 65.28 74.636 67.74 74.948 70.836H68.324C68.06 69.276 67.544 68.076 66.776 67.236C66.032 66.396 64.868 65.976 63.284 65.976C61.268 65.976 59.828 66.684 58.964 68.1C58.124 69.492 57.704 71.496 57.704 74.112C57.704 76.728 58.124 78.744 58.964 80.16C59.828 81.576 61.268 82.284 63.284 82.284C64.892 82.284 66.068 81.864 66.812 81.024C67.58 80.16 68.084 78.936 68.324 77.352H74.948C74.756 79.368 74.192 81.144 73.256 82.68C72.32 84.216 71.012 85.416 69.332 86.28C67.676 87.144 65.696 87.576 63.392 87.576ZM85.3523 87.612C83.3603 87.612 81.6203 87.204 80.1323 86.388C78.6683 85.572 77.5403 84.432 76.7483 82.968C75.9563 81.48 75.5603 79.764 75.5603 77.82C75.5603 75.876 75.9563 74.16 76.7483 72.672C77.5403 71.184 78.6803 70.032 80.1683 69.216C81.6803 68.376 83.4443 67.956 85.4603 67.956C87.4523 67.956 89.1803 68.364 90.6443 69.18C92.1323 69.996 93.2723 71.148 94.0643 72.636C94.8563 74.1 95.2523 75.792 95.2523 77.712C95.2523 79.656 94.8563 81.384 94.0643 82.896C93.2723 84.384 92.1323 85.548 90.6443 86.388C89.1563 87.204 87.3923 87.612 85.3523 87.612ZM81.3923 77.784C81.3923 79.56 81.7403 80.928 82.4363 81.888C83.1323 82.824 84.1283 83.292 85.4243 83.292C86.6963 83.292 87.6803 82.824 88.3763 81.888C89.0723 80.928 89.4203 79.56 89.4203 77.784C89.4203 76.008 89.0723 74.652 88.3763 73.716C87.6803 72.756 86.6963 72.276 85.4243 72.276C84.1283 72.276 83.1323 72.756 82.4363 73.716C81.7403 74.652 81.3923 76.008 81.3923 77.784ZM108.998 76.38C108.998 75.036 108.758 74.088 108.278 73.536C107.822 72.96 107.102 72.672 106.118 72.672C103.814 72.672 102.662 73.896 102.662 76.344V87H96.9018V68.568H102.662V71.232H102.734C103.982 69.072 105.998 67.992 108.782 67.992C110.606 67.992 112.058 68.568 113.138 69.72C114.218 70.872 114.758 72.48 114.758 74.544V87H108.998V76.38ZM129.196 76.38C129.196 75.036 128.956 74.088 128.476 73.536C128.02 72.96 127.3 72.672 126.316 72.672C124.012 72.672 122.86 73.896 122.86 76.344V87H117.1V68.568H122.86V71.232H122.932C124.18 69.072 126.196 67.992 128.98 67.992C130.804 67.992 132.256 68.568 133.336 69.72C134.416 70.872 134.956 72.48 134.956 74.544V87H129.196V76.38ZM146.082 87.612C144.114 87.612 142.41 87.204 140.97 86.388C139.53 85.548 138.426 84.384 137.658 82.896C136.89 81.408 136.506 79.704 136.506 77.784C136.506 75.96 136.878 74.304 137.622 72.816C138.366 71.328 139.458 70.152 140.898 69.288C142.362 68.4 144.09 67.956 146.082 67.956C149.202 67.956 151.554 68.856 153.138 70.656C154.722 72.432 155.514 75.036 155.514 78.468V79.332H142.266C142.266 80.556 142.638 81.528 143.382 82.248C144.15 82.944 145.098 83.292 146.226 83.292C147.93 83.292 149.022 82.668 149.502 81.42H155.37C154.842 83.364 153.786 84.888 152.202 85.992C150.642 87.072 148.602 87.612 146.082 87.612ZM149.718 75.768C149.718 74.592 149.394 73.692 148.746 73.068C148.098 72.444 147.21 72.132 146.082 72.132C144.978 72.132 144.09 72.444 143.418 73.068C142.746 73.692 142.374 74.592 142.302 75.768H149.718ZM165.926 87.612C164.006 87.612 162.326 87.204 160.886 86.388C159.47 85.548 158.366 84.384 157.574 82.896C156.806 81.408 156.422 79.704 156.422 77.784C156.422 75.888 156.806 74.196 157.574 72.708C158.342 71.22 159.434 70.056 160.85 69.216C162.266 68.376 163.91 67.956 165.782 67.956C168.374 67.956 170.462 68.652 172.046 70.044C173.654 71.412 174.578 73.212 174.818 75.444H169.022C168.782 73.332 167.738 72.276 165.89 72.276C164.714 72.276 163.826 72.756 163.226 73.716C162.626 74.676 162.326 76.032 162.326 77.784C162.326 79.536 162.626 80.892 163.226 81.852C163.826 82.812 164.714 83.292 165.89 83.292C166.922 83.292 167.678 83.004 168.158 82.428C168.638 81.828 168.926 81.036 169.022 80.052H174.818C174.722 81.516 174.302 82.824 173.558 83.976C172.814 85.104 171.782 85.992 170.462 86.64C169.166 87.288 167.654 87.612 165.926 87.612ZM183.313 87.36C181.297 87.36 179.833 86.868 178.921 85.884C178.009 84.876 177.553 83.256 177.553 81.024V72.888H174.997V68.568H177.553V63.42H183.313V68.568H186.517V72.888H183.313V80.88C183.313 81.792 183.457 82.38 183.745 82.644C184.057 82.908 184.537 83.04 185.185 83.04C185.617 83.04 186.133 82.992 186.733 82.896V86.964C185.605 87.228 184.465 87.36 183.313 87.36ZM199.752 87.576C197.952 87.576 196.524 87.084 195.468 86.1C194.412 85.116 193.884 83.808 193.884 82.176C193.884 80.4 194.496 79.056 195.72 78.144C196.968 77.232 198.708 76.536 200.94 76.056C201.084 76.008 201.348 75.96 201.732 75.912C203.076 75.624 204.084 75.336 204.756 75.048C205.452 74.736 205.8 74.22 205.8 73.5C205.8 72.972 205.596 72.564 205.188 72.276C204.78 71.988 204.168 71.844 203.352 71.844C202.296 71.844 201.504 72.06 200.976 72.492C200.472 72.924 200.172 73.596 200.076 74.508H194.604C194.7 72.588 195.492 71.016 196.98 69.792C198.468 68.568 200.676 67.956 203.604 67.956C206.196 67.956 208.14 68.556 209.436 69.756C210.732 70.932 211.38 72.888 211.38 75.624V82.752C211.38 83.28 211.428 83.652 211.524 83.868C211.62 84.06 211.8 84.156 212.064 84.156C212.232 84.156 212.388 84.144 212.532 84.12V86.856C211.38 87.072 210.324 87.18 209.364 87.18C208.26 87.18 207.444 86.988 206.916 86.604C206.388 86.196 206.052 85.584 205.908 84.768H205.836C205.164 85.632 204.3 86.316 203.244 86.82C202.188 87.324 201.024 87.576 199.752 87.576ZM199.788 81.564C199.788 82.26 199.992 82.776 200.4 83.112C200.808 83.448 201.396 83.616 202.164 83.616C203.268 83.616 204.144 83.22 204.792 82.428C205.464 81.636 205.8 80.676 205.8 79.548V78C205.248 78.216 204.204 78.504 202.668 78.864C201.636 79.104 200.892 79.452 200.436 79.908C200.004 80.34 199.788 80.892 199.788 81.564ZM222.671 93.588C220.031 93.588 217.955 93.012 216.443 91.86C214.931 90.708 213.995 89.292 213.635 87.612H219.467C219.899 88.836 220.967 89.448 222.671 89.448C223.943 89.448 224.831 89.088 225.335 88.368C225.863 87.648 226.127 86.46 226.127 84.804V83.724H226.055C225.575 84.348 224.915 84.912 224.075 85.416C223.235 85.896 222.215 86.136 221.015 86.136C219.479 86.136 218.123 85.752 216.947 84.984C215.771 84.216 214.859 83.148 214.211 81.78C213.587 80.412 213.275 78.84 213.275 77.064C213.275 75.288 213.587 73.716 214.211 72.348C214.859 70.98 215.771 69.912 216.947 69.144C218.123 68.376 219.479 67.992 221.015 67.992C222.215 67.992 223.235 68.244 224.075 68.748C224.915 69.228 225.575 69.78 226.055 70.404H226.127V68.568H231.887V84.804C231.887 87.948 231.095 90.192 229.511 91.536C227.951 92.904 225.671 93.588 222.671 93.588ZM219.179 77.064C219.179 78.6 219.455 79.776 220.007 80.592C220.583 81.408 221.447 81.816 222.599 81.816C223.751 81.816 224.603 81.408 225.155 80.592C225.731 79.776 226.019 78.6 226.019 77.064C226.019 75.528 225.731 74.352 225.155 73.536C224.603 72.72 223.751 72.312 222.599 72.312C221.447 72.312 220.583 72.72 220.007 73.536C219.455 74.352 219.179 75.528 219.179 77.064ZM239.41 87.576C237.61 87.576 236.182 87.084 235.126 86.1C234.07 85.116 233.542 83.808 233.542 82.176C233.542 80.4 234.154 79.056 235.378 78.144C236.626 77.232 238.366 76.536 240.598 76.056C240.742 76.008 241.006 75.96 241.39 75.912C242.734 75.624 243.742 75.336 244.414 75.048C245.11 74.736 245.458 74.22 245.458 73.5C245.458 72.972 245.254 72.564 244.846 72.276C244.438 71.988 243.826 71.844 243.01 71.844C241.954 71.844 241.162 72.06 240.634 72.492C240.13 72.924 239.83 73.596 239.734 74.508H234.262C234.358 72.588 235.15 71.016 236.638 69.792C238.126 68.568 240.334 67.956 243.262 67.956C245.854 67.956 247.798 68.556 249.094 69.756C250.39 70.932 251.038 72.888 251.038 75.624V82.752C251.038 83.28 251.086 83.652 251.182 83.868C251.278 84.06 251.458 84.156 251.722 84.156C251.89 84.156 252.046 84.144 252.19 84.12V86.856C251.038 87.072 249.982 87.18 249.022 87.18C247.918 87.18 247.102 86.988 246.574 86.604C246.046 86.196 245.71 85.584 245.566 84.768H245.494C244.822 85.632 243.958 86.316 242.902 86.82C241.846 87.324 240.682 87.576 239.41 87.576ZM239.446 81.564C239.446 82.26 239.65 82.776 240.058 83.112C240.466 83.448 241.054 83.616 241.822 83.616C242.926 83.616 243.802 83.22 244.45 82.428C245.122 81.636 245.458 80.676 245.458 79.548V78C244.906 78.216 243.862 78.504 242.326 78.864C241.294 79.104 240.55 79.452 240.094 79.908C239.662 80.34 239.446 80.892 239.446 81.564ZM253.898 68.568H259.658V87H253.898V68.568ZM253.898 61.26H259.658V66.372H253.898V61.26ZM274.204 76.38C274.204 75.036 273.964 74.088 273.484 73.536C273.028 72.96 272.308 72.672 271.324 72.672C269.02 72.672 267.868 73.896 267.868 76.344V87H262.108V68.568H267.868V71.232H267.94C269.188 69.072 271.204 67.992 273.988 67.992C275.812 67.992 277.264 68.568 278.344 69.72C279.424 70.872 279.964 72.48 279.964 74.544V87H274.204V76.38Z" fill="black"/>
<path d="M51.824 126.84H63.464V128.376H53.576V134.28H62.408V135.816H53.576V142.464H63.728V144H51.824V126.84ZM73.9694 135.744C73.9694 134.88 73.7454 134.184 73.2974 133.656C72.8494 133.112 72.1294 132.84 71.1374 132.84C70.3854 132.84 69.7134 133 69.1214 133.32C68.5454 133.64 68.0894 134.064 67.7534 134.592C67.4334 135.104 67.2734 135.664 67.2734 136.272V144H65.7134V131.76H67.2734V133.512H67.3214C67.7214 132.92 68.2654 132.432 68.9534 132.048C69.6574 131.664 70.5134 131.472 71.5214 131.472C72.6894 131.472 73.6494 131.808 74.4014 132.48C75.1534 133.136 75.5294 134.112 75.5294 135.408V144H73.9694V135.744ZM83.5068 144.312C82.3548 144.312 81.3308 144.048 80.4348 143.52C79.5548 142.976 78.8668 142.216 78.3708 141.24C77.8908 140.264 77.6508 139.144 77.6508 137.88C77.6508 136.616 77.8908 135.504 78.3708 134.544C78.8668 133.568 79.5548 132.816 80.4348 132.288C81.3308 131.744 82.3548 131.472 83.5068 131.472C84.4828 131.472 85.3468 131.672 86.0988 132.072C86.8668 132.472 87.4748 133.024 87.9228 133.728C88.3868 134.416 88.6668 135.192 88.7628 136.056H87.1308C87.0988 135.544 86.9468 135.048 86.6748 134.568C86.4188 134.072 86.0268 133.664 85.4988 133.344C84.9708 133.008 84.3068 132.84 83.5068 132.84C82.5628 132.84 81.7708 133.08 81.1308 133.56C80.4908 134.024 80.0188 134.64 79.7148 135.408C79.4268 136.176 79.2828 137 79.2828 137.88C79.2828 138.776 79.4268 139.608 79.7148 140.376C80.0188 141.144 80.4908 141.768 81.1308 142.248C81.7708 142.728 82.5628 142.968 83.5068 142.968C84.6748 142.968 85.5548 142.632 86.1468 141.96C86.7388 141.288 87.0668 140.512 87.1308 139.632H88.7628C88.7148 140.512 88.4588 141.312 87.9948 142.032C87.5308 142.736 86.9068 143.296 86.1228 143.712C85.3548 144.112 84.4828 144.312 83.5068 144.312ZM96.0699 144.336C94.8699 144.336 93.8219 144.064 92.9259 143.52C92.0459 142.976 91.3659 142.224 90.8859 141.264C90.4219 140.288 90.1899 139.168 90.1899 137.904C90.1899 136.64 90.4219 135.52 90.8859 134.544C91.3659 133.568 92.0459 132.808 92.9259 132.264C93.8219 131.72 94.8699 131.448 96.0699 131.448C97.2699 131.448 98.3099 131.72 99.1899 132.264C100.086 132.808 100.766 133.568 101.23 134.544C101.71 135.52 101.95 136.64 101.95 137.904C101.95 139.168 101.71 140.288 101.23 141.264C100.766 142.224 100.086 142.976 99.1899 143.52C98.3099 144.064 97.2699 144.336 96.0699 144.336ZM91.8219 137.904C91.8219 139.376 92.1819 140.592 92.9019 141.552C93.6379 142.496 94.6939 142.968 96.0699 142.968C97.4459 142.968 98.4939 142.496 99.2139 141.552C99.9499 140.592 100.318 139.376 100.318 137.904C100.318 136.416 99.9499 135.2 99.2139 134.256C98.4939 133.296 97.4459 132.816 96.0699 132.816C94.6939 132.816 93.6379 133.296 92.9019 134.256C92.1819 135.2 91.8219 136.416 91.8219 137.904ZM108.063 144.288C106.895 144.288 105.935 143.96 105.183 143.304C104.431 142.632 104.055 141.648 104.055 140.352V131.76H105.615V140.016C105.615 140.88 105.839 141.584 106.287 142.128C106.735 142.656 107.455 142.92 108.447 142.92C109.199 142.92 109.863 142.76 110.439 142.44C111.031 142.12 111.487 141.704 111.807 141.192C112.143 140.664 112.311 140.096 112.311 139.488V131.76H113.871V144H112.311V142.272H112.263C111.863 142.848 111.311 143.328 110.607 143.712C109.919 144.096 109.071 144.288 108.063 144.288ZM118.32 144H116.76V131.76H118.32V134.256H118.368C118.704 133.408 119.16 132.736 119.736 132.24C120.328 131.728 121.032 131.472 121.848 131.472C122.264 131.472 122.616 131.496 122.904 131.544V133.08C122.664 133.032 122.416 133.008 122.16 133.008C121.44 133.008 120.784 133.192 120.192 133.56C119.616 133.912 119.16 134.408 118.824 135.048C118.488 135.672 118.32 136.376 118.32 137.16V144ZM127.409 144.312C126.193 144.312 125.217 144 124.481 143.376C123.761 142.752 123.401 141.928 123.401 140.904C123.401 140.056 123.593 139.368 123.977 138.84C124.361 138.312 124.913 137.904 125.633 137.616C126.353 137.328 127.289 137.08 128.441 136.872C129.353 136.712 130.001 136.584 130.385 136.488C130.785 136.376 131.113 136.2 131.369 135.96C131.625 135.72 131.753 135.368 131.753 134.904C131.753 134.248 131.521 133.736 131.057 133.368C130.609 133 129.913 132.816 128.969 132.816C127.817 132.816 126.985 133.024 126.473 133.44C125.977 133.856 125.697 134.528 125.633 135.456H123.977C124.041 134.272 124.481 133.312 125.297 132.576C126.113 131.824 127.353 131.448 129.017 131.448C130.265 131.448 131.281 131.76 132.065 132.384C132.865 132.992 133.265 133.976 133.265 135.336V141.456C133.265 141.968 133.313 142.336 133.409 142.56C133.505 142.784 133.689 142.896 133.961 142.896C134.089 142.896 134.201 142.888 134.297 142.872V144C133.945 144.064 133.673 144.096 133.481 144.096C132.937 144.096 132.521 143.96 132.233 143.688C131.961 143.4 131.801 142.888 131.753 142.152H131.705C131.289 142.856 130.713 143.392 129.977 143.76C129.257 144.128 128.401 144.312 127.409 144.312ZM125.033 140.76C125.033 142.216 125.889 142.944 127.601 142.944C128.865 142.944 129.873 142.632 130.625 142.008C131.377 141.368 131.753 140.504 131.753 139.416V137.136C131.593 137.36 131.241 137.552 130.697 137.712C130.169 137.872 129.481 138.024 128.633 138.168C127.369 138.392 126.449 138.696 125.873 139.08C125.313 139.448 125.033 140.008 125.033 140.76ZM141.229 148.392C139.629 148.392 138.373 148.048 137.461 147.36C136.565 146.672 136.069 145.768 135.973 144.648H137.605C137.733 145.352 138.093 145.92 138.685 146.352C139.277 146.8 140.133 147.024 141.253 147.024C143.877 147.024 145.189 145.832 145.189 143.448V141.168H145.141C144.757 141.856 144.213 142.408 143.509 142.824C142.821 143.224 141.989 143.424 141.013 143.424C140.005 143.424 139.093 143.2 138.277 142.752C137.477 142.304 136.837 141.632 136.357 140.736C135.877 139.84 135.637 138.736 135.637 137.424C135.637 136.128 135.877 135.032 136.357 134.136C136.837 133.24 137.477 132.576 138.277 132.144C139.093 131.696 140.005 131.472 141.013 131.472C141.989 131.472 142.821 131.68 143.509 132.096C144.213 132.496 144.757 133.024 145.141 133.68H145.189V131.76H146.749V143.232C146.749 144.928 146.261 146.208 145.285 147.072C144.309 147.952 142.957 148.392 141.229 148.392ZM137.269 137.424C137.269 138.848 137.613 139.976 138.301 140.808C139.005 141.64 139.981 142.056 141.229 142.056C142.413 142.056 143.365 141.664 144.085 140.88C144.821 140.096 145.189 138.944 145.189 137.424C145.189 135.936 144.821 134.8 144.085 134.016C143.365 133.232 142.413 132.84 141.229 132.84C139.981 132.84 139.005 133.256 138.301 134.088C137.613 134.92 137.269 136.032 137.269 137.424ZM154.78 144.336C153.564 144.336 152.516 144.064 151.636 143.52C150.756 142.96 150.084 142.192 149.62 141.216C149.172 140.24 148.948 139.128 148.948 137.88C148.948 136.584 149.188 135.456 149.668 134.496C150.148 133.52 150.828 132.768 151.708 132.24C152.588 131.712 153.612 131.448 154.78 131.448C155.932 131.448 156.924 131.704 157.756 132.216C158.588 132.712 159.22 133.408 159.652 134.304C160.084 135.184 160.3 136.192 160.3 137.328C160.3 137.776 160.292 138.064 160.276 138.192H150.58C150.596 139.056 150.756 139.856 151.06 140.592C151.38 141.312 151.852 141.896 152.476 142.344C153.116 142.776 153.892 142.992 154.804 142.992C155.924 142.992 156.788 142.704 157.396 142.128C158.004 141.552 158.388 140.928 158.548 140.256H160.132C159.812 141.472 159.204 142.456 158.308 143.208C157.412 143.96 156.236 144.336 154.78 144.336ZM158.644 136.824C158.644 136.088 158.484 135.416 158.164 134.808C157.86 134.184 157.412 133.696 156.82 133.344C156.228 132.976 155.524 132.792 154.708 132.792C153.54 132.792 152.572 133.176 151.804 133.944C151.052 134.712 150.644 135.672 150.58 136.824H158.644ZM171.649 144.288C170.481 144.288 169.521 143.96 168.769 143.304C168.017 142.632 167.641 141.648 167.641 140.352V131.76H169.201V140.016C169.201 140.88 169.425 141.584 169.873 142.128C170.321 142.656 171.041 142.92 172.033 142.92C172.785 142.92 173.449 142.76 174.025 142.44C174.617 142.12 175.073 141.704 175.393 141.192C175.729 140.664 175.897 140.096 175.897 139.488V131.76H177.457V144H175.897V142.272H175.849C175.449 142.848 174.897 143.328 174.193 143.712C173.505 144.096 172.657 144.288 171.649 144.288ZM184.858 144.312C183.194 144.312 181.89 143.912 180.946 143.112C180.002 142.296 179.514 141.256 179.482 139.992H181.114C181.162 140.888 181.498 141.608 182.122 142.152C182.746 142.68 183.666 142.944 184.882 142.944C185.97 142.944 186.762 142.736 187.258 142.32C187.754 141.888 188.002 141.336 188.002 140.664C188.002 140.168 187.866 139.776 187.594 139.488C187.338 139.184 187.01 138.96 186.61 138.816C186.21 138.672 185.682 138.528 185.026 138.384C184.93 138.368 184.746 138.328 184.474 138.264C183.45 138.008 182.642 137.768 182.05 137.544C181.458 137.32 180.954 136.984 180.538 136.536C180.138 136.088 179.938 135.496 179.938 134.76C179.938 133.752 180.322 132.952 181.09 132.36C181.858 131.768 182.922 131.472 184.282 131.472C185.786 131.472 186.946 131.824 187.762 132.528C188.594 133.216 189.066 134.104 189.178 135.192H187.546C187.226 133.624 186.146 132.84 184.306 132.84C183.426 132.84 182.746 133 182.266 133.32C181.802 133.64 181.57 134.088 181.57 134.664C181.57 135.096 181.698 135.44 181.954 135.696C182.21 135.952 182.53 136.152 182.914 136.296C183.314 136.44 183.85 136.584 184.522 136.728L185.074 136.872C186.05 137.112 186.85 137.36 187.474 137.616C188.098 137.856 188.618 138.216 189.034 138.696C189.45 139.176 189.658 139.816 189.658 140.616C189.658 141.736 189.234 142.632 188.386 143.304C187.538 143.976 186.362 144.312 184.858 144.312ZM196.851 144.336C195.635 144.336 194.587 144.064 193.707 143.52C192.827 142.96 192.155 142.192 191.691 141.216C191.243 140.24 191.019 139.128 191.019 137.88C191.019 136.584 191.259 135.456 191.739 134.496C192.219 133.52 192.899 132.768 193.779 132.24C194.659 131.712 195.683 131.448 196.851 131.448C198.003 131.448 198.995 131.704 199.827 132.216C200.659 132.712 201.291 133.408 201.723 134.304C202.155 135.184 202.371 136.192 202.371 137.328C202.371 137.776 202.363 138.064 202.347 138.192H192.651C192.667 139.056 192.827 139.856 193.131 140.592C193.451 141.312 193.923 141.896 194.547 142.344C195.187 142.776 195.963 142.992 196.875 142.992C197.995 142.992 198.859 142.704 199.467 142.128C200.075 141.552 200.459 140.928 200.619 140.256H202.203C201.883 141.472 201.275 142.456 200.379 143.208C199.483 143.96 198.307 144.336 196.851 144.336ZM200.715 136.824C200.715 136.088 200.555 135.416 200.235 134.808C199.931 134.184 199.483 133.696 198.891 133.344C198.299 132.976 197.595 132.792 196.779 132.792C195.611 132.792 194.643 133.176 193.875 133.944C193.123 134.712 192.715 135.672 192.651 136.824H200.715ZM206.117 144H204.557V131.76H206.117V134.256H206.165C206.501 133.408 206.957 132.736 207.533 132.24C208.125 131.728 208.829 131.472 209.645 131.472C210.061 131.472 210.413 131.496 210.701 131.544V133.08C210.461 133.032 210.213 133.008 209.957 133.008C209.237 133.008 208.581 133.192 207.989 133.56C207.413 133.912 206.957 134.408 206.621 135.048C206.285 135.672 206.117 136.376 206.117 137.16V144ZM51.44 165.76H53V178H51.44V165.76ZM51.2 161.296H53.216V163.312H51.2V161.296ZM64.1257 169.744C64.1257 168.88 63.9017 168.184 63.4537 167.656C63.0057 167.112 62.2857 166.84 61.2937 166.84C60.5417 166.84 59.8697 167 59.2777 167.32C58.7017 167.64 58.2457 168.064 57.9097 168.592C57.5897 169.104 57.4297 169.664 57.4297 170.272V178H55.8697V165.76H57.4297V167.512H57.4777C57.8777 166.92 58.4217 166.432 59.1097 166.048C59.8137 165.664 60.6697 165.472 61.6777 165.472C62.8457 165.472 63.8057 165.808 64.5577 166.48C65.3097 167.136 65.6857 168.112 65.6857 169.408V178H64.1257V169.744ZM71.9139 178.096C70.9379 178.096 70.2099 177.864 69.7299 177.4C69.2659 176.936 69.0339 176.08 69.0339 174.832V167.128H67.2339V165.76H69.0339V161.68H70.5939V165.76H73.0659V167.128H70.5939V174.856C70.5939 175.608 70.6979 176.112 70.9059 176.368C71.1139 176.608 71.5219 176.728 72.1299 176.728C72.2739 176.728 72.5859 176.712 73.0659 176.68V178C72.6339 178.064 72.2499 178.096 71.9139 178.096ZM79.9912 178.336C78.7752 178.336 77.7272 178.064 76.8472 177.52C75.9672 176.96 75.2952 176.192 74.8312 175.216C74.3832 174.24 74.1592 173.128 74.1592 171.88C74.1592 170.584 74.3992 169.456 74.8792 168.496C75.3592 167.52 76.0392 166.768 76.9192 166.24C77.7992 165.712 78.8232 165.448 79.9912 165.448C81.1432 165.448 82.1352 165.704 82.9672 166.216C83.7992 166.712 84.4312 167.408 84.8632 168.304C85.2952 169.184 85.5112 170.192 85.5112 171.328C85.5112 171.776 85.5032 172.064 85.4872 172.192H75.7912C75.8072 173.056 75.9672 173.856 76.2712 174.592C76.5912 175.312 77.0632 175.896 77.6872 176.344C78.3272 176.776 79.1032 176.992 80.0152 176.992C81.1352 176.992 81.9992 176.704 82.6072 176.128C83.2152 175.552 83.5992 174.928 83.7592 174.256H85.3432C85.0232 175.472 84.4152 176.456 83.5192 177.208C82.6232 177.96 81.4472 178.336 79.9912 178.336ZM83.8552 170.824C83.8552 170.088 83.6952 169.416 83.3752 168.808C83.0712 168.184 82.6232 167.696 82.0312 167.344C81.4392 166.976 80.7352 166.792 79.9192 166.792C78.7512 166.792 77.7832 167.176 77.0152 167.944C76.2632 168.712 75.8552 169.672 75.7912 170.824H83.8552ZM89.2578 178H87.6978V165.76H89.2578V168.256H89.3058C89.6418 167.408 90.0978 166.736 90.6738 166.24C91.2658 165.728 91.9698 165.472 92.7858 165.472C93.2018 165.472 93.5538 165.496 93.8418 165.544V167.08C93.6018 167.032 93.3538 167.008 93.0978 167.008C92.3778 167.008 91.7218 167.192 91.1298 167.56C90.5538 167.912 90.0978 168.408 89.7618 169.048C89.4258 169.672 89.2578 170.376 89.2578 171.16V178ZM98.3469 178.312C97.1309 178.312 96.1549 178 95.4189 177.376C94.6989 176.752 94.3389 175.928 94.3389 174.904C94.3389 174.056 94.5309 173.368 94.9149 172.84C95.2989 172.312 95.8509 171.904 96.5709 171.616C97.2909 171.328 98.2269 171.08 99.3789 170.872C100.291 170.712 100.939 170.584 101.323 170.488C101.723 170.376 102.051 170.2 102.307 169.96C102.563 169.72 102.691 169.368 102.691 168.904C102.691 168.248 102.459 167.736 101.995 167.368C101.547 167 100.851 166.816 99.9069 166.816C98.7549 166.816 97.9229 167.024 97.4109 167.44C96.9149 167.856 96.6349 168.528 96.5709 169.456H94.9149C94.9789 168.272 95.4189 167.312 96.2349 166.576C97.0509 165.824 98.2909 165.448 99.9549 165.448C101.203 165.448 102.219 165.76 103.003 166.384C103.803 166.992 104.203 167.976 104.203 169.336V175.456C104.203 175.968 104.251 176.336 104.347 176.56C104.443 176.784 104.627 176.896 104.899 176.896C105.027 176.896 105.139 176.888 105.235 176.872V178C104.883 178.064 104.611 178.096 104.419 178.096C103.875 178.096 103.459 177.96 103.171 177.688C102.899 177.4 102.739 176.888 102.691 176.152H102.643C102.227 176.856 101.651 177.392 100.915 177.76C100.195 178.128 99.3389 178.312 98.3469 178.312ZM95.9709 174.76C95.9709 176.216 96.8269 176.944 98.5389 176.944C99.8029 176.944 100.811 176.632 101.563 176.008C102.315 175.368 102.691 174.504 102.691 173.416V171.136C102.531 171.36 102.179 171.552 101.635 171.712C101.107 171.872 100.419 172.024 99.5709 172.168C98.3069 172.392 97.3869 172.696 96.8109 173.08C96.2509 173.448 95.9709 174.008 95.9709 174.76ZM112.382 178.312C111.23 178.312 110.206 178.048 109.31 177.52C108.43 176.976 107.742 176.216 107.246 175.24C106.766 174.264 106.526 173.144 106.526 171.88C106.526 170.616 106.766 169.504 107.246 168.544C107.742 167.568 108.43 166.816 109.31 166.288C110.206 165.744 111.23 165.472 112.382 165.472C113.358 165.472 114.222 165.672 114.974 166.072C115.742 166.472 116.35 167.024 116.798 167.728C117.262 168.416 117.542 169.192 117.638 170.056H116.006C115.974 169.544 115.822 169.048 115.55 168.568C115.294 168.072 114.902 167.664 114.374 167.344C113.846 167.008 113.182 166.84 112.382 166.84C111.438 166.84 110.646 167.08 110.006 167.56C109.366 168.024 108.894 168.64 108.59 169.408C108.302 170.176 108.158 171 108.158 171.88C108.158 172.776 108.302 173.608 108.59 174.376C108.894 175.144 109.366 175.768 110.006 176.248C110.646 176.728 111.438 176.968 112.382 176.968C113.55 176.968 114.43 176.632 115.022 175.96C115.614 175.288 115.942 174.512 116.006 173.632H117.638C117.59 174.512 117.334 175.312 116.87 176.032C116.406 176.736 115.782 177.296 114.998 177.712C114.23 178.112 113.358 178.312 112.382 178.312ZM123.219 178.096C122.243 178.096 121.515 177.864 121.035 177.4C120.571 176.936 120.339 176.08 120.339 174.832V167.128H118.539V165.76H120.339V161.68H121.899V165.76H124.371V167.128H121.899V174.856C121.899 175.608 122.003 176.112 122.211 176.368C122.419 176.608 122.827 176.728 123.435 176.728C123.579 176.728 123.891 176.712 124.371 176.68V178C123.939 178.064 123.555 178.096 123.219 178.096ZM126.393 165.76H127.953V178H126.393V165.76ZM126.153 161.296H128.169V163.312H126.153V161.296ZM136.031 178.336C134.831 178.336 133.783 178.064 132.887 177.52C132.007 176.976 131.327 176.224 130.847 175.264C130.383 174.288 130.151 173.168 130.151 171.904C130.151 170.64 130.383 169.52 130.847 168.544C131.327 167.568 132.007 166.808 132.887 166.264C133.783 165.72 134.831 165.448 136.031 165.448C137.231 165.448 138.271 165.72 139.151 166.264C140.047 166.808 140.727 167.568 141.191 168.544C141.671 169.52 141.911 170.64 141.911 171.904C141.911 173.168 141.671 174.288 141.191 175.264C140.727 176.224 140.047 176.976 139.151 177.52C138.271 178.064 137.231 178.336 136.031 178.336ZM131.783 171.904C131.783 173.376 132.143 174.592 132.863 175.552C133.599 176.496 134.655 176.968 136.031 176.968C137.407 176.968 138.455 176.496 139.175 175.552C139.911 174.592 140.279 173.376 140.279 171.904C140.279 170.416 139.911 169.2 139.175 168.256C138.455 167.296 137.407 166.816 136.031 166.816C134.655 166.816 133.599 167.296 132.863 168.256C132.143 169.2 131.783 170.416 131.783 171.904ZM152.368 169.744C152.368 168.88 152.144 168.184 151.696 167.656C151.248 167.112 150.528 166.84 149.536 166.84C148.784 166.84 148.112 167 147.52 167.32C146.944 167.64 146.488 168.064 146.152 168.592C145.832 169.104 145.672 169.664 145.672 170.272V178H144.112V165.76H145.672V167.512H145.72C146.12 166.92 146.664 166.432 147.352 166.048C148.056 165.664 148.912 165.472 149.92 165.472C151.088 165.472 152.048 165.808 152.8 166.48C153.552 167.136 153.928 168.112 153.928 169.408V178H152.368V169.744ZM160.398 165.76H162.126L165.174 176.224H165.222L168.078 165.76H169.83L172.686 176.224H172.734L175.806 165.76H177.486L173.574 178H171.822L168.942 167.656H168.894L166.014 178H164.286L160.398 165.76ZM179.221 165.76H180.781V178H179.221V165.76ZM178.981 161.296H180.997V163.312H178.981V161.296ZM187.203 178.096C186.227 178.096 185.499 177.864 185.019 177.4C184.555 176.936 184.323 176.08 184.323 174.832V167.128H182.523V165.76H184.323V161.68H185.883V165.76H188.355V167.128H185.883V174.856C185.883 175.608 185.987 176.112 186.195 176.368C186.403 176.608 186.811 176.728 187.419 176.728C187.563 176.728 187.875 176.712 188.355 176.68V178C187.923 178.064 187.539 178.096 187.203 178.096ZM198.634 169.744C198.634 168.88 198.41 168.184 197.962 167.656C197.514 167.112 196.794 166.84 195.802 166.84C195.05 166.84 194.378 167 193.786 167.32C193.21 167.64 192.754 168.064 192.418 168.592C192.098 169.104 191.938 169.664 191.938 170.272V178H190.378V160.84H191.938V167.512H191.986C192.386 166.92 192.93 166.432 193.618 166.048C194.322 165.664 195.178 165.472 196.186 165.472C197.354 165.472 198.314 165.808 199.066 166.48C199.818 167.136 200.194 168.112 200.194 169.408V178H198.634V169.744ZM57.176 212.288C56.168 212.288 55.328 212.08 54.656 211.664C53.984 211.232 53.448 210.656 53.048 209.936H53V216.248H51.44V199.76H53V201.728H53.048C53.464 201.056 54.008 200.512 54.68 200.096C55.352 199.664 56.184 199.448 57.176 199.448C58.184 199.448 59.096 199.712 59.912 200.24C60.728 200.752 61.376 201.496 61.856 202.472C62.336 203.432 62.576 204.568 62.576 205.88C62.576 207.176 62.336 208.312 61.856 209.288C61.376 210.248 60.728 210.992 59.912 211.52C59.096 212.032 58.184 212.288 57.176 212.288ZM53 205.88C53 206.888 53.168 207.776 53.504 208.544C53.84 209.296 54.312 209.88 54.92 210.296C55.528 210.712 56.224 210.92 57.008 210.92C57.824 210.92 58.528 210.696 59.12 210.248C59.728 209.8 60.184 209.192 60.488 208.424C60.792 207.656 60.944 206.808 60.944 205.88C60.944 204.44 60.592 203.24 59.888 202.28C59.2 201.304 58.24 200.816 57.008 200.816C56.224 200.816 55.528 201.024 54.92 201.44C54.312 201.856 53.84 202.448 53.504 203.216C53.168 203.984 53 204.872 53 205.88ZM68.1594 212.312C66.9434 212.312 65.9674 212 65.2314 211.376C64.5114 210.752 64.1514 209.928 64.1514 208.904C64.1514 208.056 64.3434 207.368 64.7274 206.84C65.1114 206.312 65.6634 205.904 66.3834 205.616C67.1034 205.328 68.0394 205.08 69.1914 204.872C70.1034 204.712 70.7514 204.584 71.1354 204.488C71.5354 204.376 71.8634 204.2 72.1194 203.96C72.3754 203.72 72.5034 203.368 72.5034 202.904C72.5034 202.248 72.2714 201.736 71.8074 201.368C71.3594 201 70.6634 200.816 69.7194 200.816C68.5674 200.816 67.7354 201.024 67.2234 201.44C66.7274 201.856 66.4474 202.528 66.3834 203.456H64.7274C64.7914 202.272 65.2314 201.312 66.0474 200.576C66.8634 199.824 68.1034 199.448 69.7674 199.448C71.0154 199.448 72.0314 199.76 72.8154 200.384C73.6154 200.992 74.0154 201.976 74.0154 203.336V209.456C74.0154 209.968 74.0634 210.336 74.1594 210.56C74.2554 210.784 74.4394 210.896 74.7114 210.896C74.8394 210.896 74.9514 210.888 75.0474 210.872V212C74.6954 212.064 74.4234 212.096 74.2314 212.096C73.6874 212.096 73.2714 211.96 72.9834 211.688C72.7114 211.4 72.5514 210.888 72.5034 210.152H72.4554C72.0394 210.856 71.4634 211.392 70.7274 211.76C70.0074 212.128 69.1514 212.312 68.1594 212.312ZM65.7834 208.76C65.7834 210.216 66.6394 210.944 68.3514 210.944C69.6154 210.944 70.6234 210.632 71.3754 210.008C72.1274 209.368 72.5034 208.504 72.5034 207.416V205.136C72.3434 205.36 71.9914 205.552 71.4474 205.712C70.9194 205.872 70.2314 206.024 69.3834 206.168C68.1194 206.392 67.1994 206.696 66.6234 207.08C66.0634 207.448 65.7834 208.008 65.7834 208.76ZM81.6161 212.312C79.9521 212.312 78.6481 211.912 77.7041 211.112C76.7601 210.296 76.2721 209.256 76.2401 207.992H77.8721C77.9201 208.888 78.2561 209.608 78.8801 210.152C79.5041 210.68 80.4241 210.944 81.6401 210.944C82.7281 210.944 83.5201 210.736 84.0161 210.32C84.5121 209.888 84.7601 209.336 84.7601 208.664C84.7601 208.168 84.6241 207.776 84.3521 207.488C84.0961 207.184 83.7681 206.96 83.3681 206.816C82.9681 206.672 82.4401 206.528 81.7841 206.384C81.6881 206.368 81.5041 206.328 81.2321 206.264C80.2081 206.008 79.4001 205.768 78.8081 205.544C78.2161 205.32 77.7121 204.984 77.2961 204.536C76.8961 204.088 76.6961 203.496 76.6961 202.76C76.6961 201.752 77.0801 200.952 77.8481 200.36C78.6161 199.768 79.6801 199.472 81.0401 199.472C82.5441 199.472 83.7041 199.824 84.5201 200.528C85.3521 201.216 85.8241 202.104 85.9361 203.192H84.3041C83.9841 201.624 82.9041 200.84 81.0641 200.84C80.1841 200.84 79.5041 201 79.0241 201.32C78.5601 201.64 78.3281 202.088 78.3281 202.664C78.3281 203.096 78.4561 203.44 78.7121 203.696C78.9681 203.952 79.2881 204.152 79.6721 204.296C80.0721 204.44 80.6081 204.584 81.2801 204.728L81.8321 204.872C82.8081 205.112 83.6081 205.36 84.2321 205.616C84.8561 205.856 85.3761 206.216 85.7921 206.696C86.2081 207.176 86.4161 207.816 86.4161 208.616C86.4161 209.736 85.9921 210.632 85.1441 211.304C84.2961 211.976 83.1201 212.312 81.6161 212.312ZM91.8592 212.096C90.8832 212.096 90.1552 211.864 89.6752 211.4C89.2112 210.936 88.9792 210.08 88.9792 208.832V201.128H87.1792V199.76H88.9792V195.68H90.5392V199.76H93.0112V201.128H90.5392V208.856C90.5392 209.608 90.6432 210.112 90.8512 210.368C91.0592 210.608 91.4672 210.728 92.0752 210.728C92.2192 210.728 92.5312 210.712 93.0112 210.68V212C92.5792 212.064 92.1952 212.096 91.8592 212.096ZM105.468 212.312C104.316 212.312 103.292 212.048 102.396 211.52C101.516 210.976 100.828 210.216 100.332 209.24C99.8518 208.264 99.6118 207.144 99.6118 205.88C99.6118 204.616 99.8518 203.504 100.332 202.544C100.828 201.568 101.516 200.816 102.396 200.288C103.292 199.744 104.316 199.472 105.468 199.472C106.444 199.472 107.308 199.672 108.06 200.072C108.828 200.472 109.436 201.024 109.884 201.728C110.348 202.416 110.628 203.192 110.724 204.056H109.092C109.06 203.544 108.908 203.048 108.636 202.568C108.38 202.072 107.988 201.664 107.46 201.344C106.932 201.008 106.268 200.84 105.468 200.84C104.524 200.84 103.732 201.08 103.092 201.56C102.452 202.024 101.98 202.64 101.676 203.408C101.388 204.176 101.244 205 101.244 205.88C101.244 206.776 101.388 207.608 101.676 208.376C101.98 209.144 102.452 209.768 103.092 210.248C103.732 210.728 104.524 210.968 105.468 210.968C106.636 210.968 107.516 210.632 108.108 209.96C108.7 209.288 109.028 208.512 109.092 207.632H110.724C110.676 208.512 110.42 209.312 109.956 210.032C109.492 210.736 108.868 211.296 108.084 211.712C107.316 212.112 106.444 212.312 105.468 212.312ZM118.031 212.336C116.831 212.336 115.783 212.064 114.887 211.52C114.007 210.976 113.327 210.224 112.847 209.264C112.383 208.288 112.151 207.168 112.151 205.904C112.151 204.64 112.383 203.52 112.847 202.544C113.327 201.568 114.007 200.808 114.887 200.264C115.783 199.72 116.831 199.448 118.031 199.448C119.231 199.448 120.271 199.72 121.151 200.264C122.047 200.808 122.727 201.568 123.191 202.544C123.671 203.52 123.911 204.64 123.911 205.904C123.911 207.168 123.671 208.288 123.191 209.264C122.727 210.224 122.047 210.976 121.151 211.52C120.271 212.064 119.231 212.336 118.031 212.336ZM113.783 205.904C113.783 207.376 114.143 208.592 114.863 209.552C115.599 210.496 116.655 210.968 118.031 210.968C119.407 210.968 120.455 210.496 121.175 209.552C121.911 208.592 122.279 207.376 122.279 205.904C122.279 204.416 121.911 203.2 121.175 202.256C120.455 201.296 119.407 200.816 118.031 200.816C116.655 200.816 115.599 201.296 114.863 202.256C114.143 203.2 113.783 204.416 113.783 205.904ZM126.112 194.84H127.672V212H126.112V194.84ZM130.542 194.84H132.102V212H130.542V194.84ZM138.331 212.312C137.115 212.312 136.139 212 135.403 211.376C134.683 210.752 134.323 209.928 134.323 208.904C134.323 208.056 134.515 207.368 134.899 206.84C135.283 206.312 135.835 205.904 136.555 205.616C137.275 205.328 138.211 205.08 139.363 204.872C140.275 204.712 140.923 204.584 141.307 204.488C141.707 204.376 142.035 204.2 142.291 203.96C142.547 203.72 142.675 203.368 142.675 202.904C142.675 202.248 142.443 201.736 141.979 201.368C141.531 201 140.835 200.816 139.891 200.816C138.739 200.816 137.907 201.024 137.395 201.44C136.899 201.856 136.619 202.528 136.555 203.456H134.899C134.963 202.272 135.403 201.312 136.219 200.576C137.035 199.824 138.275 199.448 139.939 199.448C141.187 199.448 142.203 199.76 142.987 200.384C143.787 200.992 144.187 201.976 144.187 203.336V209.456C144.187 209.968 144.235 210.336 144.331 210.56C144.427 210.784 144.611 210.896 144.883 210.896C145.011 210.896 145.123 210.888 145.219 210.872V212C144.867 212.064 144.595 212.096 144.403 212.096C143.859 212.096 143.443 211.96 143.155 211.688C142.883 211.4 142.723 210.888 142.675 210.152H142.627C142.211 210.856 141.635 211.392 140.899 211.76C140.179 212.128 139.323 212.312 138.331 212.312ZM135.955 208.76C135.955 210.216 136.811 210.944 138.523 210.944C139.787 210.944 140.795 210.632 141.547 210.008C142.299 209.368 142.675 208.504 142.675 207.416V205.136C142.515 205.36 142.163 205.552 141.619 205.712C141.091 205.872 140.403 206.024 139.555 206.168C138.291 206.392 137.371 206.696 136.795 207.08C136.235 207.448 135.955 208.008 135.955 208.76ZM153.035 212.288C151.147 212.288 149.771 211.496 148.907 209.912H148.859V212H147.299V194.84H148.859V201.728H148.907C149.323 201.056 149.867 200.512 150.539 200.096C151.211 199.664 152.043 199.448 153.035 199.448C154.043 199.448 154.955 199.712 155.771 200.24C156.587 200.752 157.235 201.496 157.715 202.472C158.195 203.432 158.435 204.568 158.435 205.88C158.435 207.176 158.195 208.312 157.715 209.288C157.235 210.248 156.587 210.992 155.771 211.52C154.955 212.032 154.043 212.288 153.035 212.288ZM148.859 205.88C148.859 206.888 149.027 207.776 149.363 208.544C149.699 209.296 150.171 209.88 150.779 210.296C151.387 210.712 152.083 210.92 152.867 210.92C153.683 210.92 154.387 210.696 154.979 210.248C155.587 209.8 156.043 209.192 156.347 208.424C156.651 207.656 156.803 206.808 156.803 205.88C156.803 204.952 156.651 204.104 156.347 203.336C156.043 202.552 155.587 201.936 154.979 201.488C154.387 201.024 153.683 200.792 152.867 200.792C152.083 200.792 151.387 201 150.779 201.416C150.171 201.832 149.699 202.424 149.363 203.192C149.027 203.96 148.859 204.856 148.859 205.88ZM165.867 212.336C164.667 212.336 163.619 212.064 162.723 211.52C161.843 210.976 161.163 210.224 160.683 209.264C160.219 208.288 159.987 207.168 159.987 205.904C159.987 204.64 160.219 203.52 160.683 202.544C161.163 201.568 161.843 200.808 162.723 200.264C163.619 199.72 164.667 199.448 165.867 199.448C167.067 199.448 168.107 199.72 168.987 200.264C169.883 200.808 170.563 201.568 171.027 202.544C171.507 203.52 171.747 204.64 171.747 205.904C171.747 207.168 171.507 208.288 171.027 209.264C170.563 210.224 169.883 210.976 168.987 211.52C168.107 212.064 167.067 212.336 165.867 212.336ZM161.619 205.904C161.619 207.376 161.979 208.592 162.699 209.552C163.435 210.496 164.491 210.968 165.867 210.968C167.243 210.968 168.291 210.496 169.011 209.552C169.747 208.592 170.115 207.376 170.115 205.904C170.115 204.416 169.747 203.2 169.011 202.256C168.291 201.296 167.243 200.816 165.867 200.816C164.491 200.816 163.435 201.296 162.699 202.256C161.979 203.2 161.619 204.416 161.619 205.904ZM175.508 212H173.948V199.76H175.508V202.256H175.556C175.892 201.408 176.348 200.736 176.924 200.24C177.516 199.728 178.22 199.472 179.036 199.472C179.452 199.472 179.804 199.496 180.092 199.544V201.08C179.852 201.032 179.604 201.008 179.348 201.008C178.628 201.008 177.972 201.192 177.38 201.56C176.804 201.912 176.348 202.408 176.012 203.048C175.676 203.672 175.508 204.376 175.508 205.16V212ZM184.597 212.312C183.381 212.312 182.405 212 181.669 211.376C180.949 210.752 180.589 209.928 180.589 208.904C180.589 208.056 180.781 207.368 181.165 206.84C181.549 206.312 182.101 205.904 182.821 205.616C183.541 205.328 184.477 205.08 185.629 204.872C186.541 204.712 187.189 204.584 187.573 204.488C187.973 204.376 188.301 204.2 188.557 203.96C188.813 203.72 188.941 203.368 188.941 202.904C188.941 202.248 188.709 201.736 188.245 201.368C187.797 201 187.101 200.816 186.157 200.816C185.005 200.816 184.173 201.024 183.661 201.44C183.165 201.856 182.885 202.528 182.821 203.456H181.165C181.229 202.272 181.669 201.312 182.485 200.576C183.301 199.824 184.541 199.448 186.205 199.448C187.453 199.448 188.469 199.76 189.253 200.384C190.053 200.992 190.453 201.976 190.453 203.336V209.456C190.453 209.968 190.501 210.336 190.597 210.56C190.693 210.784 190.877 210.896 191.149 210.896C191.277 210.896 191.389 210.888 191.485 210.872V212C191.133 212.064 190.861 212.096 190.669 212.096C190.125 212.096 189.709 211.96 189.421 211.688C189.149 211.4 188.989 210.888 188.941 210.152H188.893C188.477 210.856 187.901 211.392 187.165 211.76C186.445 212.128 185.589 212.312 184.597 212.312ZM182.221 208.76C182.221 210.216 183.077 210.944 184.789 210.944C186.053 210.944 187.061 210.632 187.813 210.008C188.565 209.368 188.941 208.504 188.941 207.416V205.136C188.781 205.36 188.429 205.552 187.885 205.712C187.357 205.872 186.669 206.024 185.821 206.168C184.557 206.392 183.637 206.696 183.061 207.08C182.501 207.448 182.221 208.008 182.221 208.76ZM196.906 212.096C195.93 212.096 195.202 211.864 194.722 211.4C194.258 210.936 194.026 210.08 194.026 208.832V201.128H192.226V199.76H194.026V195.68H195.586V199.76H198.058V201.128H195.586V208.856C195.586 209.608 195.69 210.112 195.898 210.368C196.106 210.608 196.514 210.728 197.122 210.728C197.266 210.728 197.578 210.712 198.058 210.68V212C197.626 212.064 197.242 212.096 196.906 212.096ZM205.007 212.336C203.807 212.336 202.759 212.064 201.863 211.52C200.983 210.976 200.303 210.224 199.823 209.264C199.359 208.288 199.127 207.168 199.127 205.904C199.127 204.64 199.359 203.52 199.823 202.544C200.303 201.568 200.983 200.808 201.863 200.264C202.759 199.72 203.807 199.448 205.007 199.448C206.207 199.448 207.247 199.72 208.127 200.264C209.023 200.808 209.703 201.568 210.167 202.544C210.647 203.52 210.887 204.64 210.887 205.904C210.887 207.168 210.647 208.288 210.167 209.264C209.703 210.224 209.023 210.976 208.127 211.52C207.247 212.064 206.207 212.336 205.007 212.336ZM200.759 205.904C200.759 207.376 201.119 208.592 201.839 209.552C202.575 210.496 203.631 210.968 205.007 210.968C206.383 210.968 207.431 210.496 208.151 209.552C208.887 208.592 209.255 207.376 209.255 205.904C209.255 204.416 208.887 203.2 208.151 202.256C207.431 201.296 206.383 200.816 205.007 200.816C203.631 200.816 202.575 201.296 201.839 202.256C201.119 203.2 200.759 204.416 200.759 205.904ZM214.648 212H213.088V199.76H214.648V202.256H214.696C215.032 201.408 215.488 200.736 216.064 200.24C216.656 199.728 217.36 199.472 218.176 199.472C218.592 199.472 218.944 199.496 219.232 199.544V201.08C218.992 201.032 218.744 201.008 218.488 201.008C217.768 201.008 217.112 201.192 216.52 201.56C215.944 201.912 215.488 202.408 215.152 203.048C214.816 203.672 214.648 204.376 214.648 205.16V212ZM225.1 212.312C223.436 212.312 222.132 211.912 221.188 211.112C220.244 210.296 219.756 209.256 219.724 207.992H221.356C221.404 208.888 221.74 209.608 222.364 210.152C222.988 210.68 223.908 210.944 225.124 210.944C226.212 210.944 227.004 210.736 227.5 210.32C227.996 209.888 228.244 209.336 228.244 208.664C228.244 208.168 228.108 207.776 227.836 207.488C227.58 207.184 227.252 206.96 226.852 206.816C226.452 206.672 225.924 206.528 225.268 206.384C225.172 206.368 224.988 206.328 224.716 206.264C223.692 206.008 222.884 205.768 222.292 205.544C221.7 205.32 221.196 204.984 220.78 204.536C220.38 204.088 220.18 203.496 220.18 202.76C220.18 201.752 220.564 200.952 221.332 200.36C222.1 199.768 223.164 199.472 224.524 199.472C226.028 199.472 227.188 199.824 228.004 200.528C228.836 201.216 229.308 202.104 229.42 203.192H227.788C227.468 201.624 226.388 200.84 224.548 200.84C223.668 200.84 222.988 201 222.508 201.32C222.044 201.64 221.812 202.088 221.812 202.664C221.812 203.096 221.94 203.44 222.196 203.696C222.452 203.952 222.772 204.152 223.156 204.296C223.556 204.44 224.092 204.584 224.764 204.728L225.316 204.872C226.292 205.112 227.092 205.36 227.716 205.616C228.34 205.856 228.86 206.216 229.276 206.696C229.692 207.176 229.9 207.816 229.9 208.616C229.9 209.736 229.476 210.632 228.628 211.304C227.78 211.976 226.604 212.312 225.1 212.312ZM54.992 246.096C54.016 246.096 53.288 245.864 52.808 245.4C52.344 244.936 52.112 244.08 52.112 242.832V235.128H50.312V233.76H52.112V229.68H53.672V233.76H56.144V235.128H53.672V242.856C53.672 243.608 53.776 244.112 53.984 244.368C54.192 244.608 54.6 244.728 55.208 244.728C55.352 244.728 55.664 244.712 56.144 244.68V246C55.712 246.064 55.328 246.096 54.992 246.096ZM63.0933 246.336C61.8933 246.336 60.8453 246.064 59.9493 245.52C59.0693 244.976 58.3893 244.224 57.9093 243.264C57.4453 242.288 57.2133 241.168 57.2133 239.904C57.2133 238.64 57.4453 237.52 57.9093 236.544C58.3893 235.568 59.0693 234.808 59.9493 234.264C60.8453 233.72 61.8933 233.448 63.0933 233.448C64.2933 233.448 65.3333 233.72 66.2133 234.264C67.1093 234.808 67.7893 235.568 68.2533 236.544C68.7333 237.52 68.9733 238.64 68.9733 239.904C68.9733 241.168 68.7333 242.288 68.2533 243.264C67.7893 244.224 67.1093 244.976 66.2133 245.52C65.3333 246.064 64.2933 246.336 63.0933 246.336ZM58.8453 239.904C58.8453 241.376 59.2053 242.592 59.9253 243.552C60.6613 244.496 61.7173 244.968 63.0933 244.968C64.4693 244.968 65.5173 244.496 66.2373 243.552C66.9733 242.592 67.3413 241.376 67.3413 239.904C67.3413 238.416 66.9733 237.2 66.2373 236.256C65.5173 235.296 64.4693 234.816 63.0933 234.816C61.7173 234.816 60.6613 235.296 59.9253 236.256C59.2053 237.2 58.8453 238.416 58.8453 239.904ZM80.9364 246.312C79.2724 246.312 77.9684 245.912 77.0244 245.112C76.0804 244.296 75.5924 243.256 75.5604 241.992H77.1924C77.2404 242.888 77.5764 243.608 78.2004 244.152C78.8244 244.68 79.7444 244.944 80.9604 244.944C82.0484 244.944 82.8404 244.736 83.3364 244.32C83.8324 243.888 84.0804 243.336 84.0804 242.664C84.0804 242.168 83.9444 241.776 83.6724 241.488C83.4164 241.184 83.0884 240.96 82.6884 240.816C82.2884 240.672 81.7604 240.528 81.1044 240.384C81.0084 240.368 80.8244 240.328 80.5524 240.264C79.5284 240.008 78.7204 239.768 78.1284 239.544C77.5364 239.32 77.0324 238.984 76.6164 238.536C76.2164 238.088 76.0164 237.496 76.0164 236.76C76.0164 235.752 76.4004 234.952 77.1684 234.36C77.9364 233.768 79.0004 233.472 80.3604 233.472C81.8644 233.472 83.0244 233.824 83.8404 234.528C84.6724 235.216 85.1444 236.104 85.2564 237.192H83.6244C83.3044 235.624 82.2244 234.84 80.3844 234.84C79.5044 234.84 78.8244 235 78.3444 235.32C77.8804 235.64 77.6484 236.088 77.6484 236.664C77.6484 237.096 77.7764 237.44 78.0324 237.696C78.2884 237.952 78.6084 238.152 78.9924 238.296C79.3924 238.44 79.9284 238.584 80.6004 238.728L81.1524 238.872C82.1284 239.112 82.9284 239.36 83.5524 239.616C84.1764 239.856 84.6964 240.216 85.1124 240.696C85.5284 241.176 85.7364 241.816 85.7364 242.616C85.7364 243.736 85.3124 244.632 84.4644 245.304C83.6164 245.976 82.4404 246.312 80.9364 246.312ZM91.1795 246.096C90.2035 246.096 89.4755 245.864 88.9955 245.4C88.5315 244.936 88.2995 244.08 88.2995 242.832V235.128H86.4995V233.76H88.2995V229.68H89.8595V233.76H92.3315V235.128H89.8595V242.856C89.8595 243.608 89.9635 244.112 90.1715 244.368C90.3795 244.608 90.7875 244.728 91.3955 244.728C91.5395 244.728 91.8515 244.712 92.3315 244.68V246C91.8995 246.064 91.5155 246.096 91.1795 246.096ZM95.9141 246H94.3541V233.76H95.9141V236.256H95.9621C96.2981 235.408 96.7541 234.736 97.3301 234.24C97.9221 233.728 98.6261 233.472 99.4421 233.472C99.8581 233.472 100.21 233.496 100.498 233.544V235.08C100.258 235.032 100.01 235.008 99.7541 235.008C99.0341 235.008 98.3781 235.192 97.7861 235.56C97.2101 235.912 96.7541 236.408 96.4181 237.048C96.0821 237.672 95.9141 238.376 95.9141 239.16V246ZM106.663 246.336C105.447 246.336 104.399 246.064 103.519 245.52C102.639 244.96 101.967 244.192 101.503 243.216C101.055 242.24 100.831 241.128 100.831 239.88C100.831 238.584 101.071 237.456 101.551 236.496C102.031 235.52 102.711 234.768 103.591 234.24C104.471 233.712 105.495 233.448 106.663 233.448C107.815 233.448 108.807 233.704 109.639 234.216C110.471 234.712 111.103 235.408 111.535 236.304C111.967 237.184 112.183 238.192 112.183 239.328C112.183 239.776 112.175 240.064 112.159 240.192H102.463C102.479 241.056 102.639 241.856 102.943 242.592C103.263 243.312 103.735 243.896 104.359 244.344C104.999 244.776 105.775 244.992 106.687 244.992C107.807 244.992 108.671 244.704 109.279 244.128C109.887 243.552 110.271 242.928 110.431 242.256H112.015C111.695 243.472 111.087 244.456 110.191 245.208C109.295 245.96 108.119 246.336 106.663 246.336ZM110.527 238.824C110.527 238.088 110.367 237.416 110.047 236.808C109.743 236.184 109.295 235.696 108.703 235.344C108.111 234.976 107.407 234.792 106.591 234.792C105.423 234.792 104.455 235.176 103.687 235.944C102.935 236.712 102.527 237.672 102.463 238.824H110.527ZM122.626 237.744C122.626 236.88 122.402 236.184 121.954 235.656C121.506 235.112 120.786 234.84 119.794 234.84C119.042 234.84 118.37 235 117.778 235.32C117.202 235.64 116.746 236.064 116.41 236.592C116.09 237.104 115.93 237.664 115.93 238.272V246H114.37V233.76H115.93V235.512H115.978C116.378 234.92 116.922 234.432 117.61 234.048C118.314 233.664 119.17 233.472 120.178 233.472C121.346 233.472 122.306 233.808 123.058 234.48C123.81 235.136 124.186 236.112 124.186 237.408V246H122.626V237.744ZM131.971 250.392C130.371 250.392 129.115 250.048 128.203 249.36C127.307 248.672 126.811 247.768 126.715 246.648H128.347C128.475 247.352 128.835 247.92 129.427 248.352C130.019 248.8 130.875 249.024 131.995 249.024C134.619 249.024 135.931 247.832 135.931 245.448V243.168H135.883C135.499 243.856 134.955 244.408 134.251 244.824C133.563 245.224 132.731 245.424 131.755 245.424C130.747 245.424 129.835 245.2 129.019 244.752C128.219 244.304 127.579 243.632 127.099 242.736C126.619 241.84 126.379 240.736 126.379 239.424C126.379 238.128 126.619 237.032 127.099 236.136C127.579 235.24 128.219 234.576 129.019 234.144C129.835 233.696 130.747 233.472 131.755 233.472C132.731 233.472 133.563 233.68 134.251 234.096C134.955 234.496 135.499 235.024 135.883 235.68H135.931V233.76H137.491V245.232C137.491 246.928 137.003 248.208 136.027 249.072C135.051 249.952 133.699 250.392 131.971 250.392ZM128.011 239.424C128.011 240.848 128.355 241.976 129.043 242.808C129.747 243.64 130.723 244.056 131.971 244.056C133.155 244.056 134.107 243.664 134.827 242.88C135.563 242.096 135.931 240.944 135.931 239.424C135.931 237.936 135.563 236.8 134.827 236.016C134.107 235.232 133.155 234.84 131.971 234.84C130.723 234.84 129.747 235.256 129.043 236.088C128.355 236.92 128.011 238.032 128.011 239.424ZM143.89 246.096C142.914 246.096 142.186 245.864 141.706 245.4C141.242 244.936 141.01 244.08 141.01 242.832V235.128H139.21V233.76H141.01V229.68H142.57V233.76H145.042V235.128H142.57V242.856C142.57 243.608 142.674 244.112 142.882 244.368C143.09 244.608 143.498 244.728 144.106 244.728C144.25 244.728 144.562 244.712 145.042 244.68V246C144.61 246.064 144.226 246.096 143.89 246.096ZM155.321 237.744C155.321 236.88 155.097 236.184 154.649 235.656C154.201 235.112 153.481 234.84 152.489 234.84C151.737 234.84 151.065 235 150.473 235.32C149.897 235.64 149.441 236.064 149.105 236.592C148.785 237.104 148.625 237.664 148.625 238.272V246H147.065V228.84H148.625V235.512H148.673C149.073 234.92 149.617 234.432 150.305 234.048C151.009 233.664 151.865 233.472 152.873 233.472C154.041 233.472 155.001 233.808 155.753 234.48C156.505 235.136 156.881 236.112 156.881 237.408V246H155.321V237.744ZM164.858 246.336C163.642 246.336 162.594 246.064 161.714 245.52C160.834 244.96 160.162 244.192 159.698 243.216C159.25 242.24 159.026 241.128 159.026 239.88C159.026 238.584 159.266 237.456 159.746 236.496C160.226 235.52 160.906 234.768 161.786 234.24C162.666 233.712 163.69 233.448 164.858 233.448C166.01 233.448 167.002 233.704 167.834 234.216C168.666 234.712 169.298 235.408 169.73 236.304C170.162 237.184 170.378 238.192 170.378 239.328C170.378 239.776 170.37 240.064 170.354 240.192H160.658C160.674 241.056 160.834 241.856 161.138 242.592C161.458 243.312 161.93 243.896 162.554 244.344C163.194 244.776 163.97 244.992 164.882 244.992C166.002 244.992 166.866 244.704 167.474 244.128C168.082 243.552 168.466 242.928 168.626 242.256H170.21C169.89 243.472 169.282 244.456 168.386 245.208C167.49 245.96 166.314 246.336 164.858 246.336ZM168.722 238.824C168.722 238.088 168.562 237.416 168.242 236.808C167.938 236.184 167.49 235.696 166.898 235.344C166.306 234.976 165.602 234.792 164.786 234.792C163.618 234.792 162.65 235.176 161.882 235.944C161.13 236.712 160.722 237.672 160.658 238.824H168.722ZM180.821 237.744C180.821 236.88 180.597 236.184 180.149 235.656C179.701 235.112 178.981 234.84 177.989 234.84C177.237 234.84 176.565 235 175.973 235.32C175.397 235.64 174.941 236.064 174.605 236.592C174.285 237.104 174.125 237.664 174.125 238.272V246H172.565V233.76H174.125V235.512H174.173C174.573 234.92 175.117 234.432 175.805 234.048C176.509 233.664 177.365 233.472 178.373 233.472C179.541 233.472 180.501 233.808 181.253 234.48C182.005 235.136 182.381 236.112 182.381 237.408V246H180.821V237.744ZM53 280H51.44V267.76H53V270.256H53.048C53.384 269.408 53.84 268.736 54.416 268.24C55.008 267.728 55.712 267.472 56.528 267.472C56.944 267.472 57.296 267.496 57.584 267.544V269.08C57.344 269.032 57.096 269.008 56.84 269.008C56.12 269.008 55.464 269.192 54.872 269.56C54.296 269.912 53.84 270.408 53.504 271.048C53.168 271.672 53 272.376 53 273.16V280ZM63.749 280.336C62.533 280.336 61.485 280.064 60.605 279.52C59.725 278.96 59.053 278.192 58.589 277.216C58.141 276.24 57.917 275.128 57.917 273.88C57.917 272.584 58.157 271.456 58.637 270.496C59.117 269.52 59.797 268.768 60.677 268.24C61.557 267.712 62.581 267.448 63.749 267.448C64.901 267.448 65.893 267.704 66.725 268.216C67.557 268.712 68.189 269.408 68.621 270.304C69.053 271.184 69.269 272.192 69.269 273.328C69.269 273.776 69.261 274.064 69.245 274.192H59.549C59.565 275.056 59.725 275.856 60.029 276.592C60.349 277.312 60.821 277.896 61.445 278.344C62.085 278.776 62.861 278.992 63.773 278.992C64.893 278.992 65.757 278.704 66.365 278.128C66.973 277.552 67.357 276.928 67.517 276.256H69.101C68.781 277.472 68.173 278.456 67.277 279.208C66.381 279.96 65.205 280.336 63.749 280.336ZM67.613 272.824C67.613 272.088 67.453 271.416 67.133 270.808C66.829 270.184 66.381 269.696 65.789 269.344C65.197 268.976 64.493 268.792 63.677 268.792C62.509 268.792 61.541 269.176 60.773 269.944C60.021 270.712 59.613 271.672 59.549 272.824H67.613ZM71.4556 262.84H73.0156V280H71.4556V262.84ZM79.2453 280.312C78.0293 280.312 77.0533 280 76.3173 279.376C75.5973 278.752 75.2373 277.928 75.2373 276.904C75.2373 276.056 75.4293 275.368 75.8133 274.84C76.1973 274.312 76.7493 273.904 77.4693 273.616C78.1893 273.328 79.1253 273.08 80.2773 272.872C81.1893 272.712 81.8373 272.584 82.2213 272.488C82.6213 272.376 82.9493 272.2 83.2053 271.96C83.4613 271.72 83.5893 271.368 83.5893 270.904C83.5893 270.248 83.3573 269.736 82.8933 269.368C82.4453 269 81.7493 268.816 80.8053 268.816C79.6533 268.816 78.8213 269.024 78.3093 269.44C77.8133 269.856 77.5333 270.528 77.4693 271.456H75.8133C75.8773 270.272 76.3173 269.312 77.1333 268.576C77.9493 267.824 79.1893 267.448 80.8533 267.448C82.1013 267.448 83.1173 267.76 83.9013 268.384C84.7013 268.992 85.1013 269.976 85.1013 271.336V277.456C85.1013 277.968 85.1493 278.336 85.2453 278.56C85.3413 278.784 85.5253 278.896 85.7973 278.896C85.9253 278.896 86.0373 278.888 86.1333 278.872V280C85.7813 280.064 85.5093 280.096 85.3173 280.096C84.7733 280.096 84.3573 279.96 84.0693 279.688C83.7973 279.4 83.6373 278.888 83.5893 278.152H83.5413C83.1253 278.856 82.5493 279.392 81.8133 279.76C81.0933 280.128 80.2373 280.312 79.2453 280.312ZM76.8693 276.76C76.8693 278.216 77.7253 278.944 79.4373 278.944C80.7013 278.944 81.7093 278.632 82.4613 278.008C83.2133 277.368 83.5893 276.504 83.5893 275.416V273.136C83.4293 273.36 83.0773 273.552 82.5333 273.712C82.0053 273.872 81.3173 274.024 80.4693 274.168C79.2053 274.392 78.2853 274.696 77.7093 275.08C77.1493 275.448 76.8693 276.008 76.8693 276.76ZM91.5545 280.096C90.5785 280.096 89.8505 279.864 89.3705 279.4C88.9065 278.936 88.6745 278.08 88.6745 276.832V269.128H86.8745V267.76H88.6745V263.68H90.2345V267.76H92.7065V269.128H90.2345V276.856C90.2345 277.608 90.3385 278.112 90.5465 278.368C90.7545 278.608 91.1625 278.728 91.7705 278.728C91.9145 278.728 92.2265 278.712 92.7065 278.68V280C92.2745 280.064 91.8905 280.096 91.5545 280.096ZM94.7291 267.76H96.2891V280H94.7291V267.76ZM94.4891 263.296H96.5051V265.312H94.4891V263.296ZM104.367 280.336C103.167 280.336 102.119 280.064 101.223 279.52C100.343 278.976 99.6628 278.224 99.1828 277.264C98.7188 276.288 98.4868 275.168 98.4868 273.904C98.4868 272.64 98.7188 271.52 99.1828 270.544C99.6628 269.568 100.343 268.808 101.223 268.264C102.119 267.72 103.167 267.448 104.367 267.448C105.567 267.448 106.607 267.72 107.487 268.264C108.383 268.808 109.063 269.568 109.527 270.544C110.007 271.52 110.247 272.64 110.247 273.904C110.247 275.168 110.007 276.288 109.527 277.264C109.063 278.224 108.383 278.976 107.487 279.52C106.607 280.064 105.567 280.336 104.367 280.336ZM100.119 273.904C100.119 275.376 100.479 276.592 101.199 277.552C101.935 278.496 102.991 278.968 104.367 278.968C105.743 278.968 106.791 278.496 107.511 277.552C108.247 276.592 108.615 275.376 108.615 273.904C108.615 272.416 108.247 271.2 107.511 270.256C106.791 269.296 105.743 268.816 104.367 268.816C102.991 268.816 101.935 269.296 101.199 270.256C100.479 271.2 100.119 272.416 100.119 273.904ZM120.704 271.744C120.704 270.88 120.48 270.184 120.032 269.656C119.584 269.112 118.864 268.84 117.872 268.84C117.12 268.84 116.448 269 115.856 269.32C115.28 269.64 114.824 270.064 114.488 270.592C114.168 271.104 114.008 271.664 114.008 272.272V280H112.448V267.76H114.008V269.512H114.056C114.456 268.92 115 268.432 115.688 268.048C116.392 267.664 117.248 267.472 118.256 267.472C119.424 267.472 120.384 267.808 121.136 268.48C121.888 269.136 122.264 270.112 122.264 271.408V280H120.704V271.744ZM129.569 280.312C127.905 280.312 126.601 279.912 125.657 279.112C124.713 278.296 124.225 277.256 124.193 275.992H125.825C125.873 276.888 126.209 277.608 126.833 278.152C127.457 278.68 128.377 278.944 129.593 278.944C130.681 278.944 131.473 278.736 131.969 278.32C132.465 277.888 132.713 277.336 132.713 276.664C132.713 276.168 132.577 275.776 132.305 275.488C132.049 275.184 131.721 274.96 131.321 274.816C130.921 274.672 130.393 274.528 129.737 274.384C129.641 274.368 129.457 274.328 129.185 274.264C128.161 274.008 127.353 273.768 126.761 273.544C126.169 273.32 125.665 272.984 125.249 272.536C124.849 272.088 124.649 271.496 124.649 270.76C124.649 269.752 125.033 268.952 125.801 268.36C126.569 267.768 127.633 267.472 128.993 267.472C130.497 267.472 131.657 267.824 132.473 268.528C133.305 269.216 133.777 270.104 133.889 271.192H132.257C131.937 269.624 130.857 268.84 129.017 268.84C128.137 268.84 127.457 269 126.977 269.32C126.513 269.64 126.281 270.088 126.281 270.664C126.281 271.096 126.409 271.44 126.665 271.696C126.921 271.952 127.241 272.152 127.625 272.296C128.025 272.44 128.561 272.584 129.233 272.728L129.785 272.872C130.761 273.112 131.561 273.36 132.185 273.616C132.809 273.856 133.329 274.216 133.745 274.696C134.161 275.176 134.369 275.816 134.369 276.616C134.369 277.736 133.945 278.632 133.097 279.304C132.249 279.976 131.073 280.312 129.569 280.312ZM144.634 271.744C144.634 270.88 144.41 270.184 143.962 269.656C143.514 269.112 142.794 268.84 141.802 268.84C141.05 268.84 140.378 269 139.786 269.32C139.21 269.64 138.754 270.064 138.418 270.592C138.098 271.104 137.938 271.664 137.938 272.272V280H136.378V262.84H137.938V269.512H137.986C138.386 268.92 138.93 268.432 139.618 268.048C140.322 267.664 141.178 267.472 142.186 267.472C143.354 267.472 144.314 267.808 145.066 268.48C145.818 269.136 146.194 270.112 146.194 271.408V280H144.634V271.744ZM148.987 267.76H150.547V280H148.987V267.76ZM148.747 263.296H150.763V265.312H148.747V263.296ZM159.153 280.288C158.145 280.288 157.305 280.08 156.633 279.664C155.961 279.232 155.425 278.656 155.025 277.936H154.977V284.248H153.417V267.76H154.977V269.728H155.025C155.441 269.056 155.985 268.512 156.657 268.096C157.329 267.664 158.161 267.448 159.153 267.448C160.161 267.448 161.073 267.712 161.889 268.24C162.705 268.752 163.353 269.496 163.833 270.472C164.313 271.432 164.553 272.568 164.553 273.88C164.553 275.176 164.313 276.312 163.833 277.288C163.353 278.248 162.705 278.992 161.889 279.52C161.073 280.032 160.161 280.288 159.153 280.288ZM154.977 273.88C154.977 274.888 155.145 275.776 155.481 276.544C155.817 277.296 156.289 277.88 156.897 278.296C157.505 278.712 158.201 278.92 158.985 278.92C159.801 278.92 160.505 278.696 161.097 278.248C161.705 277.8 162.161 277.192 162.465 276.424C162.769 275.656 162.921 274.808 162.921 273.88C162.921 272.44 162.569 271.24 161.865 270.28C161.177 269.304 160.217 268.816 158.985 268.816C158.201 268.816 157.505 269.024 156.897 269.44C156.289 269.856 155.817 270.448 155.481 271.216C155.145 271.984 154.977 272.872 154.977 273.88ZM171.288 280.312C169.624 280.312 168.32 279.912 167.376 279.112C166.432 278.296 165.944 277.256 165.912 275.992H167.544C167.592 276.888 167.928 277.608 168.552 278.152C169.176 278.68 170.096 278.944 171.312 278.944C172.4 278.944 173.192 278.736 173.688 278.32C174.184 277.888 174.432 277.336 174.432 276.664C174.432 276.168 174.296 275.776 174.024 275.488C173.768 275.184 173.44 274.96 173.04 274.816C172.64 274.672 172.112 274.528 171.456 274.384C171.36 274.368 171.176 274.328 170.904 274.264C169.88 274.008 169.072 273.768 168.48 273.544C167.888 273.32 167.384 272.984 166.968 272.536C166.568 272.088 166.368 271.496 166.368 270.76C166.368 269.752 166.752 268.952 167.52 268.36C168.288 267.768 169.352 267.472 170.712 267.472C172.216 267.472 173.376 267.824 174.192 268.528C175.024 269.216 175.496 270.104 175.608 271.192H173.976C173.656 269.624 172.576 268.84 170.736 268.84C169.856 268.84 169.176 269 168.696 269.32C168.232 269.64 168 270.088 168 270.664C168 271.096 168.128 271.44 168.384 271.696C168.64 271.952 168.96 272.152 169.344 272.296C169.744 272.44 170.28 272.584 170.952 272.728L171.504 272.872C172.48 273.112 173.28 273.36 173.904 273.616C174.528 273.856 175.048 274.216 175.464 274.696C175.88 275.176 176.088 275.816 176.088 276.616C176.088 277.736 175.664 278.632 174.816 279.304C173.968 279.976 172.792 280.312 171.288 280.312Z" fill="black"/>
<path d="M336.5 137L345.837 157.654L364.25 144.436L362.009 166.991L384.564 164.75L371.346 183.163L392 192.5L371.346 201.837L384.564 220.25L362.009 218.009L364.25 240.564L345.837 227.346L336.5 248L327.163 227.346L308.75 240.564L310.991 218.009L288.436 220.25L301.654 201.837L281 192.5L301.654 183.163L288.436 164.75L310.991 166.991L308.75 144.436L327.163 157.654L336.5 137Z" fill="#A1A0F2" stroke="#0D0C50" stroke-width="1.5"/>
</g>
<defs>
<clipPath id="clip0_873_4451">
<rect width="342" height="284" fill="white" transform="translate(50 50)"/>
</clipPath>
</defs>
</svg>
