<svg width="1024" height="768" viewBox="0 0 1024 768" fill="none" xmlns="http://www.w3.org/2000/svg">
<g filter="url(#filter0_d_870_3998)">
<rect x="61" y="44" width="438" height="327" rx="40" fill="#F2F2FD"/>
<rect x="61.25" y="44.25" width="437.5" height="326.5" rx="39.75" stroke="#A09EF1" stroke-width="0.5"/>
<path d="M119.128 155.184C119.512 153.328 120.152 151.696 123 151.12L122.68 152.72C121.496 153.104 120.984 153.68 120.728 155.184H122.2L121.592 158.256H118.52L119.128 155.184ZM113.816 158.256L114.424 155.184C114.808 153.328 115.448 151.696 118.296 151.12L117.976 152.72C116.792 153.104 116.28 153.68 116.024 155.184H117.496L116.888 158.256H113.816ZM122.488 174L126.936 151.12H129.816L125.368 174H122.488ZM133.992 155.472C134.728 151.76 136.424 150.928 138.824 150.928C139.304 150.928 139.688 150.96 140.488 151.088L140.072 153.264C139.432 153.2 139.208 153.168 138.76 153.168C137.192 153.168 136.872 153.744 136.552 155.344L136.104 157.68H139.208L138.792 159.92H135.656L132.936 174H130.376L133.128 159.92H130.856L131.272 157.68H133.576L133.992 155.472ZM144.642 179.728C144.226 179.728 143.778 179.696 143.074 179.568L143.49 177.392C144.034 177.456 144.322 177.488 144.642 177.488C146.114 177.488 147.746 176.656 148.994 173.84L145.506 157.68H148.322L150.786 170.896H150.85L158.21 157.68H161.026L151.266 174.48C148.834 178.64 147.042 179.728 144.642 179.728ZM166.416 174.448C162.352 174.448 160.112 171.856 160.112 168.016C160.112 162.192 164.208 157.232 170.032 157.232C174.096 157.232 176.336 159.824 176.336 163.664C176.336 169.488 172.24 174.448 166.416 174.448ZM162.704 167.76C162.704 170.32 163.984 172.208 166.768 172.208C170.992 172.208 173.744 168.144 173.744 163.92C173.744 161.36 172.464 159.472 169.68 159.472C165.456 159.472 162.704 163.536 162.704 167.76ZM182.694 174.448C179.622 174.448 177.446 172.784 178.342 168.208L180.39 157.68H182.95L180.902 168.272C180.486 170.48 181.094 172.208 183.558 172.208C186.47 172.208 188.806 170.352 189.382 167.568L191.302 157.68H193.862L190.694 174H188.134L188.518 172.048H188.454C187.366 173.2 185.382 174.448 182.694 174.448ZM214.248 163.248C214.664 161.104 214.056 159.44 211.4 159.44C208.712 159.44 206.408 161.36 205.8 163.76L203.816 174H201.256L205.704 151.12H208.264L206.6 159.76C207.816 158.288 209.864 157.2 212.456 157.2C215.624 157.2 217.576 159.312 216.808 163.248L214.728 174H212.168L214.248 163.248ZM223.247 174.448C220.143 174.448 218.415 172.912 218.415 170.16C218.415 166.544 221.455 165.328 225.743 164.464C228.943 163.824 231.183 163.536 231.183 161.392C231.183 160.24 230.511 159.44 228.079 159.44C225.359 159.44 223.919 160.432 223.311 162.832H220.687C221.455 159.376 224.015 157.2 228.303 157.2C232.239 157.2 234.255 159.024 233.551 162.608L232.047 170.32C231.823 171.504 231.823 172.24 232.719 172.24C232.879 172.24 233.071 172.208 233.263 172.176L232.911 173.84C232.431 174.032 231.983 174.16 231.375 174.16C229.967 174.16 229.231 173.456 229.295 171.632H229.199C227.823 173.36 225.807 174.448 223.247 174.448ZM221.039 169.904C221.039 171.472 222.062 172.208 223.983 172.208C226.959 172.208 229.487 170.512 230.095 167.472L230.575 165.104C229.871 165.776 229.263 165.904 226.671 166.448C222.959 167.216 221.039 167.792 221.039 169.904ZM238.918 174L236.23 157.68H238.982L240.87 171.44H240.902L248.038 157.68H250.854L241.83 174H238.918ZM256.801 174.48C252.417 174.48 250.113 171.888 250.113 167.632C250.113 161.776 254.177 157.2 259.745 157.2C264.161 157.2 266.113 159.696 266.113 163.28C266.113 164.048 265.953 165.36 265.729 166.512H252.833C252.801 166.864 252.769 167.216 252.769 167.6C252.769 170.512 253.921 172.24 256.993 172.24C260.289 172.24 261.985 170.128 262.497 168.976H265.153C263.649 172.176 260.897 174.48 256.801 174.48ZM253.217 164.272H263.393C263.873 161.584 262.753 159.408 259.521 159.408C256.257 159.408 254.049 161.328 253.217 164.272ZM280.888 174.448C276.344 174.448 273.784 171.984 273.784 168.656H276.312C276.312 170.48 277.592 172.208 280.984 172.208C283.352 172.208 284.984 171.376 284.984 169.488C284.984 167.728 283.416 167.248 281.144 166.576C278.648 165.84 275.544 165.104 275.544 161.808C275.544 158.64 278.424 157.232 281.752 157.232C286.04 157.232 288.12 159.696 288.12 162.384H285.56C285.56 161.072 284.664 159.472 281.72 159.472C279.768 159.472 278.072 160.112 278.072 161.776C278.072 163.376 279.608 163.728 282.104 164.496C284.92 165.36 287.576 166.224 287.576 169.392C287.576 172.72 284.696 174.448 280.888 174.448ZM302.217 163.248C302.633 161.104 302.025 159.44 299.369 159.44C296.681 159.44 294.377 161.36 293.769 163.76L291.785 174H289.225L293.673 151.12H296.233L294.569 159.76C295.785 158.288 297.833 157.2 300.425 157.2C303.593 157.2 305.545 159.312 304.777 163.248L302.697 174H300.137L302.217 163.248ZM311.215 174.448C308.111 174.448 306.383 172.912 306.383 170.16C306.383 166.544 309.423 165.328 313.711 164.464C316.911 163.824 319.151 163.536 319.151 161.392C319.151 160.24 318.479 159.44 316.047 159.44C313.327 159.44 311.887 160.432 311.279 162.832H308.655C309.423 159.376 311.983 157.2 316.271 157.2C320.207 157.2 322.223 159.024 321.519 162.608L320.015 170.32C319.791 171.504 319.791 172.24 320.687 172.24C320.847 172.24 321.039 172.208 321.231 172.176L320.879 173.84C320.399 174.032 319.951 174.16 319.343 174.16C317.935 174.16 317.199 173.456 317.263 171.632H317.167C315.791 173.36 313.775 174.448 311.215 174.448ZM309.007 169.904C309.007 171.472 310.031 172.208 311.951 172.208C314.927 172.208 317.455 170.512 318.063 167.472L318.543 165.104C317.839 165.776 317.231 165.904 314.639 166.448C310.927 167.216 309.007 167.792 309.007 169.904ZM327.793 165.264L326.097 174H323.537L326.705 157.68H329.265L328.657 160.752H328.721C329.969 158.64 331.473 157.296 334.001 157.296C334.385 157.296 334.897 157.328 335.281 157.392L334.769 159.888C334.417 159.824 334.129 159.792 333.777 159.792C330.769 159.792 328.401 162.128 327.793 165.264ZM340.739 174.48C336.355 174.48 334.051 171.888 334.051 167.632C334.051 161.776 338.115 157.2 343.683 157.2C348.099 157.2 350.051 159.696 350.051 163.28C350.051 164.048 349.891 165.36 349.667 166.512H336.771C336.739 166.864 336.707 167.216 336.707 167.6C336.707 170.512 337.859 172.24 340.931 172.24C344.227 172.24 345.923 170.128 346.435 168.976H349.091C347.587 172.176 344.835 174.48 340.739 174.48ZM337.155 164.272H347.331C347.811 161.584 346.691 159.408 343.459 159.408C340.195 159.408 337.987 161.328 337.155 164.272ZM357.438 174.448C353.95 174.448 351.55 172.176 351.55 167.824C351.55 161.84 355.55 157.232 360.734 157.232C363.134 157.232 364.574 158.288 365.342 159.792H365.502L367.198 151.12H369.758L365.31 174H362.75L363.134 171.984H363.07C361.854 173.296 360.062 174.448 357.438 174.448ZM354.142 167.6C354.142 170.16 355.006 172.208 358.078 172.208C360.958 172.208 363.358 169.776 364.19 166.608L364.446 165.328C364.478 164.944 364.51 164.528 364.51 164.144C364.51 161.168 363.102 159.472 360.51 159.472C356.99 159.472 354.142 162.928 354.142 167.6ZM115.512 219L112.824 202.68H115.576L117.464 216.44H117.496L124.632 202.68H127.448L118.424 219H115.512ZM130.903 219.448C127.799 219.448 126.071 217.912 126.071 215.16C126.071 211.544 129.111 210.328 133.399 209.464C136.599 208.824 138.839 208.536 138.839 206.392C138.839 205.24 138.167 204.44 135.735 204.44C133.015 204.44 131.575 205.432 130.967 207.832H128.343C129.111 204.376 131.671 202.2 135.959 202.2C139.895 202.2 141.911 204.024 141.207 207.608L139.703 215.32C139.479 216.504 139.479 217.24 140.375 217.24C140.535 217.24 140.727 217.208 140.919 217.176L140.567 218.84C140.087 219.032 139.639 219.16 139.031 219.16C137.623 219.16 136.887 218.456 136.951 216.632H136.855C135.479 218.36 133.463 219.448 130.903 219.448ZM128.695 214.904C128.695 216.472 129.719 217.208 131.639 217.208C134.615 217.208 137.143 215.512 137.751 212.472L138.231 210.104C137.527 210.776 136.919 210.904 134.327 211.448C130.615 212.216 128.695 212.792 128.695 214.904ZM143.225 219L147.673 196.12H150.233L145.785 219H143.225ZM154.85 219.448C151.778 219.448 149.602 217.784 150.498 213.208L152.546 202.68H155.106L153.058 213.272C152.642 215.48 153.25 217.208 155.714 217.208C158.626 217.208 160.962 215.352 161.538 212.568L163.458 202.68H166.018L162.85 219H160.29L160.674 217.048H160.61C159.522 218.2 157.538 219.448 154.85 219.448ZM173.833 219.48C169.449 219.48 167.145 216.888 167.145 212.632C167.145 206.776 171.209 202.2 176.777 202.2C181.193 202.2 183.145 204.696 183.145 208.28C183.145 209.048 182.985 210.36 182.76 211.512H169.865C169.833 211.864 169.801 212.216 169.801 212.6C169.801 215.512 170.953 217.24 174.025 217.24C177.321 217.24 179.017 215.128 179.529 213.976H182.185C180.681 217.176 177.929 219.48 173.833 219.48ZM170.249 209.272H180.425C180.905 206.584 179.785 204.408 176.553 204.408C173.289 204.408 171.081 206.328 170.249 209.272ZM191.076 219.448C186.532 219.448 183.972 216.984 183.972 213.656H186.5C186.5 215.48 187.78 217.208 191.172 217.208C193.54 217.208 195.172 216.376 195.172 214.488C195.172 212.728 193.604 212.248 191.332 211.576C188.836 210.84 185.732 210.104 185.732 206.808C185.732 203.64 188.612 202.232 191.94 202.232C196.228 202.232 198.308 204.696 198.308 207.384H195.748C195.748 206.072 194.852 204.472 191.908 204.472C189.956 204.472 188.26 205.112 188.26 206.776C188.26 208.376 189.796 208.728 192.292 209.496C195.108 210.36 197.764 211.224 197.764 214.392C197.764 217.72 194.884 219.448 191.076 219.448ZM205.924 224.728C205.508 224.728 205.059 224.696 204.355 224.568L204.771 222.392C205.316 222.456 205.604 222.488 205.924 222.488C207.396 222.488 209.028 221.656 210.276 218.84L206.788 202.68H209.604L212.068 215.896H212.132L219.492 202.68H222.308L212.548 219.48C210.116 223.64 208.324 224.728 205.924 224.728ZM227.697 219.448C223.633 219.448 221.393 216.856 221.393 213.016C221.393 207.192 225.489 202.232 231.313 202.232C235.377 202.232 237.617 204.824 237.617 208.664C237.617 214.488 233.521 219.448 227.697 219.448ZM223.985 212.76C223.985 215.32 225.265 217.208 228.049 217.208C232.273 217.208 235.025 213.144 235.025 208.92C235.025 206.36 233.745 204.472 230.961 204.472C226.737 204.472 223.985 208.536 223.985 212.76ZM243.975 219.448C240.903 219.448 238.727 217.784 239.623 213.208L241.671 202.68H244.231L242.183 213.272C241.767 215.48 242.375 217.208 244.839 217.208C247.751 217.208 250.087 215.352 250.663 212.568L252.583 202.68H255.143L251.975 219H249.415L249.799 217.048H249.735C248.647 218.2 246.663 219.448 243.975 219.448ZM269.609 219.448C265.481 219.448 263.049 216.856 263.049 212.856C263.049 207.192 267.049 202.232 272.681 202.232C276.777 202.232 279.049 205.016 278.729 208.664H276.233C276.489 205.976 275.209 204.472 272.521 204.472C268.393 204.472 265.641 208.44 265.641 212.632C265.641 215.032 266.729 217.208 269.769 217.208C273.129 217.208 274.857 214.84 275.337 213.08H277.897C276.937 216.792 273.577 219.448 269.609 219.448ZM286.197 219.448C282.133 219.448 279.893 216.856 279.893 213.016C279.893 207.192 283.989 202.232 289.813 202.232C293.877 202.232 296.117 204.824 296.117 208.664C296.117 214.488 292.021 219.448 286.197 219.448ZM282.485 212.76C282.485 215.32 283.765 217.208 286.549 217.208C290.773 217.208 293.525 213.144 293.525 208.92C293.525 206.36 292.245 204.472 289.461 204.472C285.237 204.472 282.485 208.536 282.485 212.76ZM302.475 219.448C299.403 219.448 297.227 217.784 298.123 213.208L300.171 202.68H302.731L300.683 213.272C300.267 215.48 300.875 217.208 303.339 217.208C306.251 217.208 308.587 215.352 309.163 212.568L311.083 202.68H313.643L310.475 219H307.915L308.299 217.048H308.235C307.147 218.2 305.163 219.448 302.475 219.448ZM314.194 219L318.641 196.12H321.202L316.754 219H314.194ZM326.907 219.448C323.419 219.448 321.019 217.176 321.019 212.824C321.019 206.84 325.019 202.232 330.203 202.232C332.603 202.232 334.043 203.288 334.811 204.792H334.971L336.667 196.12H339.227L334.779 219H332.219L332.603 216.984H332.539C331.323 218.296 329.531 219.448 326.907 219.448ZM323.611 212.6C323.611 215.16 324.475 217.208 327.547 217.208C330.427 217.208 332.827 214.776 333.659 211.608L333.915 210.328C333.947 209.944 333.979 209.528 333.979 209.144C333.979 206.168 332.571 204.472 329.979 204.472C326.459 204.472 323.611 207.928 323.611 212.6ZM352.422 219.448C348.294 219.448 345.862 216.856 345.862 212.856C345.862 207.192 349.862 202.232 355.494 202.232C359.59 202.232 361.862 205.016 361.542 208.664H359.046C359.302 205.976 358.022 204.472 355.334 204.472C351.206 204.472 348.454 208.44 348.454 212.632C348.454 215.032 349.542 217.208 352.582 217.208C355.942 217.208 357.67 214.84 358.15 213.08H360.71C359.75 216.792 356.39 219.448 352.422 219.448ZM362.194 219L366.641 196.12H369.202L364.754 219H362.194ZM368.475 219L371.643 202.68H374.203L371.035 219H368.475ZM371.995 199.512L372.603 196.44H375.675L375.067 199.512H371.995ZM381.828 219.448C377.7 219.448 375.268 216.856 375.268 212.856C375.268 207.192 379.268 202.232 384.9 202.232C388.996 202.232 391.268 205.016 390.948 208.664H388.452C388.708 205.976 387.428 204.472 384.74 204.472C380.612 204.472 377.86 208.44 377.86 212.632C377.86 215.032 378.948 217.208 381.988 217.208C385.348 217.208 387.076 214.84 387.556 213.08H390.116C389.156 216.792 385.796 219.448 381.828 219.448ZM391.6 219L396.048 196.12H398.608L395.984 209.56L404.752 202.68H408.016L400.432 208.6L405.52 219H402.544L398.448 210.168L395.408 212.504L394.16 219H391.6ZM418.122 219.448C415.018 219.448 413.29 217.912 413.29 215.16C413.29 211.544 416.33 210.328 420.618 209.464C423.818 208.824 426.058 208.536 426.058 206.392C426.058 205.24 425.386 204.44 422.954 204.44C420.234 204.44 418.794 205.432 418.186 207.832H415.562C416.33 204.376 418.89 202.2 423.178 202.2C427.114 202.2 429.13 204.024 428.426 207.608L426.922 215.32C426.698 216.504 426.698 217.24 427.594 217.24C427.754 217.24 427.946 217.208 428.138 217.176L427.786 218.84C427.306 219.032 426.858 219.16 426.25 219.16C424.842 219.16 424.106 218.456 424.17 216.632H424.074C422.698 218.36 420.682 219.448 418.122 219.448ZM415.914 214.904C415.914 216.472 416.938 217.208 418.858 217.208C421.834 217.208 424.362 215.512 424.97 212.472L425.45 210.104C424.746 210.776 424.138 210.904 421.546 211.448C417.834 212.216 415.914 212.792 415.914 214.904ZM111.256 264L115.704 241.12H118.264L113.816 264H111.256ZM124.353 264.448C120.289 264.448 118.049 261.856 118.049 258.016C118.049 252.192 122.145 247.232 127.969 247.232C132.033 247.232 134.273 249.824 134.273 253.664C134.273 259.488 130.177 264.448 124.353 264.448ZM120.641 257.76C120.641 260.32 121.921 262.208 124.705 262.208C128.929 262.208 131.681 258.144 131.681 253.92C131.681 251.36 130.401 249.472 127.617 249.472C123.393 249.472 120.641 253.536 120.641 257.76ZM140.064 264.16C137.6 264.16 136.096 263.136 136.768 259.616L138.656 249.92H136.256L136.704 247.68H139.104L140.16 242.24H142.72L141.664 247.68H144.864L144.416 249.92H141.216L139.296 259.744C138.976 261.312 139.328 261.92 140.864 261.92C141.344 261.92 141.632 261.888 142.272 261.824L141.824 264C141.024 264.128 140.544 264.16 140.064 264.16ZM158.551 264.48C154.167 264.48 151.863 261.888 151.863 257.632C151.863 251.776 155.927 247.2 161.495 247.2C165.911 247.2 167.863 249.696 167.863 253.28C167.863 254.048 167.703 255.36 167.479 256.512H154.583C154.551 256.864 154.519 257.216 154.519 257.6C154.519 260.512 155.671 262.24 158.743 262.24C162.039 262.24 163.735 260.128 164.247 258.976H166.903C165.399 262.176 162.647 264.48 158.551 264.48ZM154.967 254.272H165.143C165.623 251.584 164.503 249.408 161.271 249.408C158.007 249.408 155.799 251.328 154.967 254.272ZM173.747 264.448C170.643 264.448 168.915 262.912 168.915 260.16C168.915 256.544 171.955 255.328 176.243 254.464C179.443 253.824 181.683 253.536 181.683 251.392C181.683 250.24 181.011 249.44 178.579 249.44C175.859 249.44 174.419 250.432 173.811 252.832H171.187C171.955 249.376 174.515 247.2 178.803 247.2C182.739 247.2 184.755 249.024 184.051 252.608L182.547 260.32C182.323 261.504 182.323 262.24 183.219 262.24C183.379 262.24 183.571 262.208 183.763 262.176L183.411 263.84C182.931 264.032 182.483 264.16 181.875 264.16C180.467 264.16 179.731 263.456 179.795 261.632H179.699C178.323 263.36 176.307 264.448 173.747 264.448ZM171.539 259.904C171.539 261.472 172.562 262.208 174.483 262.208C177.459 262.208 179.987 260.512 180.595 257.472L181.075 255.104C180.371 255.776 179.763 255.904 177.171 256.448C173.459 257.216 171.539 257.792 171.539 259.904ZM192.857 264.448C188.313 264.448 185.753 261.984 185.753 258.656H188.281C188.281 260.48 189.561 262.208 192.953 262.208C195.321 262.208 196.953 261.376 196.953 259.488C196.953 257.728 195.385 257.248 193.113 256.576C190.617 255.84 187.513 255.104 187.513 251.808C187.513 248.64 190.393 247.232 193.721 247.232C198.009 247.232 200.089 249.696 200.089 252.384H197.529C197.529 251.072 196.633 249.472 193.689 249.472C191.737 249.472 190.041 250.112 190.041 251.776C190.041 253.376 191.577 253.728 194.073 254.496C196.889 255.36 199.545 256.224 199.545 259.392C199.545 262.72 196.665 264.448 192.857 264.448ZM201.194 264L204.362 247.68H206.922L203.754 264H201.194ZM204.714 244.512L205.322 241.44H208.394L207.786 244.512H204.714ZM214.739 264.48C210.355 264.48 208.051 261.888 208.051 257.632C208.051 251.776 212.115 247.2 217.683 247.2C222.099 247.2 224.051 249.696 224.051 253.28C224.051 254.048 223.891 255.36 223.667 256.512H210.771C210.739 256.864 210.707 257.216 210.707 257.6C210.707 260.512 211.859 262.24 214.931 262.24C218.227 262.24 219.923 260.128 220.435 258.976H223.091C221.587 262.176 218.835 264.48 214.739 264.48ZM211.155 254.272H221.331C221.811 251.584 220.691 249.408 217.459 249.408C214.195 249.408 211.987 251.328 211.155 254.272ZM229.262 255.264L227.566 264H225.006L228.174 247.68H230.734L230.126 250.752H230.19C231.438 248.64 232.942 247.296 235.47 247.296C235.854 247.296 236.366 247.328 236.75 247.392L236.238 249.888C235.886 249.824 235.598 249.792 235.246 249.792C232.238 249.792 229.87 252.128 229.262 255.264ZM238.607 246.656C239.791 246.272 240.303 245.728 240.559 244.192H239.087L239.695 241.12H242.767L242.159 244.192C241.807 246.048 241.135 247.68 238.287 248.256L238.607 246.656ZM242.991 248.256L243.311 246.656C244.495 246.272 245.007 245.728 245.263 244.192H243.791L244.399 241.12H247.471L246.863 244.192C246.511 246.048 245.839 247.68 242.991 248.256Z" fill="#0D0C50"/>
</g>
<g filter="url(#filter1_d_870_3998)">
<rect x="525" y="44" width="438" height="327" rx="40" fill="#F2F2FD"/>
<rect x="525.25" y="44.25" width="437.5" height="326.5" rx="39.75" stroke="#A09EF1" stroke-width="0.5"/>
<path d="M583.128 177.684C583.512 175.828 584.152 174.196 587 173.62L586.68 175.22C585.496 175.604 584.984 176.18 584.728 177.684H586.2L585.592 180.756H582.52L583.128 177.684ZM577.816 180.756L578.424 177.684C578.808 175.828 579.448 174.196 582.296 173.62L581.976 175.22C580.792 175.604 580.28 176.18 580.024 177.684H581.496L580.888 180.756H577.816ZM586.488 196.5L590.936 173.62H599.8C604.344 173.62 606.648 175.572 606.648 178.932C606.648 182.324 604.408 185.204 601.208 185.908V186.004C606.104 186.996 602.52 195.924 603.672 196.308L603.64 196.5H600.536C599.736 195.54 603.512 187.252 597.72 187.252H591.16L589.368 196.5H586.488ZM591.672 184.692H597.848C601.4 184.692 603.704 182.388 603.704 179.316C603.704 177.204 602.488 176.18 599.032 176.18H593.304L591.672 184.692ZM613.614 196.98C609.23 196.98 606.926 194.388 606.926 190.132C606.926 184.276 610.99 179.7 616.558 179.7C620.974 179.7 622.926 182.196 622.926 185.78C622.926 186.548 622.766 187.86 622.542 189.012H609.646C609.614 189.364 609.582 189.716 609.582 190.1C609.582 193.012 610.734 194.74 613.806 194.74C617.102 194.74 618.798 192.628 619.31 191.476H621.966C620.462 194.676 617.71 196.98 613.614 196.98ZM610.03 186.772H620.206C620.686 184.084 619.566 181.908 616.334 181.908C613.07 181.908 610.862 183.828 610.03 186.772ZM623.881 196.5L628.329 173.62H630.889L626.441 196.5H623.881ZM635.09 196.948C631.986 196.948 630.258 195.412 630.258 192.66C630.258 189.044 633.298 187.828 637.586 186.964C640.786 186.324 643.026 186.036 643.026 183.892C643.026 182.74 642.354 181.94 639.922 181.94C637.202 181.94 635.762 182.932 635.154 185.332H632.53C633.298 181.876 635.858 179.7 640.146 179.7C644.082 179.7 646.098 181.524 645.394 185.108L643.89 192.82C643.666 194.004 643.666 194.74 644.562 194.74C644.722 194.74 644.914 194.708 645.106 194.676L644.754 196.34C644.274 196.532 643.826 196.66 643.218 196.66C641.81 196.66 641.074 195.956 641.138 194.132H641.042C639.666 195.86 637.65 196.948 635.09 196.948ZM632.882 192.404C632.882 193.972 633.906 194.708 635.826 194.708C638.802 194.708 641.33 193.012 641.938 189.972L642.418 187.604C641.714 188.276 641.106 188.404 638.514 188.948C634.802 189.716 632.882 190.292 632.882 192.404ZM652.127 196.66C649.663 196.66 648.159 195.636 648.831 192.116L650.719 182.42H648.319L648.767 180.18H651.167L652.223 174.74H654.783L653.727 180.18H656.927L656.479 182.42H653.279L651.359 192.244C651.039 193.812 651.391 194.42 652.927 194.42C653.407 194.42 653.695 194.388 654.335 194.324L653.887 196.5C653.087 196.628 652.607 196.66 652.127 196.66ZM656.506 196.5L659.674 180.18H662.234L659.066 196.5H656.506ZM660.026 177.012L660.634 173.94H663.706L663.098 177.012H660.026ZM669.603 196.948C665.539 196.948 663.299 194.356 663.299 190.516C663.299 184.692 667.395 179.732 673.219 179.732C677.283 179.732 679.523 182.324 679.523 186.164C679.523 191.988 675.427 196.948 669.603 196.948ZM665.891 190.26C665.891 192.82 667.171 194.708 669.955 194.708C674.179 194.708 676.931 190.644 676.931 186.42C676.931 183.86 675.651 181.972 672.867 181.972C668.643 181.972 665.891 186.036 665.891 190.26ZM693.529 185.748C693.945 183.604 693.337 181.94 690.681 181.94C687.961 181.94 685.657 183.86 685.081 186.324L683.097 196.5H680.537L683.705 180.18H686.265L685.849 182.26H685.881C687.097 180.788 689.145 179.7 691.737 179.7C694.905 179.7 696.857 181.812 696.089 185.748L694.009 196.5H691.449L693.529 185.748ZM704.576 196.948C700.032 196.948 697.472 194.484 697.472 191.156H700C700 192.98 701.28 194.708 704.672 194.708C707.04 194.708 708.672 193.876 708.672 191.988C708.672 190.228 707.104 189.748 704.832 189.076C702.336 188.34 699.232 187.604 699.232 184.308C699.232 181.14 702.112 179.732 705.44 179.732C709.728 179.732 711.808 182.196 711.808 184.884H709.248C709.248 183.572 708.352 181.972 705.408 181.972C703.456 181.972 701.76 182.612 701.76 184.276C701.76 185.876 703.296 186.228 705.792 186.996C708.608 187.86 711.264 188.724 711.264 191.892C711.264 195.22 708.384 196.948 704.576 196.948ZM725.904 185.748C726.32 183.604 725.712 181.94 723.056 181.94C720.368 181.94 718.064 183.86 717.456 186.26L715.472 196.5H712.912L717.36 173.62H719.92L718.256 182.26C719.472 180.788 721.52 179.7 724.112 179.7C727.28 179.7 729.232 181.812 728.464 185.748L726.384 196.5H723.824L725.904 185.748ZM729.975 196.5L733.143 180.18H735.703L732.535 196.5H729.975ZM733.495 177.012L734.103 173.94H737.175L736.567 177.012H733.495ZM744 196.948C741.6 196.948 740.16 195.892 739.392 194.388H739.2L737.696 202.164H735.136L739.424 180.18H741.984L741.6 182.196H741.664C742.88 180.884 744.672 179.732 747.296 179.732C750.784 179.732 753.184 182.004 753.184 186.356C753.184 192.34 749.184 196.948 744 196.948ZM740.224 190.036C740.224 193.012 741.632 194.708 744.224 194.708C747.744 194.708 750.592 191.252 750.592 186.58C750.592 184.02 749.728 181.972 746.656 181.972C743.776 181.972 741.344 184.436 740.544 187.636L740.32 188.788C740.256 189.204 740.224 189.62 740.224 190.036ZM768.907 196.948C766.507 196.948 765.067 195.892 764.299 194.388H764.107L763.691 196.5H761.131L765.579 173.62H768.139L766.475 182.196H766.571C767.787 180.884 769.579 179.732 772.203 179.732C775.691 179.732 778.091 182.004 778.091 186.356C778.091 192.34 774.091 196.948 768.907 196.948ZM765.131 190.036C765.131 193.012 766.539 194.708 769.131 194.708C772.651 194.708 775.499 191.252 775.499 186.58C775.499 184.02 774.635 181.972 771.563 181.972C767.979 181.972 765.131 185.78 765.131 190.036ZM784.538 196.948C781.466 196.948 779.29 195.284 780.186 190.708L782.234 180.18H784.794L782.746 190.772C782.33 192.98 782.938 194.708 785.402 194.708C788.314 194.708 790.65 192.852 791.226 190.068L793.146 180.18H795.706L792.538 196.5H789.978L790.362 194.548H790.298C789.21 195.7 787.226 196.948 784.538 196.948ZM796.256 196.5L799.424 180.18H801.984L798.816 196.5H796.256ZM799.776 177.012L800.384 173.94H803.456L802.848 177.012H799.776ZM802.537 196.5L806.985 173.62H809.545L805.097 196.5H802.537ZM815.251 196.948C811.763 196.948 809.363 194.676 809.363 190.324C809.363 184.34 813.363 179.732 818.547 179.732C820.947 179.732 822.387 180.788 823.155 182.292H823.315L825.01 173.62H827.571L823.123 196.5H820.563L820.947 194.484H820.883C819.667 195.796 817.875 196.948 815.251 196.948ZM811.955 190.1C811.955 192.66 812.819 194.708 815.891 194.708C818.771 194.708 821.171 192.276 822.003 189.108L822.259 187.828C822.291 187.444 822.323 187.028 822.323 186.644C822.323 183.668 820.915 181.972 818.323 181.972C814.803 181.972 811.955 185.428 811.955 190.1ZM826.85 196.5L830.018 180.18H832.578L829.41 196.5H826.85ZM830.37 177.012L830.978 173.94H834.05L833.442 177.012H830.37ZM846.123 185.748C846.539 183.604 845.931 181.94 843.275 181.94C840.555 181.94 838.251 183.86 837.675 186.324L835.691 196.5H833.131L836.299 180.18H838.859L838.443 182.26H838.475C839.691 180.788 841.739 179.7 844.331 179.7C847.499 179.7 849.451 181.812 848.683 185.748L846.603 196.5H844.043L846.123 185.748ZM856.402 202.26C852.37 202.26 849.681 200.148 849.841 197.108H852.338C852.338 198.804 853.362 200.02 856.402 200.02C859.506 200.02 861.618 198.548 862.29 195.092L862.674 193.108H862.61C861.394 194.516 859.602 195.668 856.946 195.668C853.49 195.668 850.962 193.684 850.962 189.204C850.962 183.988 854.834 179.732 859.89 179.732C862.642 179.732 863.986 180.948 864.754 182.196H864.818L865.202 180.18H867.762L864.818 195.316C863.922 199.956 860.754 202.26 856.402 202.26ZM853.586 189.14C853.586 191.732 854.802 193.428 857.522 193.428C861.458 193.428 863.89 189.844 863.89 185.908C863.89 183.124 862.418 181.972 860.082 181.972C856.114 181.972 853.586 185.428 853.586 189.14ZM875.131 196.5L878.299 180.18H880.859L877.691 196.5H875.131ZM878.651 177.012L879.259 173.94H882.331L881.723 177.012H878.651ZM888.388 196.948C883.844 196.948 881.284 194.484 881.284 191.156H883.812C883.812 192.98 885.092 194.708 888.484 194.708C890.852 194.708 892.484 193.876 892.484 191.988C892.484 190.228 890.916 189.748 888.644 189.076C886.148 188.34 883.044 187.604 883.044 184.308C883.044 181.14 885.924 179.732 889.252 179.732C893.54 179.732 895.62 182.196 895.62 184.884H893.06C893.06 183.572 892.164 181.972 889.22 181.972C887.268 181.972 885.572 182.612 885.572 184.276C885.572 185.876 887.108 186.228 889.604 186.996C892.42 187.86 895.076 188.724 895.076 191.892C895.076 195.22 892.196 196.948 888.388 196.948ZM580.184 241.948C577.08 241.948 575.352 240.412 575.352 237.66C575.352 234.044 578.392 232.828 582.68 231.964C585.88 231.324 588.12 231.036 588.12 228.892C588.12 227.74 587.448 226.94 585.016 226.94C582.296 226.94 580.856 227.932 580.248 230.332H577.624C578.392 226.876 580.952 224.7 585.24 224.7C589.176 224.7 591.192 226.524 590.488 230.108L588.984 237.82C588.76 239.004 588.76 239.74 589.656 239.74C589.816 239.74 590.008 239.708 590.2 239.676L589.848 241.34C589.368 241.532 588.92 241.66 588.312 241.66C586.904 241.66 586.168 240.956 586.232 239.132H586.136C584.76 240.86 582.744 241.948 580.184 241.948ZM577.976 237.404C577.976 238.972 579 239.708 580.92 239.708C583.896 239.708 586.424 238.012 587.032 234.972L587.512 232.604C586.808 233.276 586.2 233.404 583.608 233.948C579.896 234.716 577.976 235.292 577.976 237.404ZM600.282 241.948C597.882 241.948 596.442 240.892 595.674 239.388H595.482L595.066 241.5H592.506L596.954 218.62H599.514L597.85 227.196H597.946C599.162 225.884 600.954 224.732 603.578 224.732C607.066 224.732 609.466 227.004 609.466 231.356C609.466 237.34 605.466 241.948 600.282 241.948ZM596.506 235.036C596.506 238.012 597.914 239.708 600.506 239.708C604.026 239.708 606.874 236.252 606.874 231.58C606.874 229.02 606.01 226.972 602.938 226.972C599.354 226.972 596.506 230.78 596.506 235.036ZM617.545 241.948C613.001 241.948 610.441 239.484 610.441 236.156H612.969C612.969 237.98 614.249 239.708 617.641 239.708C620.009 239.708 621.641 238.876 621.641 236.988C621.641 235.228 620.073 234.748 617.801 234.076C615.305 233.34 612.201 232.604 612.201 229.308C612.201 226.14 615.081 224.732 618.409 224.732C622.697 224.732 624.777 227.196 624.777 229.884H622.217C622.217 228.572 621.321 226.972 618.377 226.972C616.425 226.972 614.729 227.612 614.729 229.276C614.729 230.876 616.265 231.228 618.76 231.996C621.577 232.86 624.233 233.724 624.233 236.892C624.233 240.22 621.353 241.948 617.545 241.948ZM632.697 241.948C628.633 241.948 626.393 239.356 626.393 235.516C626.393 229.692 630.489 224.732 636.313 224.732C640.377 224.732 642.617 227.324 642.617 231.164C642.617 236.988 638.521 241.948 632.697 241.948ZM628.985 235.26C628.985 237.82 630.265 239.708 633.049 239.708C637.273 239.708 640.025 235.644 640.025 231.42C640.025 228.86 638.745 226.972 635.961 226.972C631.737 226.972 628.985 231.036 628.985 235.26ZM643.631 241.5L648.079 218.62H650.639L646.191 241.5H643.631ZM655.256 241.948C652.184 241.948 650.008 240.284 650.904 235.708L652.952 225.18H655.512L653.464 235.772C653.048 237.98 653.656 239.708 656.12 239.708C659.032 239.708 661.368 237.852 661.944 235.068L663.864 225.18H666.424L663.256 241.5H660.696L661.08 239.548H661.016C659.928 240.7 657.944 241.948 655.256 241.948ZM672.127 241.66C669.663 241.66 668.159 240.636 668.831 237.116L670.719 227.42H668.319L668.767 225.18H671.167L672.223 219.74H674.783L673.727 225.18H676.927L676.479 227.42H673.279L671.359 237.244C671.039 238.812 671.391 239.42 672.927 239.42C673.407 239.42 673.695 239.388 674.335 239.324L673.887 241.5C673.087 241.628 672.607 241.66 672.127 241.66ZM683.426 241.98C679.042 241.98 676.738 239.388 676.738 235.132C676.738 229.276 680.802 224.7 686.37 224.7C690.786 224.7 692.738 227.196 692.738 230.78C692.738 231.548 692.578 232.86 692.354 234.012H679.458C679.426 234.364 679.394 234.716 679.394 235.1C679.394 238.012 680.546 239.74 683.618 239.74C686.914 239.74 688.61 237.628 689.122 236.476H691.778C690.274 239.676 687.522 241.98 683.426 241.98ZM679.842 231.772H690.018C690.498 229.084 689.378 226.908 686.146 226.908C682.882 226.908 680.674 228.828 679.842 231.772ZM693.694 241.5L698.141 218.62H700.702L696.254 241.5H693.694ZM700.455 247.228C700.039 247.228 699.591 247.196 698.887 247.068L699.303 244.892C699.847 244.956 700.135 244.988 700.455 244.988C701.927 244.988 703.559 244.156 704.807 241.34L701.319 225.18H704.135L706.599 238.396H706.663L714.023 225.18H716.839L707.079 241.98C704.647 246.14 702.855 247.228 700.455 247.228ZM729.27 241.98C724.886 241.98 722.582 239.388 722.582 235.132C722.582 229.276 726.646 224.7 732.214 224.7C736.63 224.7 738.582 227.196 738.582 230.78C738.582 231.548 738.422 232.86 738.198 234.012H725.302C725.27 234.364 725.238 234.716 725.238 235.1C725.238 238.012 726.39 239.74 729.462 239.74C732.758 239.74 734.454 237.628 734.966 236.476H737.622C736.118 239.676 733.366 241.98 729.27 241.98ZM725.686 231.772H735.862C736.342 229.084 735.222 226.908 731.99 226.908C728.726 226.908 726.518 228.828 725.686 231.772ZM746.513 241.948C741.969 241.948 739.409 239.484 739.409 236.156H741.937C741.937 237.98 743.217 239.708 746.609 239.708C748.977 239.708 750.609 238.876 750.609 236.988C750.609 235.228 749.041 234.748 746.769 234.076C744.273 233.34 741.169 232.604 741.169 229.308C741.169 226.14 744.049 224.732 747.377 224.732C751.665 224.732 753.745 227.196 753.745 229.884H751.185C751.185 228.572 750.289 226.972 747.345 226.972C745.393 226.972 743.697 227.612 743.697 229.276C743.697 230.876 745.233 231.228 747.729 231.996C750.545 232.86 753.201 233.724 753.201 236.892C753.201 240.22 750.321 241.948 746.513 241.948ZM761.826 241.948C757.282 241.948 754.722 239.484 754.722 236.156H757.25C757.25 237.98 758.53 239.708 761.922 239.708C764.29 239.708 765.922 238.876 765.922 236.988C765.922 235.228 764.354 234.748 762.082 234.076C759.586 233.34 756.482 232.604 756.482 229.308C756.482 226.14 759.362 224.732 762.69 224.732C766.978 224.732 769.058 227.196 769.058 229.884H766.498C766.498 228.572 765.602 226.972 762.658 226.972C760.706 226.972 759.01 227.612 759.01 229.276C759.01 230.876 760.546 231.228 763.042 231.996C765.858 232.86 768.514 233.724 768.514 236.892C768.514 240.22 765.634 241.948 761.826 241.948ZM777.426 241.98C773.042 241.98 770.738 239.388 770.738 235.132C770.738 229.276 774.802 224.7 780.37 224.7C784.786 224.7 786.738 227.196 786.738 230.78C786.738 231.548 786.578 232.86 786.354 234.012H773.458C773.426 234.364 773.394 234.716 773.394 235.1C773.394 238.012 774.546 239.74 777.618 239.74C780.914 239.74 782.61 237.628 783.122 236.476H785.778C784.274 239.676 781.522 241.98 777.426 241.98ZM773.842 231.772H784.018C784.498 229.084 783.378 226.908 780.146 226.908C776.882 226.908 774.674 228.828 773.842 231.772ZM800.686 230.748C801.102 228.604 800.494 226.94 797.838 226.94C795.118 226.94 792.814 228.86 792.238 231.324L790.254 241.5H787.694L790.862 225.18H793.422L793.006 227.26H793.038C794.254 225.788 796.302 224.7 798.894 224.7C802.062 224.7 804.014 226.812 803.246 230.748L801.166 241.5H798.606L800.686 230.748ZM809.627 241.66C807.163 241.66 805.659 240.636 806.331 237.116L808.219 227.42H805.819L806.267 225.18H808.667L809.723 219.74H812.283L811.227 225.18H814.427L813.979 227.42H810.779L808.859 237.244C808.539 238.812 808.891 239.42 810.427 239.42C810.907 239.42 811.195 239.388 811.835 239.324L811.387 241.5C810.587 241.628 810.107 241.66 809.627 241.66ZM814.006 241.5L817.174 225.18H819.734L816.566 241.5H814.006ZM817.526 222.012L818.134 218.94H821.206L820.598 222.012H817.526ZM825.215 241.948C822.111 241.948 820.383 240.412 820.383 237.66C820.383 234.044 823.423 232.828 827.711 231.964C830.911 231.324 833.151 231.036 833.151 228.892C833.151 227.74 832.479 226.94 830.047 226.94C827.327 226.94 825.887 227.932 825.279 230.332H822.655C823.423 226.876 825.983 224.7 830.271 224.7C834.207 224.7 836.223 226.524 835.519 230.108L834.015 237.82C833.791 239.004 833.791 239.74 834.687 239.74C834.847 239.74 835.039 239.708 835.231 239.676L834.879 241.34C834.399 241.532 833.951 241.66 833.343 241.66C831.935 241.66 831.199 240.956 831.263 239.132H831.167C829.791 240.86 827.775 241.948 825.215 241.948ZM823.007 237.404C823.007 238.972 824.031 239.708 825.951 239.708C828.927 239.708 831.455 238.012 832.063 234.972L832.543 232.604C831.839 233.276 831.231 233.404 828.639 233.948C824.927 234.716 823.007 235.292 823.007 237.404ZM837.537 241.5L841.985 218.62H844.545L840.097 241.5H837.537ZM843.498 241.5L844.107 238.428H847.179L846.571 241.5H843.498ZM849.982 224.156C851.166 223.772 851.678 223.228 851.934 221.692H850.462L851.07 218.62H854.142L853.534 221.692C853.182 223.548 852.51 225.18 849.662 225.756L849.982 224.156ZM854.366 225.756L854.686 224.156C855.87 223.772 856.382 223.228 856.638 221.692H855.166L855.774 218.62H858.846L858.238 221.692C857.886 223.548 857.214 225.18 854.366 225.756Z" fill="#0D0C50"/>
</g>
<g filter="url(#filter2_d_870_3998)">
<rect x="61" y="395" width="438" height="328" rx="40" fill="#F2F2FD" shape-rendering="crispEdges"/>
<rect x="61.25" y="395.25" width="437.5" height="327.5" rx="39.75" stroke="#A09EF1" stroke-width="0.5" shape-rendering="crispEdges"/>
<path d="M119.128 506.684C119.512 504.828 120.152 503.196 123 502.62L122.68 504.22C121.496 504.604 120.984 505.18 120.728 506.684H122.2L121.592 509.756H118.52L119.128 506.684ZM113.816 509.756L114.424 506.684C114.808 504.828 115.448 503.196 118.296 502.62L117.976 504.22C116.792 504.604 116.28 505.18 116.024 506.684H117.496L116.888 509.756H113.816ZM122.488 525.5L126.936 502.62H129.816L125.368 525.5H122.488ZM141.403 525.948C138.299 525.948 136.571 524.412 136.571 521.66C136.571 518.044 139.611 516.828 143.899 515.964C147.099 515.324 149.339 515.036 149.339 512.892C149.339 511.74 148.667 510.94 146.235 510.94C143.515 510.94 142.075 511.932 141.467 514.332H138.843C139.611 510.876 142.171 508.7 146.459 508.7C150.395 508.7 152.411 510.524 151.707 514.108L150.203 521.82C149.979 523.004 149.979 523.74 150.875 523.74C151.035 523.74 151.227 523.708 151.419 523.676L151.067 525.34C150.587 525.532 150.139 525.66 149.531 525.66C148.123 525.66 147.387 524.956 147.451 523.132H147.355C145.979 524.86 143.963 525.948 141.403 525.948ZM139.195 521.404C139.195 522.972 140.219 523.708 142.139 523.708C145.115 523.708 147.643 522.012 148.251 518.972L148.731 516.604C148.027 517.276 147.419 517.404 144.827 517.948C141.115 518.716 139.195 519.292 139.195 521.404ZM165.501 514.748C165.917 512.604 165.789 510.94 163.357 510.94C160.669 510.94 158.717 513.02 158.205 515.612L156.285 525.5H153.725L156.893 509.18H159.453L159.069 511.228C160.189 509.852 161.853 508.7 164.349 508.7C166.653 508.7 167.837 509.628 168.157 511.58H168.221C169.629 509.916 171.549 508.7 174.141 508.7C177.277 508.7 178.557 510.652 177.885 514.108L175.677 525.5H173.117L175.197 514.748C175.613 512.604 175.453 510.94 173.053 510.94C170.365 510.94 168.413 513.052 167.965 515.324L165.981 525.5H163.421L165.501 514.748ZM186.131 525.5L190.579 502.62H193.139L188.691 525.5H186.131ZM199.228 525.948C195.164 525.948 192.924 523.356 192.924 519.516C192.924 513.692 197.02 508.732 202.844 508.732C206.908 508.732 209.148 511.324 209.148 515.164C209.148 520.988 205.052 525.948 199.228 525.948ZM195.516 519.26C195.516 521.82 196.796 523.708 199.58 523.708C203.804 523.708 206.556 519.644 206.556 515.42C206.556 512.86 205.276 510.972 202.492 510.972C198.268 510.972 195.516 515.036 195.516 519.26ZM216.978 525.948C212.914 525.948 210.674 523.356 210.674 519.516C210.674 513.692 214.77 508.732 220.594 508.732C224.658 508.732 226.898 511.324 226.898 515.164C226.898 520.988 222.802 525.948 216.978 525.948ZM213.266 519.26C213.266 521.82 214.546 523.708 217.33 523.708C221.554 523.708 224.306 519.644 224.306 515.42C224.306 512.86 223.026 510.972 220.242 510.972C216.018 510.972 213.266 515.036 213.266 519.26ZM227.912 525.5L232.36 502.62H234.92L232.296 516.06L241.064 509.18H244.328L236.744 515.1L241.832 525.5H238.856L234.76 516.668L231.72 519.004L230.472 525.5H227.912ZM243.194 525.5L246.362 509.18H248.922L245.754 525.5H243.194ZM246.714 506.012L247.322 502.94H250.394L249.786 506.012H246.714ZM262.467 514.748C262.883 512.604 262.275 510.94 259.619 510.94C256.899 510.94 254.595 512.86 254.019 515.324L252.035 525.5H249.475L252.643 509.18H255.203L254.787 511.26H254.819C256.035 509.788 258.083 508.7 260.675 508.7C263.843 508.7 265.795 510.812 265.027 514.748L262.947 525.5H260.387L262.467 514.748ZM272.745 531.26C268.713 531.26 266.025 529.148 266.185 526.108H268.681C268.681 527.804 269.705 529.02 272.745 529.02C275.849 529.02 277.961 527.548 278.633 524.092L279.017 522.108H278.953C277.737 523.516 275.945 524.668 273.289 524.668C269.833 524.668 267.305 522.684 267.305 518.204C267.305 512.988 271.177 508.732 276.233 508.732C278.985 508.732 280.329 509.948 281.097 511.196H281.161L281.545 509.18H284.105L281.161 524.316C280.265 528.956 277.097 531.26 272.745 531.26ZM269.929 518.14C269.929 520.732 271.145 522.428 273.865 522.428C277.801 522.428 280.233 518.844 280.233 514.908C280.233 512.124 278.761 510.972 276.425 510.972C272.457 510.972 269.929 514.428 269.929 518.14ZM296.211 506.972C296.947 503.26 298.643 502.428 301.043 502.428C301.523 502.428 301.907 502.46 302.707 502.588L302.291 504.764C301.651 504.7 301.427 504.668 300.979 504.668C299.411 504.668 299.091 505.244 298.771 506.844L298.323 509.18H301.427L301.011 511.42H297.875L295.155 525.5H292.595L295.347 511.42H293.075L293.491 509.18H295.795L296.211 506.972ZM306.853 525.948C302.789 525.948 300.549 523.356 300.549 519.516C300.549 513.692 304.645 508.732 310.469 508.732C314.533 508.732 316.773 511.324 316.773 515.164C316.773 520.988 312.677 525.948 306.853 525.948ZM303.141 519.26C303.141 521.82 304.421 523.708 307.205 523.708C311.429 523.708 314.181 519.644 314.181 515.42C314.181 512.86 312.901 510.972 310.117 510.972C305.893 510.972 303.141 515.036 303.141 519.26ZM322.043 516.764L320.347 525.5H317.787L320.955 509.18H323.515L322.907 512.252H322.971C324.219 510.14 325.723 508.796 328.251 508.796C328.635 508.796 329.147 508.828 329.531 508.892L329.019 511.388C328.667 511.324 328.379 511.292 328.027 511.292C325.019 511.292 322.651 513.628 322.043 516.764ZM339.465 525.948C336.361 525.948 334.633 524.412 334.633 521.66C334.633 518.044 337.673 516.828 341.961 515.964C345.161 515.324 347.401 515.036 347.401 512.892C347.401 511.74 346.729 510.94 344.297 510.94C341.577 510.94 340.137 511.932 339.529 514.332H336.905C337.673 510.876 340.233 508.7 344.521 508.7C348.457 508.7 350.473 510.524 349.769 514.108L348.265 521.82C348.041 523.004 348.041 523.74 348.937 523.74C349.097 523.74 349.289 523.708 349.481 523.676L349.129 525.34C348.649 525.532 348.201 525.66 347.593 525.66C346.185 525.66 345.449 524.956 345.513 523.132H345.417C344.041 524.86 342.025 525.948 339.465 525.948ZM337.257 521.404C337.257 522.972 338.281 523.708 340.201 523.708C343.177 523.708 345.705 522.012 346.313 518.972L346.793 516.604C346.089 517.276 345.481 517.404 342.889 517.948C339.177 518.716 337.257 519.292 337.257 521.404ZM351.787 525.5L356.235 502.62H358.795L354.347 525.5H351.787ZM358.069 525.5L361.237 509.18H363.797L360.629 525.5H358.069ZM361.589 506.012L362.197 502.94H365.269L364.661 506.012H361.589ZM370.558 531.26C366.526 531.26 363.838 529.148 363.998 526.108H366.494C366.494 527.804 367.518 529.02 370.558 529.02C373.662 529.02 375.774 527.548 376.446 524.092L376.83 522.108H376.766C375.55 523.516 373.758 524.668 371.102 524.668C367.646 524.668 365.118 522.684 365.118 518.204C365.118 512.988 368.99 508.732 374.046 508.732C376.798 508.732 378.142 509.948 378.91 511.196H378.974L379.358 509.18H381.918L378.974 524.316C378.078 528.956 374.91 531.26 370.558 531.26ZM367.742 518.14C367.742 520.732 368.958 522.428 371.678 522.428C375.614 522.428 378.046 518.844 378.046 514.908C378.046 512.124 376.574 510.972 374.238 510.972C370.27 510.972 367.742 514.428 367.742 518.14ZM395.436 514.748C395.852 512.604 395.244 510.94 392.588 510.94C389.868 510.94 387.564 512.86 386.988 515.324L385.004 525.5H382.444L385.612 509.18H388.172L387.756 511.26H387.788C389.004 509.788 391.052 508.7 393.644 508.7C396.812 508.7 398.764 510.812 397.996 514.748L395.916 525.5H393.356L395.436 514.748ZM406.77 525.98C402.386 525.98 400.082 523.388 400.082 519.132C400.082 513.276 404.146 508.7 409.714 508.7C414.13 508.7 416.082 511.196 416.082 514.78C416.082 515.548 415.922 516.86 415.698 518.012H402.802C402.77 518.364 402.738 518.716 402.738 519.1C402.738 522.012 403.89 523.74 406.962 523.74C410.258 523.74 411.954 521.628 412.466 520.476H415.122C413.618 523.676 410.866 525.98 406.77 525.98ZM403.186 515.772H413.362C413.842 513.084 412.722 510.908 409.49 510.908C406.226 510.908 404.018 512.828 403.186 515.772ZM423.469 525.948C419.981 525.948 417.581 523.676 417.581 519.324C417.581 513.34 421.581 508.732 426.765 508.732C429.165 508.732 430.605 509.788 431.373 511.292H431.533L433.229 502.62H435.789L431.341 525.5H428.781L429.165 523.484H429.101C427.885 524.796 426.093 525.948 423.469 525.948ZM420.173 519.1C420.173 521.66 421.037 523.708 424.109 523.708C426.989 523.708 429.389 521.276 430.221 518.108L430.477 516.828C430.509 516.444 430.541 516.028 430.541 515.644C430.541 512.668 429.133 510.972 426.541 510.972C423.021 510.972 420.173 514.428 420.173 519.1ZM115.512 570.5L112.824 554.18H115.576L117.464 567.94H117.496L124.632 554.18H127.448L118.424 570.5H115.512ZM130.903 570.948C127.799 570.948 126.071 569.412 126.071 566.66C126.071 563.044 129.111 561.828 133.399 560.964C136.599 560.324 138.839 560.036 138.839 557.892C138.839 556.74 138.167 555.94 135.735 555.94C133.015 555.94 131.575 556.932 130.967 559.332H128.343C129.111 555.876 131.671 553.7 135.959 553.7C139.895 553.7 141.911 555.524 141.207 559.108L139.703 566.82C139.479 568.004 139.479 568.74 140.375 568.74C140.535 568.74 140.727 568.708 140.919 568.676L140.567 570.34C140.087 570.532 139.639 570.66 139.031 570.66C137.623 570.66 136.887 569.956 136.951 568.132H136.855C135.479 569.86 133.463 570.948 130.903 570.948ZM128.695 566.404C128.695 567.972 129.719 568.708 131.639 568.708C134.615 568.708 137.143 567.012 137.751 563.972L138.231 561.604C137.527 562.276 136.919 562.404 134.327 562.948C130.615 563.716 128.695 564.292 128.695 566.404ZM143.225 570.5L147.673 547.62H150.233L145.785 570.5H143.225ZM154.85 570.948C151.778 570.948 149.602 569.284 150.498 564.708L152.546 554.18H155.106L153.058 564.772C152.642 566.98 153.25 568.708 155.714 568.708C158.626 568.708 160.962 566.852 161.538 564.068L163.458 554.18H166.018L162.85 570.5H160.29L160.674 568.548H160.61C159.522 569.7 157.538 570.948 154.85 570.948ZM173.833 570.98C169.449 570.98 167.145 568.388 167.145 564.132C167.145 558.276 171.209 553.7 176.777 553.7C181.193 553.7 183.145 556.196 183.145 559.78C183.145 560.548 182.985 561.86 182.76 563.012H169.865C169.833 563.364 169.801 563.716 169.801 564.1C169.801 567.012 170.953 568.74 174.025 568.74C177.321 568.74 179.017 566.628 179.529 565.476H182.185C180.681 568.676 177.929 570.98 173.833 570.98ZM170.249 560.772H180.425C180.905 558.084 179.785 555.908 176.553 555.908C173.289 555.908 171.081 557.828 170.249 560.772ZM191.076 570.948C186.532 570.948 183.972 568.484 183.972 565.156H186.5C186.5 566.98 187.78 568.708 191.172 568.708C193.54 568.708 195.172 567.876 195.172 565.988C195.172 564.228 193.604 563.748 191.332 563.076C188.836 562.34 185.732 561.604 185.732 558.308C185.732 555.14 188.612 553.732 191.94 553.732C196.228 553.732 198.308 556.196 198.308 558.884H195.748C195.748 557.572 194.852 555.972 191.908 555.972C189.956 555.972 188.26 556.612 188.26 558.276C188.26 559.876 189.796 560.228 192.292 560.996C195.108 561.86 197.764 562.724 197.764 565.892C197.764 569.22 194.884 570.948 191.076 570.948ZM198.708 572.964C199.892 572.58 200.404 572.036 200.66 570.5H199.188L199.796 567.428H202.868L202.26 570.5C201.908 572.356 201.236 573.988 198.388 574.564L198.708 572.964ZM218.545 570.948C214.001 570.948 211.441 568.484 211.441 565.156H213.969C213.969 566.98 215.249 568.708 218.641 568.708C221.009 568.708 222.641 567.876 222.641 565.988C222.641 564.228 221.073 563.748 218.801 563.076C216.305 562.34 213.201 561.604 213.201 558.308C213.201 555.14 216.081 553.732 219.409 553.732C223.697 553.732 225.777 556.196 225.777 558.884H223.217C223.217 557.572 222.321 555.972 219.377 555.972C217.425 555.972 215.729 556.612 215.729 558.276C215.729 559.876 217.265 560.228 219.76 560.996C222.577 561.86 225.233 562.724 225.233 565.892C225.233 569.22 222.353 570.948 218.545 570.948ZM226.881 570.5L231.329 547.62H233.889L231.265 561.06L240.033 554.18H243.297L235.713 560.1L240.801 570.5H237.825L233.729 561.668L230.689 564.004L229.441 570.5H226.881ZM242.162 570.5L245.33 554.18H247.89L244.722 570.5H242.162ZM245.682 551.012L246.29 547.94H249.362L248.754 551.012H245.682ZM248.444 570.5L252.891 547.62H255.452L251.004 570.5H248.444ZM254.725 570.5L259.173 547.62H261.733L257.285 570.5H254.725ZM267.982 570.948C263.438 570.948 260.878 568.484 260.878 565.156H263.406C263.406 566.98 264.686 568.708 268.078 568.708C270.446 568.708 272.078 567.876 272.078 565.988C272.078 564.228 270.51 563.748 268.238 563.076C265.742 562.34 262.638 561.604 262.638 558.308C262.638 555.14 265.518 553.732 268.846 553.732C273.134 553.732 275.214 556.196 275.214 558.884H272.654C272.654 557.572 271.758 555.972 268.814 555.972C266.862 555.972 265.166 556.612 265.166 558.276C265.166 559.876 266.702 560.228 269.198 560.996C272.014 561.86 274.67 562.724 274.67 565.892C274.67 569.22 271.79 570.948 267.982 570.948ZM275.614 572.964C276.799 572.58 277.311 572.036 277.567 570.5H276.095L276.703 567.428H279.775L279.167 570.5C278.815 572.356 278.143 573.988 275.294 574.564L275.614 572.964ZM293.403 570.948C290.299 570.948 288.571 569.412 288.571 566.66C288.571 563.044 291.611 561.828 295.899 560.964C299.099 560.324 301.339 560.036 301.339 557.892C301.339 556.74 300.667 555.94 298.235 555.94C295.515 555.94 294.075 556.932 293.467 559.332H290.843C291.611 555.876 294.171 553.7 298.459 553.7C302.395 553.7 304.411 555.524 303.707 559.108L302.203 566.82C301.979 568.004 301.979 568.74 302.875 568.74C303.035 568.74 303.227 568.708 303.419 568.676L303.067 570.34C302.587 570.532 302.139 570.66 301.531 570.66C300.123 570.66 299.387 569.956 299.451 568.132H299.355C297.979 569.86 295.963 570.948 293.403 570.948ZM291.195 566.404C291.195 567.972 292.219 568.708 294.139 568.708C297.115 568.708 299.643 567.012 300.251 563.972L300.731 561.604C300.027 562.276 299.419 562.404 296.827 562.948C293.115 563.716 291.195 564.292 291.195 566.404ZM318.717 559.748C319.133 557.604 318.525 555.94 315.869 555.94C313.149 555.94 310.845 557.86 310.269 560.324L308.285 570.5H305.725L308.893 554.18H311.453L311.037 556.26H311.069C312.285 554.788 314.333 553.7 316.925 553.7C320.093 553.7 322.045 555.812 321.277 559.748L319.197 570.5H316.637L318.717 559.748ZM329.219 570.948C325.731 570.948 323.331 568.676 323.331 564.324C323.331 558.34 327.331 553.732 332.515 553.732C334.915 553.732 336.355 554.788 337.123 556.292H337.283L338.979 547.62H341.539L337.091 570.5H334.531L334.915 568.484H334.851C333.635 569.796 331.843 570.948 329.219 570.948ZM325.923 564.1C325.923 566.66 326.787 568.708 329.859 568.708C332.739 568.708 335.139 566.276 335.971 563.108L336.227 561.828C336.259 561.444 336.291 561.028 336.291 560.644C336.291 557.668 334.883 555.972 332.291 555.972C328.771 555.972 325.923 559.428 325.923 564.1ZM117.688 615.948C114.2 615.948 111.8 613.676 111.8 609.324C111.8 603.34 115.8 598.732 120.984 598.732C123.384 598.732 124.824 599.788 125.592 601.292H125.752L127.448 592.62H130.008L125.56 615.5H123L123.384 613.484H123.32C122.104 614.796 120.312 615.948 117.688 615.948ZM114.392 609.1C114.392 611.66 115.256 613.708 118.328 613.708C121.208 613.708 123.608 611.276 124.44 608.108L124.696 606.828C124.728 606.444 124.76 606.028 124.76 605.644C124.76 602.668 123.352 600.972 120.76 600.972C117.24 600.972 114.392 604.428 114.392 609.1ZM129.287 615.5L132.455 599.18H135.015L131.847 615.5H129.287ZM132.807 596.012L133.415 592.94H136.487L135.879 596.012H132.807ZM139.825 615.5L137.137 599.18H139.889L141.777 612.94H141.809L148.945 599.18H151.76L142.737 615.5H139.825ZM157.708 615.98C153.324 615.98 151.02 613.388 151.02 609.132C151.02 603.276 155.084 598.7 160.652 598.7C165.068 598.7 167.02 601.196 167.02 604.78C167.02 605.548 166.86 606.86 166.635 608.012H153.74C153.708 608.364 153.676 608.716 153.676 609.1C153.676 612.012 154.828 613.74 157.9 613.74C161.196 613.74 162.892 611.628 163.404 610.476H166.06C164.556 613.676 161.804 615.98 157.708 615.98ZM154.124 605.772H164.3C164.78 603.084 163.66 600.908 160.428 600.908C157.164 600.908 154.956 602.828 154.124 605.772ZM172.231 606.764L170.535 615.5H167.975L171.143 599.18H173.703L173.095 602.252H173.159C174.407 600.14 175.911 598.796 178.439 598.796C178.823 598.796 179.335 598.828 179.719 598.892L179.207 601.388C178.855 601.324 178.567 601.292 178.215 601.292C175.207 601.292 172.839 603.628 172.231 606.764ZM185.451 615.948C180.907 615.948 178.347 613.484 178.347 610.156H180.875C180.875 611.98 182.155 613.708 185.547 613.708C187.915 613.708 189.547 612.876 189.547 610.988C189.547 609.228 187.979 608.748 185.707 608.076C183.211 607.34 180.107 606.604 180.107 603.308C180.107 600.14 182.987 598.732 186.315 598.732C190.603 598.732 192.683 601.196 192.683 603.884H190.123C190.123 602.572 189.227 600.972 186.283 600.972C184.331 600.972 182.635 601.612 182.635 603.276C182.635 604.876 184.171 605.228 186.667 605.996C189.483 606.86 192.139 607.724 192.139 610.892C192.139 614.22 189.259 615.948 185.451 615.948ZM193.787 615.5L196.955 599.18H199.515L196.347 615.5H193.787ZM197.307 596.012L197.915 592.94H200.987L200.379 596.012H197.307ZM205.221 615.66C202.757 615.66 201.253 614.636 201.924 611.116L203.812 601.42H201.413L201.861 599.18H204.261L205.317 593.74H207.877L206.821 599.18H210.021L209.573 601.42H206.373L204.453 611.244C204.133 612.812 204.485 613.42 206.021 613.42C206.501 613.42 206.789 613.388 207.429 613.324L206.981 615.5C206.181 615.628 205.701 615.66 205.221 615.66ZM210.08 621.228C209.664 621.228 209.216 621.196 208.512 621.068L208.928 618.892C209.472 618.956 209.76 618.988 210.08 618.988C211.552 618.988 213.184 618.156 214.432 615.34L210.944 599.18H213.76L216.224 612.396H216.288L223.648 599.18H226.464L216.704 615.98C214.272 620.14 212.48 621.228 210.08 621.228ZM228.357 598.156C229.541 597.772 230.053 597.228 230.309 595.692H228.837L229.445 592.62H232.517L231.909 595.692C231.557 597.548 230.885 599.18 228.037 599.756L228.357 598.156ZM232.741 599.756L233.061 598.156C234.245 597.772 234.757 597.228 235.013 595.692H233.541L234.149 592.62H237.221L236.613 595.692C236.261 597.548 235.589 599.18 232.741 599.756Z" fill="#0D0C50"/>
</g>
<g filter="url(#filter3_d_870_3998)">
<rect x="525" y="395" width="438" height="328" rx="40" fill="#F2F2FD" shape-rendering="crispEdges"/>
<rect x="525.25" y="395.25" width="437.5" height="327.5" rx="39.75" stroke="#A09EF1" stroke-width="0.5" shape-rendering="crispEdges"/>
<path d="M583.128 506.684C583.512 504.828 584.152 503.196 587 502.62L586.68 504.22C585.496 504.604 584.984 505.18 584.728 506.684H586.2L585.592 509.756H582.52L583.128 506.684ZM577.816 509.756L578.424 506.684C578.808 504.828 579.448 503.196 582.296 502.62L581.976 504.22C580.792 504.604 580.28 505.18 580.024 506.684H581.496L580.888 509.756H577.816ZM590.456 525.5L588.92 502.62H591.96L592.888 521.372H592.952L601.304 502.62H604.632L606.168 521.372H606.232L614.232 502.62H617.272L607.16 525.5H603.96L602.488 505.884H602.424L593.656 525.5H590.456ZM628.279 514.748C628.695 512.604 628.087 510.94 625.431 510.94C622.743 510.94 620.439 512.86 619.831 515.26L617.847 525.5H615.287L619.735 502.62H622.295L620.631 511.26C621.847 509.788 623.895 508.7 626.487 508.7C629.655 508.7 631.607 510.812 630.839 514.748L628.759 525.5H626.199L628.279 514.748ZM637.278 525.948C634.174 525.948 632.446 524.412 632.446 521.66C632.446 518.044 635.486 516.828 639.774 515.964C642.974 515.324 645.214 515.036 645.214 512.892C645.214 511.74 644.542 510.94 642.11 510.94C639.39 510.94 637.95 511.932 637.342 514.332H634.718C635.486 510.876 638.046 508.7 642.334 508.7C646.27 508.7 648.286 510.524 647.582 514.108L646.078 521.82C645.854 523.004 645.854 523.74 646.75 523.74C646.91 523.74 647.102 523.708 647.294 523.676L646.942 525.34C646.462 525.532 646.014 525.66 645.406 525.66C643.998 525.66 643.262 524.956 643.326 523.132H643.23C641.854 524.86 639.838 525.948 637.278 525.948ZM635.07 521.404C635.07 522.972 636.094 523.708 638.014 523.708C640.99 523.708 643.518 522.012 644.126 518.972L644.606 516.604C643.902 517.276 643.294 517.404 640.702 517.948C636.99 518.716 635.07 519.292 635.07 521.404ZM654.314 525.66C651.85 525.66 650.346 524.636 651.018 521.116L652.906 511.42H650.506L650.954 509.18H653.354L654.41 503.74H656.97L655.914 509.18H659.114L658.666 511.42H655.466L653.546 521.244C653.226 522.812 653.578 523.42 655.114 523.42C655.594 523.42 655.882 523.388 656.522 523.324L656.074 525.5C655.274 525.628 654.794 525.66 654.314 525.66ZM666.081 525.5L670.529 502.62H673.409L668.961 525.5H666.081ZM680.069 525.5L684.516 502.62H687.077L682.629 525.5H680.069ZM693.166 525.948C689.102 525.948 686.862 523.356 686.862 519.516C686.862 513.692 690.958 508.732 696.782 508.732C700.846 508.732 703.086 511.324 703.086 515.164C703.086 520.988 698.99 525.948 693.166 525.948ZM689.454 519.26C689.454 521.82 690.734 523.708 693.518 523.708C697.742 523.708 700.494 519.644 700.494 515.42C700.494 512.86 699.214 510.972 696.43 510.972C692.206 510.972 689.454 515.036 689.454 519.26ZM710.916 525.948C706.852 525.948 704.612 523.356 704.612 519.516C704.612 513.692 708.708 508.732 714.532 508.732C718.596 508.732 720.836 511.324 720.836 515.164C720.836 520.988 716.74 525.948 710.916 525.948ZM707.204 519.26C707.204 521.82 708.484 523.708 711.268 523.708C715.492 523.708 718.244 519.644 718.244 515.42C718.244 512.86 716.964 510.972 714.18 510.972C709.956 510.972 707.204 515.036 707.204 519.26ZM721.85 525.5L726.298 502.62H728.858L726.234 516.06L735.002 509.18H738.266L730.682 515.1L735.77 525.5H732.794L728.698 516.668L725.658 519.004L724.41 525.5H721.85ZM748.18 506.972C748.916 503.26 750.612 502.428 753.012 502.428C753.492 502.428 753.876 502.46 754.676 502.588L754.26 504.764C753.62 504.7 753.396 504.668 752.948 504.668C751.38 504.668 751.06 505.244 750.74 506.844L750.292 509.18H753.396L752.98 511.42H749.844L747.124 525.5H744.564L747.316 511.42H745.044L745.46 509.18H747.764L748.18 506.972ZM758.822 525.948C754.758 525.948 752.518 523.356 752.518 519.516C752.518 513.692 756.614 508.732 762.438 508.732C766.502 508.732 768.742 511.324 768.742 515.164C768.742 520.988 764.646 525.948 758.822 525.948ZM755.11 519.26C755.11 521.82 756.39 523.708 759.174 523.708C763.398 523.708 766.15 519.644 766.15 515.42C766.15 512.86 764.87 510.972 762.086 510.972C757.862 510.972 755.11 515.036 755.11 519.26ZM774.012 516.764L772.316 525.5H769.756L772.924 509.18H775.484L774.876 512.252H774.94C776.188 510.14 777.692 508.796 780.22 508.796C780.604 508.796 781.116 508.828 781.5 508.892L780.988 511.388C780.636 511.324 780.348 511.292 779.996 511.292C776.988 511.292 774.62 513.628 774.012 516.764ZM786.506 525.5L789.674 509.18H792.234L789.066 525.5H786.506ZM790.026 506.012L790.634 502.94H793.706L793.098 506.012H790.026ZM799.763 525.948C795.219 525.948 792.659 523.484 792.659 520.156H795.187C795.187 521.98 796.467 523.708 799.859 523.708C802.227 523.708 803.859 522.876 803.859 520.988C803.859 519.228 802.291 518.748 800.019 518.076C797.523 517.34 794.419 516.604 794.419 513.308C794.419 510.14 797.299 508.732 800.627 508.732C804.915 508.732 806.995 511.196 806.995 513.884H804.435C804.435 512.572 803.539 510.972 800.595 510.972C798.643 510.972 796.947 511.612 796.947 513.276C796.947 514.876 798.483 515.228 800.979 515.996C803.795 516.86 806.451 517.724 806.451 520.892C806.451 524.22 803.571 525.948 799.763 525.948ZM812.831 531.26C812.287 531.26 811.871 531.228 811.167 531.1L811.583 528.924C812.127 528.988 812.351 529.02 812.863 529.02C813.823 529.02 814.399 528.38 814.752 526.524L818.112 509.18H820.672L817.248 526.78C816.608 530.108 814.688 531.26 812.831 531.26ZM818.464 506.012L819.072 502.94H822.144L821.536 506.012H818.464ZM826.569 525.948C823.497 525.948 821.321 524.284 822.217 519.708L824.265 509.18H826.825L824.777 519.772C824.361 521.98 824.969 523.708 827.433 523.708C830.345 523.708 832.681 521.852 833.257 519.068L835.177 509.18H837.737L834.569 525.5H832.009L832.393 523.548H832.329C831.241 524.7 829.257 525.948 826.569 525.948ZM845.263 525.948C840.719 525.948 838.159 523.484 838.159 520.156H840.687C840.687 521.98 841.967 523.708 845.359 523.708C847.727 523.708 849.359 522.876 849.359 520.988C849.359 519.228 847.791 518.748 845.519 518.076C843.023 517.34 839.919 516.604 839.919 513.308C839.919 510.14 842.799 508.732 846.127 508.732C850.415 508.732 852.495 511.196 852.495 513.884H849.935C849.935 512.572 849.039 510.972 846.095 510.972C844.143 510.972 842.447 511.612 842.447 513.276C842.447 514.876 843.983 515.228 846.479 515.996C849.295 516.86 851.951 517.724 851.951 520.892C851.951 524.22 849.071 525.948 845.263 525.948ZM858.471 525.66C856.007 525.66 854.503 524.636 855.174 521.116L857.062 511.42H854.663L855.111 509.18H857.511L858.567 503.74H861.127L860.071 509.18H863.271L862.823 511.42H859.623L857.703 521.244C857.383 522.812 857.735 523.42 859.271 523.42C859.751 523.42 860.039 523.388 860.679 523.324L860.231 525.5C859.431 525.628 858.951 525.66 858.471 525.66ZM588.248 559.748C588.664 557.604 588.056 555.94 585.4 555.94C582.712 555.94 580.408 557.86 579.8 560.26L577.816 570.5H575.256L579.704 547.62H582.264L580.6 556.26C581.816 554.788 583.864 553.7 586.456 553.7C589.624 553.7 591.576 555.812 590.808 559.748L588.728 570.5H586.168L588.248 559.748ZM592.319 570.5L595.487 554.18H598.047L594.879 570.5H592.319ZM595.839 551.012L596.447 547.94H599.519L598.911 551.012H595.839ZM604.808 576.26C600.776 576.26 598.088 574.148 598.248 571.108H600.744C600.744 572.804 601.768 574.02 604.808 574.02C607.912 574.02 610.024 572.548 610.696 569.092L611.08 567.108H611.016C609.8 568.516 608.008 569.668 605.352 569.668C601.896 569.668 599.368 567.684 599.368 563.204C599.368 557.988 603.24 553.732 608.296 553.732C611.048 553.732 612.392 554.948 613.16 556.196H613.224L613.608 554.18H616.168L613.224 569.316C612.328 573.956 609.16 576.26 604.808 576.26ZM601.992 563.14C601.992 565.732 603.208 567.428 605.928 567.428C609.864 567.428 612.296 563.844 612.296 559.908C612.296 557.124 610.824 555.972 608.488 555.972C604.52 555.972 601.992 559.428 601.992 563.14ZM629.686 559.748C630.102 557.604 629.494 555.94 626.838 555.94C624.15 555.94 621.846 557.86 621.238 560.26L619.254 570.5H616.694L621.141 547.62H623.702L622.038 556.26C623.254 554.788 625.302 553.7 627.894 553.7C631.062 553.7 633.014 555.812 632.246 559.748L630.166 570.5H627.606L629.686 559.748ZM647.864 570.98C643.48 570.98 641.176 568.388 641.176 564.132C641.176 558.276 645.24 553.7 650.808 553.7C655.224 553.7 657.176 556.196 657.176 559.78C657.176 560.548 657.016 561.86 656.792 563.012H643.896C643.864 563.364 643.832 563.716 643.832 564.1C643.832 567.012 644.984 568.74 648.056 568.74C651.352 568.74 653.048 566.628 653.56 565.476H656.216C654.712 568.676 651.96 570.98 647.864 570.98ZM644.28 560.772H654.456C654.936 558.084 653.816 555.908 650.584 555.908C647.32 555.908 645.112 557.828 644.28 560.772ZM669.907 559.748C670.323 557.604 670.195 555.94 667.763 555.94C665.075 555.94 663.123 558.02 662.611 560.612L660.691 570.5H658.131L661.299 554.18H663.859L663.475 556.228C664.595 554.852 666.259 553.7 668.755 553.7C671.059 553.7 672.243 554.628 672.563 556.58H672.627C674.035 554.916 675.955 553.7 678.547 553.7C681.683 553.7 682.963 555.652 682.291 559.108L680.083 570.5H677.523L679.603 559.748C680.019 557.604 679.859 555.94 677.459 555.94C674.771 555.94 672.819 558.052 672.371 560.324L670.387 570.5H667.827L669.907 559.748ZM691.438 570.948C689.038 570.948 687.598 569.892 686.83 568.388H686.638L685.134 576.164H682.573L686.862 554.18H689.422L689.038 556.196H689.102C690.318 554.884 692.11 553.732 694.734 553.732C698.222 553.732 700.622 556.004 700.622 560.356C700.622 566.34 696.622 570.948 691.438 570.948ZM687.661 564.036C687.661 567.012 689.07 568.708 691.661 568.708C695.182 568.708 698.03 565.252 698.03 560.58C698.03 558.02 697.166 555.972 694.094 555.972C691.214 555.972 688.782 558.436 687.982 561.636L687.758 562.788C687.694 563.204 687.661 563.62 687.661 564.036ZM706.653 570.948C703.549 570.948 701.821 569.412 701.821 566.66C701.821 563.044 704.861 561.828 709.149 560.964C712.349 560.324 714.589 560.036 714.589 557.892C714.589 556.74 713.917 555.94 711.485 555.94C708.765 555.94 707.325 556.932 706.717 559.332H704.093C704.861 555.876 707.421 553.7 711.709 553.7C715.645 553.7 717.661 555.524 716.957 559.108L715.453 566.82C715.229 568.004 715.229 568.74 716.125 568.74C716.285 568.74 716.477 568.708 716.669 568.676L716.317 570.34C715.837 570.532 715.389 570.66 714.781 570.66C713.373 570.66 712.637 569.956 712.701 568.132H712.605C711.229 569.86 709.213 570.948 706.653 570.948ZM704.445 566.404C704.445 567.972 705.469 568.708 707.389 568.708C710.365 568.708 712.893 567.012 713.501 563.972L713.981 561.604C713.277 562.276 712.669 562.404 710.077 562.948C706.365 563.716 704.445 564.292 704.445 566.404ZM723.689 570.66C721.225 570.66 719.721 569.636 720.393 566.116L722.281 556.42H719.881L720.329 554.18H722.729L723.785 548.74H726.345L725.289 554.18H728.489L728.041 556.42H724.841L722.921 566.244C722.601 567.812 722.953 568.42 724.489 568.42C724.969 568.42 725.257 568.388 725.897 568.324L725.449 570.5C724.649 570.628 724.169 570.66 723.689 570.66ZM741.061 559.748C741.477 557.604 740.869 555.94 738.213 555.94C735.525 555.94 733.221 557.86 732.613 560.26L730.629 570.5H728.069L732.516 547.62H735.077L733.413 556.26C734.629 554.788 736.677 553.7 739.269 553.7C742.437 553.7 744.389 555.812 743.621 559.748L741.541 570.5H738.981L741.061 559.748ZM745.08 576.228C744.664 576.228 744.216 576.196 743.512 576.068L743.928 573.892C744.472 573.956 744.76 573.988 745.08 573.988C746.552 573.988 748.184 573.156 749.432 570.34L745.944 554.18H748.76L751.224 567.396H751.288L758.648 554.18H761.464L751.704 570.98C749.272 575.14 747.48 576.228 745.08 576.228ZM758.083 572.964C759.267 572.58 759.779 572.036 760.035 570.5H758.563L759.171 567.428H762.243L761.635 570.5C761.283 572.356 760.611 573.988 757.763 574.564L758.083 572.964ZM770.944 570.5L775.391 547.62H777.952L773.504 570.5H770.944ZM784.041 570.948C779.977 570.948 777.737 568.356 777.737 564.516C777.737 558.692 781.833 553.732 787.657 553.732C791.721 553.732 793.961 556.324 793.961 560.164C793.961 565.988 789.865 570.948 784.041 570.948ZM780.329 564.26C780.329 566.82 781.609 568.708 784.393 568.708C788.617 568.708 791.369 564.644 791.369 560.42C791.369 557.86 790.089 555.972 787.305 555.972C783.081 555.972 780.329 560.036 780.329 564.26ZM797.929 570.5L796.233 554.18H799.049L799.849 567.62H799.913L806.121 554.18H808.905L809.865 567.62H809.929L816.329 554.18H819.177L810.793 570.5H808.073L807.017 557.252H806.953L800.777 570.5H797.929ZM831.645 570.98C827.261 570.98 824.957 568.388 824.957 564.132C824.957 558.276 829.021 553.7 834.589 553.7C839.005 553.7 840.957 556.196 840.957 559.78C840.957 560.548 840.797 561.86 840.573 563.012H827.677C827.645 563.364 827.613 563.716 827.613 564.1C827.613 567.012 828.765 568.74 831.837 568.74C835.133 568.74 836.829 566.628 837.341 565.476H839.997C838.493 568.676 835.741 570.98 831.645 570.98ZM828.061 560.772H838.237C838.717 558.084 837.597 555.908 834.365 555.908C831.101 555.908 828.893 557.828 828.061 560.772ZM848.12 576.26C844.088 576.26 841.4 574.148 841.56 571.108H844.056C844.056 572.804 845.08 574.02 848.12 574.02C851.224 574.02 853.336 572.548 854.008 569.092L854.392 567.108H854.328C853.112 568.516 851.32 569.668 848.664 569.668C845.208 569.668 842.68 567.684 842.68 563.204C842.68 557.988 846.552 553.732 851.608 553.732C854.36 553.732 855.704 554.948 856.472 556.196H856.536L856.92 554.18H859.48L856.536 569.316C855.64 573.956 852.472 576.26 848.12 576.26ZM845.304 563.14C845.304 565.732 846.52 567.428 849.24 567.428C853.176 567.428 855.608 563.844 855.608 559.908C855.608 557.124 854.136 555.972 851.8 555.972C847.832 555.972 845.304 559.428 845.304 563.14ZM866.822 570.948C862.758 570.948 860.518 568.356 860.518 564.516C860.518 558.692 864.614 553.732 870.438 553.732C874.502 553.732 876.742 556.324 876.742 560.164C876.742 565.988 872.646 570.948 866.822 570.948ZM863.11 564.26C863.11 566.82 864.39 568.708 867.174 568.708C871.398 568.708 874.15 564.644 874.15 560.42C874.15 557.86 872.87 555.972 870.086 555.972C865.862 555.972 863.11 560.036 863.11 564.26ZM583 615.948C580.6 615.948 579.16 614.892 578.392 613.388H578.2L576.696 621.164H574.136L578.424 599.18H580.984L580.6 601.196H580.664C581.88 599.884 583.672 598.732 586.296 598.732C589.784 598.732 592.184 601.004 592.184 605.356C592.184 611.34 588.184 615.948 583 615.948ZM579.224 609.036C579.224 612.012 580.632 613.708 583.224 613.708C586.744 613.708 589.592 610.252 589.592 605.58C589.592 603.02 588.728 600.972 585.656 600.972C582.776 600.972 580.344 603.436 579.544 606.636L579.32 607.788C579.256 608.204 579.224 608.62 579.224 609.036ZM600.551 615.98C596.167 615.98 593.863 613.388 593.863 609.132C593.863 603.276 597.927 598.7 603.495 598.7C607.911 598.7 609.863 601.196 609.863 604.78C609.863 605.548 609.703 606.86 609.479 608.012H596.583C596.551 608.364 596.519 608.716 596.519 609.1C596.519 612.012 597.671 613.74 600.743 613.74C604.039 613.74 605.735 611.628 606.247 610.476H608.903C607.399 613.676 604.647 615.98 600.551 615.98ZM596.967 605.772H607.143C607.623 603.084 606.503 600.908 603.271 600.908C600.007 600.908 597.799 602.828 596.967 605.772ZM617.635 615.948C613.571 615.948 611.331 613.356 611.331 609.516C611.331 603.692 615.427 598.732 621.251 598.732C625.315 598.732 627.555 601.324 627.555 605.164C627.555 610.988 623.459 615.948 617.635 615.948ZM613.923 609.26C613.923 611.82 615.203 613.708 617.987 613.708C622.211 613.708 624.963 609.644 624.963 605.42C624.963 602.86 623.683 600.972 620.899 600.972C616.675 600.972 613.923 605.036 613.923 609.26ZM636.312 615.948C633.913 615.948 632.473 614.892 631.705 613.388H631.513L630.009 621.164H627.448L631.737 599.18H634.297L633.913 601.196H633.977C635.193 599.884 636.985 598.732 639.609 598.732C643.097 598.732 645.497 601.004 645.497 605.356C645.497 611.34 641.497 615.948 636.312 615.948ZM632.536 609.036C632.536 612.012 633.945 613.708 636.536 613.708C640.057 613.708 642.905 610.252 642.905 605.58C642.905 603.02 642.041 600.972 638.969 600.972C636.089 600.972 633.657 603.436 632.857 606.636L632.633 607.788C632.569 608.204 632.536 608.62 632.536 609.036ZM646.6 615.5L651.048 592.62H653.608L649.16 615.5H646.6ZM660.145 615.98C655.761 615.98 653.457 613.388 653.457 609.132C653.457 603.276 657.521 598.7 663.089 598.7C667.505 598.7 669.457 601.196 669.457 604.78C669.457 605.548 669.297 606.86 669.073 608.012H656.177C656.145 608.364 656.113 608.716 656.113 609.1C656.113 612.012 657.265 613.74 660.337 613.74C663.633 613.74 665.329 611.628 665.841 610.476H668.497C666.993 613.676 664.241 615.98 660.145 615.98ZM656.561 605.772H666.737C667.217 603.084 666.097 600.908 662.865 600.908C659.601 600.908 657.393 602.828 656.561 605.772ZM670.092 615.5L670.7 612.428H673.772L673.164 615.5H670.092ZM676.576 598.156C677.76 597.772 678.272 597.228 678.528 595.692H677.056L677.664 592.62H680.736L680.128 595.692C679.776 597.548 679.104 599.18 676.256 599.756L676.576 598.156ZM680.96 599.756L681.28 598.156C682.464 597.772 682.976 597.228 683.232 595.692H681.76L682.368 592.62H685.44L684.832 595.692C684.48 597.548 683.808 599.18 680.96 599.756Z" fill="#0D0C50"/>
</g>
<defs>
<filter id="filter0_d_870_3998" x="54" y="38" width="454" height="343" filterUnits="userSpaceOnUse" color-interpolation-filters="sRGB">
<feFlood flood-opacity="0" result="BackgroundImageFix"/>
<feColorMatrix in="SourceAlpha" type="matrix" values="0 0 0 0 0 0 0 0 0 0 0 0 0 0 0 0 0 0 127 0" result="hardAlpha"/>
<feOffset dx="1" dy="2"/>
<feGaussianBlur stdDeviation="4"/>
<feComposite in2="hardAlpha" operator="out"/>
<feColorMatrix type="matrix" values="0 0 0 0 0 0 0 0 0 0 0 0 0 0 0 0 0 0 0.08 0"/>
<feBlend mode="normal" in2="BackgroundImageFix" result="effect1_dropShadow_870_3998"/>
<feBlend mode="normal" in="SourceGraphic" in2="effect1_dropShadow_870_3998" result="shape"/>
</filter>
<filter id="filter1_d_870_3998" x="518" y="38" width="454" height="343" filterUnits="userSpaceOnUse" color-interpolation-filters="sRGB">
<feFlood flood-opacity="0" result="BackgroundImageFix"/>
<feColorMatrix in="SourceAlpha" type="matrix" values="0 0 0 0 0 0 0 0 0 0 0 0 0 0 0 0 0 0 127 0" result="hardAlpha"/>
<feOffset dx="1" dy="2"/>
<feGaussianBlur stdDeviation="4"/>
<feComposite in2="hardAlpha" operator="out"/>
<feColorMatrix type="matrix" values="0 0 0 0 0 0 0 0 0 0 0 0 0 0 0 0 0 0 0.08 0"/>
<feBlend mode="normal" in2="BackgroundImageFix" result="effect1_dropShadow_870_3998"/>
<feBlend mode="normal" in="SourceGraphic" in2="effect1_dropShadow_870_3998" result="shape"/>
</filter>
<filter id="filter2_d_870_3998" x="54" y="389" width="454" height="344" filterUnits="userSpaceOnUse" color-interpolation-filters="sRGB">
<feFlood flood-opacity="0" result="BackgroundImageFix"/>
<feColorMatrix in="SourceAlpha" type="matrix" values="0 0 0 0 0 0 0 0 0 0 0 0 0 0 0 0 0 0 127 0" result="hardAlpha"/>
<feOffset dx="1" dy="2"/>
<feGaussianBlur stdDeviation="4"/>
<feComposite in2="hardAlpha" operator="out"/>
<feColorMatrix type="matrix" values="0 0 0 0 0 0 0 0 0 0 0 0 0 0 0 0 0 0 0.08 0"/>
<feBlend mode="normal" in2="BackgroundImageFix" result="effect1_dropShadow_870_3998"/>
<feBlend mode="normal" in="SourceGraphic" in2="effect1_dropShadow_870_3998" result="shape"/>
</filter>
<filter id="filter3_d_870_3998" x="518" y="389" width="454" height="344" filterUnits="userSpaceOnUse" color-interpolation-filters="sRGB">
<feFlood flood-opacity="0" result="BackgroundImageFix"/>
<feColorMatrix in="SourceAlpha" type="matrix" values="0 0 0 0 0 0 0 0 0 0 0 0 0 0 0 0 0 0 127 0" result="hardAlpha"/>
<feOffset dx="1" dy="2"/>
<feGaussianBlur stdDeviation="4"/>
<feComposite in2="hardAlpha" operator="out"/>
<feColorMatrix type="matrix" values="0 0 0 0 0 0 0 0 0 0 0 0 0 0 0 0 0 0 0.08 0"/>
<feBlend mode="normal" in2="BackgroundImageFix" result="effect1_dropShadow_870_3998"/>
<feBlend mode="normal" in="SourceGraphic" in2="effect1_dropShadow_870_3998" result="shape"/>
</filter>
</defs>
</svg>
