<svg width="442" height="372" viewBox="0 0 442 372" fill="none" xmlns="http://www.w3.org/2000/svg">
<rect width="442" height="372" fill="#E8E7FC"/>
<path d="M63.392 87.576C60.752 87.576 58.508 87.012 56.66 85.884C54.812 84.732 53.42 83.148 52.484 81.132C51.548 79.116 51.08 76.812 51.08 74.22C51.08 71.556 51.56 69.204 52.52 67.164C53.48 65.124 54.896 63.54 56.768 62.412C58.664 61.26 60.932 60.684 63.572 60.684C66.98 60.684 69.644 61.608 71.564 63.456C73.508 65.28 74.636 67.74 74.948 70.836H68.324C68.06 69.276 67.544 68.076 66.776 67.236C66.032 66.396 64.868 65.976 63.284 65.976C61.268 65.976 59.828 66.684 58.964 68.1C58.124 69.492 57.704 71.496 57.704 74.112C57.704 76.728 58.124 78.744 58.964 80.16C59.828 81.576 61.268 82.284 63.284 82.284C64.892 82.284 66.068 81.864 66.812 81.024C67.58 80.16 68.084 78.936 68.324 77.352H74.948C74.756 79.368 74.192 81.144 73.256 82.68C72.32 84.216 71.012 85.416 69.332 86.28C67.676 87.144 65.696 87.576 63.392 87.576ZM85.3523 87.612C83.3603 87.612 81.6203 87.204 80.1323 86.388C78.6683 85.572 77.5403 84.432 76.7483 82.968C75.9563 81.48 75.5603 79.764 75.5603 77.82C75.5603 75.876 75.9563 74.16 76.7483 72.672C77.5403 71.184 78.6803 70.032 80.1683 69.216C81.6803 68.376 83.4443 67.956 85.4603 67.956C87.4523 67.956 89.1803 68.364 90.6443 69.18C92.1323 69.996 93.2723 71.148 94.0643 72.636C94.8563 74.1 95.2523 75.792 95.2523 77.712C95.2523 79.656 94.8563 81.384 94.0643 82.896C93.2723 84.384 92.1323 85.548 90.6443 86.388C89.1563 87.204 87.3923 87.612 85.3523 87.612ZM81.3923 77.784C81.3923 79.56 81.7403 80.928 82.4363 81.888C83.1323 82.824 84.1283 83.292 85.4243 83.292C86.6963 83.292 87.6803 82.824 88.3763 81.888C89.0723 80.928 89.4203 79.56 89.4203 77.784C89.4203 76.008 89.0723 74.652 88.3763 73.716C87.6803 72.756 86.6963 72.276 85.4243 72.276C84.1283 72.276 83.1323 72.756 82.4363 73.716C81.7403 74.652 81.3923 76.008 81.3923 77.784ZM96.9018 61.26H102.662V87H96.9018V61.26ZM105.112 61.26H110.872V87H105.112V61.26ZM118.433 87.576C116.633 87.576 115.205 87.084 114.149 86.1C113.093 85.116 112.565 83.808 112.565 82.176C112.565 80.4 113.177 79.056 114.401 78.144C115.649 77.232 117.389 76.536 119.621 76.056C119.765 76.008 120.029 75.96 120.413 75.912C121.757 75.624 122.765 75.336 123.437 75.048C124.133 74.736 124.481 74.22 124.481 73.5C124.481 72.972 124.277 72.564 123.869 72.276C123.461 71.988 122.849 71.844 122.033 71.844C120.977 71.844 120.185 72.06 119.657 72.492C119.153 72.924 118.853 73.596 118.757 74.508H113.285C113.381 72.588 114.173 71.016 115.661 69.792C117.149 68.568 119.357 67.956 122.285 67.956C124.877 67.956 126.821 68.556 128.117 69.756C129.413 70.932 130.061 72.888 130.061 75.624V82.752C130.061 83.28 130.109 83.652 130.205 83.868C130.301 84.06 130.481 84.156 130.745 84.156C130.913 84.156 131.069 84.144 131.213 84.12V86.856C130.061 87.072 129.005 87.18 128.045 87.18C126.941 87.18 126.125 86.988 125.597 86.604C125.069 86.196 124.733 85.584 124.589 84.768H124.517C123.845 85.632 122.981 86.316 121.925 86.82C120.869 87.324 119.705 87.576 118.433 87.576ZM118.469 81.564C118.469 82.26 118.673 82.776 119.081 83.112C119.489 83.448 120.077 83.616 120.845 83.616C121.949 83.616 122.825 83.22 123.473 82.428C124.145 81.636 124.481 80.676 124.481 79.548V78C123.929 78.216 122.885 78.504 121.349 78.864C120.317 79.104 119.573 79.452 119.117 79.908C118.685 80.34 118.469 80.892 118.469 81.564ZM144.082 87.576C142.882 87.576 141.802 87.324 140.842 86.82C139.882 86.316 139.186 85.764 138.754 85.164H138.682V87H132.922V61.26H138.682V70.404H138.754C139.186 69.804 139.882 69.252 140.842 68.748C141.802 68.244 142.882 67.992 144.082 67.992C145.714 67.992 147.13 68.388 148.33 69.18C149.53 69.972 150.454 71.112 151.102 72.6C151.774 74.064 152.11 75.792 152.11 77.784C152.11 79.776 151.774 81.516 151.102 83.004C150.454 84.468 149.53 85.596 148.33 86.388C147.13 87.18 145.714 87.576 144.082 87.576ZM138.79 77.784C138.79 79.56 139.114 80.916 139.762 81.852C140.41 82.788 141.322 83.256 142.498 83.256C143.674 83.256 144.586 82.788 145.234 81.852C145.882 80.916 146.206 79.56 146.206 77.784C146.206 76.008 145.882 74.652 145.234 73.716C144.586 72.78 143.674 72.312 142.498 72.312C141.322 72.312 140.41 72.78 139.762 73.716C139.114 74.652 138.79 76.008 138.79 77.784ZM162.823 87.612C160.831 87.612 159.091 87.204 157.603 86.388C156.139 85.572 155.011 84.432 154.219 82.968C153.427 81.48 153.031 79.764 153.031 77.82C153.031 75.876 153.427 74.16 154.219 72.672C155.011 71.184 156.151 70.032 157.639 69.216C159.151 68.376 160.915 67.956 162.931 67.956C164.923 67.956 166.651 68.364 168.115 69.18C169.603 69.996 170.743 71.148 171.535 72.636C172.327 74.1 172.723 75.792 172.723 77.712C172.723 79.656 172.327 81.384 171.535 82.896C170.743 84.384 169.603 85.548 168.115 86.388C166.627 87.204 164.863 87.612 162.823 87.612ZM158.863 77.784C158.863 79.56 159.211 80.928 159.907 81.888C160.603 82.824 161.599 83.292 162.895 83.292C164.167 83.292 165.151 82.824 165.847 81.888C166.543 80.928 166.891 79.56 166.891 77.784C166.891 76.008 166.543 74.652 165.847 73.716C165.151 72.756 164.167 72.276 162.895 72.276C161.599 72.276 160.603 72.756 159.907 73.716C159.211 74.652 158.863 76.008 158.863 77.784ZM180.132 87H174.372V68.568H180.132V71.592H180.204C180.66 70.608 181.272 69.84 182.04 69.288C182.832 68.712 183.72 68.424 184.704 68.424C185.328 68.424 185.856 68.472 186.288 68.568V73.608C185.832 73.536 185.436 73.5 185.1 73.5C183.708 73.5 182.532 73.932 181.572 74.796C180.612 75.636 180.132 76.848 180.132 78.432V87ZM192.088 87.576C190.288 87.576 188.86 87.084 187.804 86.1C186.748 85.116 186.22 83.808 186.22 82.176C186.22 80.4 186.832 79.056 188.056 78.144C189.304 77.232 191.044 76.536 193.276 76.056C193.42 76.008 193.684 75.96 194.068 75.912C195.412 75.624 196.42 75.336 197.092 75.048C197.788 74.736 198.136 74.22 198.136 73.5C198.136 72.972 197.932 72.564 197.524 72.276C197.116 71.988 196.504 71.844 195.688 71.844C194.632 71.844 193.84 72.06 193.312 72.492C192.808 72.924 192.508 73.596 192.412 74.508H186.94C187.036 72.588 187.828 71.016 189.316 69.792C190.804 68.568 193.012 67.956 195.94 67.956C198.532 67.956 200.476 68.556 201.772 69.756C203.068 70.932 203.716 72.888 203.716 75.624V82.752C203.716 83.28 203.764 83.652 203.86 83.868C203.956 84.06 204.136 84.156 204.4 84.156C204.568 84.156 204.724 84.144 204.868 84.12V86.856C203.716 87.072 202.66 87.18 201.7 87.18C200.596 87.18 199.78 86.988 199.252 86.604C198.724 86.196 198.388 85.584 198.244 84.768H198.172C197.5 85.632 196.636 86.316 195.58 86.82C194.524 87.324 193.36 87.576 192.088 87.576ZM192.124 81.564C192.124 82.26 192.328 82.776 192.736 83.112C193.144 83.448 193.732 83.616 194.5 83.616C195.604 83.616 196.48 83.22 197.128 82.428C197.8 81.636 198.136 80.676 198.136 79.548V78C197.584 78.216 196.54 78.504 195.004 78.864C193.972 79.104 193.228 79.452 192.772 79.908C192.34 80.34 192.124 80.892 192.124 81.564ZM213.391 87.36C211.375 87.36 209.911 86.868 208.999 85.884C208.087 84.876 207.631 83.256 207.631 81.024V72.888H205.075V68.568H207.631V63.42H213.391V68.568H216.595V72.888H213.391V80.88C213.391 81.792 213.535 82.38 213.823 82.644C214.135 82.908 214.615 83.04 215.263 83.04C215.695 83.04 216.211 82.992 216.811 82.896V86.964C215.683 87.228 214.543 87.36 213.391 87.36ZM218.583 68.568H224.343V87H218.583V68.568ZM218.583 61.26H224.343V66.372H218.583V61.26ZM235.793 87.612C233.801 87.612 232.061 87.204 230.573 86.388C229.109 85.572 227.981 84.432 227.189 82.968C226.397 81.48 226.001 79.764 226.001 77.82C226.001 75.876 226.397 74.16 227.189 72.672C227.981 71.184 229.121 70.032 230.609 69.216C232.121 68.376 233.885 67.956 235.901 67.956C237.893 67.956 239.621 68.364 241.085 69.18C242.573 69.996 243.713 71.148 244.505 72.636C245.297 74.1 245.693 75.792 245.693 77.712C245.693 79.656 245.297 81.384 244.505 82.896C243.713 84.384 242.573 85.548 241.085 86.388C239.597 87.204 237.833 87.612 235.793 87.612ZM231.833 77.784C231.833 79.56 232.181 80.928 232.877 81.888C233.573 82.824 234.569 83.292 235.865 83.292C237.137 83.292 238.121 82.824 238.817 81.888C239.513 80.928 239.861 79.56 239.861 77.784C239.861 76.008 239.513 74.652 238.817 73.716C238.121 72.756 237.137 72.276 235.865 72.276C234.569 72.276 233.573 72.756 232.877 73.716C232.181 74.652 231.833 76.008 231.833 77.784ZM259.438 76.38C259.438 75.036 259.198 74.088 258.718 73.536C258.262 72.96 257.542 72.672 256.558 72.672C254.254 72.672 253.102 73.896 253.102 76.344V87H247.342V68.568H253.102V71.232H253.174C254.422 69.072 256.438 67.992 259.222 67.992C261.046 67.992 262.498 68.568 263.578 69.72C264.658 70.872 265.198 72.48 265.198 74.544V87H259.438V76.38ZM280.912 87.36C278.896 87.36 277.432 86.868 276.52 85.884C275.608 84.876 275.152 83.256 275.152 81.024V72.888H272.596V68.568H275.152V63.42H280.912V68.568H284.116V72.888H280.912V80.88C280.912 81.792 281.056 82.38 281.344 82.644C281.656 82.908 282.136 83.04 282.784 83.04C283.216 83.04 283.732 82.992 284.332 82.896V86.964C283.204 87.228 282.064 87.36 280.912 87.36ZM294.718 87.612C292.726 87.612 290.986 87.204 289.498 86.388C288.034 85.572 286.906 84.432 286.114 82.968C285.322 81.48 284.926 79.764 284.926 77.82C284.926 75.876 285.322 74.16 286.114 72.672C286.906 71.184 288.046 70.032 289.534 69.216C291.046 68.376 292.81 67.956 294.826 67.956C296.818 67.956 298.546 68.364 300.01 69.18C301.498 69.996 302.638 71.148 303.43 72.636C304.222 74.1 304.618 75.792 304.618 77.712C304.618 79.656 304.222 81.384 303.43 82.896C302.638 84.384 301.498 85.548 300.01 86.388C298.522 87.204 296.758 87.612 294.718 87.612ZM290.758 77.784C290.758 79.56 291.106 80.928 291.802 81.888C292.498 82.824 293.494 83.292 294.79 83.292C296.062 83.292 297.046 82.824 297.742 81.888C298.438 80.928 298.786 79.56 298.786 77.784C298.786 76.008 298.438 74.652 297.742 73.716C297.046 72.756 296.062 72.276 294.79 72.276C293.494 72.276 292.498 72.756 291.802 73.716C291.106 74.652 290.758 76.008 290.758 77.784ZM315.267 87.612C313.275 87.612 311.535 87.204 310.047 86.388C308.583 85.572 307.455 84.432 306.663 82.968C305.871 81.48 305.475 79.764 305.475 77.82C305.475 75.876 305.871 74.16 306.663 72.672C307.455 71.184 308.595 70.032 310.083 69.216C311.595 68.376 313.359 67.956 315.375 67.956C317.367 67.956 319.095 68.364 320.559 69.18C322.047 69.996 323.187 71.148 323.979 72.636C324.771 74.1 325.167 75.792 325.167 77.712C325.167 79.656 324.771 81.384 323.979 82.896C323.187 84.384 322.047 85.548 320.559 86.388C319.071 87.204 317.307 87.612 315.267 87.612ZM311.307 77.784C311.307 79.56 311.655 80.928 312.351 81.888C313.047 82.824 314.043 83.292 315.339 83.292C316.611 83.292 317.595 82.824 318.291 81.888C318.987 80.928 319.335 79.56 319.335 77.784C319.335 76.008 318.987 74.652 318.291 73.716C317.595 72.756 316.611 72.276 315.339 72.276C314.043 72.276 313.047 72.756 312.351 73.716C311.655 74.652 311.307 76.008 311.307 77.784ZM326.817 61.26H332.577V87H326.817V61.26ZM335.026 61.26H340.786V75.408L346.942 68.568H353.062L346.546 75.48L353.818 87H347.158L342.802 79.404L340.786 81.528V87H335.026V61.26ZM353.959 68.568H359.719V87H353.959V68.568ZM353.959 61.26H359.719V66.372H353.959V61.26ZM369.404 87.36C367.388 87.36 365.924 86.868 365.012 85.884C364.1 84.876 363.644 83.256 363.644 81.024V72.888H361.088V68.568H363.644V63.42H369.404V68.568H372.608V72.888H369.404V80.88C369.404 81.792 369.548 82.38 369.836 82.644C370.148 82.908 370.628 83.04 371.276 83.04C371.708 83.04 372.224 82.992 372.824 82.896V86.964C371.696 87.228 370.556 87.36 369.404 87.36Z" fill="black"/>
<path d="M51.824 126.84H58.04C60.408 126.84 62.24 127.608 63.536 129.144C64.848 130.664 65.504 132.768 65.504 135.456C65.504 137.216 65.208 138.736 64.616 140.016C64.024 141.296 63.16 142.28 62.024 142.968C60.904 143.656 59.552 144 57.968 144H51.824V126.84ZM57.968 142.464C59.984 142.464 61.44 141.824 62.336 140.544C63.232 139.248 63.68 137.552 63.68 135.456C63.68 133.328 63.24 131.616 62.36 130.32C61.48 129.024 60.032 128.376 58.016 128.376H53.576V142.464H57.968ZM73.1006 144.336C71.8846 144.336 70.8366 144.064 69.9566 143.52C69.0766 142.96 68.4046 142.192 67.9406 141.216C67.4926 140.24 67.2686 139.128 67.2686 137.88C67.2686 136.584 67.5086 135.456 67.9886 134.496C68.4686 133.52 69.1486 132.768 70.0286 132.24C70.9086 131.712 71.9326 131.448 73.1006 131.448C74.2526 131.448 75.2446 131.704 76.0766 132.216C76.9086 132.712 77.5406 133.408 77.9726 134.304C78.4046 135.184 78.6206 136.192 78.6206 137.328C78.6206 137.776 78.6126 138.064 78.5966 138.192H68.9006C68.9166 139.056 69.0766 139.856 69.3806 140.592C69.7006 141.312 70.1726 141.896 70.7966 142.344C71.4366 142.776 72.2126 142.992 73.1246 142.992C74.2446 142.992 75.1086 142.704 75.7166 142.128C76.3246 141.552 76.7086 140.928 76.8686 140.256H78.4526C78.1326 141.472 77.5246 142.456 76.6286 143.208C75.7326 143.96 74.5566 144.336 73.1006 144.336ZM76.9646 136.824C76.9646 136.088 76.8046 135.416 76.4846 134.808C76.1806 134.184 75.7326 133.696 75.1406 133.344C74.5486 132.976 73.8446 132.792 73.0286 132.792C71.8606 132.792 70.8926 133.176 70.1246 133.944C69.3726 134.712 68.9646 135.672 68.9006 136.824H76.9646ZM79.3025 131.76H81.0305L84.7025 142.416H84.7265L88.3745 131.76H90.0545L85.5665 144H83.7905L79.3025 131.76ZM96.5615 144.336C95.3455 144.336 94.2975 144.064 93.4175 143.52C92.5375 142.96 91.8655 142.192 91.4015 141.216C90.9535 140.24 90.7295 139.128 90.7295 137.88C90.7295 136.584 90.9695 135.456 91.4495 134.496C91.9295 133.52 92.6095 132.768 93.4895 132.24C94.3695 131.712 95.3935 131.448 96.5615 131.448C97.7135 131.448 98.7055 131.704 99.5375 132.216C100.37 132.712 101.002 133.408 101.434 134.304C101.866 135.184 102.082 136.192 102.082 137.328C102.082 137.776 102.074 138.064 102.057 138.192H92.3615C92.3775 139.056 92.5375 139.856 92.8415 140.592C93.1615 141.312 93.6335 141.896 94.2575 142.344C94.8975 142.776 95.6735 142.992 96.5855 142.992C97.7055 142.992 98.5695 142.704 99.1775 142.128C99.7855 141.552 100.17 140.928 100.33 140.256H101.914C101.594 141.472 100.986 142.456 100.09 143.208C99.1935 143.96 98.0175 144.336 96.5615 144.336ZM100.426 136.824C100.426 136.088 100.266 135.416 99.9455 134.808C99.6415 134.184 99.1935 133.696 98.6015 133.344C98.0095 132.976 97.3055 132.792 96.4895 132.792C95.3215 132.792 94.3535 133.176 93.5855 133.944C92.8335 134.712 92.4255 135.672 92.3615 136.824H100.426ZM104.268 126.84H105.828V144H104.268V126.84ZM113.906 144.336C112.706 144.336 111.658 144.064 110.762 143.52C109.882 142.976 109.202 142.224 108.722 141.264C108.258 140.288 108.026 139.168 108.026 137.904C108.026 136.64 108.258 135.52 108.722 134.544C109.202 133.568 109.882 132.808 110.762 132.264C111.658 131.72 112.706 131.448 113.906 131.448C115.106 131.448 116.146 131.72 117.026 132.264C117.922 132.808 118.602 133.568 119.066 134.544C119.546 135.52 119.786 136.64 119.786 137.904C119.786 139.168 119.546 140.288 119.066 141.264C118.602 142.224 117.922 142.976 117.026 143.52C116.146 144.064 115.106 144.336 113.906 144.336ZM109.658 137.904C109.658 139.376 110.018 140.592 110.738 141.552C111.474 142.496 112.53 142.968 113.906 142.968C115.282 142.968 116.33 142.496 117.05 141.552C117.786 140.592 118.154 139.376 118.154 137.904C118.154 136.416 117.786 135.2 117.05 134.256C116.33 133.296 115.282 132.816 113.906 132.816C112.53 132.816 111.474 133.296 110.738 134.256C110.018 135.2 109.658 136.416 109.658 137.904ZM127.723 144.288C126.715 144.288 125.875 144.08 125.203 143.664C124.531 143.232 123.995 142.656 123.595 141.936H123.547V148.248H121.987V131.76H123.547V133.728H123.595C124.011 133.056 124.555 132.512 125.227 132.096C125.899 131.664 126.731 131.448 127.723 131.448C128.731 131.448 129.643 131.712 130.459 132.24C131.275 132.752 131.923 133.496 132.403 134.472C132.883 135.432 133.123 136.568 133.123 137.88C133.123 139.176 132.883 140.312 132.403 141.288C131.923 142.248 131.275 142.992 130.459 143.52C129.643 144.032 128.731 144.288 127.723 144.288ZM123.547 137.88C123.547 138.888 123.715 139.776 124.051 140.544C124.387 141.296 124.859 141.88 125.467 142.296C126.075 142.712 126.771 142.92 127.555 142.92C128.371 142.92 129.075 142.696 129.667 142.248C130.275 141.8 130.731 141.192 131.035 140.424C131.339 139.656 131.491 138.808 131.491 137.88C131.491 136.44 131.139 135.24 130.435 134.28C129.747 133.304 128.787 132.816 127.555 132.816C126.771 132.816 126.075 133.024 125.467 133.44C124.859 133.856 124.387 134.448 124.051 135.216C123.715 135.984 123.547 136.872 123.547 137.88ZM143.956 144.312C142.74 144.312 141.764 144 141.028 143.376C140.308 142.752 139.948 141.928 139.948 140.904C139.948 140.056 140.14 139.368 140.524 138.84C140.908 138.312 141.46 137.904 142.18 137.616C142.9 137.328 143.836 137.08 144.988 136.872C145.9 136.712 146.548 136.584 146.932 136.488C147.332 136.376 147.66 136.2 147.916 135.96C148.172 135.72 148.3 135.368 148.3 134.904C148.3 134.248 148.068 133.736 147.604 133.368C147.156 133 146.46 132.816 145.516 132.816C144.364 132.816 143.532 133.024 143.02 133.44C142.524 133.856 142.244 134.528 142.18 135.456H140.524C140.588 134.272 141.028 133.312 141.844 132.576C142.66 131.824 143.9 131.448 145.564 131.448C146.812 131.448 147.828 131.76 148.612 132.384C149.412 132.992 149.812 133.976 149.812 135.336V141.456C149.812 141.968 149.86 142.336 149.956 142.56C150.052 142.784 150.236 142.896 150.508 142.896C150.636 142.896 150.748 142.888 150.844 142.872V144C150.492 144.064 150.22 144.096 150.028 144.096C149.484 144.096 149.068 143.96 148.78 143.688C148.508 143.4 148.348 142.888 148.3 142.152H148.252C147.836 142.856 147.26 143.392 146.524 143.76C145.804 144.128 144.948 144.312 143.956 144.312ZM141.58 140.76C141.58 142.216 142.436 142.944 144.148 142.944C145.412 142.944 146.42 142.632 147.172 142.008C147.924 141.368 148.3 140.504 148.3 139.416V137.136C148.14 137.36 147.788 137.552 147.244 137.712C146.716 137.872 146.028 138.024 145.18 138.168C143.916 138.392 142.996 138.696 142.42 139.08C141.86 139.448 141.58 140.008 141.58 140.76ZM161.726 144.096C160.75 144.096 160.022 143.864 159.542 143.4C159.078 142.936 158.846 142.08 158.846 140.832V133.128H157.046V131.76H158.846V127.68H160.406V131.76H162.878V133.128H160.406V140.856C160.406 141.608 160.51 142.112 160.718 142.368C160.926 142.608 161.334 142.728 161.942 142.728C162.086 142.728 162.398 142.712 162.878 142.68V144C162.446 144.064 162.062 144.096 161.726 144.096ZM169.828 144.336C168.628 144.336 167.58 144.064 166.684 143.52C165.804 142.976 165.124 142.224 164.644 141.264C164.18 140.288 163.948 139.168 163.948 137.904C163.948 136.64 164.18 135.52 164.644 134.544C165.124 133.568 165.804 132.808 166.684 132.264C167.58 131.72 168.628 131.448 169.828 131.448C171.028 131.448 172.068 131.72 172.948 132.264C173.844 132.808 174.524 133.568 174.988 134.544C175.468 135.52 175.708 136.64 175.708 137.904C175.708 139.168 175.468 140.288 174.988 141.264C174.524 142.224 173.844 142.976 172.948 143.52C172.068 144.064 171.028 144.336 169.828 144.336ZM165.58 137.904C165.58 139.376 165.94 140.592 166.66 141.552C167.396 142.496 168.452 142.968 169.828 142.968C171.204 142.968 172.252 142.496 172.972 141.552C173.708 140.592 174.076 139.376 174.076 137.904C174.076 136.416 173.708 135.2 172.972 134.256C172.252 133.296 171.204 132.816 169.828 132.816C168.452 132.816 167.396 133.296 166.66 134.256C165.94 135.2 165.58 136.416 165.58 137.904ZM183.117 144.336C181.917 144.336 180.869 144.064 179.973 143.52C179.093 142.976 178.413 142.224 177.933 141.264C177.469 140.288 177.237 139.168 177.237 137.904C177.237 136.64 177.469 135.52 177.933 134.544C178.413 133.568 179.093 132.808 179.973 132.264C180.869 131.72 181.917 131.448 183.117 131.448C184.317 131.448 185.357 131.72 186.237 132.264C187.133 132.808 187.813 133.568 188.277 134.544C188.757 135.52 188.997 136.64 188.997 137.904C188.997 139.168 188.757 140.288 188.277 141.264C187.813 142.224 187.133 142.976 186.237 143.52C185.357 144.064 184.317 144.336 183.117 144.336ZM178.869 137.904C178.869 139.376 179.229 140.592 179.949 141.552C180.685 142.496 181.741 142.968 183.117 142.968C184.493 142.968 185.541 142.496 186.261 141.552C186.997 140.592 187.365 139.376 187.365 137.904C187.365 136.416 186.997 135.2 186.261 134.256C185.541 133.296 184.493 132.816 183.117 132.816C181.741 132.816 180.685 133.296 179.949 134.256C179.229 135.2 178.869 136.416 178.869 137.904ZM191.198 126.84H192.758V144H191.198V126.84ZM195.628 126.84H197.188V137.52L203.26 131.76H205.18L200.355 136.248L205.78 144H203.932L199.3 137.232L197.188 139.2V144H195.628V126.84ZM206.901 131.76H208.461V144H206.901V131.76ZM206.661 127.296H208.677V129.312H206.661V127.296ZM214.883 144.096C213.907 144.096 213.179 143.864 212.699 143.4C212.235 142.936 212.003 142.08 212.003 140.832V133.128H210.203V131.76H212.003V127.68H213.563V131.76H216.035V133.128H213.563V140.856C213.563 141.608 213.667 142.112 213.875 142.368C214.083 142.608 214.491 142.728 215.099 142.728C215.243 142.728 215.555 142.712 216.035 142.68V144C215.603 144.064 215.219 144.096 214.883 144.096ZM52.184 163.96C52.184 162.696 52.416 161.84 52.88 161.392C53.344 160.928 54.048 160.696 54.992 160.696C55.28 160.696 55.672 160.728 56.168 160.792V162.112C55.592 162.08 55.272 162.064 55.208 162.064C54.808 162.064 54.504 162.12 54.296 162.232C54.088 162.328 53.944 162.512 53.864 162.784C53.784 163.04 53.744 163.424 53.744 163.936V165.76H56.168V167.128H53.744V178H52.184V167.128H50.456V165.76H52.184V163.96ZM62.6246 178.336C61.4246 178.336 60.3766 178.064 59.4806 177.52C58.6006 176.976 57.9206 176.224 57.4406 175.264C56.9766 174.288 56.7446 173.168 56.7446 171.904C56.7446 170.64 56.9766 169.52 57.4406 168.544C57.9206 167.568 58.6006 166.808 59.4806 166.264C60.3766 165.72 61.4246 165.448 62.6246 165.448C63.8246 165.448 64.8646 165.72 65.7446 166.264C66.6406 166.808 67.3206 167.568 67.7846 168.544C68.2646 169.52 68.5046 170.64 68.5046 171.904C68.5046 173.168 68.2646 174.288 67.7846 175.264C67.3206 176.224 66.6406 176.976 65.7446 177.52C64.8646 178.064 63.8246 178.336 62.6246 178.336ZM58.3766 171.904C58.3766 173.376 58.7366 174.592 59.4566 175.552C60.1926 176.496 61.2486 176.968 62.6246 176.968C64.0006 176.968 65.0486 176.496 65.7686 175.552C66.5046 174.592 66.8726 173.376 66.8726 171.904C66.8726 170.416 66.5046 169.2 65.7686 168.256C65.0486 167.296 64.0006 166.816 62.6246 166.816C61.2486 166.816 60.1926 167.296 59.4566 168.256C58.7366 169.2 58.3766 170.416 58.3766 171.904ZM72.2656 178H70.7056V165.76H72.2656V168.256H72.3136C72.6496 167.408 73.1056 166.736 73.6816 166.24C74.2736 165.728 74.9776 165.472 75.7936 165.472C76.2096 165.472 76.5616 165.496 76.8496 165.544V167.08C76.6096 167.032 76.3616 167.008 76.1056 167.008C75.3856 167.008 74.7296 167.192 74.1376 167.56C73.5616 167.912 73.1056 168.408 72.7696 169.048C72.4336 169.672 72.2656 170.376 72.2656 171.16V178ZM91.4538 169.744C91.4538 168.88 91.2298 168.184 90.7818 167.656C90.3338 167.112 89.6138 166.84 88.6218 166.84C87.8698 166.84 87.1978 167 86.6058 167.32C86.0298 167.64 85.5738 168.064 85.2378 168.592C84.9178 169.104 84.7578 169.664 84.7578 170.272V178H83.1978V165.76H84.7578V167.512H84.8058C85.2058 166.92 85.7498 166.432 86.4378 166.048C87.1418 165.664 87.9978 165.472 89.0058 165.472C90.1738 165.472 91.1338 165.808 91.8858 166.48C92.6378 167.136 93.0138 168.112 93.0138 169.408V178H91.4538V169.744ZM100.991 178.336C99.7752 178.336 98.7272 178.064 97.8472 177.52C96.9672 176.96 96.2952 176.192 95.8312 175.216C95.3832 174.24 95.1592 173.128 95.1592 171.88C95.1592 170.584 95.3992 169.456 95.8792 168.496C96.3592 167.52 97.0392 166.768 97.9192 166.24C98.7992 165.712 99.8232 165.448 100.991 165.448C102.143 165.448 103.135 165.704 103.967 166.216C104.799 166.712 105.431 167.408 105.863 168.304C106.295 169.184 106.511 170.192 106.511 171.328C106.511 171.776 106.503 172.064 106.487 172.192H96.7912C96.8072 173.056 96.9672 173.856 97.2712 174.592C97.5912 175.312 98.0632 175.896 98.6872 176.344C99.3272 176.776 100.103 176.992 101.015 176.992C102.135 176.992 102.999 176.704 103.607 176.128C104.215 175.552 104.599 174.928 104.759 174.256H106.343C106.023 175.472 105.415 176.456 104.519 177.208C103.623 177.96 102.447 178.336 100.991 178.336ZM104.855 170.824C104.855 170.088 104.695 169.416 104.375 168.808C104.071 168.184 103.623 167.696 103.031 167.344C102.439 166.976 101.735 166.792 100.919 166.792C99.7512 166.792 98.7832 167.176 98.0152 167.944C97.2632 168.712 96.8552 169.672 96.7912 170.824H104.855ZM107.335 165.76H109.063L112.111 176.224H112.159L115.015 165.76H116.767L119.623 176.224H119.671L122.743 165.76H124.423L120.511 178H118.759L115.879 167.656H115.831L112.951 178H111.223L107.335 165.76ZM134.515 178.096C133.539 178.096 132.811 177.864 132.331 177.4C131.867 176.936 131.635 176.08 131.635 174.832V167.128H129.835V165.76H131.635V161.68H133.195V165.76H135.667V167.128H133.195V174.856C133.195 175.608 133.299 176.112 133.507 176.368C133.715 176.608 134.123 176.728 134.731 176.728C134.875 176.728 135.187 176.712 135.667 176.68V178C135.235 178.064 134.851 178.096 134.515 178.096ZM142.593 178.336C141.377 178.336 140.329 178.064 139.449 177.52C138.569 176.96 137.897 176.192 137.433 175.216C136.985 174.24 136.761 173.128 136.761 171.88C136.761 170.584 137.001 169.456 137.481 168.496C137.961 167.52 138.641 166.768 139.521 166.24C140.401 165.712 141.425 165.448 142.593 165.448C143.745 165.448 144.737 165.704 145.569 166.216C146.401 166.712 147.033 167.408 147.465 168.304C147.897 169.184 148.113 170.192 148.113 171.328C148.113 171.776 148.105 172.064 148.089 172.192H138.393C138.409 173.056 138.569 173.856 138.873 174.592C139.193 175.312 139.665 175.896 140.289 176.344C140.929 176.776 141.705 176.992 142.617 176.992C143.737 176.992 144.601 176.704 145.209 176.128C145.817 175.552 146.201 174.928 146.361 174.256H147.945C147.625 175.472 147.017 176.456 146.121 177.208C145.225 177.96 144.049 178.336 142.593 178.336ZM146.457 170.824C146.457 170.088 146.297 169.416 145.977 168.808C145.673 168.184 145.225 167.696 144.633 167.344C144.041 166.976 143.337 166.792 142.521 166.792C141.353 166.792 140.385 167.176 139.617 167.944C138.865 168.712 138.457 169.672 138.393 170.824H146.457ZM153.659 178.312C152.443 178.312 151.467 178 150.731 177.376C150.011 176.752 149.651 175.928 149.651 174.904C149.651 174.056 149.843 173.368 150.227 172.84C150.611 172.312 151.163 171.904 151.883 171.616C152.603 171.328 153.539 171.08 154.691 170.872C155.603 170.712 156.251 170.584 156.635 170.488C157.035 170.376 157.363 170.2 157.619 169.96C157.875 169.72 158.003 169.368 158.003 168.904C158.003 168.248 157.771 167.736 157.307 167.368C156.859 167 156.163 166.816 155.219 166.816C154.067 166.816 153.235 167.024 152.723 167.44C152.227 167.856 151.947 168.528 151.883 169.456H150.227C150.291 168.272 150.731 167.312 151.547 166.576C152.363 165.824 153.603 165.448 155.267 165.448C156.515 165.448 157.531 165.76 158.315 166.384C159.115 166.992 159.515 167.976 159.515 169.336V175.456C159.515 175.968 159.563 176.336 159.659 176.56C159.755 176.784 159.939 176.896 160.211 176.896C160.339 176.896 160.451 176.888 160.547 176.872V178C160.195 178.064 159.923 178.096 159.731 178.096C159.187 178.096 158.771 177.96 158.483 177.688C158.211 177.4 158.051 176.888 158.003 176.152H157.955C157.539 176.856 156.963 177.392 156.227 177.76C155.507 178.128 154.651 178.312 153.659 178.312ZM151.283 174.76C151.283 176.216 152.139 176.944 153.851 176.944C155.115 176.944 156.123 176.632 156.875 176.008C157.627 175.368 158.003 174.504 158.003 173.416V171.136C157.843 171.36 157.491 171.552 156.947 171.712C156.419 171.872 155.731 172.024 154.883 172.168C153.619 172.392 152.699 172.696 152.123 173.08C151.563 173.448 151.283 174.008 151.283 174.76ZM170.02 169.744C170.02 168.848 169.852 168.144 169.516 167.632C169.18 167.104 168.548 166.84 167.62 166.84C166.932 166.84 166.324 167 165.796 167.32C165.284 167.64 164.884 168.064 164.596 168.592C164.324 169.104 164.188 169.664 164.188 170.272V178H162.628V165.76H164.188V167.488H164.236C164.62 166.912 165.116 166.432 165.724 166.048C166.332 165.664 167.076 165.472 167.956 165.472C169.684 165.472 170.78 166.224 171.244 167.728H171.292C171.724 167.056 172.276 166.512 172.948 166.096C173.636 165.68 174.436 165.472 175.348 165.472C176.516 165.472 177.404 165.808 178.012 166.48C178.636 167.152 178.948 168.128 178.948 169.408V178H177.388V169.744C177.388 168.848 177.22 168.144 176.884 167.632C176.564 167.104 175.94 166.84 175.012 166.84C174.324 166.84 173.716 167 173.188 167.32C172.676 167.64 172.276 168.064 171.988 168.592C171.716 169.104 171.58 169.664 171.58 170.272V178H170.02V169.744ZM186.241 178.312C184.577 178.312 183.273 177.912 182.329 177.112C181.385 176.296 180.897 175.256 180.865 173.992H182.497C182.545 174.888 182.881 175.608 183.505 176.152C184.129 176.68 185.049 176.944 186.265 176.944C187.353 176.944 188.145 176.736 188.641 176.32C189.137 175.888 189.385 175.336 189.385 174.664C189.385 174.168 189.249 173.776 188.977 173.488C188.721 173.184 188.393 172.96 187.993 172.816C187.593 172.672 187.065 172.528 186.409 172.384C186.313 172.368 186.129 172.328 185.857 172.264C184.833 172.008 184.025 171.768 183.433 171.544C182.841 171.32 182.337 170.984 181.921 170.536C181.521 170.088 181.321 169.496 181.321 168.76C181.321 167.752 181.705 166.952 182.473 166.36C183.241 165.768 184.305 165.472 185.665 165.472C187.169 165.472 188.329 165.824 189.145 166.528C189.977 167.216 190.449 168.104 190.561 169.192H188.929C188.609 167.624 187.529 166.84 185.689 166.84C184.809 166.84 184.129 167 183.649 167.32C183.185 167.64 182.953 168.088 182.953 168.664C182.953 169.096 183.081 169.44 183.337 169.696C183.593 169.952 183.913 170.152 184.297 170.296C184.697 170.44 185.233 170.584 185.905 170.728L186.457 170.872C187.433 171.112 188.233 171.36 188.857 171.616C189.481 171.856 190.001 172.216 190.417 172.696C190.833 173.176 191.041 173.816 191.041 174.616C191.041 175.736 190.617 176.632 189.769 177.304C188.921 177.976 187.745 178.312 186.241 178.312ZM201.851 178.096C200.875 178.096 200.147 177.864 199.667 177.4C199.203 176.936 198.971 176.08 198.971 174.832V167.128H197.171V165.76H198.971V161.68H200.531V165.76H203.003V167.128H200.531V174.856C200.531 175.608 200.635 176.112 200.843 176.368C201.051 176.608 201.459 176.728 202.067 176.728C202.211 176.728 202.523 176.712 203.003 176.68V178C202.571 178.064 202.187 178.096 201.851 178.096ZM209.953 178.336C208.753 178.336 207.705 178.064 206.809 177.52C205.929 176.976 205.249 176.224 204.769 175.264C204.305 174.288 204.073 173.168 204.073 171.904C204.073 170.64 204.305 169.52 204.769 168.544C205.249 167.568 205.929 166.808 206.809 166.264C207.705 165.72 208.753 165.448 209.953 165.448C211.153 165.448 212.193 165.72 213.073 166.264C213.969 166.808 214.649 167.568 215.113 168.544C215.593 169.52 215.833 170.64 215.833 171.904C215.833 173.168 215.593 174.288 215.113 175.264C214.649 176.224 213.969 176.976 213.073 177.52C212.193 178.064 211.153 178.336 209.953 178.336ZM205.705 171.904C205.705 173.376 206.065 174.592 206.785 175.552C207.521 176.496 208.577 176.968 209.953 176.968C211.329 176.968 212.377 176.496 213.097 175.552C213.833 174.592 214.201 173.376 214.201 171.904C214.201 170.416 213.833 169.2 213.097 168.256C212.377 167.296 211.329 166.816 209.953 166.816C208.577 166.816 207.521 167.296 206.785 168.256C206.065 169.2 205.705 170.416 205.705 171.904ZM54.8 212.312C53.584 212.312 52.608 212 51.872 211.376C51.152 210.752 50.792 209.928 50.792 208.904C50.792 208.056 50.984 207.368 51.368 206.84C51.752 206.312 52.304 205.904 53.024 205.616C53.744 205.328 54.68 205.08 55.832 204.872C56.744 204.712 57.392 204.584 57.776 204.488C58.176 204.376 58.504 204.2 58.76 203.96C59.016 203.72 59.144 203.368 59.144 202.904C59.144 202.248 58.912 201.736 58.448 201.368C58 201 57.304 200.816 56.36 200.816C55.208 200.816 54.376 201.024 53.864 201.44C53.368 201.856 53.088 202.528 53.024 203.456H51.368C51.432 202.272 51.872 201.312 52.688 200.576C53.504 199.824 54.744 199.448 56.408 199.448C57.656 199.448 58.672 199.76 59.456 200.384C60.256 200.992 60.656 201.976 60.656 203.336V209.456C60.656 209.968 60.704 210.336 60.8 210.56C60.896 210.784 61.08 210.896 61.352 210.896C61.48 210.896 61.592 210.888 61.688 210.872V212C61.336 212.064 61.064 212.096 60.872 212.096C60.328 212.096 59.912 211.96 59.624 211.688C59.352 211.4 59.192 210.888 59.144 210.152H59.096C58.68 210.856 58.104 211.392 57.368 211.76C56.648 212.128 55.792 212.312 54.8 212.312ZM52.424 208.76C52.424 210.216 53.28 210.944 54.992 210.944C56.256 210.944 57.264 210.632 58.016 210.008C58.768 209.368 59.144 208.504 59.144 207.416V205.136C58.984 205.36 58.632 205.552 58.088 205.712C57.56 205.872 56.872 206.024 56.024 206.168C54.76 206.392 53.84 206.696 53.264 207.08C52.704 207.448 52.424 208.008 52.424 208.76ZM63.7681 194.84H65.3281V212H63.7681V194.84ZM68.1978 199.76H69.7578V212H68.1978V199.76ZM67.9578 195.296H69.9738V197.312H67.9578V195.296ZM77.6195 216.392C76.0195 216.392 74.7635 216.048 73.8515 215.36C72.9555 214.672 72.4595 213.768 72.3635 212.648H73.9955C74.1235 213.352 74.4835 213.92 75.0755 214.352C75.6675 214.8 76.5235 215.024 77.6435 215.024C80.2675 215.024 81.5795 213.832 81.5795 211.448V209.168H81.5315C81.1475 209.856 80.6035 210.408 79.8995 210.824C79.2115 211.224 78.3795 211.424 77.4035 211.424C76.3955 211.424 75.4835 211.2 74.6675 210.752C73.8675 210.304 73.2275 209.632 72.7475 208.736C72.2675 207.84 72.0275 206.736 72.0275 205.424C72.0275 204.128 72.2675 203.032 72.7475 202.136C73.2275 201.24 73.8675 200.576 74.6675 200.144C75.4835 199.696 76.3955 199.472 77.4035 199.472C78.3795 199.472 79.2115 199.68 79.8995 200.096C80.6035 200.496 81.1475 201.024 81.5315 201.68H81.5795V199.76H83.1395V211.232C83.1395 212.928 82.6515 214.208 81.6755 215.072C80.6995 215.952 79.3475 216.392 77.6195 216.392ZM73.6595 205.424C73.6595 206.848 74.0035 207.976 74.6915 208.808C75.3955 209.64 76.3715 210.056 77.6195 210.056C78.8035 210.056 79.7555 209.664 80.4755 208.88C81.2115 208.096 81.5795 206.944 81.5795 205.424C81.5795 203.936 81.2115 202.8 80.4755 202.016C79.7555 201.232 78.8035 200.84 77.6195 200.84C76.3715 200.84 75.3955 201.256 74.6915 202.088C74.0035 202.92 73.6595 204.032 73.6595 205.424ZM94.2429 203.744C94.2429 202.88 94.0189 202.184 93.5709 201.656C93.1229 201.112 92.4029 200.84 91.4109 200.84C90.6589 200.84 89.9869 201 89.3949 201.32C88.8189 201.64 88.3629 202.064 88.0269 202.592C87.7069 203.104 87.5469 203.664 87.5469 204.272V212H85.9869V199.76H87.5469V201.512H87.5949C87.9949 200.92 88.5389 200.432 89.2269 200.048C89.9309 199.664 90.7869 199.472 91.7949 199.472C92.9629 199.472 93.9229 199.808 94.6749 200.48C95.4269 201.136 95.8029 202.112 95.8029 203.408V212H94.2429V203.744ZM102.107 199.76H103.835L107.507 210.416H107.531L111.179 199.76H112.859L108.371 212H106.595L102.107 199.76ZM117.495 212.312C116.279 212.312 115.303 212 114.567 211.376C113.847 210.752 113.487 209.928 113.487 208.904C113.487 208.056 113.679 207.368 114.063 206.84C114.447 206.312 114.999 205.904 115.719 205.616C116.439 205.328 117.375 205.08 118.527 204.872C119.439 204.712 120.087 204.584 120.471 204.488C120.871 204.376 121.199 204.2 121.455 203.96C121.711 203.72 121.839 203.368 121.839 202.904C121.839 202.248 121.607 201.736 121.143 201.368C120.695 201 119.999 200.816 119.055 200.816C117.903 200.816 117.071 201.024 116.559 201.44C116.063 201.856 115.783 202.528 115.719 203.456H114.063C114.127 202.272 114.567 201.312 115.383 200.576C116.199 199.824 117.439 199.448 119.103 199.448C120.351 199.448 121.367 199.76 122.151 200.384C122.951 200.992 123.351 201.976 123.351 203.336V209.456C123.351 209.968 123.399 210.336 123.495 210.56C123.591 210.784 123.775 210.896 124.047 210.896C124.175 210.896 124.287 210.888 124.383 210.872V212C124.031 212.064 123.759 212.096 123.567 212.096C123.023 212.096 122.607 211.96 122.319 211.688C122.047 211.4 121.887 210.888 121.839 210.152H121.791C121.375 210.856 120.799 211.392 120.063 211.76C119.343 212.128 118.487 212.312 117.495 212.312ZM115.119 208.76C115.119 210.216 115.975 210.944 117.687 210.944C118.951 210.944 119.959 210.632 120.711 210.008C121.463 209.368 121.839 208.504 121.839 207.416V205.136C121.679 205.36 121.327 205.552 120.783 205.712C120.255 205.872 119.567 206.024 118.719 206.168C117.455 206.392 116.535 206.696 115.959 207.08C115.399 207.448 115.119 208.008 115.119 208.76ZM126.463 194.84H128.023V212H126.463V194.84ZM134.805 212.288C133.637 212.288 132.677 211.96 131.925 211.304C131.173 210.632 130.797 209.648 130.797 208.352V199.76H132.357V208.016C132.357 208.88 132.581 209.584 133.029 210.128C133.477 210.656 134.197 210.92 135.189 210.92C135.941 210.92 136.605 210.76 137.181 210.44C137.773 210.12 138.229 209.704 138.549 209.192C138.885 208.664 139.053 208.096 139.053 207.488V199.76H140.613V212H139.053V210.272H139.005C138.605 210.848 138.053 211.328 137.349 211.712C136.661 212.096 135.813 212.288 134.805 212.288ZM148.687 212.336C147.471 212.336 146.423 212.064 145.543 211.52C144.663 210.96 143.991 210.192 143.527 209.216C143.079 208.24 142.854 207.128 142.854 205.88C142.854 204.584 143.095 203.456 143.575 202.496C144.055 201.52 144.735 200.768 145.615 200.24C146.495 199.712 147.519 199.448 148.687 199.448C149.839 199.448 150.831 199.704 151.663 200.216C152.495 200.712 153.127 201.408 153.559 202.304C153.991 203.184 154.207 204.192 154.207 205.328C154.207 205.776 154.199 206.064 154.182 206.192H144.487C144.503 207.056 144.663 207.856 144.967 208.592C145.287 209.312 145.759 209.896 146.383 210.344C147.023 210.776 147.799 210.992 148.711 210.992C149.831 210.992 150.695 210.704 151.303 210.128C151.911 209.552 152.295 208.928 152.455 208.256H154.039C153.719 209.472 153.111 210.456 152.215 211.208C151.319 211.96 150.143 212.336 148.687 212.336ZM152.551 204.824C152.551 204.088 152.391 203.416 152.071 202.808C151.767 202.184 151.319 201.696 150.727 201.344C150.135 200.976 149.431 200.792 148.615 200.792C147.447 200.792 146.479 201.176 145.711 201.944C144.959 202.712 144.551 203.672 144.487 204.824H152.551ZM160.905 212.312C159.241 212.312 157.937 211.912 156.993 211.112C156.049 210.296 155.561 209.256 155.529 207.992H157.161C157.209 208.888 157.545 209.608 158.169 210.152C158.793 210.68 159.713 210.944 160.929 210.944C162.017 210.944 162.809 210.736 163.305 210.32C163.801 209.888 164.049 209.336 164.049 208.664C164.049 208.168 163.913 207.776 163.641 207.488C163.385 207.184 163.057 206.96 162.657 206.816C162.257 206.672 161.729 206.528 161.073 206.384C160.977 206.368 160.793 206.328 160.521 206.264C159.497 206.008 158.689 205.768 158.097 205.544C157.505 205.32 157.001 204.984 156.585 204.536C156.185 204.088 155.985 203.496 155.985 202.76C155.985 201.752 156.369 200.952 157.137 200.36C157.905 199.768 158.969 199.472 160.329 199.472C161.833 199.472 162.993 199.824 163.809 200.528C164.641 201.216 165.113 202.104 165.225 203.192H163.593C163.273 201.624 162.193 200.84 160.353 200.84C159.473 200.84 158.793 201 158.313 201.32C157.849 201.64 157.617 202.088 157.617 202.664C157.617 203.096 157.745 203.44 158.001 203.696C158.257 203.952 158.577 204.152 158.961 204.296C159.361 204.44 159.897 204.584 160.569 204.728L161.121 204.872C162.097 205.112 162.897 205.36 163.521 205.616C164.145 205.856 164.665 206.216 165.081 206.696C165.497 207.176 165.705 207.816 165.705 208.616C165.705 209.736 165.281 210.632 164.433 211.304C163.585 211.976 162.409 212.312 160.905 212.312ZM167.449 213.872C167.833 213.728 168.097 213.52 168.241 213.248C168.385 212.992 168.449 212.576 168.433 212H167.449V209.984H169.465V212C169.465 212.736 169.321 213.344 169.033 213.824C168.745 214.304 168.217 214.664 167.449 214.904V213.872ZM50.312 233.76H52.04L55.088 244.224H55.136L57.992 233.76H59.744L62.6 244.224H62.648L65.72 233.76H67.4L63.488 246H61.736L58.856 235.656H58.808L55.928 246H54.2L50.312 233.76ZM74.0621 246.336C72.8621 246.336 71.8141 246.064 70.9181 245.52C70.0381 244.976 69.3581 244.224 68.8781 243.264C68.4141 242.288 68.1821 241.168 68.1821 239.904C68.1821 238.64 68.4141 237.52 68.8781 236.544C69.3581 235.568 70.0381 234.808 70.9181 234.264C71.8141 233.72 72.8621 233.448 74.0621 233.448C75.2621 233.448 76.3021 233.72 77.1821 234.264C78.0781 234.808 78.7581 235.568 79.2221 236.544C79.7021 237.52 79.9421 238.64 79.9421 239.904C79.9421 241.168 79.7021 242.288 79.2221 243.264C78.7581 244.224 78.0781 244.976 77.1821 245.52C76.3021 246.064 75.2621 246.336 74.0621 246.336ZM69.8141 239.904C69.8141 241.376 70.1741 242.592 70.8941 243.552C71.6301 244.496 72.6861 244.968 74.0621 244.968C75.4381 244.968 76.4861 244.496 77.2061 243.552C77.9421 242.592 78.3101 241.376 78.3101 239.904C78.3101 238.416 77.9421 237.2 77.2061 236.256C76.4861 235.296 75.4381 234.816 74.0621 234.816C72.6861 234.816 71.6301 235.296 70.8941 236.256C70.1741 237.2 69.8141 238.416 69.8141 239.904ZM83.7031 246H82.1431V233.76H83.7031V236.256H83.7511C84.0871 235.408 84.5431 234.736 85.1191 234.24C85.7111 233.728 86.4151 233.472 87.2311 233.472C87.6471 233.472 87.9991 233.496 88.2871 233.544V235.08C88.0471 235.032 87.7991 235.008 87.5431 235.008C86.8231 235.008 86.1671 235.192 85.5751 235.56C84.9991 235.912 84.5431 236.408 84.2071 237.048C83.8711 237.672 83.7031 238.376 83.7031 239.16V246ZM89.9478 228.84H91.5078V239.52L97.5798 233.76H99.4998L94.6758 238.248L100.1 246H98.2518L93.6198 239.232L91.5078 241.2V246H89.9478V228.84ZM101.221 233.76H102.781V246H101.221V233.76ZM100.981 229.296H102.997V231.312H100.981V229.296ZM113.907 237.744C113.907 236.88 113.683 236.184 113.235 235.656C112.787 235.112 112.067 234.84 111.075 234.84C110.323 234.84 109.651 235 109.059 235.32C108.483 235.64 108.027 236.064 107.691 236.592C107.371 237.104 107.211 237.664 107.211 238.272V246H105.651V233.76H107.211V235.512H107.259C107.659 234.92 108.203 234.432 108.891 234.048C109.595 233.664 110.451 233.472 111.459 233.472C112.627 233.472 113.587 233.808 114.339 234.48C115.091 235.136 115.467 236.112 115.467 237.408V246H113.907V237.744ZM123.252 250.392C121.652 250.392 120.396 250.048 119.484 249.36C118.588 248.672 118.092 247.768 117.996 246.648H119.628C119.756 247.352 120.116 247.92 120.708 248.352C121.3 248.8 122.156 249.024 123.276 249.024C125.9 249.024 127.212 247.832 127.212 245.448V243.168H127.164C126.78 243.856 126.236 244.408 125.532 244.824C124.844 245.224 124.012 245.424 123.036 245.424C122.028 245.424 121.116 245.2 120.3 244.752C119.5 244.304 118.86 243.632 118.38 242.736C117.9 241.84 117.66 240.736 117.66 239.424C117.66 238.128 117.9 237.032 118.38 236.136C118.86 235.24 119.5 234.576 120.3 234.144C121.116 233.696 122.028 233.472 123.036 233.472C124.012 233.472 124.844 233.68 125.532 234.096C126.236 234.496 126.78 235.024 127.164 235.68H127.212V233.76H128.772V245.232C128.772 246.928 128.284 248.208 127.308 249.072C126.332 249.952 124.98 250.392 123.252 250.392ZM119.292 239.424C119.292 240.848 119.636 241.976 120.324 242.808C121.028 243.64 122.004 244.056 123.252 244.056C124.436 244.056 125.388 243.664 126.108 242.88C126.844 242.096 127.212 240.944 127.212 239.424C127.212 237.936 126.844 236.8 126.108 236.016C125.388 235.232 124.436 234.84 123.252 234.84C122.004 234.84 121.028 235.256 120.324 236.088C119.636 236.92 119.292 238.032 119.292 239.424ZM141.382 246.312C139.718 246.312 138.414 245.912 137.47 245.112C136.526 244.296 136.038 243.256 136.006 241.992H137.638C137.686 242.888 138.022 243.608 138.646 244.152C139.27 244.68 140.19 244.944 141.406 244.944C142.494 244.944 143.286 244.736 143.782 244.32C144.278 243.888 144.526 243.336 144.526 242.664C144.526 242.168 144.39 241.776 144.118 241.488C143.862 241.184 143.534 240.96 143.134 240.816C142.734 240.672 142.206 240.528 141.55 240.384C141.454 240.368 141.27 240.328 140.998 240.264C139.974 240.008 139.166 239.768 138.574 239.544C137.982 239.32 137.478 238.984 137.062 238.536C136.662 238.088 136.462 237.496 136.462 236.76C136.462 235.752 136.846 234.952 137.614 234.36C138.382 233.768 139.446 233.472 140.806 233.472C142.31 233.472 143.47 233.824 144.286 234.528C145.118 235.216 145.59 236.104 145.702 237.192H144.07C143.75 235.624 142.67 234.84 140.83 234.84C139.95 234.84 139.27 235 138.79 235.32C138.326 235.64 138.094 236.088 138.094 236.664C138.094 237.096 138.222 237.44 138.478 237.696C138.734 237.952 139.054 238.152 139.438 238.296C139.838 238.44 140.374 238.584 141.046 238.728L141.598 238.872C142.574 239.112 143.374 239.36 143.998 239.616C144.622 239.856 145.142 240.216 145.558 240.696C145.974 241.176 146.182 241.816 146.182 242.616C146.182 243.736 145.758 244.632 144.91 245.304C144.062 245.976 142.886 246.312 141.382 246.312ZM151.625 246.096C150.649 246.096 149.921 245.864 149.441 245.4C148.977 244.936 148.745 244.08 148.745 242.832V235.128H146.945V233.76H148.745V229.68H150.305V233.76H152.777V235.128H150.305V242.856C150.305 243.608 150.409 244.112 150.617 244.368C150.825 244.608 151.233 244.728 151.841 244.728C151.985 244.728 152.297 244.712 152.777 244.68V246C152.345 246.064 151.961 246.096 151.625 246.096ZM155.879 250.296C155.543 250.296 155.151 250.264 154.703 250.2V248.856C155.071 248.904 155.383 248.928 155.639 248.928C156.247 248.928 156.775 248.696 157.223 248.232C157.687 247.768 158.079 247 158.399 245.928L153.455 233.76H155.183L159.167 243.96H159.215L163.007 233.76H164.687L159.791 246.36C159.215 247.848 158.631 248.872 158.039 249.432C157.447 250.008 156.727 250.296 155.879 250.296ZM166.354 228.84H167.914V246H166.354V228.84ZM175.968 246.336C174.752 246.336 173.704 246.064 172.824 245.52C171.944 244.96 171.272 244.192 170.808 243.216C170.36 242.24 170.136 241.128 170.136 239.88C170.136 238.584 170.376 237.456 170.856 236.496C171.336 235.52 172.016 234.768 172.896 234.24C173.776 233.712 174.8 233.448 175.968 233.448C177.12 233.448 178.112 233.704 178.944 234.216C179.776 234.712 180.408 235.408 180.84 236.304C181.272 237.184 181.488 238.192 181.488 239.328C181.488 239.776 181.48 240.064 181.464 240.192H171.768C171.784 241.056 171.944 241.856 172.248 242.592C172.568 243.312 173.04 243.896 173.664 244.344C174.304 244.776 175.08 244.992 175.992 244.992C177.112 244.992 177.976 244.704 178.584 244.128C179.192 243.552 179.576 242.928 179.736 242.256H181.32C181 243.472 180.392 244.456 179.496 245.208C178.6 245.96 177.424 246.336 175.968 246.336ZM179.832 238.824C179.832 238.088 179.672 237.416 179.352 236.808C179.048 236.184 178.6 235.696 178.008 235.344C177.416 234.976 176.712 234.792 175.896 234.792C174.728 234.792 173.76 235.176 172.992 235.944C172.24 236.712 171.832 237.672 171.768 238.824H179.832ZM188.186 246.312C186.522 246.312 185.218 245.912 184.274 245.112C183.33 244.296 182.842 243.256 182.81 241.992H184.442C184.49 242.888 184.826 243.608 185.45 244.152C186.074 244.68 186.994 244.944 188.21 244.944C189.298 244.944 190.09 244.736 190.586 244.32C191.082 243.888 191.33 243.336 191.33 242.664C191.33 242.168 191.194 241.776 190.922 241.488C190.666 241.184 190.338 240.96 189.938 240.816C189.538 240.672 189.01 240.528 188.354 240.384C188.258 240.368 188.074 240.328 187.802 240.264C186.778 240.008 185.97 239.768 185.378 239.544C184.786 239.32 184.282 238.984 183.866 238.536C183.466 238.088 183.266 237.496 183.266 236.76C183.266 235.752 183.65 234.952 184.418 234.36C185.186 233.768 186.25 233.472 187.61 233.472C189.114 233.472 190.274 233.824 191.09 234.528C191.922 235.216 192.394 236.104 192.506 237.192H190.874C190.554 235.624 189.474 234.84 187.634 234.84C186.754 234.84 186.074 235 185.594 235.32C185.13 235.64 184.898 236.088 184.898 236.664C184.898 237.096 185.026 237.44 185.282 237.696C185.538 237.952 185.858 238.152 186.242 238.296C186.642 238.44 187.178 238.584 187.85 238.728L188.402 238.872C189.378 239.112 190.178 239.36 190.802 239.616C191.426 239.856 191.946 240.216 192.362 240.696C192.778 241.176 192.986 241.816 192.986 242.616C192.986 243.736 192.562 244.632 191.714 245.304C190.866 245.976 189.69 246.312 188.186 246.312ZM194.731 247.872C195.115 247.728 195.379 247.52 195.523 247.248C195.667 246.992 195.731 246.576 195.715 246H194.731V243.984H196.747V246C196.747 246.736 196.603 247.344 196.315 247.824C196.027 248.304 195.499 248.664 194.731 248.904V247.872ZM54.8 280.312C53.584 280.312 52.608 280 51.872 279.376C51.152 278.752 50.792 277.928 50.792 276.904C50.792 276.056 50.984 275.368 51.368 274.84C51.752 274.312 52.304 273.904 53.024 273.616C53.744 273.328 54.68 273.08 55.832 272.872C56.744 272.712 57.392 272.584 57.776 272.488C58.176 272.376 58.504 272.2 58.76 271.96C59.016 271.72 59.144 271.368 59.144 270.904C59.144 270.248 58.912 269.736 58.448 269.368C58 269 57.304 268.816 56.36 268.816C55.208 268.816 54.376 269.024 53.864 269.44C53.368 269.856 53.088 270.528 53.024 271.456H51.368C51.432 270.272 51.872 269.312 52.688 268.576C53.504 267.824 54.744 267.448 56.408 267.448C57.656 267.448 58.672 267.76 59.456 268.384C60.256 268.992 60.656 269.976 60.656 271.336V277.456C60.656 277.968 60.704 278.336 60.8 278.56C60.896 278.784 61.08 278.896 61.352 278.896C61.48 278.896 61.592 278.888 61.688 278.872V280C61.336 280.064 61.064 280.096 60.872 280.096C60.328 280.096 59.912 279.96 59.624 279.688C59.352 279.4 59.192 278.888 59.144 278.152H59.096C58.68 278.856 58.104 279.392 57.368 279.76C56.648 280.128 55.792 280.312 54.8 280.312ZM52.424 276.76C52.424 278.216 53.28 278.944 54.992 278.944C56.256 278.944 57.264 278.632 58.016 278.008C58.768 277.368 59.144 276.504 59.144 275.416V273.136C58.984 273.36 58.632 273.552 58.088 273.712C57.56 273.872 56.872 274.024 56.024 274.168C54.76 274.392 53.84 274.696 53.264 275.08C52.704 275.448 52.424 276.008 52.424 276.76ZM72.0241 271.744C72.0241 270.88 71.8001 270.184 71.3521 269.656C70.9041 269.112 70.1841 268.84 69.1921 268.84C68.4401 268.84 67.7681 269 67.1761 269.32C66.6001 269.64 66.1441 270.064 65.8081 270.592C65.4881 271.104 65.3281 271.664 65.3281 272.272V280H63.7681V267.76H65.3281V269.512H65.3761C65.7761 268.92 66.3201 268.432 67.0081 268.048C67.7121 267.664 68.5681 267.472 69.5761 267.472C70.7441 267.472 71.7041 267.808 72.4561 268.48C73.2081 269.136 73.5841 270.112 73.5841 271.408V280H72.0241V271.744ZM81.1055 280.312C80.1135 280.312 79.2015 280.056 78.3695 279.544C77.5535 279.016 76.9055 278.272 76.4255 277.312C75.9615 276.336 75.7295 275.192 75.7295 273.88C75.7295 272.584 75.9615 271.456 76.4255 270.496C76.9055 269.52 77.5535 268.776 78.3695 268.264C79.2015 267.736 80.1135 267.472 81.1055 267.472C82.1135 267.472 82.9535 267.688 83.6255 268.12C84.2975 268.536 84.8335 269.104 85.2335 269.824H85.2815V262.84H86.8415V280H85.2815V278.008H85.2335C84.8335 278.68 84.2895 279.232 83.6015 279.664C82.9295 280.096 82.0975 280.312 81.1055 280.312ZM77.3615 273.88C77.3615 275.32 77.7055 276.528 78.3935 277.504C79.0975 278.464 80.0655 278.944 81.2975 278.944C82.0815 278.944 82.7695 278.736 83.3615 278.32C83.9695 277.904 84.4415 277.32 84.7775 276.568C85.1135 275.8 85.2815 274.904 85.2815 273.88C85.2815 272.872 85.1135 271.992 84.7775 271.24C84.4415 270.472 83.9695 269.88 83.3615 269.464C82.7695 269.048 82.0815 268.84 81.2975 268.84C80.4815 268.84 79.7695 269.064 79.1615 269.512C78.5695 269.96 78.1215 270.568 77.8175 271.336C77.5135 272.104 77.3615 272.952 77.3615 273.88ZM99.9789 284.392C98.3789 284.392 97.1229 284.048 96.2109 283.36C95.3149 282.672 94.8189 281.768 94.7229 280.648H96.3549C96.4829 281.352 96.8429 281.92 97.4349 282.352C98.0269 282.8 98.8829 283.024 100.003 283.024C102.627 283.024 103.939 281.832 103.939 279.448V277.168H103.891C103.507 277.856 102.963 278.408 102.259 278.824C101.571 279.224 100.739 279.424 99.7629 279.424C98.7549 279.424 97.8429 279.2 97.0269 278.752C96.2269 278.304 95.5869 277.632 95.1069 276.736C94.6269 275.84 94.3869 274.736 94.3869 273.424C94.3869 272.128 94.6269 271.032 95.1069 270.136C95.5869 269.24 96.2269 268.576 97.0269 268.144C97.8429 267.696 98.7549 267.472 99.7629 267.472C100.739 267.472 101.571 267.68 102.259 268.096C102.963 268.496 103.507 269.024 103.891 269.68H103.939V267.76H105.499V279.232C105.499 280.928 105.011 282.208 104.035 283.072C103.059 283.952 101.707 284.392 99.9789 284.392ZM96.0189 273.424C96.0189 274.848 96.3629 275.976 97.0509 276.808C97.7549 277.64 98.7309 278.056 99.9789 278.056C101.163 278.056 102.115 277.664 102.835 276.88C103.571 276.096 103.939 274.944 103.939 273.424C103.939 271.936 103.571 270.8 102.835 270.016C102.115 269.232 101.163 268.84 99.9789 268.84C98.7309 268.84 97.7549 269.256 97.0509 270.088C96.3629 270.92 96.0189 272.032 96.0189 273.424ZM113.554 280.336C112.354 280.336 111.306 280.064 110.41 279.52C109.53 278.976 108.85 278.224 108.37 277.264C107.906 276.288 107.674 275.168 107.674 273.904C107.674 272.64 107.906 271.52 108.37 270.544C108.85 269.568 109.53 268.808 110.41 268.264C111.306 267.72 112.354 267.448 113.554 267.448C114.754 267.448 115.794 267.72 116.674 268.264C117.57 268.808 118.25 269.568 118.714 270.544C119.194 271.52 119.434 272.64 119.434 273.904C119.434 275.168 119.194 276.288 118.714 277.264C118.25 278.224 117.57 278.976 116.674 279.52C115.794 280.064 114.754 280.336 113.554 280.336ZM109.306 273.904C109.306 275.376 109.666 276.592 110.386 277.552C111.122 278.496 112.178 278.968 113.554 278.968C114.93 278.968 115.978 278.496 116.698 277.552C117.434 276.592 117.802 275.376 117.802 273.904C117.802 272.416 117.434 271.2 116.698 270.256C115.978 269.296 114.93 268.816 113.554 268.816C112.178 268.816 111.122 269.296 110.386 270.256C109.666 271.2 109.306 272.416 109.306 273.904ZM124.995 280.312C123.779 280.312 122.803 280 122.067 279.376C121.347 278.752 120.987 277.928 120.987 276.904C120.987 276.056 121.179 275.368 121.563 274.84C121.947 274.312 122.499 273.904 123.219 273.616C123.939 273.328 124.875 273.08 126.027 272.872C126.939 272.712 127.587 272.584 127.971 272.488C128.371 272.376 128.699 272.2 128.955 271.96C129.211 271.72 129.339 271.368 129.339 270.904C129.339 270.248 129.107 269.736 128.643 269.368C128.195 269 127.499 268.816 126.555 268.816C125.403 268.816 124.571 269.024 124.059 269.44C123.563 269.856 123.283 270.528 123.219 271.456H121.563C121.627 270.272 122.067 269.312 122.883 268.576C123.699 267.824 124.939 267.448 126.603 267.448C127.851 267.448 128.867 267.76 129.651 268.384C130.451 268.992 130.851 269.976 130.851 271.336V277.456C130.851 277.968 130.899 278.336 130.995 278.56C131.091 278.784 131.275 278.896 131.547 278.896C131.675 278.896 131.787 278.888 131.883 278.872V280C131.531 280.064 131.259 280.096 131.067 280.096C130.523 280.096 130.107 279.96 129.819 279.688C129.547 279.4 129.387 278.888 129.339 278.152H129.291C128.875 278.856 128.299 279.392 127.563 279.76C126.843 280.128 125.987 280.312 124.995 280.312ZM122.619 276.76C122.619 278.216 123.475 278.944 125.187 278.944C126.451 278.944 127.459 278.632 128.211 278.008C128.963 277.368 129.339 276.504 129.339 275.416V273.136C129.179 273.36 128.827 273.552 128.283 273.712C127.755 273.872 127.067 274.024 126.219 274.168C124.955 274.392 124.035 274.696 123.459 275.08C122.899 275.448 122.619 276.008 122.619 276.76ZM133.963 262.84H135.523V280H133.963V262.84ZM142.905 280.312C141.241 280.312 139.937 279.912 138.993 279.112C138.049 278.296 137.561 277.256 137.529 275.992H139.161C139.209 276.888 139.545 277.608 140.169 278.152C140.793 278.68 141.713 278.944 142.929 278.944C144.017 278.944 144.809 278.736 145.305 278.32C145.801 277.888 146.049 277.336 146.049 276.664C146.049 276.168 145.913 275.776 145.641 275.488C145.385 275.184 145.057 274.96 144.657 274.816C144.257 274.672 143.729 274.528 143.073 274.384C142.977 274.368 142.793 274.328 142.521 274.264C141.497 274.008 140.689 273.768 140.097 273.544C139.505 273.32 139.001 272.984 138.585 272.536C138.185 272.088 137.985 271.496 137.985 270.76C137.985 269.752 138.369 268.952 139.137 268.36C139.905 267.768 140.969 267.472 142.329 267.472C143.833 267.472 144.993 267.824 145.809 268.528C146.641 269.216 147.113 270.104 147.225 271.192H145.593C145.273 269.624 144.193 268.84 142.353 268.84C141.473 268.84 140.793 269 140.313 269.32C139.849 269.64 139.617 270.088 139.617 270.664C139.617 271.096 139.745 271.44 140.001 271.696C140.257 271.952 140.577 272.152 140.961 272.296C141.361 272.44 141.897 272.584 142.569 272.728L143.121 272.872C144.097 273.112 144.897 273.36 145.521 273.616C146.145 273.856 146.665 274.216 147.081 274.696C147.497 275.176 147.705 275.816 147.705 276.616C147.705 277.736 147.281 278.632 146.433 279.304C145.585 279.976 144.409 280.312 142.905 280.312ZM149.449 277.984H151.465V280H149.449V277.984Z" fill="black"/>
<path d="M284.85 139.517C281.905 139.517 279.517 141.904 279.517 144.85C279.517 147.796 281.905 150.183 284.85 150.183C287.796 150.183 290.183 147.796 290.183 144.85C290.183 141.904 287.796 139.517 284.85 139.517ZM385.15 239.817C382.204 239.817 379.817 242.204 379.817 245.15C379.817 248.096 382.204 250.483 385.15 250.483C388.096 250.483 390.483 248.096 390.483 245.15C390.483 242.204 388.096 239.817 385.15 239.817ZM284.85 239.817C281.905 239.817 279.517 242.204 279.517 245.15C279.517 248.096 281.905 250.483 284.85 250.483C287.796 250.483 290.183 248.096 290.183 245.15C290.183 242.204 287.796 239.817 284.85 239.817ZM385.15 139.517C382.204 139.517 379.817 141.904 379.817 144.85C379.817 147.796 382.204 150.183 385.15 150.183C388.096 150.183 390.483 147.796 390.483 144.85C390.483 141.904 388.096 139.517 385.15 139.517ZM335 138.667C332.054 138.667 329.667 141.054 329.667 144C329.667 146.946 332.054 149.333 335 149.333C337.946 149.333 340.333 146.946 340.333 144C340.333 141.054 337.946 138.667 335 138.667ZM335 172.667C332.054 172.667 329.667 175.054 329.667 178C329.667 180.946 332.054 183.333 335 183.333C337.946 183.333 340.333 180.946 340.333 178C340.333 175.054 337.946 172.667 335 172.667ZM352 189.667C349.054 189.667 346.667 192.054 346.667 195C346.667 197.946 349.054 200.333 352 200.333C354.946 200.333 357.333 197.946 357.333 195C357.333 192.054 354.946 189.667 352 189.667ZM386 189.667C383.054 189.667 380.667 192.054 380.667 195C380.667 197.946 383.054 200.333 386 200.333C388.946 200.333 391.333 197.946 391.333 195C391.333 192.054 388.946 189.667 386 189.667ZM335 206.667C332.054 206.667 329.667 209.054 329.667 212C329.667 214.946 332.054 217.333 335 217.333C337.946 217.333 340.333 214.946 340.333 212C340.333 209.054 337.946 206.667 335 206.667ZM335 240.667C332.054 240.667 329.667 243.054 329.667 246C329.667 248.946 332.054 251.333 335 251.333C337.946 251.333 340.333 248.946 340.333 246C340.333 243.054 337.946 240.667 335 240.667ZM284 189.667C281.054 189.667 278.667 192.054 278.667 195C278.667 197.946 281.054 200.333 284 200.333C286.946 200.333 289.333 197.946 289.333 195C289.333 192.054 286.946 189.667 284 189.667ZM318 189.667C315.054 189.667 312.667 192.054 312.667 195C312.667 197.946 315.054 200.333 318 200.333C320.946 200.333 323.333 197.946 323.333 195C323.333 192.054 320.946 189.667 318 189.667ZM284.85 144.85L284.143 145.557L285.188 146.602L285.895 145.895L286.602 145.188L285.557 144.143L284.85 144.85ZM287.984 147.984L287.277 148.691L289.367 150.781L290.074 150.074L290.781 149.367L288.692 147.277L287.984 147.984ZM292.164 152.164L291.456 152.871L293.546 154.96L294.253 154.253L294.96 153.546L292.871 151.456L292.164 152.164ZM296.343 156.343L295.636 157.05L297.725 159.139L298.432 158.432L299.139 157.725L297.05 155.636L296.343 156.343ZM300.522 160.522L299.815 161.229L301.904 163.319L302.611 162.611L303.319 161.904L301.229 159.815L300.522 160.522ZM304.701 164.701L303.994 165.408L306.084 167.498L306.791 166.791L307.498 166.084L305.408 163.994L304.701 164.701ZM308.88 168.88L308.173 169.587L310.263 171.677L310.97 170.97L311.677 170.263L309.587 168.173L308.88 168.88ZM313.059 173.059L312.352 173.766L314.442 175.856L315.149 175.149L315.856 174.442L313.766 172.352L313.059 173.059ZM317.239 177.239L316.531 177.946L318.621 180.035L319.328 179.328L320.035 178.621L317.946 176.531L317.239 177.239ZM321.418 181.418L320.711 182.125L322.8 184.214L323.507 183.507L324.214 182.8L322.125 180.711L321.418 181.418ZM325.597 185.597L324.89 186.304L326.979 188.394L327.686 187.686L328.394 186.979L326.304 184.89L325.597 185.597ZM329.776 189.776L329.069 190.483L331.159 192.573L331.866 191.866L332.573 191.159L330.483 189.069L329.776 189.776ZM333.955 193.955L333.248 194.662L335.338 196.752L336.045 196.045L336.752 195.338L334.662 193.248L333.955 193.955ZM338.134 198.134L337.427 198.841L339.517 200.931L340.224 200.224L340.931 199.517L338.841 197.427L338.134 198.134ZM342.314 202.314L341.606 203.021L343.696 205.11L344.403 204.403L345.11 203.696L343.021 201.606L342.314 202.314ZM346.493 206.493L345.786 207.2L347.875 209.289L348.582 208.582L349.289 207.875L347.2 205.786L346.493 206.493ZM350.672 210.672L349.965 211.379L352.054 213.469L352.761 212.761L353.469 212.054L351.379 209.965L350.672 210.672ZM354.851 214.851L354.144 215.558L356.234 217.648L356.941 216.941L357.648 216.234L355.558 214.144L354.851 214.851ZM359.03 219.03L358.323 219.737L360.413 221.827L361.12 221.12L361.827 220.413L359.737 218.323L359.03 219.03ZM363.209 223.209L362.502 223.916L364.592 226.006L365.299 225.299L366.006 224.592L363.916 222.502L363.209 223.209ZM367.389 227.389L366.681 228.096L368.771 230.185L369.478 229.478L370.185 228.771L368.096 226.681L367.389 227.389ZM371.568 231.568L370.861 232.275L372.95 234.364L373.657 233.657L374.364 232.95L372.275 230.861L371.568 231.568ZM375.747 235.747L375.04 236.454L377.129 238.544L377.836 237.836L378.544 237.129L376.454 235.04L375.747 235.747ZM379.926 239.926L379.219 240.633L381.309 242.723L382.016 242.016L382.723 241.309L380.633 239.219L379.926 239.926ZM384.105 244.105L383.398 244.812L384.443 245.857L385.15 245.15L385.857 244.443L384.812 243.398L384.105 244.105ZM385.15 144.85L384.443 144.143L383.398 145.188L384.105 145.895L384.812 146.602L385.857 145.557L385.15 144.85ZM382.016 147.984L381.309 147.277L379.219 149.367L379.926 150.074L380.633 150.781L382.723 148.691L382.016 147.984ZM377.836 152.164L377.129 151.456L375.04 153.546L375.747 154.253L376.454 154.96L378.544 152.871L377.836 152.164ZM373.657 156.343L372.95 155.636L370.861 157.725L371.568 158.432L372.275 159.139L374.364 157.05L373.657 156.343ZM369.478 160.522L368.771 159.815L366.681 161.904L367.389 162.611L368.096 163.319L370.185 161.229L369.478 160.522ZM365.299 164.701L364.592 163.994L362.502 166.084L363.209 166.791L363.916 167.498L366.006 165.408L365.299 164.701ZM361.12 168.88L360.413 168.173L358.323 170.263L359.03 170.97L359.737 171.677L361.827 169.587L361.12 168.88ZM356.941 173.059L356.234 172.352L354.144 174.442L354.851 175.149L355.558 175.856L357.648 173.766L356.941 173.059ZM352.761 177.239L352.054 176.531L349.965 178.621L350.672 179.328L351.379 180.035L353.469 177.946L352.761 177.239ZM348.582 181.418L347.875 180.711L345.786 182.8L346.493 183.507L347.2 184.214L349.289 182.125L348.582 181.418ZM344.403 185.597L343.696 184.89L341.606 186.979L342.314 187.686L343.021 188.394L345.11 186.304L344.403 185.597ZM340.224 189.776L339.517 189.069L337.427 191.159L338.134 191.866L338.841 192.573L340.931 190.483L340.224 189.776ZM336.045 193.955L335.338 193.248L333.248 195.338L333.955 196.045L334.662 196.752L336.752 194.662L336.045 193.955ZM331.866 198.134L331.159 197.427L329.069 199.517L329.776 200.224L330.483 200.931L332.573 198.841L331.866 198.134ZM327.686 202.314L326.979 201.606L324.89 203.696L325.597 204.403L326.304 205.11L328.394 203.021L327.686 202.314ZM323.507 206.493L322.8 205.786L320.711 207.875L321.418 208.582L322.125 209.289L324.214 207.2L323.507 206.493ZM319.328 210.672L318.621 209.965L316.531 212.054L317.239 212.761L317.946 213.469L320.035 211.379L319.328 210.672ZM315.149 214.851L314.442 214.144L312.352 216.234L313.059 216.941L313.767 217.648L315.856 215.558L315.149 214.851ZM310.97 219.03L310.263 218.323L308.173 220.413L308.88 221.12L309.587 221.827L311.677 219.737L310.97 219.03ZM306.791 223.209L306.084 222.502L303.994 224.592L304.701 225.299L305.408 226.006L307.498 223.916L306.791 223.209ZM302.611 227.389L301.904 226.681L299.815 228.771L300.522 229.478L301.229 230.185L303.319 228.096L302.611 227.389ZM298.432 231.568L297.725 230.861L295.636 232.95L296.343 233.657L297.05 234.364L299.139 232.275L298.432 231.568ZM294.253 235.747L293.546 235.04L291.456 237.129L292.164 237.836L292.871 238.544L294.96 236.454L294.253 235.747ZM290.074 239.926L289.367 239.219L287.277 241.309L287.984 242.016L288.692 242.723L290.781 240.633L290.074 239.926ZM285.895 244.105L285.188 243.398L284.143 244.443L284.85 245.15L285.557 245.857L286.602 244.812L285.895 244.105ZM335 144L334 144L334 145.417L335 145.417L336 145.417L336 144L335 144ZM335 148.25L334 148.25L334 151.083L335 151.083L336 151.083L336 148.25L335 148.25ZM335 153.917L334 153.917L334 156.75L335 156.75L336 156.75L336 153.917L335 153.917ZM335 159.583L334 159.583L334 162.417L335 162.417L336 162.417L336 159.583L335 159.583ZM335 165.25L334 165.25L334 168.083L335 168.083L336 168.083L336 165.25L335 165.25ZM335 170.917L334 170.917L334 173.75L335 173.75L336 173.75L336 170.917L335 170.917ZM335 176.583L334 176.583L334 178L335 178L336 178L336 176.583L335 176.583ZM386 195L386 194L384.583 194L384.583 195L384.583 196L386 196L386 195ZM381.75 195L381.75 194L378.917 194L378.917 195L378.917 196L381.75 196L381.75 195ZM376.083 195L376.083 194L373.25 194L373.25 195L373.25 196L376.083 196L376.083 195ZM370.417 195L370.417 194L367.583 194L367.583 195L367.583 196L370.417 196L370.417 195ZM364.75 195L364.75 194L361.917 194L361.917 195L361.917 196L364.75 196L364.75 195ZM359.083 195L359.083 194L356.25 194L356.25 195L356.25 196L359.083 196L359.083 195ZM353.417 195L353.417 194L352 194L352 195L352 196L353.417 196L353.417 195ZM335 212L334 212L334 213.417L335 213.417L336 213.417L336 212L335 212ZM335 216.25L334 216.25L334 219.083L335 219.083L336 219.083L336 216.25L335 216.25ZM335 221.917L334 221.917L334 224.75L335 224.75L336 224.75L336 221.917L335 221.917ZM335 227.583L334 227.583L334 230.417L335 230.417L336 230.417L336 227.583L335 227.583ZM335 233.25L334 233.25L334 236.083L335 236.083L336 236.083L336 233.25L335 233.25ZM335 238.917L334 238.917L334 241.75L335 241.75L336 241.75L336 238.917L335 238.917ZM335 244.583L334 244.583L334 246L335 246L336 246L336 244.583L335 244.583ZM318 195L318 194L316.583 194L316.583 195L316.583 196L318 196L318 195ZM313.75 195L313.75 194L310.917 194L310.917 195L310.917 196L313.75 196L313.75 195ZM308.083 195L308.083 194L305.25 194L305.25 195L305.25 196L308.083 196L308.083 195ZM302.417 195L302.417 194L299.583 194L299.583 195L299.583 196L302.417 196L302.417 195ZM296.75 195L296.75 194L293.917 194L293.917 195L293.917 196L296.75 196L296.75 195ZM291.083 195L291.083 194L288.25 194L288.25 195L288.25 196L291.083 196L291.083 195ZM285.417 195L285.417 194L284 194L284 195L284 196L285.417 196L285.417 195Z" fill="#0D0C50"/>
</svg>
