<svg width="844" height="390" viewBox="0 0 844 390" fill="none" xmlns="http://www.w3.org/2000/svg">
<g clip-path="url(#clip0_2_202)">
<rect width="390" height="844" transform="matrix(0 -1 1 0 0 390)" fill="white"/>
<rect width="844" height="390" fill="white"/>
<rect x="57" y="37" width="403" height="316" rx="20" fill="#E5E0E0"/>
<path d="M235.66 197.39C235.327 197.863 234.923 198.307 234.45 198.72C233.977 199.127 233.437 199.46 232.83 199.72C232.23 199.973 231.557 200.1 230.81 200.1C229.97 200.1 229.22 199.927 228.56 199.58C227.907 199.227 227.35 198.74 226.89 198.12C226.437 197.5 226.09 196.78 225.85 195.96C225.617 195.133 225.5 194.247 225.5 193.3C225.5 192.067 225.703 190.957 226.11 189.97C226.517 188.977 227.117 188.19 227.91 187.61C228.71 187.03 229.683 186.74 230.83 186.74C231.79 186.74 232.677 186.953 233.49 187.38C234.303 187.807 234.92 188.4 235.34 189.16C235.233 189.28 235.083 189.42 234.89 189.58C234.697 189.74 234.5 189.893 234.3 190.04C234.107 190.18 233.94 190.293 233.8 190.38C233.753 190.28 233.667 190.13 233.54 189.93C233.42 189.73 233.243 189.527 233.01 189.32C232.783 189.113 232.487 188.937 232.12 188.79C231.753 188.637 231.303 188.56 230.77 188.56C230.383 188.56 230.007 188.653 229.64 188.84C229.273 189.02 228.943 189.3 228.65 189.68C228.357 190.053 228.123 190.54 227.95 191.14C227.777 191.733 227.69 192.44 227.69 193.26C227.69 193.933 227.77 194.563 227.93 195.15C228.09 195.737 228.31 196.25 228.59 196.69C228.87 197.13 229.197 197.473 229.57 197.72C229.943 197.967 230.347 198.09 230.78 198.09C231.333 198.09 231.827 197.98 232.26 197.76C232.7 197.533 233.08 197.26 233.4 196.94C233.727 196.613 234.003 196.307 234.23 196.02C234.37 196.107 234.537 196.233 234.73 196.4C234.923 196.567 235.103 196.74 235.27 196.92C235.443 197.093 235.573 197.25 235.66 197.39ZM239.107 200.15C238.981 200.15 238.821 200.147 238.627 200.14C238.441 200.133 238.244 200.123 238.037 200.11C237.831 200.103 237.634 200.093 237.447 200.08C237.261 200.073 237.104 200.063 236.977 200.05C237.044 199.703 237.137 199.217 237.257 198.59C237.384 197.963 237.534 197.253 237.707 196.46C237.881 195.66 238.064 194.823 238.257 193.95C238.451 193.077 238.647 192.21 238.847 191.35C239.054 190.483 239.251 189.67 239.437 188.91C239.624 188.15 239.791 187.497 239.937 186.95C240.344 186.89 240.837 186.83 241.417 186.77C242.004 186.71 242.601 186.68 243.207 186.68C243.467 186.68 243.737 186.687 244.017 186.7C244.297 186.713 244.564 186.737 244.817 186.77C244.944 187.357 245.071 188.057 245.197 188.87C245.331 189.683 245.457 190.63 245.577 191.71C245.704 192.79 245.827 194.017 245.947 195.39C246.074 196.757 246.197 198.293 246.317 200C246.164 200.027 245.961 200.05 245.707 200.07C245.454 200.097 245.191 200.117 244.917 200.13C244.651 200.143 244.404 200.15 244.177 200.15C244.164 199.957 244.151 199.703 244.137 199.39C244.124 199.077 244.107 198.73 244.087 198.35C244.067 197.963 244.047 197.58 244.027 197.2C244.007 196.813 243.987 196.457 243.967 196.13C243.947 195.803 243.931 195.537 243.917 195.33C243.704 195.337 243.444 195.347 243.137 195.36C242.831 195.373 242.507 195.393 242.167 195.42C241.834 195.44 241.511 195.463 241.197 195.49C240.891 195.517 240.624 195.543 240.397 195.57C240.171 195.597 240.021 195.617 239.947 195.63C239.827 196.197 239.711 196.77 239.597 197.35C239.484 197.923 239.384 198.457 239.297 198.95C239.211 199.437 239.147 199.837 239.107 200.15ZM240.217 193.91C240.464 193.857 240.804 193.807 241.237 193.76C241.677 193.713 242.134 193.673 242.607 193.64C243.087 193.607 243.504 193.583 243.857 193.57C243.844 193.363 243.821 193.033 243.787 192.58C243.754 192.127 243.714 191.63 243.667 191.09C243.621 190.55 243.574 190.04 243.527 189.56C243.487 189.073 243.444 188.697 243.397 188.43C243.244 188.43 243.024 188.44 242.737 188.46C242.457 188.473 242.184 188.493 241.917 188.52C241.657 188.54 241.474 188.557 241.367 188.57C241.327 188.743 241.267 189.007 241.187 189.36C241.107 189.707 241.014 190.123 240.907 190.61C240.801 191.09 240.687 191.613 240.567 192.18C240.454 192.74 240.337 193.317 240.217 193.91ZM248.538 200.11C248.538 199.463 248.542 198.697 248.548 197.81C248.562 196.917 248.575 195.977 248.588 194.99C248.608 193.997 248.628 193.02 248.648 192.06C248.675 191.1 248.698 190.22 248.718 189.42C248.745 188.62 248.768 187.973 248.788 187.48C249.002 187.46 249.245 187.443 249.518 187.43C249.798 187.417 250.075 187.407 250.348 187.4C250.622 187.387 250.855 187.38 251.048 187.38C251.248 187.38 251.365 187.38 251.398 187.38C251.405 187.407 251.462 187.597 251.568 187.95C251.682 188.297 251.825 188.753 251.998 189.32C252.172 189.887 252.358 190.513 252.558 191.2C252.765 191.887 252.972 192.583 253.178 193.29C253.385 193.99 253.578 194.657 253.758 195.29C253.938 195.917 254.085 196.457 254.198 196.91C254.312 197.357 254.378 197.667 254.398 197.84L254.158 197.86C254.238 197.633 254.362 197.263 254.528 196.75C254.702 196.23 254.895 195.627 255.108 194.94C255.328 194.247 255.555 193.523 255.788 192.77C256.022 192.017 256.245 191.283 256.458 190.57C256.678 189.857 256.865 189.22 257.018 188.66C257.178 188.1 257.292 187.67 257.358 187.37C257.545 187.37 257.782 187.377 258.068 187.39C258.362 187.403 258.652 187.42 258.938 187.44C259.232 187.453 259.465 187.477 259.638 187.51C259.772 188.137 259.862 188.97 259.908 190.01C259.955 191.043 259.978 192.133 259.978 193.28C259.978 194.113 259.972 194.963 259.958 195.83C259.945 196.69 259.925 197.49 259.898 198.23C259.872 198.963 259.838 199.563 259.798 200.03C259.592 200.03 259.365 200.023 259.118 200.01C258.872 200.003 258.635 199.993 258.408 199.98C258.188 199.96 258.005 199.947 257.858 199.94C257.925 199.28 257.972 198.523 257.998 197.67C258.032 196.817 258.052 195.947 258.058 195.06C258.065 194.513 258.068 193.947 258.068 193.36C258.068 192.767 258.068 192.22 258.068 191.72C258.068 191.213 258.068 190.83 258.068 190.57C257.988 190.89 257.862 191.323 257.688 191.87C257.522 192.417 257.328 193.023 257.108 193.69C256.895 194.35 256.672 195.02 256.438 195.7C256.212 196.38 255.992 197.023 255.778 197.63C255.565 198.23 255.378 198.74 255.218 199.16C255.065 199.58 254.952 199.857 254.878 199.99C254.805 199.997 254.705 200 254.578 200C254.452 200.007 254.342 200.01 254.248 200.01C254.115 200.01 253.975 200.003 253.828 199.99C253.688 199.977 253.542 199.963 253.388 199.95C253.375 199.89 253.325 199.703 253.238 199.39C253.152 199.07 253.038 198.66 252.898 198.16C252.758 197.653 252.602 197.1 252.428 196.5C252.255 195.893 252.078 195.273 251.898 194.64C251.718 194.007 251.542 193.397 251.368 192.81C251.202 192.217 251.048 191.687 250.908 191.22C250.775 190.753 250.668 190.387 250.588 190.12C250.588 190.787 250.588 191.533 250.588 192.36C250.588 193.18 250.588 194.01 250.588 194.85C250.588 195.69 250.585 196.477 250.578 197.21C250.578 197.943 250.578 198.567 250.578 199.08C250.578 199.587 250.578 199.913 250.578 200.06C250.425 200.067 250.232 200.073 249.998 200.08C249.765 200.087 249.518 200.093 249.258 200.1C249.005 200.107 248.765 200.11 248.538 200.11ZM269.557 200.11C268.837 200.07 268.134 200.033 267.447 200C266.767 199.973 266.064 199.953 265.337 199.94C264.911 199.927 264.464 199.913 263.997 199.9C263.531 199.887 263.084 199.877 262.657 199.87C262.617 198.823 262.587 197.79 262.567 196.77C262.554 195.75 262.547 194.78 262.547 193.86C262.547 192.2 262.557 190.827 262.577 189.74C262.604 188.647 262.631 187.897 262.657 187.49C263.851 187.29 264.957 187.14 265.977 187.04C266.997 186.933 267.851 186.863 268.537 186.83C269.224 186.79 269.657 186.77 269.837 186.77C269.837 187.07 269.827 187.35 269.807 187.61C269.794 187.863 269.774 188.14 269.747 188.44L264.657 188.85C264.644 189.003 264.634 189.227 264.627 189.52C264.621 189.813 264.614 190.127 264.607 190.46C264.601 190.793 264.594 191.107 264.587 191.4C264.587 191.693 264.587 191.913 264.587 192.06C264.741 192.06 264.967 192.057 265.267 192.05C265.567 192.037 265.904 192.027 266.277 192.02C266.651 192.007 267.024 191.997 267.397 191.99C267.777 191.977 268.124 191.967 268.437 191.96C268.757 191.953 269.007 191.95 269.187 191.95L269.217 193.71C269.117 193.71 268.917 193.707 268.617 193.7C268.317 193.693 267.964 193.69 267.557 193.69C267.157 193.683 266.751 193.68 266.337 193.68C265.924 193.673 265.554 193.67 265.227 193.67C264.907 193.67 264.681 193.67 264.547 193.67C264.541 193.757 264.537 193.93 264.537 194.19C264.537 194.443 264.537 194.743 264.537 195.09C264.537 195.437 264.534 195.793 264.527 196.16C264.527 196.527 264.527 196.873 264.527 197.2C264.527 197.52 264.527 197.78 264.527 197.98C264.674 197.973 264.934 197.97 265.307 197.97C265.681 197.963 266.031 197.96 266.357 197.96C266.797 197.96 267.237 197.967 267.677 197.98C268.117 197.993 268.524 198.01 268.897 198.03C269.271 198.043 269.567 198.06 269.787 198.08C269.781 198.247 269.767 198.437 269.747 198.65C269.734 198.857 269.714 199.06 269.687 199.26C269.667 199.46 269.644 199.637 269.617 199.79C269.597 199.943 269.577 200.05 269.557 200.11ZM272.688 200.27C272.648 199.523 272.601 198.613 272.548 197.54C272.494 196.46 272.438 195.303 272.378 194.07C272.318 192.83 272.254 191.597 272.188 190.37C272.128 189.137 272.071 188.003 272.018 186.97C272.258 186.95 272.548 186.927 272.888 186.9C273.234 186.873 273.601 186.85 273.988 186.83C274.381 186.803 274.771 186.783 275.158 186.77C275.544 186.757 275.898 186.75 276.217 186.75C276.711 186.75 277.198 186.797 277.678 186.89C278.158 186.983 278.591 187.147 278.978 187.38C279.364 187.613 279.671 187.943 279.898 188.37C280.131 188.79 280.248 189.333 280.248 190C280.248 190.687 280.081 191.327 279.748 191.92C279.421 192.513 278.924 192.943 278.258 193.21C278.411 193.463 278.581 193.8 278.768 194.22C278.961 194.633 279.158 195.09 279.358 195.59C279.558 196.083 279.748 196.58 279.928 197.08C280.114 197.58 280.278 198.047 280.418 198.48C280.558 198.907 280.661 199.257 280.728 199.53C280.608 199.61 280.448 199.687 280.248 199.76C280.054 199.833 279.851 199.9 279.638 199.96C279.431 200.02 279.248 200.07 279.088 200.11C278.928 200.15 278.821 200.17 278.768 200.17C278.701 199.797 278.601 199.367 278.468 198.88C278.334 198.387 278.181 197.88 278.008 197.36C277.834 196.833 277.661 196.33 277.488 195.85C277.314 195.363 277.154 194.93 277.008 194.55C276.861 194.17 276.741 193.883 276.648 193.69C276.394 193.757 276.121 193.813 275.828 193.86C275.541 193.907 275.271 193.943 275.018 193.97C274.764 193.99 274.571 194.003 274.438 194.01C274.451 194.123 274.471 194.357 274.498 194.71C274.524 195.057 274.554 195.473 274.588 195.96C274.621 196.447 274.654 196.953 274.688 197.48C274.721 198.007 274.751 198.503 274.778 198.97C274.811 199.437 274.838 199.827 274.858 200.14C274.691 200.173 274.481 200.2 274.228 200.22C273.981 200.24 273.721 200.253 273.448 200.26C273.174 200.267 272.921 200.27 272.688 200.27ZM274.288 192.42C274.574 192.42 274.864 192.407 275.158 192.38C275.451 192.353 275.781 192.303 276.148 192.23C276.781 192.097 277.261 191.933 277.588 191.74C277.921 191.54 278.144 191.303 278.258 191.03C278.378 190.75 278.438 190.423 278.438 190.05C278.438 189.503 278.324 189.103 278.098 188.85C277.871 188.597 277.571 188.433 277.198 188.36C276.831 188.28 276.424 188.24 275.978 188.24C275.871 188.24 275.718 188.247 275.518 188.26C275.324 188.267 275.118 188.28 274.898 188.3C274.684 188.313 274.491 188.33 274.318 188.35C274.144 188.363 274.024 188.373 273.958 188.38C273.964 188.493 273.978 188.69 273.998 188.97C274.024 189.243 274.051 189.557 274.078 189.91C274.111 190.263 274.141 190.613 274.168 190.96C274.194 191.307 274.218 191.613 274.238 191.88C274.264 192.147 274.281 192.327 274.288 192.42ZM284.615 200.15C284.488 200.15 284.328 200.147 284.135 200.14C283.948 200.133 283.752 200.123 283.545 200.11C283.338 200.103 283.142 200.093 282.955 200.08C282.768 200.073 282.612 200.063 282.485 200.05C282.552 199.703 282.645 199.217 282.765 198.59C282.892 197.963 283.042 197.253 283.215 196.46C283.388 195.66 283.572 194.823 283.765 193.95C283.958 193.077 284.155 192.21 284.355 191.35C284.562 190.483 284.758 189.67 284.945 188.91C285.132 188.15 285.298 187.497 285.445 186.95C285.852 186.89 286.345 186.83 286.925 186.77C287.512 186.71 288.108 186.68 288.715 186.68C288.975 186.68 289.245 186.687 289.525 186.7C289.805 186.713 290.072 186.737 290.325 186.77C290.452 187.357 290.578 188.057 290.705 188.87C290.838 189.683 290.965 190.63 291.085 191.71C291.212 192.79 291.335 194.017 291.455 195.39C291.582 196.757 291.705 198.293 291.825 200C291.672 200.027 291.468 200.05 291.215 200.07C290.962 200.097 290.698 200.117 290.425 200.13C290.158 200.143 289.912 200.15 289.685 200.15C289.672 199.957 289.658 199.703 289.645 199.39C289.632 199.077 289.615 198.73 289.595 198.35C289.575 197.963 289.555 197.58 289.535 197.2C289.515 196.813 289.495 196.457 289.475 196.13C289.455 195.803 289.438 195.537 289.425 195.33C289.212 195.337 288.952 195.347 288.645 195.36C288.338 195.373 288.015 195.393 287.675 195.42C287.342 195.44 287.018 195.463 286.705 195.49C286.398 195.517 286.132 195.543 285.905 195.57C285.678 195.597 285.528 195.617 285.455 195.63C285.335 196.197 285.218 196.77 285.105 197.35C284.992 197.923 284.892 198.457 284.805 198.95C284.718 199.437 284.655 199.837 284.615 200.15ZM285.725 193.91C285.972 193.857 286.312 193.807 286.745 193.76C287.185 193.713 287.642 193.673 288.115 193.64C288.595 193.607 289.012 193.583 289.365 193.57C289.352 193.363 289.328 193.033 289.295 192.58C289.262 192.127 289.222 191.63 289.175 191.09C289.128 190.55 289.082 190.04 289.035 189.56C288.995 189.073 288.952 188.697 288.905 188.43C288.752 188.43 288.532 188.44 288.245 188.46C287.965 188.473 287.692 188.493 287.425 188.52C287.165 188.54 286.982 188.557 286.875 188.57C286.835 188.743 286.775 189.007 286.695 189.36C286.615 189.707 286.522 190.123 286.415 190.61C286.308 191.09 286.195 191.613 286.075 192.18C285.962 192.74 285.845 193.317 285.725 193.91Z" fill="black"/>
<rect x="504" y="189.5" width="72" height="72" rx="36" fill="#6565EB"/>
<path fill-rule="evenodd" clip-rule="evenodd" d="M553.269 206.144L553.814 206.213C555.254 206.412 557.16 206.679 558.239 207.76C559.124 208.642 559.464 210.078 559.667 211.361L559.786 212.185C560.056 214.13 560.126 216.677 559.667 219.507C558.761 225.09 555.788 231.753 548.324 236.912C548.283 237.313 548.281 237.719 548.29 238.125L548.311 238.732C548.345 239.666 548.379 240.6 548.119 241.506C547.713 242.916 546.266 243.846 544.913 244.513L544.251 244.827L543.396 245.203C541.798 245.882 539.639 246.579 538.287 245.224C537.475 244.414 537.141 243.226 536.87 242.044L536.77 241.602C536.655 241.044 536.512 240.492 536.342 239.948C536.235 239.635 536.12 239.318 535.996 238.997C535.86 239.165 535.715 239.325 535.562 239.478C534.825 240.215 533.725 240.73 532.818 241.091C531.829 241.482 530.709 241.824 529.673 242.106L529.141 242.247L528.122 242.502L527.198 242.715L526.094 242.951L525.403 243.085C525.059 243.149 524.705 243.128 524.37 243.024C524.036 242.92 523.732 242.737 523.484 242.489C523.237 242.242 523.053 241.937 522.949 241.603C522.845 241.269 522.825 240.914 522.888 240.57L523.072 239.649L523.401 238.157L523.666 237.068L523.867 236.298C524.149 235.264 524.491 234.144 524.884 233.157C525.243 232.249 525.758 231.148 526.495 230.411L526.666 230.247L526.53 230.191C526.164 230.052 525.794 229.926 525.421 229.813L524.829 229.631C523.346 229.182 521.76 228.699 520.775 227.712C519.578 226.518 519.982 224.699 520.559 223.186L520.794 222.601L521.172 221.746L521.486 221.084C522.153 219.733 523.083 218.286 524.493 217.88C525.241 217.667 526.019 217.654 526.801 217.675L527.271 217.69C527.882 217.712 528.491 217.735 529.087 217.677C534.246 210.211 540.909 207.239 546.493 206.332C548.733 205.965 551.012 205.902 553.269 206.144ZM532.301 233.23C531.965 232.981 531.563 232.836 531.145 232.813C530.727 232.79 530.312 232.89 529.951 233.102L529.716 233.26L529.517 233.437L529.25 233.775C528.694 234.578 528.378 235.689 528.132 236.728L527.901 237.728L527.792 238.183L528.201 238.085L529.094 237.88C530.329 237.591 531.699 237.217 532.541 236.459C532.907 236.093 533.128 235.606 533.162 235.09C533.197 234.574 533.043 234.062 532.729 233.651L532.554 233.45L532.502 233.401L532.301 233.23ZM547.651 218.327C547.254 217.93 546.783 217.615 546.264 217.4C545.746 217.185 545.19 217.075 544.629 217.075C544.068 217.074 543.512 217.185 542.993 217.4C542.475 217.614 542.003 217.929 541.607 218.326C541.21 218.723 540.895 219.194 540.68 219.712C540.465 220.231 540.354 220.787 540.354 221.348C540.354 221.909 540.465 222.465 540.679 222.983C540.894 223.502 541.209 223.973 541.605 224.37C542.407 225.172 543.494 225.622 544.627 225.622C545.761 225.623 546.848 225.173 547.65 224.371C548.451 223.57 548.902 222.483 548.902 221.349C548.902 220.216 548.452 219.129 547.651 218.327Z" fill="#F6F6F6"/>
<rect x="600" y="189.5" width="72" height="72" rx="36" fill="#74C0FC"/>
<path d="M628.73 207.53C631.08 207.191 633.57 209.761 634.287 213.306C635.004 216.832 633.709 219.979 631.359 220.338C629.029 220.696 626.519 218.127 625.782 214.581C625.045 211.056 626.379 207.908 628.73 207.53ZM642.971 207.53C645.342 207.908 646.656 211.056 645.959 214.581C645.202 218.127 642.713 220.696 640.362 220.338C637.992 219.979 636.697 216.832 637.434 213.306C638.151 209.761 640.641 207.191 642.971 207.53ZM618.073 216.692C620.344 215.716 623.431 217.489 625.045 220.577C626.559 223.724 626.041 227.03 623.79 228.006C621.539 228.982 618.472 227.229 616.898 224.102C615.325 220.975 615.882 217.649 618.073 216.692ZM653.927 216.692C656.118 217.649 656.675 220.975 655.102 224.102C653.528 227.229 650.461 228.982 648.21 228.006C645.959 227.03 645.441 223.724 646.955 220.577C648.569 217.489 651.656 215.716 653.927 216.692ZM650.6 238.165C650.68 240.037 649.246 242.108 647.533 242.885C643.967 244.519 639.745 241.132 635.781 241.132C631.817 241.132 627.555 244.658 624.049 242.885C622.057 241.909 620.683 239.32 620.942 237.169C621.3 234.201 624.866 232.607 626.977 230.436C629.785 227.628 631.777 222.349 635.781 222.349C639.765 222.349 641.876 227.548 644.565 230.436C646.776 232.866 650.461 234.918 650.6 238.165Z" fill="#F6F6F6"/>
<rect x="696" y="189.5" width="72" height="72" rx="36" fill="#FC644D"/>
<path d="M732 202C718.745 202 708 212.745 708 226C708 239.255 718.745 250 732 250C745.255 250 756 239.255 756 226C756 212.745 745.255 202 732 202ZM739.964 236.606C739.586 236.982 739.19 237.376 738.869 237.698C738.58 237.988 738.375 238.346 738.272 238.735C738.126 239.282 738.008 239.836 737.81 240.367L736.127 244.901C734.796 245.191 733.418 245.355 732 245.355V242.705C732.164 241.484 731.261 239.196 729.81 237.745C729.229 237.165 728.903 236.377 728.903 235.555V232.458C728.903 231.331 728.296 230.296 727.31 229.751C725.92 228.982 723.942 227.906 722.587 227.224C721.476 226.665 720.448 225.953 719.524 225.119L719.446 225.05C718.786 224.453 718.199 223.779 717.699 223.043C716.791 221.71 715.312 219.518 714.351 218.094C716.332 213.69 719.902 210.154 724.338 208.233L726.662 209.395C727.692 209.91 728.903 209.162 728.903 208.011V206.917C729.676 206.792 730.463 206.713 731.264 206.683L734.002 209.422C734.607 210.026 734.607 211.007 734.002 211.612L733.548 212.065L732.548 213.065C732.246 213.367 732.246 213.858 732.548 214.16L733.002 214.614C733.304 214.915 733.304 215.406 733.002 215.708L732.227 216.482C732.155 216.554 732.07 216.611 731.976 216.65C731.882 216.689 731.781 216.709 731.68 216.709H730.81C730.608 216.709 730.415 216.787 730.27 216.928L729.31 217.862C729.192 217.977 729.114 218.126 729.086 218.288C729.059 218.45 729.084 218.616 729.157 218.763L730.665 221.782C730.923 222.296 730.548 222.902 729.974 222.902H729.428C729.241 222.902 729.061 222.835 728.921 222.713L728.023 221.933C727.819 221.756 727.574 221.636 727.31 221.583C727.046 221.531 726.773 221.548 726.518 221.633L723.501 222.638C723.271 222.715 723.071 222.862 722.929 223.059C722.787 223.256 722.711 223.493 722.711 223.735C722.711 224.174 722.958 224.574 723.35 224.77L724.423 225.306C725.333 225.762 726.338 225.999 727.356 225.999C728.374 225.999 729.542 228.64 730.453 229.096H736.912C737.734 229.096 738.521 229.422 739.102 230.003L740.427 231.327C740.701 231.602 740.919 231.927 741.067 232.285C741.215 232.643 741.291 233.027 741.291 233.415C741.291 234.008 741.174 234.595 740.946 235.143C740.718 235.691 740.384 236.188 739.964 236.606ZM748.355 227.766C747.795 227.626 747.306 227.282 746.985 226.801L745.245 224.191C744.991 223.81 744.855 223.362 744.855 222.903C744.855 222.445 744.991 221.996 745.245 221.615L747.141 218.772C747.366 218.436 747.674 218.163 748.035 217.983L749.292 217.355C750.6 219.96 751.355 222.891 751.355 226C751.355 226.839 751.283 227.661 751.179 228.472L748.355 227.766Z" fill="#F6F6F6"/>
<path d="M533.67 141.12C533.043 141.12 532.447 141.03 531.88 140.85C531.32 140.663 530.803 140.423 530.33 140.13C529.863 139.83 529.457 139.503 529.11 139.15C528.763 138.797 528.5 138.45 528.32 138.11C528.36 138.057 528.437 137.977 528.55 137.87C528.663 137.757 528.793 137.64 528.94 137.52C529.087 137.393 529.23 137.277 529.37 137.17C529.517 137.057 529.637 136.973 529.73 136.92C529.877 137.127 530.07 137.373 530.31 137.66C530.55 137.947 530.833 138.23 531.16 138.51C531.493 138.783 531.87 139.013 532.29 139.2C532.717 139.38 533.183 139.47 533.69 139.47C534.33 139.47 534.847 139.35 535.24 139.11C535.633 138.863 535.92 138.56 536.1 138.2C536.28 137.833 536.37 137.47 536.37 137.11C536.37 136.77 536.28 136.47 536.1 136.21C535.92 135.95 535.673 135.72 535.36 135.52C535.047 135.313 534.683 135.127 534.27 134.96C533.857 134.793 533.42 134.64 532.96 134.5C532.173 134.253 531.48 133.973 530.88 133.66C530.28 133.347 529.81 132.957 529.47 132.49C529.13 132.023 528.96 131.437 528.96 130.73C528.96 130.01 529.157 129.413 529.55 128.94C529.943 128.46 530.467 128.103 531.12 127.87C531.773 127.63 532.48 127.51 533.24 127.51C533.94 127.51 534.593 127.603 535.2 127.79C535.813 127.977 536.347 128.21 536.8 128.49C537.253 128.763 537.59 129.043 537.81 129.33C537.75 129.423 537.653 129.557 537.52 129.73C537.387 129.903 537.247 130.073 537.1 130.24C536.96 130.407 536.837 130.537 536.73 130.63C536.55 130.43 536.29 130.21 535.95 129.97C535.617 129.723 535.213 129.513 534.74 129.34C534.273 129.16 533.737 129.07 533.13 129.07C532.463 129.07 531.93 129.23 531.53 129.55C531.13 129.863 530.93 130.287 530.93 130.82C530.93 131.107 531 131.353 531.14 131.56C531.28 131.767 531.463 131.943 531.69 132.09C531.917 132.23 532.167 132.353 532.44 132.46C532.713 132.567 532.987 132.657 533.26 132.73C533.92 132.93 534.553 133.14 535.16 133.36C535.773 133.58 536.32 133.843 536.8 134.15C537.287 134.457 537.67 134.837 537.95 135.29C538.23 135.737 538.37 136.287 538.37 136.94C538.37 137.487 538.263 138.01 538.05 138.51C537.837 139.01 537.527 139.457 537.12 139.85C536.72 140.243 536.23 140.553 535.65 140.78C535.07 141.007 534.41 141.12 533.67 141.12ZM549.913 138.77C549.78 138.957 549.583 139.173 549.323 139.42C549.063 139.66 548.74 139.893 548.353 140.12C547.967 140.34 547.517 140.523 547.003 140.67C546.49 140.817 545.91 140.89 545.263 140.89C544.263 140.89 543.387 140.687 542.633 140.28C541.88 139.873 541.297 139.28 540.883 138.5C540.47 137.713 540.263 136.757 540.263 135.63C540.263 134.55 540.487 133.613 540.933 132.82C541.387 132.027 542.007 131.413 542.793 130.98C543.58 130.547 544.483 130.33 545.503 130.33C546.783 130.33 547.78 130.72 548.493 131.5C549.213 132.28 549.613 133.327 549.693 134.64C549.707 134.853 549.713 135.06 549.713 135.26C549.713 135.453 549.703 135.653 549.683 135.86C549.597 135.853 549.417 135.847 549.143 135.84C548.877 135.827 548.563 135.817 548.203 135.81C547.843 135.797 547.48 135.787 547.113 135.78C546.753 135.767 546.443 135.76 546.183 135.76C545.51 135.76 544.82 135.793 544.113 135.86C543.407 135.927 542.777 136.003 542.223 136.09C542.23 136.263 542.247 136.433 542.273 136.6C542.3 136.767 542.333 136.927 542.373 137.08C542.487 137.487 542.693 137.84 542.993 138.14C543.293 138.433 543.65 138.66 544.063 138.82C544.483 138.98 544.927 139.06 545.393 139.06C545.887 139.06 546.317 138.987 546.683 138.84C547.05 138.693 547.363 138.513 547.623 138.3C547.89 138.087 548.103 137.883 548.263 137.69C548.43 137.497 548.557 137.353 548.643 137.26C548.683 137.293 548.76 137.367 548.873 137.48C548.993 137.587 549.12 137.717 549.253 137.87C549.393 138.023 549.523 138.18 549.643 138.34C549.77 138.493 549.86 138.637 549.913 138.77ZM542.253 134.75C542.733 134.67 543.297 134.6 543.943 134.54C544.597 134.48 545.337 134.45 546.163 134.45C546.597 134.45 546.963 134.457 547.263 134.47C547.57 134.477 547.783 134.487 547.903 134.5C547.903 134.28 547.877 134.047 547.823 133.8C547.75 133.467 547.617 133.143 547.423 132.83C547.23 132.517 546.967 132.257 546.633 132.05C546.307 131.837 545.893 131.73 545.393 131.73C544.82 131.73 544.297 131.853 543.823 132.1C543.357 132.34 542.983 132.687 542.703 133.14C542.423 133.587 542.273 134.123 542.253 134.75ZM556.759 140.36C556.605 140.58 556.332 140.8 555.939 141.02C555.545 141.247 555.075 141.36 554.529 141.36C553.762 141.36 553.192 141.16 552.819 140.76C552.445 140.353 552.199 139.793 552.079 139.08C551.965 138.367 551.909 137.553 551.909 136.64C551.909 136.053 551.915 135.413 551.929 134.72C551.942 134.027 551.959 133.31 551.979 132.57C552.005 131.83 552.032 131.103 552.059 130.39C552.085 129.67 552.112 128.997 552.139 128.37C552.165 127.737 552.192 127.183 552.219 126.71C552.525 126.683 552.805 126.67 553.059 126.67C553.232 126.67 553.405 126.677 553.579 126.69C553.752 126.703 553.929 126.72 554.109 126.74C554.082 127.22 554.052 127.79 554.019 128.45C553.985 129.103 553.949 129.8 553.909 130.54C553.875 131.28 553.845 132.02 553.819 132.76C553.792 133.5 553.769 134.19 553.749 134.83C553.729 135.47 553.719 136.017 553.719 136.47C553.719 136.977 553.745 137.467 553.799 137.94C553.852 138.407 553.965 138.79 554.139 139.09C554.312 139.39 554.575 139.54 554.929 139.54C555.202 139.54 555.412 139.473 555.559 139.34C555.705 139.207 555.832 139.037 555.939 138.83C555.979 138.883 556.039 138.983 556.119 139.13C556.205 139.27 556.292 139.43 556.379 139.61C556.472 139.783 556.552 139.94 556.619 140.08C556.692 140.22 556.739 140.313 556.759 140.36ZM567.394 138.77C567.261 138.957 567.064 139.173 566.804 139.42C566.544 139.66 566.221 139.893 565.834 140.12C565.447 140.34 564.997 140.523 564.484 140.67C563.971 140.817 563.391 140.89 562.744 140.89C561.744 140.89 560.867 140.687 560.114 140.28C559.361 139.873 558.777 139.28 558.364 138.5C557.951 137.713 557.744 136.757 557.744 135.63C557.744 134.55 557.967 133.613 558.414 132.82C558.867 132.027 559.487 131.413 560.274 130.98C561.061 130.547 561.964 130.33 562.984 130.33C564.264 130.33 565.261 130.72 565.974 131.5C566.694 132.28 567.094 133.327 567.174 134.64C567.187 134.853 567.194 135.06 567.194 135.26C567.194 135.453 567.184 135.653 567.164 135.86C567.077 135.853 566.897 135.847 566.624 135.84C566.357 135.827 566.044 135.817 565.684 135.81C565.324 135.797 564.961 135.787 564.594 135.78C564.234 135.767 563.924 135.76 563.664 135.76C562.991 135.76 562.301 135.793 561.594 135.86C560.887 135.927 560.257 136.003 559.704 136.09C559.711 136.263 559.727 136.433 559.754 136.6C559.781 136.767 559.814 136.927 559.854 137.08C559.967 137.487 560.174 137.84 560.474 138.14C560.774 138.433 561.131 138.66 561.544 138.82C561.964 138.98 562.407 139.06 562.874 139.06C563.367 139.06 563.797 138.987 564.164 138.84C564.531 138.693 564.844 138.513 565.104 138.3C565.371 138.087 565.584 137.883 565.744 137.69C565.911 137.497 566.037 137.353 566.124 137.26C566.164 137.293 566.241 137.367 566.354 137.48C566.474 137.587 566.601 137.717 566.734 137.87C566.874 138.023 567.004 138.18 567.124 138.34C567.251 138.493 567.341 138.637 567.394 138.77ZM559.734 134.75C560.214 134.67 560.777 134.6 561.424 134.54C562.077 134.48 562.817 134.45 563.644 134.45C564.077 134.45 564.444 134.457 564.744 134.47C565.051 134.477 565.264 134.487 565.384 134.5C565.384 134.28 565.357 134.047 565.304 133.8C565.231 133.467 565.097 133.143 564.904 132.83C564.711 132.517 564.447 132.257 564.114 132.05C563.787 131.837 563.374 131.73 562.874 131.73C562.301 131.73 561.777 131.853 561.304 132.1C560.837 132.34 560.464 132.687 560.184 133.14C559.904 133.587 559.754 134.123 559.734 134.75ZM577.959 138.92C577.799 139.247 577.529 139.577 577.149 139.91C576.769 140.237 576.296 140.513 575.729 140.74C575.163 140.96 574.519 141.07 573.799 141.07C572.819 141.07 571.976 140.82 571.269 140.32C570.563 139.82 570.019 139.157 569.639 138.33C569.259 137.497 569.069 136.587 569.069 135.6C569.069 134.52 569.256 133.563 569.629 132.73C570.003 131.897 570.549 131.243 571.269 130.77C571.989 130.29 572.869 130.05 573.909 130.05C574.529 130.05 575.089 130.153 575.589 130.36C576.089 130.56 576.519 130.833 576.879 131.18C577.239 131.52 577.523 131.89 577.729 132.29L576.339 133.2C576.306 133.127 576.243 133.007 576.149 132.84C576.063 132.673 575.926 132.5 575.739 132.32C575.559 132.133 575.319 131.977 575.019 131.85C574.726 131.723 574.356 131.66 573.909 131.66C573.289 131.66 572.763 131.81 572.329 132.11C571.896 132.403 571.566 132.817 571.339 133.35C571.119 133.877 571.009 134.487 571.009 135.18C571.009 135.847 571.103 136.477 571.289 137.07C571.483 137.657 571.789 138.137 572.209 138.51C572.629 138.883 573.186 139.07 573.879 139.07C574.299 139.07 574.669 139.003 574.989 138.87C575.309 138.737 575.583 138.58 575.809 138.4C576.036 138.22 576.213 138.053 576.339 137.9C576.473 137.74 576.553 137.633 576.579 137.58L577.959 138.92ZM587.323 139.14C587.223 139.46 587.07 139.797 586.863 140.15C586.656 140.497 586.37 140.79 586.003 141.03C585.636 141.277 585.163 141.4 584.583 141.4C583.836 141.4 583.243 141.237 582.803 140.91C582.37 140.583 582.06 140.153 581.873 139.62C581.686 139.087 581.593 138.507 581.593 137.88C581.593 137.553 581.596 137.167 581.603 136.72C581.616 136.273 581.63 135.81 581.643 135.33C581.656 134.85 581.67 134.387 581.683 133.94C581.703 133.487 581.72 133.09 581.733 132.75C581.746 132.403 581.756 132.147 581.763 131.98C581.11 132.047 580.543 132.12 580.063 132.2C579.59 132.273 579.286 132.33 579.153 132.37C579.113 132.157 579.08 131.933 579.053 131.7C579.033 131.46 579.016 131.243 579.003 131.05C578.996 130.857 578.993 130.727 578.993 130.66C579.366 130.607 579.8 130.55 580.293 130.49C580.793 130.43 581.286 130.383 581.773 130.35C581.78 130.09 581.783 129.77 581.783 129.39C581.783 129.003 581.783 128.64 581.783 128.3C581.776 128.013 581.763 127.737 581.743 127.47C581.723 127.197 581.706 126.97 581.693 126.79L583.573 126.68C583.586 126.78 583.6 127.02 583.613 127.4C583.633 127.773 583.643 128.227 583.643 128.76C583.643 128.96 583.643 129.203 583.643 129.49C583.643 129.77 583.643 130.02 583.643 130.24C583.843 130.227 584.09 130.213 584.383 130.2C584.676 130.187 584.913 130.18 585.093 130.18C585.406 130.173 585.706 130.17 585.993 130.17C586.28 130.17 586.526 130.173 586.733 130.18C586.94 130.187 587.066 130.193 587.113 130.2C587.146 130.38 587.166 130.63 587.173 130.95C587.186 131.27 587.193 131.537 587.193 131.75C587.126 131.743 586.896 131.74 586.503 131.74C586.116 131.733 585.733 131.733 585.353 131.74C585.08 131.747 584.78 131.76 584.453 131.78C584.126 131.793 583.846 131.807 583.613 131.82C583.606 131.993 583.593 132.25 583.573 132.59C583.56 132.93 583.546 133.313 583.533 133.74C583.52 134.16 583.506 134.59 583.493 135.03C583.48 135.463 583.47 135.87 583.463 136.25C583.456 136.623 583.453 136.927 583.453 137.16C583.453 137.58 583.476 137.98 583.523 138.36C583.576 138.74 583.696 139.053 583.883 139.3C584.076 139.54 584.38 139.66 584.793 139.66C585.073 139.66 585.3 139.56 585.473 139.36C585.646 139.16 585.78 138.93 585.873 138.67C585.973 138.41 586.046 138.193 586.093 138.02C586.153 138.087 586.24 138.177 586.353 138.29C586.473 138.397 586.6 138.51 586.733 138.63C586.873 138.75 586.996 138.857 587.103 138.95C587.216 139.043 587.29 139.107 587.323 139.14ZM598.634 146.28C597.701 146.28 596.871 146.133 596.144 145.84C595.417 145.547 594.851 145.257 594.444 144.97C594.491 144.843 594.571 144.67 594.684 144.45C594.797 144.237 594.917 144.023 595.044 143.81C595.171 143.597 595.277 143.433 595.364 143.32C595.544 143.453 595.811 143.61 596.164 143.79C596.517 143.977 596.917 144.14 597.364 144.28C597.811 144.42 598.261 144.49 598.714 144.49C599.307 144.49 599.811 144.333 600.224 144.02C600.637 143.713 600.971 143.293 601.224 142.76C601.477 142.233 601.661 141.637 601.774 140.97C601.894 140.303 601.957 139.617 601.964 138.91C601.851 139.157 601.671 139.413 601.424 139.68C601.184 139.94 600.864 140.16 600.464 140.34C600.064 140.513 599.574 140.6 598.994 140.6C598.041 140.6 597.304 140.323 596.784 139.77C596.264 139.21 595.901 138.45 595.694 137.49C595.494 136.523 595.394 135.43 595.394 134.21C595.394 133.743 595.404 133.26 595.424 132.76C595.444 132.26 595.467 131.743 595.494 131.21C595.581 131.19 595.707 131.177 595.874 131.17C596.041 131.163 596.217 131.16 596.404 131.16C596.624 131.16 596.834 131.167 597.034 131.18C597.241 131.187 597.381 131.2 597.454 131.22C597.441 131.3 597.421 131.49 597.394 131.79C597.367 132.09 597.341 132.453 597.314 132.88C597.287 133.307 597.274 133.747 597.274 134.2C597.274 134.733 597.297 135.27 597.344 135.81C597.391 136.343 597.481 136.833 597.614 137.28C597.754 137.727 597.957 138.087 598.224 138.36C598.491 138.627 598.847 138.76 599.294 138.76C599.794 138.76 600.224 138.617 600.584 138.33C600.944 138.043 601.231 137.623 601.444 137.07C601.664 136.51 601.804 135.823 601.864 135.01C601.891 134.697 601.911 134.347 601.924 133.96C601.944 133.567 601.961 133.19 601.974 132.83C601.987 132.463 601.994 132.153 601.994 131.9C602.001 131.64 602.001 131.483 601.994 131.43C602.101 131.417 602.211 131.407 602.324 131.4C602.437 131.393 602.551 131.39 602.664 131.39C603.071 131.39 603.441 131.43 603.774 131.51C603.801 132.07 603.814 132.737 603.814 133.51C603.814 134.143 603.804 134.85 603.784 135.63C603.764 136.403 603.734 137.2 603.694 138.02C603.661 138.84 603.624 139.647 603.584 140.44C603.524 141.567 603.304 142.567 602.924 143.44C602.551 144.32 602.007 145.013 601.294 145.52C600.587 146.027 599.701 146.28 598.634 146.28ZM611.295 141.31C609.548 141.31 608.258 140.823 607.425 139.85C606.592 138.877 606.175 137.477 606.175 135.65C606.175 134.497 606.388 133.523 606.815 132.73C607.248 131.937 607.848 131.333 608.615 130.92C609.388 130.507 610.288 130.3 611.315 130.3C612.402 130.3 613.298 130.553 614.005 131.06C614.712 131.56 615.235 132.26 615.575 133.16C615.922 134.053 616.095 135.093 616.095 136.28C616.095 137.3 615.905 138.187 615.525 138.94C615.145 139.687 614.595 140.27 613.875 140.69C613.162 141.103 612.302 141.31 611.295 141.31ZM611.215 139.52C611.755 139.52 612.218 139.42 612.605 139.22C612.992 139.02 613.305 138.753 613.545 138.42C613.785 138.08 613.962 137.7 614.075 137.28C614.195 136.86 614.255 136.43 614.255 135.99C614.255 135.19 614.145 134.477 613.925 133.85C613.705 133.223 613.372 132.733 612.925 132.38C612.478 132.02 611.908 131.84 611.215 131.84C610.535 131.84 609.965 132.003 609.505 132.33C609.045 132.657 608.698 133.107 608.465 133.68C608.238 134.253 608.125 134.91 608.125 135.65C608.125 136.79 608.388 137.72 608.915 138.44C609.442 139.16 610.208 139.52 611.215 139.52ZM624.944 131C625.044 130.973 625.187 130.95 625.374 130.93C625.567 130.91 625.761 130.9 625.954 130.9C626.114 130.9 626.287 130.907 626.474 130.92C626.667 130.927 626.821 130.94 626.934 130.96C627.041 131.607 627.131 132.267 627.204 132.94C627.277 133.613 627.314 134.277 627.314 134.93C627.314 135.823 627.237 136.667 627.084 137.46C626.931 138.253 626.677 138.953 626.324 139.56C625.977 140.16 625.507 140.633 624.914 140.98C624.327 141.327 623.597 141.5 622.724 141.5C621.771 141.5 620.987 141.313 620.374 140.94C619.761 140.56 619.284 140.037 618.944 139.37C618.604 138.697 618.364 137.923 618.224 137.05C618.091 136.177 618.024 135.243 618.024 134.25C618.024 133.643 618.044 133.03 618.084 132.41C618.124 131.79 618.167 131.183 618.214 130.59C618.334 130.583 618.484 130.58 618.664 130.58C618.851 130.58 619.017 130.583 619.164 130.59C619.371 130.603 619.574 130.623 619.774 130.65C619.981 130.67 620.151 130.7 620.284 130.74C620.217 131.34 620.164 131.933 620.124 132.52C620.084 133.107 620.064 133.673 620.064 134.22C620.064 135.393 620.161 136.387 620.354 137.2C620.554 138.013 620.851 138.63 621.244 139.05C621.644 139.47 622.144 139.68 622.744 139.68C623.304 139.68 623.771 139.49 624.144 139.11C624.524 138.73 624.811 138.18 625.004 137.46C625.197 136.733 625.294 135.85 625.294 134.81C625.294 134.217 625.264 133.597 625.204 132.95C625.144 132.297 625.057 131.647 624.944 131ZM631.581 132.14C631.781 131.8 632.071 131.49 632.451 131.21C632.838 130.93 633.271 130.707 633.751 130.54C634.238 130.373 634.725 130.29 635.211 130.29C635.525 130.29 635.841 130.32 636.161 130.38C636.481 130.433 636.731 130.51 636.911 130.61L636.511 132.62C636.351 132.553 636.145 132.483 635.891 132.41C635.645 132.33 635.338 132.29 634.971 132.29C634.578 132.29 634.185 132.363 633.791 132.51C633.405 132.65 633.048 132.843 632.721 133.09C632.395 133.337 632.121 133.62 631.901 133.94C631.995 134.407 632.085 134.977 632.171 135.65C632.265 136.323 632.348 137.013 632.421 137.72C632.495 138.427 632.555 139.073 632.601 139.66C632.648 140.24 632.671 140.677 632.671 140.97C632.385 140.997 632.035 141.013 631.621 141.02C631.208 141.027 630.828 141.027 630.481 141.02C630.481 140.4 630.468 139.747 630.441 139.06C630.415 138.367 630.371 137.66 630.311 136.94C630.258 136.213 630.188 135.49 630.101 134.77C630.015 134.05 629.911 133.353 629.791 132.68C629.678 132 629.548 131.357 629.401 130.75C629.581 130.697 629.791 130.643 630.031 130.59C630.278 130.537 630.505 130.49 630.711 130.45C630.918 130.41 631.058 130.387 631.131 130.38C631.218 130.607 631.308 130.9 631.401 131.26C631.495 131.62 631.555 131.913 631.581 132.14ZM648.459 141.81C647.839 141.81 647.222 141.723 646.609 141.55C645.995 141.377 645.435 141.147 644.929 140.86C644.429 140.567 644.029 140.243 643.729 139.89C643.775 139.797 643.842 139.67 643.929 139.51C644.015 139.35 644.115 139.183 644.229 139.01C644.342 138.83 644.455 138.667 644.569 138.52C644.682 138.367 644.782 138.25 644.869 138.17C645.155 138.49 645.499 138.8 645.899 139.1C646.299 139.393 646.729 139.633 647.189 139.82C647.649 140 648.109 140.09 648.569 140.09C649.009 140.09 649.405 140.027 649.759 139.9C650.119 139.767 650.402 139.577 650.609 139.33C650.822 139.083 650.929 138.787 650.929 138.44C650.929 138.04 650.802 137.697 650.549 137.41C650.295 137.117 649.955 136.86 649.529 136.64C649.102 136.413 648.632 136.207 648.119 136.02C647.499 135.793 646.932 135.547 646.419 135.28C645.912 135.007 645.505 134.667 645.199 134.26C644.899 133.853 644.749 133.337 644.749 132.71C644.749 132.07 644.929 131.537 645.289 131.11C645.655 130.683 646.135 130.36 646.729 130.14C647.329 129.92 647.975 129.81 648.669 129.81C649.442 129.81 650.152 129.91 650.799 130.11C651.452 130.303 651.952 130.53 652.299 130.79C652.272 130.903 652.215 131.053 652.129 131.24C652.042 131.42 651.942 131.603 651.829 131.79C651.715 131.977 651.599 132.147 651.479 132.3C651.159 132.087 650.769 131.883 650.309 131.69C649.849 131.497 649.349 131.4 648.809 131.4C648.449 131.4 648.102 131.443 647.769 131.53C647.435 131.61 647.162 131.747 646.949 131.94C646.735 132.133 646.629 132.397 646.629 132.73C646.629 133.017 646.732 133.273 646.939 133.5C647.152 133.727 647.439 133.93 647.799 134.11C648.159 134.283 648.565 134.45 649.019 134.61C649.565 134.797 650.072 135.007 650.539 135.24C651.005 135.467 651.409 135.73 651.749 136.03C652.095 136.323 652.365 136.663 652.559 137.05C652.752 137.43 652.849 137.86 652.849 138.34C652.849 139.107 652.652 139.747 652.259 140.26C651.865 140.773 651.339 141.16 650.679 141.42C650.019 141.68 649.279 141.81 648.459 141.81ZM661.815 139.14C661.715 139.46 661.562 139.797 661.355 140.15C661.149 140.497 660.862 140.79 660.495 141.03C660.129 141.277 659.655 141.4 659.075 141.4C658.329 141.4 657.735 141.237 657.295 140.91C656.862 140.583 656.552 140.153 656.365 139.62C656.179 139.087 656.085 138.507 656.085 137.88C656.085 137.553 656.089 137.167 656.095 136.72C656.109 136.273 656.122 135.81 656.135 135.33C656.149 134.85 656.162 134.387 656.175 133.94C656.195 133.487 656.212 133.09 656.225 132.75C656.239 132.403 656.249 132.147 656.255 131.98C655.602 132.047 655.035 132.12 654.555 132.2C654.082 132.273 653.779 132.33 653.645 132.37C653.605 132.157 653.572 131.933 653.545 131.7C653.525 131.46 653.509 131.243 653.495 131.05C653.489 130.857 653.485 130.727 653.485 130.66C653.859 130.607 654.292 130.55 654.785 130.49C655.285 130.43 655.779 130.383 656.265 130.35C656.272 130.09 656.275 129.77 656.275 129.39C656.275 129.003 656.275 128.64 656.275 128.3C656.269 128.013 656.255 127.737 656.235 127.47C656.215 127.197 656.199 126.97 656.185 126.79L658.065 126.68C658.079 126.78 658.092 127.02 658.105 127.4C658.125 127.773 658.135 128.227 658.135 128.76C658.135 128.96 658.135 129.203 658.135 129.49C658.135 129.77 658.135 130.02 658.135 130.24C658.335 130.227 658.582 130.213 658.875 130.2C659.169 130.187 659.405 130.18 659.585 130.18C659.899 130.173 660.199 130.17 660.485 130.17C660.772 130.17 661.019 130.173 661.225 130.18C661.432 130.187 661.559 130.193 661.605 130.2C661.639 130.38 661.659 130.63 661.665 130.95C661.679 131.27 661.685 131.537 661.685 131.75C661.619 131.743 661.389 131.74 660.995 131.74C660.609 131.733 660.225 131.733 659.845 131.74C659.572 131.747 659.272 131.76 658.945 131.78C658.619 131.793 658.339 131.807 658.105 131.82C658.099 131.993 658.085 132.25 658.065 132.59C658.052 132.93 658.039 133.313 658.025 133.74C658.012 134.16 657.999 134.59 657.985 135.03C657.972 135.463 657.962 135.87 657.955 136.25C657.949 136.623 657.945 136.927 657.945 137.16C657.945 137.58 657.969 137.98 658.015 138.36C658.069 138.74 658.189 139.053 658.375 139.3C658.569 139.54 658.872 139.66 659.285 139.66C659.565 139.66 659.792 139.56 659.965 139.36C660.139 139.16 660.272 138.93 660.365 138.67C660.465 138.41 660.539 138.193 660.585 138.02C660.645 138.087 660.732 138.177 660.845 138.29C660.965 138.397 661.092 138.51 661.225 138.63C661.365 138.75 661.489 138.857 661.595 138.95C661.709 139.043 661.782 139.107 661.815 139.14ZM667.897 141.31C666.15 141.31 664.86 140.823 664.027 139.85C663.193 138.877 662.777 137.477 662.777 135.65C662.777 134.497 662.99 133.523 663.417 132.73C663.85 131.937 664.45 131.333 665.217 130.92C665.99 130.507 666.89 130.3 667.917 130.3C669.003 130.3 669.9 130.553 670.607 131.06C671.313 131.56 671.837 132.26 672.177 133.16C672.523 134.053 672.697 135.093 672.697 136.28C672.697 137.3 672.507 138.187 672.127 138.94C671.747 139.687 671.197 140.27 670.477 140.69C669.763 141.103 668.903 141.31 667.897 141.31ZM667.817 139.52C668.357 139.52 668.82 139.42 669.207 139.22C669.593 139.02 669.907 138.753 670.147 138.42C670.387 138.08 670.563 137.7 670.677 137.28C670.797 136.86 670.857 136.43 670.857 135.99C670.857 135.19 670.747 134.477 670.527 133.85C670.307 133.223 669.973 132.733 669.527 132.38C669.08 132.02 668.51 131.84 667.817 131.84C667.137 131.84 666.567 132.003 666.107 132.33C665.647 132.657 665.3 133.107 665.067 133.68C664.84 134.253 664.727 134.91 664.727 135.65C664.727 136.79 664.99 137.72 665.517 138.44C666.043 139.16 666.81 139.52 667.817 139.52ZM676.405 132.14C676.605 131.8 676.895 131.49 677.275 131.21C677.662 130.93 678.095 130.707 678.575 130.54C679.062 130.373 679.549 130.29 680.035 130.29C680.349 130.29 680.665 130.32 680.985 130.38C681.305 130.433 681.555 130.51 681.735 130.61L681.335 132.62C681.175 132.553 680.969 132.483 680.715 132.41C680.469 132.33 680.162 132.29 679.795 132.29C679.402 132.29 679.009 132.363 678.615 132.51C678.229 132.65 677.872 132.843 677.545 133.09C677.219 133.337 676.945 133.62 676.725 133.94C676.819 134.407 676.909 134.977 676.995 135.65C677.089 136.323 677.172 137.013 677.245 137.72C677.319 138.427 677.379 139.073 677.425 139.66C677.472 140.24 677.495 140.677 677.495 140.97C677.209 140.997 676.859 141.013 676.445 141.02C676.032 141.027 675.652 141.027 675.305 141.02C675.305 140.4 675.292 139.747 675.265 139.06C675.239 138.367 675.195 137.66 675.135 136.94C675.082 136.213 675.012 135.49 674.925 134.77C674.839 134.05 674.735 133.353 674.615 132.68C674.502 132 674.372 131.357 674.225 130.75C674.405 130.697 674.615 130.643 674.855 130.59C675.102 130.537 675.329 130.49 675.535 130.45C675.742 130.41 675.882 130.387 675.955 130.38C676.042 130.607 676.132 130.9 676.225 131.26C676.319 131.62 676.379 131.913 676.405 132.14ZM686.564 146.28C685.63 146.28 684.8 146.133 684.074 145.84C683.347 145.547 682.78 145.257 682.374 144.97C682.42 144.843 682.5 144.67 682.614 144.45C682.727 144.237 682.847 144.023 682.974 143.81C683.1 143.597 683.207 143.433 683.294 143.32C683.474 143.453 683.74 143.61 684.094 143.79C684.447 143.977 684.847 144.14 685.294 144.28C685.74 144.42 686.19 144.49 686.644 144.49C687.237 144.49 687.74 144.333 688.154 144.02C688.567 143.713 688.9 143.293 689.154 142.76C689.407 142.233 689.59 141.637 689.704 140.97C689.824 140.303 689.887 139.617 689.894 138.91C689.78 139.157 689.6 139.413 689.354 139.68C689.114 139.94 688.794 140.16 688.394 140.34C687.994 140.513 687.504 140.6 686.924 140.6C685.97 140.6 685.234 140.323 684.714 139.77C684.194 139.21 683.83 138.45 683.624 137.49C683.424 136.523 683.324 135.43 683.324 134.21C683.324 133.743 683.334 133.26 683.354 132.76C683.374 132.26 683.397 131.743 683.424 131.21C683.51 131.19 683.637 131.177 683.804 131.17C683.97 131.163 684.147 131.16 684.334 131.16C684.554 131.16 684.764 131.167 684.964 131.18C685.17 131.187 685.31 131.2 685.384 131.22C685.37 131.3 685.35 131.49 685.324 131.79C685.297 132.09 685.27 132.453 685.244 132.88C685.217 133.307 685.204 133.747 685.204 134.2C685.204 134.733 685.227 135.27 685.274 135.81C685.32 136.343 685.41 136.833 685.544 137.28C685.684 137.727 685.887 138.087 686.154 138.36C686.42 138.627 686.777 138.76 687.224 138.76C687.724 138.76 688.154 138.617 688.514 138.33C688.874 138.043 689.16 137.623 689.374 137.07C689.594 136.51 689.734 135.823 689.794 135.01C689.82 134.697 689.84 134.347 689.854 133.96C689.874 133.567 689.89 133.19 689.904 132.83C689.917 132.463 689.924 132.153 689.924 131.9C689.93 131.64 689.93 131.483 689.924 131.43C690.03 131.417 690.14 131.407 690.254 131.4C690.367 131.393 690.48 131.39 690.594 131.39C691 131.39 691.37 131.43 691.704 131.51C691.73 132.07 691.744 132.737 691.744 133.51C691.744 134.143 691.734 134.85 691.714 135.63C691.694 136.403 691.664 137.2 691.624 138.02C691.59 138.84 691.554 139.647 691.514 140.44C691.454 141.567 691.234 142.567 690.854 143.44C690.48 144.32 689.937 145.013 689.224 145.52C688.517 146.027 687.63 146.28 686.564 146.28ZM707.987 139.14C707.887 139.46 707.734 139.797 707.527 140.15C707.321 140.497 707.034 140.79 706.667 141.03C706.301 141.277 705.827 141.4 705.247 141.4C704.501 141.4 703.907 141.237 703.467 140.91C703.034 140.583 702.724 140.153 702.537 139.62C702.351 139.087 702.257 138.507 702.257 137.88C702.257 137.553 702.261 137.167 702.267 136.72C702.281 136.273 702.294 135.81 702.307 135.33C702.321 134.85 702.334 134.387 702.347 133.94C702.367 133.487 702.384 133.09 702.397 132.75C702.411 132.403 702.421 132.147 702.427 131.98C701.774 132.047 701.207 132.12 700.727 132.2C700.254 132.273 699.951 132.33 699.817 132.37C699.777 132.157 699.744 131.933 699.717 131.7C699.697 131.46 699.681 131.243 699.667 131.05C699.661 130.857 699.657 130.727 699.657 130.66C700.031 130.607 700.464 130.55 700.957 130.49C701.457 130.43 701.951 130.383 702.437 130.35C702.444 130.09 702.447 129.77 702.447 129.39C702.447 129.003 702.447 128.64 702.447 128.3C702.441 128.013 702.427 127.737 702.407 127.47C702.387 127.197 702.371 126.97 702.357 126.79L704.237 126.68C704.251 126.78 704.264 127.02 704.277 127.4C704.297 127.773 704.307 128.227 704.307 128.76C704.307 128.96 704.307 129.203 704.307 129.49C704.307 129.77 704.307 130.02 704.307 130.24C704.507 130.227 704.754 130.213 705.047 130.2C705.341 130.187 705.577 130.18 705.757 130.18C706.071 130.173 706.371 130.17 706.657 130.17C706.944 130.17 707.191 130.173 707.397 130.18C707.604 130.187 707.731 130.193 707.777 130.2C707.811 130.38 707.831 130.63 707.837 130.95C707.851 131.27 707.857 131.537 707.857 131.75C707.791 131.743 707.561 131.74 707.167 131.74C706.781 131.733 706.397 131.733 706.017 131.74C705.744 131.747 705.444 131.76 705.117 131.78C704.791 131.793 704.511 131.807 704.277 131.82C704.271 131.993 704.257 132.25 704.237 132.59C704.224 132.93 704.211 133.313 704.197 133.74C704.184 134.16 704.171 134.59 704.157 135.03C704.144 135.463 704.134 135.87 704.127 136.25C704.121 136.623 704.117 136.927 704.117 137.16C704.117 137.58 704.141 137.98 704.187 138.36C704.241 138.74 704.361 139.053 704.547 139.3C704.741 139.54 705.044 139.66 705.457 139.66C705.737 139.66 705.964 139.56 706.137 139.36C706.311 139.16 706.444 138.93 706.537 138.67C706.637 138.41 706.711 138.193 706.757 138.02C706.817 138.087 706.904 138.177 707.017 138.29C707.137 138.397 707.264 138.51 707.397 138.63C707.537 138.75 707.661 138.857 707.767 138.95C707.881 139.043 707.954 139.107 707.987 139.14ZM712.911 146.28C711.978 146.28 711.148 146.133 710.421 145.84C709.695 145.547 709.128 145.257 708.721 144.97C708.768 144.843 708.848 144.67 708.961 144.45C709.075 144.237 709.195 144.023 709.321 143.81C709.448 143.597 709.555 143.433 709.641 143.32C709.821 143.453 710.088 143.61 710.441 143.79C710.795 143.977 711.195 144.14 711.641 144.28C712.088 144.42 712.538 144.49 712.991 144.49C713.585 144.49 714.088 144.333 714.501 144.02C714.915 143.713 715.248 143.293 715.501 142.76C715.755 142.233 715.938 141.637 716.051 140.97C716.171 140.303 716.235 139.617 716.241 138.91C716.128 139.157 715.948 139.413 715.701 139.68C715.461 139.94 715.141 140.16 714.741 140.34C714.341 140.513 713.851 140.6 713.271 140.6C712.318 140.6 711.581 140.323 711.061 139.77C710.541 139.21 710.178 138.45 709.971 137.49C709.771 136.523 709.671 135.43 709.671 134.21C709.671 133.743 709.681 133.26 709.701 132.76C709.721 132.26 709.745 131.743 709.771 131.21C709.858 131.19 709.985 131.177 710.151 131.17C710.318 131.163 710.495 131.16 710.681 131.16C710.901 131.16 711.111 131.167 711.311 131.18C711.518 131.187 711.658 131.2 711.731 131.22C711.718 131.3 711.698 131.49 711.671 131.79C711.645 132.09 711.618 132.453 711.591 132.88C711.565 133.307 711.551 133.747 711.551 134.2C711.551 134.733 711.575 135.27 711.621 135.81C711.668 136.343 711.758 136.833 711.891 137.28C712.031 137.727 712.235 138.087 712.501 138.36C712.768 138.627 713.125 138.76 713.571 138.76C714.071 138.76 714.501 138.617 714.861 138.33C715.221 138.043 715.508 137.623 715.721 137.07C715.941 136.51 716.081 135.823 716.141 135.01C716.168 134.697 716.188 134.347 716.201 133.96C716.221 133.567 716.238 133.19 716.251 132.83C716.265 132.463 716.271 132.153 716.271 131.9C716.278 131.64 716.278 131.483 716.271 131.43C716.378 131.417 716.488 131.407 716.601 131.4C716.715 131.393 716.828 131.39 716.941 131.39C717.348 131.39 717.718 131.43 718.051 131.51C718.078 132.07 718.091 132.737 718.091 133.51C718.091 134.143 718.081 134.85 718.061 135.63C718.041 136.403 718.011 137.2 717.971 138.02C717.938 138.84 717.901 139.647 717.861 140.44C717.801 141.567 717.581 142.567 717.201 143.44C716.828 144.32 716.285 145.013 715.571 145.52C714.865 146.027 713.978 146.28 712.911 146.28ZM720.333 145.39C720.439 144.383 720.533 143.313 720.613 142.18C720.699 141.053 720.773 139.917 720.833 138.77C720.899 137.623 720.949 136.523 720.983 135.47C721.023 134.417 721.053 133.457 721.073 132.59C721.093 131.717 721.103 130.993 721.103 130.42C721.369 130.34 721.683 130.283 722.043 130.25C722.403 130.21 722.743 130.19 723.063 130.19C723.069 130.363 723.073 130.607 723.073 130.92C723.079 131.227 723.083 131.5 723.083 131.74C723.249 131.553 723.499 131.343 723.833 131.11C724.173 130.87 724.586 130.66 725.072 130.48C725.566 130.3 726.109 130.21 726.703 130.21C728.016 130.21 729.016 130.63 729.703 131.47C730.396 132.31 730.743 133.477 730.743 134.97C730.743 136.017 730.563 136.93 730.203 137.71C729.849 138.483 729.339 139.083 728.673 139.51C728.006 139.937 727.203 140.15 726.263 140.15C725.829 140.15 725.373 140.087 724.893 139.96C724.419 139.833 723.993 139.683 723.613 139.51C723.233 139.33 722.969 139.163 722.823 139.01C722.823 139.157 722.809 139.423 722.783 139.81C722.763 140.197 722.736 140.643 722.703 141.15C722.669 141.663 722.633 142.183 722.593 142.71C722.553 143.237 722.513 143.723 722.473 144.17C722.439 144.617 722.403 144.963 722.363 145.21C722.136 145.25 721.889 145.283 721.623 145.31C721.363 145.337 721.116 145.357 720.882 145.37C720.649 145.383 720.466 145.39 720.333 145.39ZM725.993 138.18C726.666 138.18 727.203 138.043 727.603 137.77C728.009 137.497 728.303 137.107 728.483 136.6C728.663 136.087 728.753 135.477 728.753 134.77C728.753 133.857 728.536 133.15 728.103 132.65C727.669 132.143 727.033 131.89 726.193 131.89C725.679 131.89 725.206 131.983 724.773 132.17C724.339 132.357 723.976 132.567 723.683 132.8C723.389 133.033 723.183 133.227 723.063 133.38C723.063 133.493 723.056 133.707 723.043 134.02C723.036 134.333 723.026 134.687 723.013 135.08C722.999 135.473 722.986 135.85 722.973 136.21C722.966 136.563 722.959 136.837 722.953 137.03C723.093 137.15 723.299 137.303 723.573 137.49C723.846 137.67 724.186 137.83 724.593 137.97C724.999 138.11 725.466 138.18 725.993 138.18ZM742.062 138.77C741.929 138.957 741.732 139.173 741.472 139.42C741.212 139.66 740.889 139.893 740.502 140.12C740.115 140.34 739.665 140.523 739.152 140.67C738.639 140.817 738.059 140.89 737.412 140.89C736.412 140.89 735.535 140.687 734.782 140.28C734.029 139.873 733.445 139.28 733.032 138.5C732.619 137.713 732.412 136.757 732.412 135.63C732.412 134.55 732.635 133.613 733.082 132.82C733.535 132.027 734.155 131.413 734.942 130.98C735.729 130.547 736.632 130.33 737.652 130.33C738.932 130.33 739.929 130.72 740.642 131.5C741.362 132.28 741.762 133.327 741.842 134.64C741.855 134.853 741.862 135.06 741.862 135.26C741.862 135.453 741.852 135.653 741.832 135.86C741.745 135.853 741.565 135.847 741.292 135.84C741.025 135.827 740.712 135.817 740.352 135.81C739.992 135.797 739.629 135.787 739.262 135.78C738.902 135.767 738.592 135.76 738.332 135.76C737.659 135.76 736.969 135.793 736.262 135.86C735.555 135.927 734.925 136.003 734.372 136.09C734.379 136.263 734.395 136.433 734.422 136.6C734.449 136.767 734.482 136.927 734.522 137.08C734.635 137.487 734.842 137.84 735.142 138.14C735.442 138.433 735.799 138.66 736.212 138.82C736.632 138.98 737.075 139.06 737.542 139.06C738.035 139.06 738.465 138.987 738.832 138.84C739.199 138.693 739.512 138.513 739.772 138.3C740.039 138.087 740.252 137.883 740.412 137.69C740.579 137.497 740.705 137.353 740.792 137.26C740.832 137.293 740.909 137.367 741.022 137.48C741.142 137.587 741.269 137.717 741.402 137.87C741.542 138.023 741.672 138.18 741.792 138.34C741.919 138.493 742.009 138.637 742.062 138.77ZM734.402 134.75C734.882 134.67 735.445 134.6 736.092 134.54C736.745 134.48 737.485 134.45 738.312 134.45C738.745 134.45 739.112 134.457 739.412 134.47C739.719 134.477 739.932 134.487 740.052 134.5C740.052 134.28 740.025 134.047 739.972 133.8C739.899 133.467 739.765 133.143 739.572 132.83C739.379 132.517 739.115 132.257 738.782 132.05C738.455 131.837 738.042 131.73 737.542 131.73C736.969 131.73 736.445 131.853 735.972 132.1C735.505 132.34 735.132 132.687 734.852 133.14C734.572 133.587 734.422 134.123 734.402 134.75Z" fill="black"/>
</g>
<defs>
<clipPath id="clip0_2_202">
<rect width="390" height="844" fill="white" transform="matrix(0 -1 1 0 0 390)"/>
</clipPath>
</defs>
</svg>
