<svg width="1818" height="60" viewBox="0 0 1818 60" fill="none" xmlns="http://www.w3.org/2000/svg">
<g clip-path="url(#clip0_728_3642)">
<mask id="path-1-inside-1_728_3642" fill="white">
<path d="M1792.4 36C1801.36 36 1805.84 36.0003 1809.26 37.7441C1812.27 39.2781 1814.72 41.7257 1816.26 44.7363C1818 48.1589 1818 52.6391 1818 61.5996V1765.4C1818 1774.36 1818 1778.84 1816.26 1782.26C1814.72 1785.27 1812.27 1787.72 1809.26 1789.26C1805.84 1791 1801.36 1791 1792.4 1791H25.5996C16.6391 1791 12.1589 1791 8.73633 1789.26C5.72573 1787.72 3.27811 1785.27 1.74414 1782.26C0.000291117 1778.84 3.68829e-10 1774.36 0 1765.4V61.5996C2.79423e-10 52.6391 0.00028783 48.1589 1.74414 44.7363C3.27811 41.7257 5.72573 39.2781 8.73633 37.7441C12.1589 36.0003 16.6391 36 25.5996 36H157V25.5996C157 16.6391 157 12.1589 158.744 8.73633C160.278 5.72573 162.726 3.27811 165.736 1.74414C169.159 0.000291193 173.639 1.33305e-09 182.6 9.62027e-10H302.405C305.397 1.17952e-09 306.893 -0.000258213 308.336 0.266602C309.616 0.503479 310.863 0.896474 312.049 1.43555C313.385 2.04299 314.611 2.89989 317.064 4.61328L362 36H1792.4Z"/>
</mask>
<path d="M1792.4 36C1801.36 36 1805.84 36.0003 1809.26 37.7441C1812.27 39.2781 1814.72 41.7257 1816.26 44.7363C1818 48.1589 1818 52.6391 1818 61.5996V1765.4C1818 1774.36 1818 1778.84 1816.26 1782.26C1814.72 1785.27 1812.27 1787.72 1809.26 1789.26C1805.84 1791 1801.36 1791 1792.4 1791H25.5996C16.6391 1791 12.1589 1791 8.73633 1789.26C5.72573 1787.72 3.27811 1785.27 1.74414 1782.26C0.000291117 1778.84 3.68829e-10 1774.36 0 1765.4V61.5996C2.79423e-10 52.6391 0.00028783 48.1589 1.74414 44.7363C3.27811 41.7257 5.72573 39.2781 8.73633 37.7441C12.1589 36.0003 16.6391 36 25.5996 36H157V25.5996C157 16.6391 157 12.1589 158.744 8.73633C160.278 5.72573 162.726 3.27811 165.736 1.74414C169.159 0.000291193 173.639 1.33305e-09 182.6 9.62027e-10H302.405C305.397 1.17952e-09 306.893 -0.000258213 308.336 0.266602C309.616 0.503479 310.863 0.896474 312.049 1.43555C313.385 2.04299 314.611 2.89989 317.064 4.61328L362 36H1792.4Z" fill="#F5F5F0"/>
<path d="M1792.4 36V35V36ZM1809.26 37.7441L1809.72 36.8531L1809.72 36.8531L1809.26 37.7441ZM1816.26 44.7363L1817.15 44.2823L1817.15 44.2823L1816.26 44.7363ZM1818 61.5996L1819 61.5996L1818 61.5996ZM1818 1765.4H1819H1818ZM1816.26 1782.26L1817.15 1782.72L1817.15 1782.72L1816.26 1782.26ZM1809.26 1789.26L1809.72 1790.15L1809.72 1790.15L1809.26 1789.26ZM1792.4 1791L1792.4 1792L1792.4 1791ZM25.5996 1791V1792V1791ZM8.73633 1789.26L8.28234 1790.15L8.28234 1790.15L8.73633 1789.26ZM1.74414 1782.26L0.853132 1782.72L0.853134 1782.72L1.74414 1782.26ZM0 1765.4L-1 1765.4L0 1765.4ZM0 61.5996H-1H0ZM1.74414 44.7363L0.853134 44.2823L0.853132 44.2823L1.74414 44.7363ZM8.73633 37.7441L8.28234 36.8531L8.28234 36.8531L8.73633 37.7441ZM25.5996 36L25.5996 35L25.5996 36ZM157 36V37H158V36H157ZM157 25.5996H156H157ZM158.744 8.73633L157.853 8.28234L157.853 8.28234L158.744 8.73633ZM165.736 1.74414L165.282 0.853132L165.282 0.853134L165.736 1.74414ZM182.6 9.62027e-10L182.6 -1L182.6 9.62027e-10ZM302.405 9.62027e-10V-1V9.62027e-10ZM308.336 0.266602L308.518 -0.716716L308.518 -0.71672L308.336 0.266602ZM312.049 1.43555L312.463 0.525252L312.463 0.525247L312.049 1.43555ZM317.064 4.61328L316.492 5.43309L316.492 5.4331L317.064 4.61328ZM362 36L361.427 36.8198L361.685 37H362V36ZM1792.4 36L1792.4 37C1796.9 37 1800.21 37.0009 1802.83 37.2148C1805.43 37.4278 1807.26 37.847 1808.81 38.6351L1809.26 37.7441L1809.72 36.8531C1807.84 35.8974 1805.72 35.4446 1802.99 35.2215C1800.27 34.9993 1796.86 35 1792.4 35L1792.4 36ZM1809.26 37.7441L1808.81 38.6351C1811.63 40.0732 1813.93 42.3679 1815.36 45.1903L1816.26 44.7363L1817.15 44.2823C1815.52 41.0836 1812.92 38.483 1809.72 36.8531L1809.26 37.7441ZM1816.26 44.7363L1815.36 45.1903C1816.15 46.7371 1816.57 48.5666 1816.79 51.1727C1817 53.7904 1817 57.1029 1817 61.5996L1818 61.5996L1819 61.5996C1819 57.1358 1819 53.7279 1818.78 51.0098C1818.56 48.28 1818.1 46.1581 1817.15 44.2823L1816.26 44.7363ZM1818 61.5996H1817V1765.4H1818H1819V61.5996H1818ZM1818 1765.4L1817 1765.4C1817 1769.9 1817 1773.21 1816.79 1775.83C1816.57 1778.43 1816.15 1780.26 1815.36 1781.81L1816.26 1782.26L1817.15 1782.72C1818.1 1780.84 1818.56 1778.72 1818.78 1775.99C1819 1773.27 1819 1769.86 1819 1765.4L1818 1765.4ZM1816.26 1782.26L1815.36 1781.81C1813.93 1784.63 1811.63 1786.93 1808.81 1788.36L1809.26 1789.26L1809.72 1790.15C1812.92 1788.52 1815.52 1785.92 1817.15 1782.72L1816.26 1782.26ZM1809.26 1789.26L1808.81 1788.36C1807.26 1789.15 1805.43 1789.57 1802.83 1789.79C1800.21 1790 1796.9 1790 1792.4 1790L1792.4 1791L1792.4 1792C1796.86 1792 1800.27 1792 1802.99 1791.78C1805.72 1791.56 1807.84 1791.1 1809.72 1790.15L1809.26 1789.26ZM1792.4 1791V1790H25.5996V1791V1792H1792.4V1791ZM25.5996 1791L25.5996 1790C21.1029 1790 17.7904 1790 15.1727 1789.79C12.5666 1789.57 10.7371 1789.15 9.19031 1788.36L8.73633 1789.26L8.28234 1790.15C10.1581 1791.1 12.28 1791.56 15.0098 1791.78C17.7279 1792 21.1358 1792 25.5996 1792L25.5996 1791ZM8.73633 1789.26L9.19032 1788.36C6.36789 1786.93 4.07325 1784.63 2.63515 1781.81L1.74414 1782.26L0.853134 1782.72C2.48298 1785.92 5.08358 1788.52 8.28234 1790.15L8.73633 1789.26ZM1.74414 1782.26L2.63515 1781.81C1.84701 1780.26 1.4278 1778.43 1.2148 1775.83C1.00085 1773.21 1 1769.9 1 1765.4L0 1765.4L-1 1765.4C-1 1769.86 -1.00071 1773.27 -0.77855 1775.99C-0.555441 1778.72 -0.102581 1780.84 0.853132 1782.72L1.74414 1782.26ZM0 1765.4H1V61.5996H0H-1V1765.4H0ZM0 61.5996L1 61.5996C1 57.1029 1.00085 53.7904 1.2148 51.1727C1.4278 48.5666 1.84701 46.7371 2.63515 45.1903L1.74414 44.7363L0.853132 44.2823C-0.102582 46.1581 -0.555442 48.28 -0.778551 51.0098C-1.00071 53.7279 -1 57.1358 -1 61.5996L0 61.5996ZM1.74414 44.7363L2.63515 45.1903C4.07325 42.3679 6.36789 40.0732 9.19032 38.6351L8.73633 37.7441L8.28234 36.8531C5.08358 38.483 2.48298 41.0836 0.853134 44.2823L1.74414 44.7363ZM8.73633 37.7441L9.19031 38.6351C10.7371 37.847 12.5666 37.4278 15.1727 37.2148C17.7904 37.0009 21.1029 37 25.5996 37L25.5996 36L25.5996 35C21.1358 35 17.7279 34.9993 15.0098 35.2215C12.28 35.4446 10.1581 35.8974 8.28234 36.8531L8.73633 37.7441ZM25.5996 36V37H157V36V35H25.5996V36ZM157 36H158V25.5996H157H156V36H157ZM157 25.5996L158 25.5996C158 21.1029 158.001 17.7904 158.215 15.1727C158.428 12.5666 158.847 10.7371 159.635 9.19031L158.744 8.73633L157.853 8.28234C156.897 10.1581 156.445 12.28 156.221 15.0098C155.999 17.7279 156 21.1358 156 25.5996L157 25.5996ZM158.744 8.73633L159.635 9.19032C161.073 6.36789 163.368 4.07325 166.19 2.63515L165.736 1.74414L165.282 0.853134C162.084 2.48298 159.483 5.08358 157.853 8.28234L158.744 8.73633ZM165.736 1.74414L166.19 2.63515C167.737 1.84701 169.567 1.4278 172.173 1.2148C174.79 1.00085 178.103 1 182.6 1L182.6 9.62027e-10L182.6 -1C178.136 -1 174.728 -1.0007 172.01 -0.77855C169.28 -0.555441 167.158 -0.10258 165.282 0.853132L165.736 1.74414ZM182.6 9.62027e-10V1H302.405V9.62027e-10V-1H182.6V9.62027e-10ZM302.405 9.62027e-10L302.405 1C305.433 1 306.822 1.00359 308.154 1.24992L308.336 0.266602L308.518 -0.71672C306.964 -1.0041 305.361 -1 302.405 -1L302.405 9.62027e-10ZM308.336 0.266602L308.154 1.24992C309.354 1.47193 310.523 1.84033 311.635 2.34585L312.049 1.43555L312.463 0.525247C311.204 -0.0473857 309.879 -0.464975 308.518 -0.716716L308.336 0.266602ZM312.049 1.43555L311.635 2.34584C312.868 2.90659 314.009 3.6992 316.492 5.43309L317.064 4.61328L317.637 3.79347C315.213 2.10057 313.901 1.1794 312.463 0.525252L312.049 1.43555ZM317.064 4.61328L316.492 5.4331L361.427 36.8198L362 36L362.573 35.1802L317.637 3.79347L317.064 4.61328ZM362 36V37H1792.4V36V35H362V36Z" fill="#285BAB" mask="url(#path-1-inside-1_728_3642)"/>
<path d="M180.22 29L185.66 14.1H187.38L192.82 29H191.14L189.86 25.36H183.2L181.9 29H180.22ZM183.72 23.86H189.3L186.28 15.3H186.76L183.72 23.86ZM200.007 29.24C199.087 29.24 198.254 29.0333 197.507 28.62C196.774 28.1933 196.22 27.5933 195.847 26.82L196.087 26.6V29H194.587V13.86H196.087V20.68L195.847 20.26C196.274 19.58 196.84 19.04 197.547 18.64C198.267 18.24 199.087 18.04 200.007 18.04C201.02 18.04 201.92 18.2867 202.707 18.78C203.507 19.26 204.134 19.92 204.587 20.76C205.054 21.6 205.287 22.56 205.287 23.64C205.287 24.7067 205.054 25.6667 204.587 26.52C204.134 27.36 203.507 28.0267 202.707 28.52C201.92 29 201.02 29.24 200.007 29.24ZM199.927 27.74C200.647 27.74 201.287 27.56 201.847 27.2C202.42 26.84 202.867 26.3533 203.187 25.74C203.52 25.1133 203.687 24.4133 203.687 23.64C203.687 22.8533 203.52 22.1533 203.187 21.54C202.867 20.9267 202.42 20.44 201.847 20.08C201.287 19.72 200.647 19.54 199.927 19.54C199.207 19.54 198.554 19.72 197.967 20.08C197.394 20.44 196.934 20.9333 196.587 21.56C196.254 22.1733 196.087 22.8667 196.087 23.64C196.087 24.4133 196.254 25.1133 196.587 25.74C196.934 26.3533 197.394 26.84 197.967 27.2C198.554 27.56 199.207 27.74 199.927 27.74ZM212.947 29.24C211.933 29.24 211.013 29 210.187 28.52C209.36 28.0267 208.7 27.36 208.207 26.52C207.727 25.6667 207.487 24.7 207.487 23.62C207.487 22.5533 207.727 21.6 208.207 20.76C208.687 19.92 209.333 19.26 210.147 18.78C210.973 18.2867 211.907 18.04 212.947 18.04C213.987 18.04 214.913 18.28 215.727 18.76C216.553 19.24 217.2 19.9 217.667 20.74C218.147 21.58 218.387 22.54 218.387 23.62C218.387 24.7133 218.14 25.6867 217.647 26.54C217.153 27.38 216.493 28.04 215.667 28.52C214.853 29 213.947 29.24 212.947 29.24ZM212.947 27.74C213.667 27.74 214.313 27.56 214.887 27.2C215.473 26.84 215.933 26.3467 216.267 25.72C216.613 25.0933 216.787 24.3933 216.787 23.62C216.787 22.8467 216.613 22.1533 216.267 21.54C215.933 20.9267 215.473 20.44 214.887 20.08C214.313 19.72 213.667 19.54 212.947 19.54C212.227 19.54 211.573 19.72 210.987 20.08C210.413 20.44 209.953 20.9267 209.607 21.54C209.26 22.1533 209.087 22.8467 209.087 23.62C209.087 24.3933 209.26 25.0933 209.607 25.72C209.953 26.3467 210.413 26.84 210.987 27.2C211.573 27.56 212.227 27.74 212.947 27.74ZM224.832 29.24C224.086 29.24 223.406 29.0667 222.792 28.72C222.179 28.36 221.692 27.8667 221.332 27.24C220.986 26.6 220.812 25.8667 220.812 25.04V18.28H222.312V24.86C222.312 25.4333 222.426 25.94 222.652 26.38C222.892 26.8067 223.219 27.14 223.632 27.38C224.059 27.62 224.546 27.74 225.092 27.74C225.639 27.74 226.126 27.62 226.552 27.38C226.979 27.1267 227.312 26.7733 227.552 26.32C227.792 25.8533 227.912 25.3 227.912 24.66V18.28H229.412V29H227.912V26.92L228.252 27C227.999 27.6933 227.566 28.24 226.952 28.64C226.339 29.04 225.632 29.24 224.832 29.24ZM236.597 29.12C235.637 29.12 234.897 28.84 234.377 28.28C233.857 27.72 233.597 26.92 233.597 25.88V19.78H231.617V18.28H232.117C232.57 18.28 232.93 18.1333 233.197 17.84C233.464 17.5333 233.597 17.1533 233.597 16.7V15.8H235.097V18.28H237.457V19.78H235.097V25.88C235.097 26.24 235.15 26.56 235.257 26.84C235.364 27.1067 235.544 27.32 235.797 27.48C236.064 27.64 236.417 27.72 236.857 27.72C236.964 27.72 237.09 27.7133 237.237 27.7C237.384 27.6867 237.51 27.6733 237.617 27.66V29C237.457 29.04 237.277 29.0667 237.077 29.08C236.877 29.1067 236.717 29.12 236.597 29.12ZM243.649 29V18.28H245.149V20.32L244.909 20.02C245.203 19.3933 245.636 18.9067 246.209 18.56C246.796 18.2133 247.436 18.04 248.129 18.04C248.956 18.04 249.703 18.2733 250.369 18.74C251.036 19.2067 251.509 19.8133 251.789 20.56L251.369 20.58C251.636 19.7533 252.096 19.1267 252.749 18.7C253.416 18.26 254.149 18.04 254.949 18.04C255.669 18.04 256.329 18.2133 256.929 18.56C257.543 18.9067 258.029 19.3867 258.389 20C258.763 20.6 258.949 21.28 258.949 22.04V29H257.449V22.62C257.449 21.9667 257.329 21.4133 257.089 20.96C256.863 20.5067 256.549 20.16 256.149 19.92C255.749 19.6667 255.289 19.54 254.769 19.54C254.263 19.54 253.803 19.6667 253.389 19.92C252.976 20.16 252.649 20.5133 252.409 20.98C252.169 21.4333 252.049 21.98 252.049 22.62V29H250.549V22.62C250.549 21.9667 250.429 21.4133 250.189 20.96C249.963 20.5067 249.649 20.16 249.249 19.92C248.849 19.6667 248.389 19.54 247.869 19.54C247.349 19.54 246.883 19.6667 246.469 19.92C246.069 20.16 245.749 20.5133 245.509 20.98C245.269 21.4333 245.149 21.98 245.149 22.62V29H243.649ZM266.693 29.24C265.693 29.24 264.787 29 263.973 28.52C263.173 28.0267 262.54 27.3533 262.073 26.5C261.607 25.6467 261.373 24.68 261.373 23.6C261.373 22.52 261.6 21.5667 262.053 20.74C262.507 19.9 263.12 19.24 263.893 18.76C264.68 18.28 265.56 18.04 266.533 18.04C267.307 18.04 267.993 18.1867 268.593 18.48C269.207 18.76 269.727 19.1467 270.153 19.64C270.58 20.12 270.907 20.6667 271.133 21.28C271.36 21.88 271.473 22.5 271.473 23.14C271.473 23.2733 271.467 23.4267 271.453 23.6C271.44 23.76 271.42 23.9267 271.393 24.1H262.333V22.7H270.533L269.813 23.3C269.933 22.5667 269.847 21.9133 269.553 21.34C269.273 20.7533 268.867 20.2933 268.333 19.96C267.8 19.6133 267.2 19.44 266.533 19.44C265.867 19.44 265.247 19.6133 264.673 19.96C264.113 20.3067 263.673 20.7933 263.353 21.42C263.033 22.0333 262.907 22.7667 262.973 23.62C262.907 24.4733 263.04 25.22 263.373 25.86C263.72 26.4867 264.187 26.9733 264.773 27.32C265.373 27.6667 266.013 27.84 266.693 27.84C267.48 27.84 268.14 27.6533 268.673 27.28C269.207 26.9067 269.64 26.44 269.973 25.88L271.253 26.56C271.04 27.04 270.713 27.4867 270.273 27.9C269.833 28.3 269.307 28.6267 268.693 28.88C268.093 29.12 267.427 29.24 266.693 29.24Z" fill="#285BAB"/>
</g>
<defs>
<clipPath id="clip0_728_3642">
<rect width="1818" height="60" fill="white"/>
</clipPath>
</defs>
</svg>
