<svg width="117" height="102" viewBox="0 0 117 102" fill="none" xmlns="http://www.w3.org/2000/svg">
<rect x="22.5" width="72" height="72" rx="36" fill="#FC644D"/>
<path d="M58.5 12.5C45.2448 12.5 34.5 23.2448 34.5 36.5C34.5 49.7552 45.2448 60.5 58.5 60.5C71.7552 60.5 82.5 49.7552 82.5 36.5C82.5 23.2448 71.7552 12.5 58.5 12.5ZM66.4635 47.1065C66.0861 47.4819 65.6903 47.8758 65.369 48.1981C65.0797 48.4884 64.8755 48.8465 64.7719 49.2345C64.6258 49.7823 64.5077 50.3358 64.3103 50.8671L62.6274 55.401C61.2958 55.6913 59.9177 55.8548 58.5 55.8548V53.2052C58.6635 51.9839 57.7606 49.6961 56.31 48.2455C55.7294 47.6648 55.4032 46.8771 55.4032 46.0555V42.9577C55.4032 41.8313 54.7965 40.7958 53.8103 40.251C52.4197 39.4816 50.4416 38.4065 49.0868 37.7242C47.9758 37.1648 46.9481 36.4526 46.0239 35.6194L45.9465 35.5497C45.2856 34.9531 44.6988 34.2792 44.1987 33.5426C43.291 32.21 41.8123 30.0181 40.8513 28.5935C42.8323 24.1903 46.4023 20.6542 50.8384 18.7332L53.1619 19.8955C54.1916 20.4103 55.4032 19.6623 55.4032 18.5106V17.4171C56.1765 17.2923 56.9632 17.2129 57.7635 17.1829L60.5023 19.9216C61.1071 20.5265 61.1071 21.5068 60.5023 22.1116L60.0484 22.5645L59.0477 23.5652C58.7458 23.8671 58.7458 24.3577 59.0477 24.6597L59.5016 25.1135C59.8035 25.4155 59.8035 25.9061 59.5016 26.2081L58.7274 26.9823C58.6555 27.0541 58.5701 27.1111 58.4761 27.15C58.3821 27.1888 58.2814 27.2088 58.1797 27.2087H57.3097C57.1084 27.2087 56.9148 27.2871 56.7697 27.4284L55.8097 28.3623C55.692 28.4769 55.6138 28.6259 55.5863 28.7878C55.5589 28.9497 55.5835 29.1162 55.6568 29.2632L57.1655 32.2816C57.4229 32.7965 57.0484 33.4023 56.4735 33.4023H55.9277C55.741 33.4023 55.561 33.3345 55.4206 33.2126L54.5226 32.4326C54.3193 32.2563 54.0737 32.1359 53.8099 32.0833C53.546 32.0307 53.273 32.0477 53.0177 32.1326L50.0013 33.1381C49.771 33.2149 49.5707 33.3622 49.4288 33.5591C49.2869 33.7561 49.2106 33.9927 49.2106 34.2355C49.2106 34.6739 49.4584 35.0735 49.8503 35.27L50.9226 35.8061C51.8332 36.2619 52.8377 36.499 53.8558 36.499C54.8739 36.499 56.0419 39.14 56.9526 39.5958H63.4123C64.2339 39.5958 65.0206 39.9219 65.6023 40.5026L66.9271 41.8274C67.2012 42.1016 67.4185 42.427 67.5668 42.7852C67.7151 43.1433 67.7914 43.5272 67.7913 43.9148C67.7911 44.5081 67.6737 45.0954 67.4458 45.6431C67.218 46.1908 66.8841 46.6881 66.4635 47.1065ZM74.8548 38.2661C74.2945 38.1258 73.8058 37.7823 73.4855 37.3013L71.7455 34.6913C71.4909 34.31 71.355 33.8617 71.355 33.4032C71.355 32.9447 71.4909 32.4965 71.7455 32.1152L73.6413 29.2719C73.8658 28.9361 74.1735 28.6632 74.5355 28.4832L75.7916 27.8552C77.1 30.4603 77.8548 33.3906 77.8548 36.5C77.8548 37.339 77.7832 38.1606 77.6787 38.9716L74.8548 38.2661Z" fill="#F6F6F6"/>
<path d="M115.932 98.508C115.772 98.732 115.536 98.992 115.224 99.288C114.912 99.576 114.524 99.856 114.06 100.128C113.596 100.392 113.056 100.612 112.44 100.788C111.824 100.964 111.128 101.052 110.352 101.052C109.152 101.052 108.1 100.808 107.196 100.32C106.292 99.832 105.592 99.12 105.096 98.184C104.6 97.24 104.352 96.092 104.352 94.74C104.352 93.444 104.62 92.32 105.156 91.368C105.7 90.416 106.444 89.68 107.388 89.16C108.332 88.64 109.416 88.38 110.64 88.38C112.176 88.38 113.372 88.848 114.228 89.784C115.092 90.72 115.572 91.976 115.668 93.552C115.684 93.808 115.692 94.056 115.692 94.296C115.692 94.528 115.68 94.768 115.656 95.016C115.552 95.008 115.336 95 115.008 94.992C114.688 94.976 114.312 94.964 113.88 94.956C113.448 94.94 113.012 94.928 112.572 94.92C112.14 94.904 111.768 94.896 111.456 94.896C110.648 94.896 109.82 94.936 108.972 95.016C108.124 95.096 107.368 95.188 106.704 95.292C106.712 95.5 106.732 95.704 106.764 95.904C106.796 96.104 106.836 96.296 106.884 96.48C107.02 96.968 107.268 97.392 107.628 97.752C107.988 98.104 108.416 98.376 108.912 98.568C109.416 98.76 109.948 98.856 110.508 98.856C111.1 98.856 111.616 98.768 112.056 98.592C112.496 98.416 112.872 98.2 113.184 97.944C113.504 97.688 113.76 97.444 113.952 97.212C114.152 96.98 114.304 96.808 114.408 96.696C114.456 96.736 114.548 96.824 114.684 96.96C114.828 97.088 114.98 97.244 115.14 97.428C115.308 97.612 115.464 97.8 115.608 97.992C115.76 98.176 115.868 98.348 115.932 98.508ZM106.74 93.684C107.316 93.588 107.992 93.504 108.768 93.432C109.552 93.36 110.44 93.324 111.432 93.324C111.952 93.324 112.392 93.332 112.752 93.348C113.12 93.356 113.376 93.368 113.52 93.384C113.52 93.12 113.488 92.84 113.424 92.544C113.336 92.144 113.176 91.756 112.944 91.38C112.712 91.004 112.396 90.692 111.996 90.444C111.604 90.188 111.108 90.06 110.508 90.06C109.82 90.06 109.192 90.208 108.624 90.504C108.064 90.792 107.616 91.208 107.28 91.752C106.944 92.288 106.764 92.932 106.74 93.684Z" fill="#2B3042"/>
<path d="M96.9558 90.552C97.1958 90.144 97.5438 89.772 97.9998 89.436C98.4638 89.1 98.9838 88.832 99.5598 88.632C100.144 88.432 100.728 88.332 101.312 88.332C101.688 88.332 102.068 88.368 102.452 88.44C102.836 88.504 103.136 88.596 103.352 88.716L102.872 91.128C102.68 91.048 102.432 90.964 102.128 90.876C101.832 90.78 101.464 90.732 101.024 90.732C100.552 90.732 100.08 90.82 99.6078 90.996C99.1438 91.164 98.7158 91.396 98.3238 91.692C97.9318 91.988 97.6038 92.328 97.3398 92.712C97.4518 93.272 97.5598 93.956 97.6638 94.764C97.7758 95.572 97.8758 96.4 97.9638 97.248C98.0518 98.096 98.1238 98.872 98.1798 99.576C98.2358 100.272 98.2638 100.796 98.2638 101.148C97.9198 101.18 97.4998 101.2 97.0038 101.208C96.5078 101.216 96.0518 101.216 95.6358 101.208C95.6358 100.464 95.6198 99.68 95.5878 98.856C95.5558 98.024 95.5038 97.176 95.4318 96.312C95.3678 95.44 95.2838 94.572 95.1798 93.708C95.0758 92.844 94.9518 92.008 94.8078 91.2C94.6718 90.384 94.5158 89.612 94.3398 88.884C94.5558 88.82 94.8078 88.756 95.0958 88.692C95.3918 88.628 95.6638 88.572 95.9118 88.524C96.1598 88.476 96.3278 88.448 96.4158 88.44C96.5198 88.712 96.6278 89.064 96.7398 89.496C96.8518 89.928 96.9238 90.28 96.9558 90.552Z" fill="#2B3042"/>
<path d="M88.9915 89.1841C89.1115 89.1521 89.2835 89.1241 89.5075 89.1001C89.7395 89.0761 89.9715 89.0641 90.2035 89.0641C90.3955 89.0641 90.6035 89.0721 90.8275 89.0881C91.0595 89.0961 91.2435 89.1121 91.3795 89.1361C91.5075 89.9121 91.6155 90.7041 91.7035 91.5121C91.7915 92.3201 91.8355 93.1161 91.8355 93.9001C91.8355 94.9721 91.7435 95.9841 91.5595 96.9361C91.3755 97.8881 91.0715 98.7281 90.6475 99.4561C90.2315 100.176 89.6675 100.744 88.9555 101.16C88.2515 101.576 87.3755 101.784 86.3275 101.784C85.1835 101.784 84.2435 101.56 83.5075 101.112C82.7715 100.656 82.1995 100.028 81.7915 99.2281C81.3835 98.4201 81.0955 97.4921 80.9275 96.4441C80.7675 95.3961 80.6875 94.2761 80.6875 93.0841C80.6875 92.3561 80.7115 91.6201 80.7595 90.8761C80.8075 90.1321 80.8595 89.4041 80.9155 88.6921C81.0595 88.6841 81.2395 88.6801 81.4555 88.6801C81.6795 88.6801 81.8795 88.6841 82.0555 88.6921C82.3035 88.7081 82.5475 88.7321 82.7875 88.7641C83.0355 88.7881 83.2395 88.8241 83.3995 88.8721C83.3195 89.5921 83.2555 90.3041 83.2075 91.0081C83.1595 91.7121 83.1355 92.3921 83.1355 93.0481C83.1355 94.4561 83.2515 95.6481 83.4835 96.6241C83.7235 97.6001 84.0795 98.3401 84.5515 98.8441C85.0315 99.3481 85.6315 99.6001 86.3515 99.6001C87.0235 99.6001 87.5835 99.3721 88.0315 98.9161C88.4875 98.4601 88.8315 97.8001 89.0635 96.9361C89.2955 96.0641 89.4115 95.0041 89.4115 93.7561C89.4115 93.0441 89.3755 92.3001 89.3035 91.5241C89.2315 90.7401 89.1275 89.9601 88.9915 89.1841Z" fill="#2B3042"/>
<path d="M78.2284 98.952C78.1084 99.336 77.9244 99.74 77.6764 100.164C77.4284 100.58 77.0844 100.932 76.6444 101.22C76.2044 101.516 75.6364 101.664 74.9404 101.664C74.0444 101.664 73.3324 101.468 72.8044 101.076C72.2844 100.684 71.9124 100.168 71.6884 99.528C71.4644 98.888 71.3524 98.192 71.3524 97.44C71.3524 97.048 71.3564 96.584 71.3644 96.048C71.3804 95.512 71.3964 94.956 71.4124 94.38C71.4284 93.804 71.4444 93.248 71.4604 92.712C71.4844 92.168 71.5044 91.692 71.5204 91.284C71.5364 90.868 71.5484 90.56 71.5564 90.36C70.7724 90.44 70.0924 90.528 69.5164 90.624C68.9484 90.712 68.5844 90.78 68.4244 90.828C68.3764 90.572 68.3364 90.304 68.3044 90.024C68.2804 89.736 68.2604 89.476 68.2444 89.244C68.2364 89.012 68.2324 88.856 68.2324 88.776C68.6804 88.712 69.2004 88.644 69.7924 88.572C70.3924 88.5 70.9844 88.444 71.5684 88.404C71.5764 88.092 71.5804 87.708 71.5804 87.252C71.5804 86.788 71.5804 86.352 71.5804 85.944C71.5724 85.6 71.5564 85.268 71.5324 84.948C71.5084 84.62 71.4884 84.348 71.4724 84.132L73.7284 84C73.7444 84.12 73.7604 84.408 73.7764 84.864C73.8004 85.312 73.8124 85.856 73.8124 86.496C73.8124 86.736 73.8124 87.028 73.8124 87.372C73.8124 87.708 73.8124 88.008 73.8124 88.272C74.0524 88.256 74.3484 88.24 74.7004 88.224C75.0524 88.208 75.3364 88.2 75.5524 88.2C75.9284 88.192 76.2884 88.188 76.6324 88.188C76.9764 88.188 77.2724 88.192 77.5204 88.2C77.7684 88.208 77.9204 88.216 77.9764 88.224C78.0164 88.44 78.0404 88.74 78.0484 89.124C78.0644 89.508 78.0724 89.828 78.0724 90.084C77.9924 90.076 77.7164 90.072 77.2444 90.072C76.7804 90.064 76.3204 90.064 75.8644 90.072C75.5364 90.08 75.1764 90.096 74.7844 90.12C74.3924 90.136 74.0564 90.152 73.7764 90.168C73.7684 90.376 73.7524 90.684 73.7284 91.092C73.7124 91.5 73.6964 91.96 73.6804 92.472C73.6644 92.976 73.6484 93.492 73.6324 94.02C73.6164 94.54 73.6044 95.028 73.5964 95.484C73.5884 95.932 73.5844 96.296 73.5844 96.576C73.5844 97.08 73.6124 97.56 73.6684 98.016C73.7324 98.472 73.8764 98.848 74.1004 99.144C74.3324 99.432 74.6964 99.576 75.1924 99.576C75.5284 99.576 75.8004 99.456 76.0084 99.216C76.2164 98.976 76.3764 98.7 76.4884 98.388C76.6084 98.076 76.6964 97.816 76.7524 97.608C76.8244 97.688 76.9284 97.796 77.0644 97.932C77.2084 98.06 77.3604 98.196 77.5204 98.34C77.6884 98.484 77.8364 98.612 77.9644 98.724C78.1004 98.836 78.1884 98.912 78.2284 98.952Z" fill="#2B3042"/>
<path d="M56.9031 101.34C56.7511 101.34 56.5671 101.34 56.3511 101.34C56.1351 101.348 55.9191 101.348 55.7031 101.34C55.5031 101.332 55.2751 101.32 55.0191 101.304C54.7631 101.296 54.5751 101.284 54.4551 101.268C54.5351 100.604 54.6031 99.88 54.6591 99.096C54.7231 98.304 54.7751 97.416 54.8151 96.432C54.8551 95.44 54.8871 94.316 54.9111 93.06C54.9351 91.796 54.9471 90.36 54.9471 88.752C55.1391 88.72 55.3671 88.696 55.6311 88.68C55.9031 88.656 56.1791 88.644 56.4591 88.644C56.6351 88.644 56.8111 88.648 56.9871 88.656C57.1711 88.664 57.3311 88.68 57.4671 88.704C57.4751 88.792 57.4791 88.952 57.4791 89.184C57.4871 89.416 57.4871 89.672 57.4791 89.952C57.4791 90.232 57.4791 90.48 57.4791 90.696C57.7751 90.368 58.1951 90.032 58.7391 89.688C59.2831 89.344 59.8911 89.056 60.5631 88.824C61.2351 88.584 61.9111 88.464 62.5911 88.464C63.8071 88.464 64.7311 88.708 65.3631 89.196C65.9951 89.676 66.4231 90.388 66.6471 91.332C66.8791 92.276 66.9951 93.448 66.9951 94.848C66.9951 95.392 66.9791 96.008 66.9471 96.696C66.9231 97.384 66.8791 98.112 66.8151 98.88C66.7591 99.648 66.6831 100.428 66.5871 101.22C66.4751 101.236 66.3031 101.248 66.0711 101.256C65.8471 101.272 65.6071 101.28 65.3511 101.28C65.0951 101.28 64.8511 101.276 64.6191 101.268C64.3871 101.26 64.2031 101.244 64.0671 101.22C64.1711 100.54 64.2671 99.832 64.3551 99.096C64.4431 98.352 64.5151 97.616 64.5711 96.888C64.6271 96.152 64.6551 95.46 64.6551 94.812C64.6551 93.98 64.5911 93.252 64.4631 92.628C64.3431 92.004 64.0991 91.52 63.7311 91.176C63.3711 90.832 62.8391 90.66 62.1351 90.66C61.4071 90.66 60.7391 90.78 60.1311 91.02C59.5231 91.26 58.9911 91.544 58.5351 91.872C58.0871 92.2 57.7231 92.492 57.4431 92.748C57.4111 94.1 57.3631 95.34 57.2991 96.468C57.2351 97.596 57.1671 98.576 57.0951 99.408C57.0231 100.24 56.9591 100.884 56.9031 101.34Z" fill="#2B3042"/>
<path d="M52.1816 98.508C52.0216 98.732 51.7856 98.992 51.4736 99.288C51.1616 99.576 50.7736 99.856 50.3096 100.128C49.8456 100.392 49.3056 100.612 48.6896 100.788C48.0736 100.964 47.3776 101.052 46.6016 101.052C45.4016 101.052 44.3496 100.808 43.4456 100.32C42.5416 99.832 41.8416 99.12 41.3456 98.184C40.8496 97.24 40.6016 96.092 40.6016 94.74C40.6016 93.444 40.8696 92.32 41.4056 91.368C41.9496 90.416 42.6936 89.68 43.6376 89.16C44.5816 88.64 45.6656 88.38 46.8896 88.38C48.4256 88.38 49.6216 88.848 50.4776 89.784C51.3416 90.72 51.8216 91.976 51.9176 93.552C51.9336 93.808 51.9416 94.056 51.9416 94.296C51.9416 94.528 51.9296 94.768 51.9056 95.016C51.8016 95.008 51.5856 95 51.2576 94.992C50.9376 94.976 50.5616 94.964 50.1296 94.956C49.6976 94.94 49.2616 94.928 48.8216 94.92C48.3896 94.904 48.0176 94.896 47.7056 94.896C46.8976 94.896 46.0696 94.936 45.2216 95.016C44.3736 95.096 43.6176 95.188 42.9536 95.292C42.9616 95.5 42.9816 95.704 43.0136 95.904C43.0456 96.104 43.0856 96.296 43.1336 96.48C43.2696 96.968 43.5176 97.392 43.8776 97.752C44.2376 98.104 44.6656 98.376 45.1616 98.568C45.6656 98.76 46.1976 98.856 46.7576 98.856C47.3496 98.856 47.8656 98.768 48.3056 98.592C48.7456 98.416 49.1216 98.2 49.4336 97.944C49.7536 97.688 50.0096 97.444 50.2016 97.212C50.4016 96.98 50.5536 96.808 50.6576 96.696C50.7056 96.736 50.7976 96.824 50.9336 96.96C51.0776 97.088 51.2296 97.244 51.3896 97.428C51.5576 97.612 51.7136 97.8 51.8576 97.992C52.0096 98.176 52.1176 98.348 52.1816 98.508ZM42.9896 93.684C43.5656 93.588 44.2416 93.504 45.0176 93.432C45.8016 93.36 46.6896 93.324 47.6816 93.324C48.2016 93.324 48.6416 93.332 49.0016 93.348C49.3696 93.356 49.6256 93.368 49.7696 93.384C49.7696 93.12 49.7376 92.84 49.6736 92.544C49.5856 92.144 49.4256 91.756 49.1936 91.38C48.9616 91.004 48.6456 90.692 48.2456 90.444C47.8536 90.188 47.3576 90.06 46.7576 90.06C46.0696 90.06 45.4416 90.208 44.8736 90.504C44.3136 90.792 43.8656 91.208 43.5296 91.752C43.1936 92.288 43.0136 92.932 42.9896 93.684Z" fill="#2B3042"/>
<path d="M36.8583 88.092C37.2263 88.156 37.5702 88.232 37.8902 88.32C38.2102 88.408 38.4823 88.488 38.7063 88.56C38.9303 88.624 39.0663 88.668 39.1143 88.692C38.9783 89.228 38.7823 89.904 38.5263 90.72C38.2703 91.528 37.9783 92.404 37.6503 93.348C37.3303 94.292 36.9903 95.252 36.6303 96.228C36.2783 97.196 35.9303 98.116 35.5863 98.988C35.2503 99.86 34.9383 100.616 34.6503 101.256C34.3943 101.304 34.0423 101.328 33.5943 101.328C33.4023 101.328 33.2142 101.32 33.0302 101.304C32.8462 101.288 32.6903 101.272 32.5623 101.256C32.1063 100.312 31.6622 99.308 31.2302 98.244C30.7982 97.172 30.3823 96.08 29.9823 94.968C29.5823 93.856 29.2062 92.76 28.8542 91.68C28.5102 90.6 28.1943 89.58 27.9062 88.62C28.0103 88.588 28.1542 88.552 28.3382 88.512C28.5222 88.464 28.7183 88.416 28.9263 88.368C29.1343 88.312 29.3382 88.26 29.5382 88.212C29.7382 88.164 29.9062 88.12 30.0422 88.08C30.1702 88.592 30.3503 89.224 30.5823 89.976C30.8143 90.72 31.0703 91.512 31.3503 92.352C31.6383 93.192 31.9263 94.02 32.2143 94.836C32.5103 95.644 32.7862 96.38 33.0422 97.044C33.2982 97.7 33.5063 98.216 33.6663 98.592L33.4983 98.628C33.7063 98.132 33.9303 97.552 34.1703 96.888C34.4103 96.216 34.6583 95.496 34.9143 94.728C35.1783 93.96 35.4342 93.184 35.6822 92.4C35.9302 91.608 36.1542 90.844 36.3542 90.108C36.5542 89.364 36.7223 88.692 36.8583 88.092Z" fill="#2B3042"/>
<path d="M23.5347 101.148C23.5347 101.012 23.5307 100.808 23.5227 100.536C23.5147 100.256 23.5107 99.984 23.5107 99.72C23.5107 99.448 23.5107 99.248 23.5107 99.12C23.4547 99.216 23.3307 99.372 23.1387 99.588C22.9467 99.804 22.6747 100.032 22.3227 100.272C21.9787 100.512 21.5427 100.716 21.0147 100.884C20.4867 101.052 19.8587 101.136 19.1307 101.136C18.0587 101.136 17.1427 100.904 16.3827 100.44C15.6227 99.968 15.0427 99.312 14.6427 98.472C14.2507 97.632 14.0547 96.66 14.0547 95.556C14.0547 94.524 14.2547 93.564 14.6547 92.676C15.0547 91.78 15.6547 91.056 16.4547 90.504C17.2547 89.952 18.2547 89.676 19.4547 89.676C20.1747 89.676 20.8147 89.756 21.3747 89.916C21.9427 90.076 22.4147 90.268 22.7907 90.492C23.1747 90.708 23.4467 90.9 23.6067 91.068C23.6147 90.716 23.6347 90.28 23.6667 89.76C23.7067 89.24 23.7467 88.688 23.7867 88.104C23.8267 87.52 23.8667 86.956 23.9067 86.412C23.9467 85.86 23.9827 85.376 24.0147 84.96C24.0547 84.544 24.0827 84.252 24.0987 84.084C24.4187 84.084 24.7707 84.1 25.1547 84.132C25.5467 84.164 25.8827 84.208 26.1627 84.264C26.0187 86.136 25.9067 88 25.8267 89.856C25.7547 91.704 25.7067 93.572 25.6827 95.46C25.6587 97.34 25.6467 99.256 25.6467 101.208C25.5267 101.208 25.3227 101.204 25.0347 101.196C24.7547 101.196 24.4707 101.192 24.1827 101.184C23.8947 101.168 23.6787 101.156 23.5347 101.148ZM19.7067 98.928C20.2587 98.928 20.7507 98.848 21.1827 98.688C21.6147 98.52 21.9827 98.32 22.2867 98.088C22.5907 97.848 22.8387 97.612 23.0307 97.38C23.2307 97.14 23.3707 96.948 23.4507 96.804C23.4507 96.62 23.4507 96.352 23.4507 96C23.4587 95.64 23.4627 95.264 23.4627 94.872C23.4707 94.472 23.4747 94.1 23.4747 93.756C23.4827 93.412 23.4907 93.156 23.4987 92.988C23.3147 92.82 23.0387 92.636 22.6707 92.436C22.3107 92.236 21.8867 92.064 21.3987 91.92C20.9107 91.776 20.3867 91.704 19.8267 91.704C18.6827 91.704 17.8067 92.04 17.1987 92.712C16.5987 93.376 16.2987 94.28 16.2987 95.424C16.2987 96.576 16.5907 97.448 17.1747 98.04C17.7667 98.632 18.6107 98.928 19.7067 98.928Z" fill="#2B3042"/>
<path d="M3.62631 101.364C3.47431 101.364 3.28231 101.36 3.05031 101.352C2.82631 101.344 2.59031 101.332 2.34231 101.316C2.09431 101.308 1.85831 101.296 1.63431 101.28C1.41031 101.272 1.22231 101.26 1.07031 101.244C1.15031 100.828 1.26231 100.244 1.40631 99.492C1.55831 98.74 1.73831 97.888 1.94631 96.936C2.15431 95.976 2.37431 94.972 2.60631 93.924C2.83831 92.876 3.07431 91.836 3.31431 90.804C3.56231 89.764 3.79831 88.788 4.02231 87.876C4.24631 86.964 4.44631 86.18 4.62231 85.524C5.11031 85.452 5.70231 85.38 6.39831 85.308C7.10231 85.236 7.81831 85.2 8.54631 85.2C8.85831 85.2 9.18231 85.208 9.51831 85.224C9.85431 85.24 10.1743 85.268 10.4783 85.308C10.6303 86.012 10.7823 86.852 10.9343 87.828C11.0943 88.804 11.2463 89.94 11.3903 91.236C11.5423 92.532 11.6903 94.004 11.8343 95.652C11.9863 97.292 12.1343 99.136 12.2783 101.184C12.0943 101.216 11.8503 101.244 11.5463 101.268C11.2423 101.3 10.9263 101.324 10.5983 101.34C10.2783 101.356 9.98231 101.364 9.71031 101.364C9.69431 101.132 9.67831 100.828 9.66231 100.452C9.64631 100.076 9.62631 99.66 9.60231 99.204C9.57831 98.74 9.55431 98.28 9.53031 97.824C9.50631 97.36 9.48231 96.932 9.45831 96.54C9.43431 96.148 9.41431 95.828 9.39831 95.58C9.14231 95.588 8.83031 95.6 8.46231 95.616C8.09431 95.632 7.70631 95.656 7.29831 95.688C6.89831 95.712 6.51031 95.74 6.13431 95.772C5.76631 95.804 5.44631 95.836 5.17431 95.868C4.90231 95.9 4.72231 95.924 4.63431 95.94C4.49031 96.62 4.35031 97.308 4.21431 98.004C4.07831 98.692 3.95831 99.332 3.85431 99.924C3.75031 100.508 3.67431 100.988 3.62631 101.364ZM4.95831 93.876C5.25431 93.812 5.66231 93.752 6.18231 93.696C6.71031 93.64 7.25831 93.592 7.82631 93.552C8.40231 93.512 8.90231 93.484 9.32631 93.468C9.31031 93.22 9.28231 92.824 9.24231 92.28C9.20231 91.736 9.15431 91.14 9.09831 90.492C9.04231 89.844 8.98631 89.232 8.93031 88.656C8.88231 88.072 8.83031 87.62 8.77431 87.3C8.59031 87.3 8.32631 87.312 7.98231 87.336C7.64631 87.352 7.31831 87.376 6.99831 87.408C6.68631 87.432 6.46631 87.452 6.33831 87.468C6.29031 87.676 6.21831 87.992 6.12231 88.416C6.02631 88.832 5.91431 89.332 5.78631 89.916C5.65831 90.492 5.52231 91.12 5.37831 91.8C5.24231 92.472 5.10231 93.164 4.95831 93.876Z" fill="#2B3042"/>
</svg>
