<svg width="93" height="103" viewBox="0 0 93 103" fill="none" xmlns="http://www.w3.org/2000/svg">
<rect x="10.2891" width="72" height="72" rx="36" fill="#74C0FC"/>
<path d="M39.0188 18.03C41.3692 17.6913 43.859 20.2608 44.5761 23.8063C45.2931 27.3319 43.9984 30.479 41.6481 30.8376C39.3176 31.1961 36.8079 28.6266 36.0709 25.0811C35.3339 21.5555 36.6684 18.4084 39.0188 18.03ZM53.2605 18.03C55.6308 18.4084 56.9455 21.5555 56.2483 25.0811C55.4914 28.6266 53.0016 31.1961 50.6512 30.8376C48.2809 30.479 46.9862 27.3319 47.7232 23.8063C48.4403 20.2608 50.9301 17.6913 53.2605 18.03ZM28.3624 27.1925C30.6331 26.2165 33.7205 27.9892 35.3339 31.0766C36.8477 34.2237 36.3298 37.5302 34.079 38.5062C31.8282 39.4822 28.7608 37.7293 27.1872 34.6021C25.6137 31.4749 26.1714 28.1486 28.3624 27.1925ZM64.2157 27.1925C66.4067 28.1486 66.9645 31.4749 65.3909 34.6021C63.8173 37.7293 60.7499 39.4822 58.4991 38.5062C56.2483 37.5302 55.7304 34.2237 57.2442 31.0766C58.8576 27.9892 61.945 26.2165 64.2157 27.1925ZM60.8893 48.6646C60.969 50.5369 59.5349 52.6085 57.8219 53.3853C54.2565 55.0186 50.0337 51.6325 46.07 51.6325C42.1062 51.6325 37.8436 55.158 34.338 53.3853C32.3461 52.4093 30.9717 49.8199 31.2307 47.6687C31.5892 44.7008 35.1546 43.1073 37.266 40.9362C40.0745 38.1277 42.0663 32.8493 46.07 32.8493C50.0537 32.8493 52.165 38.048 54.854 40.9362C57.065 43.3663 60.7499 45.4179 60.8893 48.6646Z" fill="#F6F6F6"/>
<path d="M87.3108 102.168C86.5668 102.168 85.8268 102.064 85.0908 101.856C84.3548 101.648 83.6828 101.372 83.0748 101.028C82.4748 100.676 81.9948 100.288 81.6348 99.864C81.6908 99.752 81.7708 99.6 81.8748 99.408C81.9788 99.216 82.0988 99.016 82.2348 98.808C82.3708 98.592 82.5068 98.396 82.6428 98.22C82.7788 98.036 82.8988 97.896 83.0028 97.8C83.3468 98.184 83.7588 98.556 84.2388 98.916C84.7188 99.268 85.2348 99.556 85.7868 99.78C86.3388 99.996 86.8908 100.104 87.4428 100.104C87.9708 100.104 88.4468 100.028 88.8708 99.876C89.3028 99.716 89.6428 99.488 89.8908 99.192C90.1468 98.896 90.2748 98.54 90.2748 98.124C90.2748 97.644 90.1228 97.232 89.8188 96.888C89.5148 96.536 89.1068 96.228 88.5948 95.964C88.0828 95.692 87.5188 95.444 86.9028 95.22C86.1588 94.948 85.4788 94.652 84.8628 94.332C84.2548 94.004 83.7668 93.596 83.3988 93.108C83.0388 92.62 82.8588 92 82.8588 91.248C82.8588 90.48 83.0748 89.84 83.5068 89.328C83.9468 88.816 84.5228 88.428 85.2348 88.164C85.9548 87.9 86.7308 87.768 87.5628 87.768C88.4908 87.768 89.3428 87.888 90.1188 88.128C90.9028 88.36 91.5028 88.632 91.9188 88.944C91.8868 89.08 91.8188 89.26 91.7148 89.484C91.6108 89.7 91.4908 89.92 91.3548 90.144C91.2188 90.368 91.0788 90.572 90.9348 90.756C90.5508 90.5 90.0828 90.256 89.5308 90.024C88.9788 89.792 88.3788 89.676 87.7308 89.676C87.2988 89.676 86.8828 89.728 86.4828 89.832C86.0828 89.928 85.7548 90.092 85.4988 90.324C85.2428 90.556 85.1148 90.872 85.1148 91.272C85.1148 91.616 85.2388 91.924 85.4868 92.196C85.7428 92.468 86.0868 92.712 86.5188 92.928C86.9508 93.136 87.4388 93.336 87.9828 93.528C88.6388 93.752 89.2468 94.004 89.8068 94.284C90.3668 94.556 90.8508 94.872 91.2588 95.232C91.6748 95.584 91.9988 95.992 92.2308 96.456C92.4628 96.912 92.5788 97.428 92.5788 98.004C92.5788 98.924 92.3428 99.692 91.8708 100.308C91.3988 100.924 90.7668 101.388 89.9748 101.7C89.1828 102.012 88.2948 102.168 87.3108 102.168Z" fill="#2B3042"/>
<path d="M81.027 100.428C80.843 100.692 80.515 100.956 80.043 101.22C79.571 101.492 79.007 101.628 78.351 101.628C77.431 101.628 76.747 101.388 76.299 100.908C75.851 100.42 75.555 99.748 75.411 98.892C75.275 98.036 75.207 97.06 75.207 95.964C75.207 95.26 75.215 94.492 75.231 93.66C75.247 92.828 75.267 91.968 75.291 91.08C75.323 90.192 75.355 89.32 75.387 88.464C75.419 87.6 75.451 86.792 75.483 86.04C75.515 85.28 75.547 84.616 75.579 84.048C75.947 84.016 76.283 84 76.587 84C76.795 84 77.003 84.008 77.211 84.024C77.419 84.04 77.631 84.06 77.847 84.084C77.815 84.66 77.779 85.344 77.739 86.136C77.699 86.92 77.655 87.756 77.607 88.644C77.567 89.532 77.531 90.42 77.499 91.308C77.467 92.196 77.439 93.024 77.415 93.792C77.391 94.56 77.379 95.216 77.379 95.76C77.379 96.368 77.411 96.956 77.475 97.524C77.539 98.084 77.675 98.544 77.883 98.904C78.091 99.264 78.407 99.444 78.831 99.444C79.159 99.444 79.411 99.364 79.587 99.204C79.763 99.044 79.915 98.84 80.043 98.592C80.091 98.656 80.163 98.776 80.259 98.952C80.363 99.12 80.467 99.312 80.571 99.528C80.683 99.736 80.779 99.924 80.859 100.092C80.947 100.26 81.003 100.372 81.027 100.428Z" fill="#2B3042"/>
<path d="M64.4095 101.448C63.4095 101.448 62.5015 101.316 61.6855 101.052C60.8775 100.78 60.2335 100.348 59.7535 99.756C59.2735 99.156 59.0335 98.36 59.0335 97.368C59.0335 96.416 59.3015 95.628 59.8375 95.004C60.3735 94.38 61.0975 93.92 62.0095 93.624C62.9295 93.32 63.9575 93.168 65.0935 93.168C65.6215 93.168 66.1375 93.208 66.6415 93.288C67.1455 93.36 67.5815 93.448 67.9495 93.552C68.3175 93.648 68.5655 93.724 68.6935 93.78C68.6695 93.516 68.6215 93.248 68.5495 92.976C68.4855 92.696 68.3855 92.452 68.2495 92.244C67.9455 91.708 67.5015 91.268 66.9175 90.924C66.3415 90.572 65.6175 90.396 64.7455 90.396C63.8255 90.396 63.0455 90.596 62.4055 90.996C61.7655 91.388 61.2855 91.856 60.9655 92.4L59.0215 91.116C59.3735 90.596 59.8375 90.136 60.4135 89.736C60.9895 89.336 61.6535 89.02 62.4055 88.788C63.1575 88.556 63.9655 88.44 64.8295 88.44C66.1735 88.44 67.2855 88.696 68.1655 89.208C69.0455 89.72 69.6895 90.396 70.0975 91.236C70.3055 91.66 70.4695 92.124 70.5895 92.628C70.7095 93.132 70.7815 93.756 70.8055 94.5C70.8215 95.284 70.8375 95.952 70.8535 96.504C70.8775 97.056 70.9015 97.532 70.9255 97.932C70.9655 98.452 71.0455 98.788 71.1655 98.94C71.2855 99.092 71.4575 99.168 71.6815 99.168C71.9375 99.168 72.1535 99.06 72.3295 98.844C72.5055 98.62 72.6055 98.308 72.6295 97.908L73.7815 99.18C73.7335 99.852 73.4975 100.364 73.0735 100.716C72.6495 101.068 72.1535 101.244 71.5855 101.244C71.1375 101.244 70.7415 101.16 70.3975 100.992C70.0615 100.816 69.7935 100.592 69.5935 100.32C69.3935 100.048 69.2775 99.768 69.2455 99.48C69.0855 99.776 68.7735 100.076 68.3095 100.38C67.8535 100.684 67.2895 100.94 66.6175 101.148C65.9535 101.348 65.2175 101.448 64.4095 101.448ZM64.8415 99.564C65.3615 99.564 65.8695 99.484 66.3655 99.324C66.8615 99.164 67.3175 98.952 67.7335 98.688C68.1575 98.424 68.5055 98.132 68.7775 97.812C68.7695 97.316 68.7695 96.876 68.7775 96.492C68.7855 96.1 68.7975 95.74 68.8135 95.412C68.5815 95.332 68.1375 95.228 67.4815 95.1C66.8255 94.964 66.0855 94.896 65.2615 94.896C64.5495 94.896 63.9015 94.992 63.3175 95.184C62.7415 95.368 62.2815 95.636 61.9375 95.988C61.6015 96.34 61.4335 96.764 61.4335 97.26C61.4335 97.86 61.5775 98.328 61.8655 98.664C62.1615 98.992 62.5655 99.224 63.0775 99.36C63.5895 99.496 64.1775 99.564 64.8415 99.564Z" fill="#2B3042"/>
<path d="M37.9312 101.304C37.8672 100.728 37.8112 100.04 37.7632 99.24C37.7152 98.44 37.6712 97.588 37.6312 96.684C37.5912 95.78 37.5592 94.872 37.5352 93.96C37.5112 93.048 37.4912 92.184 37.4752 91.368C37.4592 90.544 37.4512 89.824 37.4512 89.208C37.5712 89.168 37.7312 89.128 37.9312 89.088C38.1312 89.048 38.3432 89.012 38.5672 88.98C38.7912 88.948 39.0032 88.924 39.2032 88.908C39.4032 88.884 39.5672 88.872 39.6952 88.872C39.7032 89 39.7112 89.188 39.7192 89.436C39.7272 89.676 39.7352 89.932 39.7432 90.204C39.7592 90.476 39.7672 90.724 39.7672 90.948C39.7752 91.164 39.7792 91.316 39.7792 91.404C39.8432 91.236 39.9672 91.008 40.1512 90.72C40.3432 90.432 40.6032 90.14 40.9312 89.844C41.2672 89.548 41.6832 89.3 42.1792 89.1C42.6752 88.9 43.2592 88.8 43.9312 88.8C44.5392 88.8 45.0512 88.928 45.4672 89.184C45.8912 89.44 46.2352 89.776 46.4992 90.192C46.7712 90.6 46.9752 91.044 47.1112 91.524C47.1912 91.804 47.2472 92.084 47.2792 92.364C47.3192 92.644 47.3472 92.916 47.3632 93.18C47.4992 92.42 47.7552 91.696 48.1312 91.008C48.5152 90.312 49.0312 89.744 49.6792 89.304C50.3352 88.864 51.1352 88.644 52.0792 88.644C52.9512 88.644 53.6672 88.824 54.2272 89.184C54.7872 89.544 55.2232 90.052 55.5352 90.708C55.8472 91.364 56.0632 92.144 56.1832 93.048C56.3112 93.944 56.3752 94.936 56.3752 96.024C56.3752 96.6 56.3592 97.212 56.3272 97.86C56.3032 98.508 56.2672 99.14 56.2192 99.756C56.1792 100.364 56.1352 100.908 56.0872 101.388C55.8952 101.412 55.6992 101.428 55.4992 101.436C55.2992 101.452 55.0992 101.46 54.8992 101.46C54.7072 101.46 54.5032 101.452 54.2872 101.436C54.0792 101.428 53.8672 101.416 53.6512 101.4C53.8112 100.216 53.9352 99.12 54.0232 98.112C54.1192 97.104 54.1672 96.204 54.1672 95.412C54.1672 93.9 53.9872 92.752 53.6272 91.968C53.2672 91.184 52.6752 90.792 51.8512 90.792C51.1072 90.792 50.5072 91.012 50.0512 91.452C49.6032 91.892 49.2592 92.484 49.0192 93.228C48.7872 93.972 48.6272 94.812 48.5392 95.748C48.4512 96.684 48.3992 97.648 48.3832 98.64C48.3752 99.064 48.3672 99.504 48.3592 99.96C48.3512 100.408 48.3472 100.856 48.3472 101.304C48.2272 101.312 48.0672 101.32 47.8672 101.328C47.6752 101.344 47.4792 101.352 47.2792 101.352C47.0472 101.352 46.8152 101.344 46.5832 101.328C46.3512 101.32 46.1712 101.304 46.0432 101.28C46.0512 100.744 46.0552 100.228 46.0552 99.732C46.0632 99.236 46.0672 98.74 46.0672 98.244C46.0672 97.308 46.0352 96.404 45.9712 95.532C45.9152 94.66 45.7992 93.876 45.6232 93.18C45.4472 92.476 45.1792 91.916 44.8192 91.5C44.4592 91.084 43.9792 90.876 43.3792 90.876C42.9312 90.876 42.5032 90.992 42.0952 91.224C41.6952 91.456 41.3352 91.748 41.0152 92.1C40.6952 92.444 40.4392 92.808 40.2472 93.192C40.0552 93.568 39.9432 93.9 39.9112 94.188C39.9592 95.468 40.0152 96.616 40.0792 97.632C40.1512 98.648 40.2152 99.48 40.2712 100.128C40.3352 100.768 40.3792 101.176 40.4032 101.352C40.3312 101.36 40.2032 101.368 40.0192 101.376C39.8352 101.384 39.6712 101.388 39.5272 101.388C39.2232 101.388 38.9192 101.38 38.6152 101.364C38.3192 101.348 38.0912 101.328 37.9312 101.304Z" fill="#2B3042"/>
<path d="M32.6545 101.208C32.5425 101.216 32.3665 101.228 32.1265 101.244C31.8865 101.26 31.6425 101.268 31.3945 101.268C31.1705 101.268 30.9545 101.26 30.7465 101.244C30.5385 101.228 30.3425 101.208 30.1585 101.184C30.1905 100.976 30.2305 100.548 30.2785 99.9C30.3265 99.244 30.3745 98.468 30.4225 97.572C30.4705 96.676 30.5145 95.752 30.5545 94.8C30.5945 93.848 30.6265 92.96 30.6505 92.136C30.6745 91.304 30.6865 90.644 30.6865 90.156C30.7745 90.148 30.9145 90.14 31.1065 90.132C31.3065 90.124 31.5225 90.116 31.7545 90.108C31.9865 90.092 32.2065 90.08 32.4145 90.072C32.6225 90.064 32.7785 90.06 32.8825 90.06C32.9145 90.276 32.9345 90.608 32.9425 91.056C32.9585 91.496 32.9665 91.996 32.9665 92.556C32.9665 93.3 32.9585 94.112 32.9425 94.992C32.9345 95.872 32.9145 96.736 32.8825 97.584C32.8505 98.432 32.8145 99.18 32.7745 99.828C32.7425 100.476 32.7025 100.936 32.6545 101.208ZM31.9225 88.188C31.3785 88.188 30.9465 88.024 30.6265 87.696C30.3065 87.368 30.1465 86.956 30.1465 86.46C30.1465 86.084 30.2265 85.772 30.3865 85.524C30.5465 85.268 30.7545 85.076 31.0105 84.948C31.2745 84.812 31.5585 84.744 31.8625 84.744C32.3505 84.744 32.7425 84.916 33.0385 85.26C33.3425 85.604 33.4945 86.032 33.4945 86.544C33.4945 86.992 33.3505 87.38 33.0625 87.708C32.7825 88.028 32.4025 88.188 31.9225 88.188Z" fill="#2B3042"/>
<path d="M16.1531 101.352C16.0011 101.352 15.8171 101.352 15.6011 101.352C15.3851 101.36 15.1691 101.36 14.9531 101.352C14.7531 101.344 14.5251 101.332 14.2691 101.316C14.0131 101.308 13.8251 101.296 13.7051 101.28C13.7851 100.616 13.8531 99.892 13.9091 99.108C13.9731 98.316 14.0251 97.428 14.0651 96.444C14.1051 95.452 14.1371 94.328 14.1611 93.072C14.1851 91.808 14.1971 90.372 14.1971 88.764C14.3891 88.732 14.6171 88.708 14.8811 88.692C15.1531 88.668 15.4291 88.656 15.7091 88.656C15.8851 88.656 16.0611 88.66 16.2371 88.668C16.4211 88.676 16.5811 88.692 16.7171 88.716C16.7251 88.804 16.7291 88.964 16.7291 89.196C16.7371 89.428 16.7371 89.684 16.7291 89.964C16.7291 90.244 16.7291 90.492 16.7291 90.708C17.0251 90.38 17.4451 90.044 17.9891 89.7C18.5331 89.356 19.1411 89.068 19.8131 88.836C20.4851 88.596 21.1611 88.476 21.8411 88.476C23.0571 88.476 23.9811 88.72 24.6131 89.208C25.2451 89.688 25.6731 90.4 25.8971 91.344C26.1291 92.288 26.2451 93.46 26.2451 94.86C26.2451 95.404 26.2291 96.02 26.1971 96.708C26.1731 97.396 26.1291 98.124 26.0651 98.892C26.0091 99.66 25.9331 100.44 25.8371 101.232C25.7251 101.248 25.5531 101.26 25.3211 101.268C25.0971 101.284 24.8571 101.292 24.6011 101.292C24.3451 101.292 24.1011 101.288 23.8691 101.28C23.6371 101.272 23.4531 101.256 23.3171 101.232C23.4211 100.552 23.5171 99.844 23.6051 99.108C23.6931 98.364 23.7651 97.628 23.8211 96.9C23.8771 96.164 23.9051 95.472 23.9051 94.824C23.9051 93.992 23.8411 93.264 23.7131 92.64C23.5931 92.016 23.3491 91.532 22.9811 91.188C22.6211 90.844 22.0891 90.672 21.3851 90.672C20.6571 90.672 19.9891 90.792 19.3811 91.032C18.7731 91.272 18.2411 91.556 17.7851 91.884C17.3371 92.212 16.9731 92.504 16.6931 92.76C16.6611 94.112 16.6131 95.352 16.5491 96.48C16.4851 97.608 16.4171 98.588 16.3451 99.42C16.2731 100.252 16.2091 100.896 16.1531 101.352Z" fill="#2B3042"/>
<path d="M2.556 101.376C2.404 101.376 2.212 101.372 1.98 101.364C1.756 101.356 1.52 101.344 1.272 101.328C1.024 101.32 0.788 101.308 0.564 101.292C0.34 101.284 0.152 101.272 0 101.256C0.08 100.84 0.192 100.256 0.336 99.504C0.488 98.752 0.668 97.9 0.876 96.948C1.084 95.988 1.304 94.984 1.536 93.936C1.768 92.888 2.004 91.848 2.244 90.816C2.492 89.776 2.728 88.8 2.952 87.888C3.176 86.976 3.376 86.192 3.552 85.536C4.04 85.464 4.632 85.392 5.328 85.32C6.032 85.248 6.748 85.212 7.476 85.212C7.788 85.212 8.112 85.22 8.448 85.236C8.784 85.252 9.104 85.28 9.408 85.32C9.56 86.024 9.712 86.864 9.864 87.84C10.024 88.816 10.176 89.952 10.32 91.248C10.472 92.544 10.62 94.016 10.764 95.664C10.916 97.304 11.064 99.148 11.208 101.196C11.024 101.228 10.78 101.256 10.476 101.28C10.172 101.312 9.856 101.336 9.528 101.352C9.208 101.368 8.912 101.376 8.64 101.376C8.624 101.144 8.608 100.84 8.592 100.464C8.576 100.088 8.556 99.672 8.532 99.216C8.508 98.752 8.484 98.292 8.46 97.836C8.436 97.372 8.412 96.944 8.388 96.552C8.364 96.16 8.344 95.84 8.328 95.592C8.072 95.6 7.76 95.612 7.392 95.628C7.024 95.644 6.636 95.668 6.228 95.7C5.828 95.724 5.44 95.752 5.064 95.784C4.696 95.816 4.376 95.848 4.104 95.88C3.832 95.912 3.652 95.936 3.564 95.952C3.42 96.632 3.28 97.32 3.144 98.016C3.008 98.704 2.888 99.344 2.784 99.936C2.68 100.52 2.604 101 2.556 101.376ZM3.888 93.888C4.184 93.824 4.592 93.764 5.112 93.708C5.64 93.652 6.188 93.604 6.756 93.564C7.332 93.524 7.832 93.496 8.256 93.48C8.24 93.232 8.212 92.836 8.172 92.292C8.132 91.748 8.084 91.152 8.028 90.504C7.972 89.856 7.916 89.244 7.86 88.668C7.812 88.084 7.76 87.632 7.704 87.312C7.52 87.312 7.256 87.324 6.912 87.348C6.576 87.364 6.248 87.388 5.928 87.42C5.616 87.444 5.396 87.464 5.268 87.48C5.22 87.688 5.148 88.004 5.052 88.428C4.956 88.844 4.844 89.344 4.716 89.928C4.588 90.504 4.452 91.132 4.308 91.812C4.172 92.484 4.032 93.176 3.888 93.888Z" fill="#2B3042"/>
</svg>
