<svg width="21" height="21" viewBox="0 0 21 21" fill="none" xmlns="http://www.w3.org/2000/svg">
<path fill-rule="evenodd" clip-rule="evenodd" d="M9.67784 0.310495C9.89598 0.111675 10.1917 0 10.5 0C10.8083 0 11.104 0.111675 11.3222 0.310495L20.6297 8.80402C20.744 8.90122 20.8357 9.01843 20.8993 9.14866C20.9629 9.27889 20.9971 9.41948 20.9998 9.56203C21.0026 9.70459 20.9738 9.84619 20.9153 9.97839C20.8568 10.1106 20.7697 10.2307 20.6592 10.3315C20.5488 10.4323 20.4172 10.5118 20.2723 10.5652C20.1274 10.6186 19.9722 10.6448 19.816 10.6423C19.6598 10.6398 19.5058 10.6086 19.363 10.5505C19.2203 10.4925 19.0919 10.4089 18.9854 10.3045L11.6634 3.62297V19.9383C11.6634 20.2199 11.5409 20.4899 11.3227 20.689C11.1045 20.8881 10.8086 21 10.5 21C10.1914 21 9.89551 20.8881 9.67732 20.689C9.45914 20.4899 9.33656 20.2199 9.33656 19.9383V3.62297L2.01463 10.3045C1.90812 10.4089 1.77967 10.4925 1.63696 10.5505C1.49424 10.6086 1.34018 10.6398 1.18397 10.6423C1.02775 10.6448 0.872579 10.6186 0.72771 10.5652C0.582841 10.5118 0.451243 10.4323 0.340764 10.3315C0.230285 10.2307 0.143191 10.1106 0.0846759 9.97839C0.0261609 9.84619 -0.00257518 9.70459 0.000181066 9.56203C0.00293731 9.41948 0.0371294 9.27889 0.100718 9.14866C0.164307 9.01843 0.25599 8.90122 0.370297 8.80402L9.67784 0.310495Z" fill="#F6F8F5"/>
</svg>
