<svg width="36" height="37" viewBox="0 0 36 37" fill="none" xmlns="http://www.w3.org/2000/svg">
<path fill-rule="evenodd" clip-rule="evenodd" d="M23.4512 0.5C24.833 0.500431 25.9882 1.07601 27.1211 1.93945C28.2232 2.7794 29.455 4.01653 30.9688 5.53027C32.4825 7.04404 33.7196 8.27573 34.5596 9.37598C35.4231 10.5108 35.9986 11.666 35.999 13.0479L35.9922 13.3047C35.9257 14.5766 35.3695 15.6591 34.5596 16.7217C33.7196 17.8219 32.4824 19.0547 30.9688 20.5684L20.0674 31.4668L20.0693 31.4678C18.9293 32.6078 17.9483 33.5906 17.0635 34.3652H34.6143L34.6914 34.3691C35.0695 34.4076 35.3641 34.7271 35.3643 35.1152C35.3643 35.5035 35.0695 35.8229 34.6914 35.8613L34.6143 35.8652H14.9795C14.2273 36.2612 13.436 36.4967 12.5508 36.4971V36.5C11.1682 36.5 10.0123 35.9224 8.87891 35.0586C7.77681 34.2186 6.54502 32.9815 5.03125 31.4678C3.51751 29.954 2.28038 28.7223 1.44043 27.6221C0.576632 26.4869 0.000976562 25.3327 0.000976562 23.9502C0.00105785 22.5658 0.576535 21.4098 1.44043 20.2764C2.28036 19.1762 3.51758 17.9434 5.03125 16.4297L7.02832 14.4326C7.07682 14.3614 7.13215 14.2947 7.19336 14.2334C7.25388 14.1728 7.32034 14.1185 7.39062 14.0703L15.9326 5.53223L17.8896 7.4873L10.1475 15.2295L21.2695 26.3506L29.0117 18.6094C30.5808 17.0403 31.655 15.9603 32.3564 15.041C33.033 14.1561 33.2299 13.5845 33.2305 13.0498L33.2207 12.8467C33.174 12.3667 32.9497 11.8327 32.3584 11.0557C31.6569 10.1382 30.5807 9.05633 29.0117 7.4873C27.4427 5.91827 26.3608 4.84407 25.4434 4.14258C24.5557 3.46532 23.9854 3.26967 23.4502 3.26953C22.9152 3.26984 22.3434 3.46563 21.458 4.14258C20.5387 4.84221 19.4587 5.91826 17.8896 7.4873L15.9307 5.53027C17.4443 4.0166 18.6771 2.77938 19.7773 1.93945C20.9102 1.07597 22.0657 0.500623 23.4492 0.5H23.4512ZM6.98828 18.3906C5.41927 19.9596 4.34502 21.0377 3.64355 21.957C2.96624 22.8429 2.77061 23.413 2.77051 23.9482C2.77051 24.4836 2.96605 25.0544 3.64355 25.9424C4.34321 26.8598 5.41924 27.9417 6.98828 29.5107C8.55728 31.0797 9.6392 32.154 10.5566 32.8555C11.4442 33.5327 12.0146 33.7283 12.5498 33.7285C13.0848 33.7282 13.6566 33.5325 14.542 32.8574C15.4613 32.1559 16.5413 31.0798 18.1104 29.5107L19.3105 28.3096L8.19043 17.1875L6.98828 18.3906Z" fill="#285BAB"/>
</svg>
