<svg width="38" height="43" viewBox="0 0 38 43" fill="none" xmlns="http://www.w3.org/2000/svg">
<path d="M24.0625 4.16699C24.0625 3.99484 23.9936 3.82635 23.8662 3.7002C23.7704 3.60528 23.6471 3.54034 23.5127 3.51367L23.375 3.5H14.625C14.4381 3.5 14.2616 3.5736 14.1338 3.7002C14.0064 3.82635 13.9375 3.99484 13.9375 4.16699V9.16699H24.0625V4.16699ZM7.37012 36.541L7.375 36.667C7.37509 37.4136 7.67442 38.1326 8.21191 38.665C8.75 39.198 9.4829 39.5 10.25 39.5H27.75C28.5171 39.5 29.25 39.198 29.7881 38.665C30.3256 38.1326 30.6249 37.4136 30.625 36.667L30.6299 36.541L32.6807 12.167H5.31934L7.37012 36.541ZM13.125 32.333V19.333C13.1252 18.5047 13.7967 17.833 14.625 17.833C15.4533 17.833 16.1248 18.5047 16.125 19.333V32.333C16.125 33.1614 15.4534 33.833 14.625 33.833C13.7966 33.833 13.125 33.1614 13.125 32.333ZM21.875 32.333V19.333C21.8752 18.5047 22.5467 17.833 23.375 17.833C24.2033 17.833 24.8748 18.5047 24.875 19.333V32.333C24.875 33.1614 24.2034 33.833 23.375 33.833C22.5466 33.833 21.875 33.1614 21.875 32.333ZM27.0625 9.16699H36.5C37.3284 9.16699 38 9.83856 38 10.667C37.9998 11.4953 37.3283 12.167 36.5 12.167H35.6924L33.6221 36.7598C33.5977 38.2777 32.9807 39.7259 31.8994 40.7969C30.7966 41.8892 29.3035 42.5 27.75 42.5H10.25C8.69648 42.5 7.20344 41.8892 6.10059 40.7969C5.01933 39.7259 4.40132 38.2777 4.37695 36.7598L2.30762 12.167H1.5C0.671681 12.167 0.000175725 11.4953 0 10.667C0 9.83856 0.671573 9.16699 1.5 9.16699H10.9375V4.16699C10.9375 3.19002 11.3296 2.25581 12.0225 1.56934C12.7151 0.883313 13.6516 0.5 14.625 0.5H23.375L23.5566 0.504883C24.4642 0.549374 25.3281 0.926103 25.9775 1.56934C26.6704 2.25581 27.0625 3.19002 27.0625 4.16699V9.16699Z" fill="#285BAB"/>
</svg>
