<svg width="28" height="29" viewBox="0 0 28 29" fill="none" xmlns="http://www.w3.org/2000/svg">
<path fill-rule="evenodd" clip-rule="evenodd" d="M27.586 13.4038C27.8511 13.6946 28 14.0889 28 14.5C28 14.9111 27.8511 15.3054 27.586 15.5962L16.2613 28.0063C16.1317 28.1587 15.9754 28.2809 15.8018 28.3657C15.6281 28.4505 15.4407 28.4961 15.2506 28.4998C15.0605 28.5034 14.8717 28.4651 14.6955 28.3871C14.5192 28.3091 14.3591 28.193 14.2247 28.0456C14.0903 27.8983 13.9843 27.7229 13.9131 27.5297C13.8419 27.3366 13.8069 27.1297 13.8103 26.9214C13.8136 26.7131 13.8552 26.5077 13.9326 26.3174C14.01 26.1271 14.1215 25.9558 14.2606 25.8138L23.1694 16.0513L1.41559 16.0513C1.04015 16.0513 0.680087 15.8878 0.414613 15.5969C0.149141 15.306 1.27741e-06 14.9114 1.29539e-06 14.5C1.31337e-06 14.0886 0.149141 13.694 0.414613 13.4031C0.680087 13.1122 1.04015 12.9487 1.41559 12.9487L23.1694 12.9487L14.2606 3.18617C14.1215 3.04416 14.01 2.8729 13.9326 2.68261C13.8552 2.49232 13.8136 2.28691 13.8103 2.07862C13.8069 1.87033 13.8419 1.66344 13.9131 1.47028C13.9843 1.27712 14.0903 1.10166 14.2247 0.954351C14.3591 0.807047 14.5192 0.690921 14.6955 0.612901C14.8718 0.534881 15.0606 0.496566 15.2506 0.500241C15.4407 0.503916 15.6281 0.549505 15.8018 0.634291C15.9754 0.719076 16.1317 0.84132 16.2613 0.993729L27.586 13.4038Z" fill="#285BAB"/>
</svg>
