<svg width="36" height="37" viewBox="0 0 36 37" fill="none" xmlns="http://www.w3.org/2000/svg">
<path d="M0 6C0 4.54131 0.579463 3.14236 1.61091 2.11091C2.64236 1.07946 4.04131 0.5 5.5 0.5H25.43C27.1539 0.500103 28.8071 1.18499 30.026 2.404L34.096 6.474C35.316 7.694 36 9.348 36 11.072V31C36 32.4587 35.4205 33.8576 34.3891 34.8891C33.3576 35.9205 31.9587 36.5 30.5 36.5H5.5C4.04131 36.5 2.64236 35.9205 1.61091 34.8891C0.579463 33.8576 0 32.4587 0 31V6ZM5.5 3.5C4.12 3.5 3 4.62 3 6V31C3 32.38 4.12 33.5 5.5 33.5H6V23C6 21.8065 6.47411 20.6619 7.31802 19.818C8.16193 18.9741 9.30653 18.5 10.5 18.5H25.5C26.6935 18.5 27.8381 18.9741 28.682 19.818C29.5259 20.6619 30 21.8065 30 23V33.5H30.5C31.88 33.5 33 32.38 33 31V11.072C33 10.142 32.632 9.252 31.974 8.596L27.904 4.526C27.3873 4.00843 26.7215 3.66572 26 3.546V9C26 9.59095 25.8836 10.1761 25.6575 10.7221C25.4313 11.268 25.0998 11.7641 24.682 12.182C24.2641 12.5998 23.768 12.9313 23.2221 13.1575C22.6761 13.3836 22.0909 13.5 21.5 13.5H12.5C11.3065 13.5 10.1619 13.0259 9.31802 12.182C8.47411 11.3381 8 10.1935 8 9V3.5H5.5ZM27 33.5V23C27 22.6022 26.842 22.2206 26.5607 21.9393C26.2794 21.658 25.8978 21.5 25.5 21.5H10.5C10.1022 21.5 9.72064 21.658 9.43934 21.9393C9.15804 22.2206 9 22.6022 9 23V33.5H27ZM11 3.5V9C11 9.828 11.672 10.5 12.5 10.5H21.5C21.8978 10.5 22.2794 10.342 22.5607 10.0607C22.842 9.77936 23 9.39782 23 9V3.5H11Z" fill="#285BAB"/>
</svg>
