<svg width="36" height="33" viewBox="0 0 36 33" fill="none" xmlns="http://www.w3.org/2000/svg">
<path fill-rule="evenodd" clip-rule="evenodd" d="M22.2717 4.99399C21.6694 4.46906 20.104 4.02632 18.0212 5.33599C11.3668 9.52483 5.56942 17.0807 3.60867 19.8193C3.45658 20.0317 3.26411 20.212 3.04226 20.3501C2.82041 20.4882 2.57352 20.5812 2.31569 20.6239C2.05785 20.6666 1.79412 20.6582 1.53956 20.599C1.28499 20.5399 1.04457 20.4313 0.832031 20.2793C0.619488 20.1273 0.438982 19.935 0.300821 19.7133C0.162659 19.4917 0.0695469 19.245 0.0268004 18.9873C-0.0159462 18.7297 -0.00748991 18.4662 0.0516864 18.2118C0.110863 17.9574 0.2196 17.7172 0.37169 17.5048C2.36163 14.7291 8.53842 6.60325 15.9012 1.96901C19.0878 -0.0352681 22.6431 0.0495689 24.8825 1.99022C25.9995 2.9579 26.6973 4.34976 26.7079 5.92985C26.7185 7.49669 26.0552 9.05027 24.8453 10.4315C21.0591 14.7582 16.0578 20.6253 13.9564 23.4885C13.6804 23.865 13.6619 24.1513 13.6857 24.3157C13.7123 24.5013 13.8104 24.6762 13.9776 24.8008C14.0917 24.8811 14.2204 24.9381 14.3566 24.9686C14.4927 24.9991 14.6335 25.0024 14.7709 24.9785C15.1424 24.9334 15.7261 24.7293 16.4372 24.0797C17.0368 23.5283 17.6603 22.9397 18.3024 22.3379C20.2791 20.4794 22.415 18.4672 24.5535 16.8951C26.7769 15.262 29.3771 14.8086 31.3485 16.0122C32.3328 16.614 33.0253 17.5764 33.2668 18.727C33.5056 19.867 33.2774 21.0548 32.7016 22.147C32.0861 23.3188 31.5501 24.1619 31.0699 24.9201L31.0327 24.9811C30.5726 25.686 30.1433 26.4104 29.7459 27.1524C29.6569 27.3205 29.6052 27.5058 29.5942 27.6956C29.5832 27.8855 29.6133 28.0754 29.6822 28.2527C29.7459 28.4117 29.8069 28.4886 29.8414 28.5204C30.0855 28.539 30.2978 28.478 30.6348 28.2182C31.107 27.8497 31.635 27.2267 32.4284 26.1874C32.7489 25.7683 33.2229 25.4937 33.7461 25.4238C34.2693 25.354 34.7989 25.4946 35.2183 25.8149C35.6377 26.1352 35.9126 26.6088 35.9825 27.1316C36.0524 27.6544 35.9116 28.1836 35.591 28.6026C34.8349 29.5915 34.015 30.6281 33.0758 31.3598C32.0357 32.1658 30.7754 32.6562 29.2444 32.4548C27.5649 32.2374 26.4638 30.9436 25.9783 29.7055C25.7007 28.9985 25.5784 28.2401 25.6196 27.4818C25.6608 26.7234 25.8645 25.9827 26.2171 25.3099C26.7212 24.3448 27.1988 23.5946 27.6525 22.8814L27.7082 22.7913C28.1778 22.0516 28.6422 21.3172 29.1808 20.2939C29.4063 19.8644 29.3851 19.6178 29.3692 19.5409C29.3648 19.5126 29.3539 19.4856 29.3373 19.4621C29.3207 19.4386 29.2989 19.4193 29.2736 19.4057C29.1595 19.3341 28.353 19.0399 26.9122 20.1003C24.986 21.5134 23.1101 23.2817 21.1812 25.0951C20.5055 25.7349 19.8201 26.3739 19.1249 27.0119C16.676 29.2548 13.6937 29.5544 11.595 27.9849C9.55196 26.4578 8.99213 23.5309 10.7459 21.1396C12.9667 18.112 18.0875 12.1124 21.8498 7.81483C22.5689 6.99297 22.7307 6.34344 22.728 5.95371C22.7278 5.77023 22.687 5.58907 22.6086 5.42317C22.5301 5.25727 22.416 5.11072 22.2743 4.99399H22.2717ZM29.868 28.5443L29.86 28.539C29.8653 28.539 29.868 28.5408 29.868 28.5443Z" fill="#285BAB"/>
</svg>
