<svg width="37" height="36" viewBox="0 0 37 36" fill="none" xmlns="http://www.w3.org/2000/svg">
<path d="M15.8828 1.93054C16.7069 -0.643515 20.2932 -0.643514 21.1172 1.93054L23.5977 9.68057C23.9432 10.76 24.8941 11.5127 25.9942 11.6024L26.2159 11.6112H34.2422C36.9084 11.6112 38.0172 15.0749 35.8604 16.6659L29.3662 21.456C28.4018 22.1676 27.9978 23.4289 28.3662 24.58L30.8467 32.33C31.6446 34.8239 28.946 36.9107 26.8155 35.5918L26.6114 35.4541L20.1182 30.664C19.1535 29.9525 17.8465 29.9525 16.8819 30.664L10.3887 35.4541L10.1846 35.5918C8.05407 36.9107 5.35541 34.8239 6.15334 32.33L8.63381 24.58C8.97925 23.5007 8.6455 22.3247 7.80764 21.5956L7.63381 21.456L1.13967 16.6659C-0.949883 15.1245 0.025444 11.8253 2.51272 11.621L2.75783 11.6112H10.7842L11.0059 11.6024C12.0328 11.5187 12.9295 10.8572 13.3252 9.8915L13.4024 9.68057L15.8828 1.93054ZM16.2588 10.5946C15.5002 12.9648 13.3058 14.6112 10.7842 14.6112H3.40823L9.41409 19.0409L9.59963 19.1835C11.416 20.6395 12.1738 23.0442 11.5567 25.2724L11.4903 25.4941L9.22073 32.5859L15.1016 28.25L15.293 28.1142C17.2313 26.8023 19.7687 26.8023 21.7071 28.1142L21.8985 28.25L27.7784 32.5859L25.5098 25.4941C24.7536 23.1314 25.5737 20.5251 27.586 19.0409L33.5918 14.6112H26.2159C23.7732 14.6112 21.6373 13.0665 20.8164 10.8153L20.7412 10.5946L18.5 3.59168L16.2588 10.5946Z" fill="#285BAB"/>
</svg>
