<svg width="20" height="21" viewBox="0 0 20 21" fill="none" xmlns="http://www.w3.org/2000/svg">
<path fill-rule="evenodd" clip-rule="evenodd" d="M0 13.5769C0 14.189 0.243131 14.7759 0.675907 15.2087C1.10868 15.6415 1.69565 15.8846 2.30769 15.8846H4.61538V14.3462H2.30769C2.10368 14.3462 1.90802 14.2651 1.76376 14.1209C1.61951 13.9766 1.53846 13.7809 1.53846 13.5769V2.80769C1.53846 2.60368 1.61951 2.40802 1.76376 2.26376C1.90802 2.11951 2.10368 2.03846 2.30769 2.03846H13.0769C13.2809 2.03846 13.4766 2.11951 13.6209 2.26376C13.7651 2.40802 13.8462 2.60368 13.8462 2.80769V5.11538H6.92308C6.31104 5.11538 5.72407 5.35852 5.29129 5.79129C4.85852 6.22407 4.61538 6.81104 4.61538 7.42308V18.1923C4.61538 18.8043 4.85852 19.3913 5.29129 19.8241C5.72407 20.2569 6.31104 20.5 6.92308 20.5H17.6923C18.3043 20.5 18.8913 20.2569 19.3241 19.8241C19.7569 19.3913 20 18.8043 20 18.1923V7.42308C20 6.81104 19.7569 6.22407 19.3241 5.79129C18.8913 5.35852 18.3043 5.11538 17.6923 5.11538H15.3846V2.80769C15.3846 2.19565 15.1415 1.60868 14.7087 1.17591C14.2759 0.743131 13.689 0.5 13.0769 0.5H2.30769C1.69565 0.5 1.10868 0.743131 0.675907 1.17591C0.243131 1.60868 0 2.19565 0 2.80769V13.5769ZM6.15385 7.42308C6.15385 7.21906 6.23489 7.02341 6.37915 6.87915C6.52341 6.73489 6.71906 6.65385 6.92308 6.65385H17.6923C17.8963 6.65385 18.092 6.73489 18.2362 6.87915C18.3805 7.02341 18.4615 7.21906 18.4615 7.42308V18.1923C18.4615 18.3963 18.3805 18.592 18.2362 18.7362C18.092 18.8805 17.8963 18.9615 17.6923 18.9615H6.92308C6.71906 18.9615 6.52341 18.8805 6.37915 18.7362C6.23489 18.592 6.15385 18.3963 6.15385 18.1923V7.42308Z" fill="#D56843"/>
</svg>
