<svg width="20" height="21" fill="none"><path fill="#D56843" fill-rule="evenodd" d="M0 13.577a2.308 2.308 0 0 0 2.308 2.308h2.307v-1.539H2.308a.77.77 0 0 1-.77-.77V2.809a.77.77 0 0 1 .77-.77h10.769a.77.77 0 0 1 .77.77v2.307H6.922a2.308 2.308 0 0 0-2.308 2.308v10.77A2.308 2.308 0 0 0 6.923 20.5h10.77A2.308 2.308 0 0 0 20 18.192V7.423a2.308 2.308 0 0 0-2.308-2.308h-2.307V2.808A2.308 2.308 0 0 0 13.077.5H2.307A2.308 2.308 0 0 0 0 2.808v10.769Zm6.154-6.154a.77.77 0 0 1 .77-.77h10.768a.77.77 0 0 1 .77.77v10.77a.769.769 0 0 1-.77.768H6.923a.769.769 0 0 1-.77-.769V7.423Z" clip-rule="evenodd"/></svg>