<svg width="41" height="41" viewBox="0 0 41 41" fill="none" xmlns="http://www.w3.org/2000/svg">
<path d="M32.5616 10.2785C32.5389 10.0508 32.4498 9.83457 32.3048 9.65754L32.2277 9.57293L32.1423 9.49512C31.9653 9.35014 31.7491 9.26086 31.5214 9.23827L31.4066 9.23222C31.0988 9.23227 30.8039 9.35525 30.5862 9.57293C30.3686 9.79062 30.2456 10.0855 30.2455 10.3934L30.2516 10.5082C30.278 10.774 30.3957 11.024 30.5862 11.2145C30.8039 11.4321 31.0989 11.5544 31.4066 11.5545C31.7145 11.5545 32.01 11.4323 32.2277 11.2145C32.4182 11.024 32.5352 10.774 32.5616 10.5082L32.5676 10.3934L32.5616 10.2785ZM34.1132 10.3934C34.1132 11.1113 33.8284 11.8 33.3208 12.3077C32.8132 12.8153 32.1245 13.1001 31.4066 13.1001C30.6889 13.1001 30.0007 12.8152 29.4932 12.3077C29.0173 11.8318 28.7362 11.1969 28.703 10.5278L28.7 10.3934L28.703 10.2596C28.7361 9.59045 29.0172 8.9558 29.4932 8.47979L29.5899 8.38687C30.0864 7.93722 30.7336 7.68661 31.4066 7.68656L31.5411 7.68959C32.1654 7.72057 32.7599 7.96727 33.2233 8.38687L33.3208 8.47979L33.4129 8.57649C33.8627 9.07305 34.1131 9.72023 34.1132 10.3934Z" fill="#285BAB"/>
<path d="M37.1324 9.8904C37.1324 9.09952 36.9765 8.31619 36.6738 7.58551C36.3712 6.85492 35.9276 6.19109 35.3685 5.63191C34.8094 5.07272 34.1456 4.62914 33.415 4.32649C32.6844 4.02383 31.9011 3.86792 31.1103 3.86792H9.8927C8.29558 3.86794 6.76385 4.50249 5.63452 5.63191C4.50519 6.76134 3.87066 8.29316 3.87066 9.8904C3.87066 9.91822 3.86882 9.94589 3.86764 9.9735V31.1096C3.86764 32.7069 4.50215 34.2387 5.63149 35.3681C6.76084 36.4975 8.29253 37.1321 9.88967 37.1321H31.1103L31.4087 37.1245C32.8972 37.0507 34.3097 36.427 35.3685 35.3681C36.4273 34.3092 37.051 32.8966 37.1248 31.408L37.1324 31.1096V9.8904ZM41 31.1096L40.997 31.3551C40.9341 33.8891 39.9003 36.306 38.1038 38.1028C36.3071 39.8997 33.8898 40.9341 31.3558 40.997L31.1103 41H9.88967C7.26677 41 4.75162 39.9576 2.89695 38.1028C1.04228 36.248 0 33.7327 0 31.1096V9.88738L0.00528779 9.75971C0.0392851 7.18389 1.07615 4.72114 2.89997 2.89717C4.75463 1.04237 7.26982 1.58173e-05 9.8927 0H31.1103C32.4091 0 33.695 0.256151 34.8949 0.753188C36.0947 1.25023 37.1855 1.97876 38.1038 2.89717C39.022 3.8155 39.7507 4.90577 40.2476 6.10558C40.7446 7.30548 41 8.59165 41 9.8904V31.1096Z" fill="#285BAB"/>
<path d="M26.4451 20.2055C26.3721 18.7346 25.7554 17.3385 24.7092 16.2922C23.5933 15.1763 22.0798 14.5494 20.5017 14.5494C18.9234 14.5494 17.4093 15.1761 16.2933 16.2922C15.1773 17.4083 14.5506 18.9225 14.5506 20.5008L14.5582 20.7932C14.5917 21.4748 14.7422 22.1467 15.0039 22.7785C15.3029 23.5003 15.741 24.1562 16.2933 24.7087C16.8459 25.2613 17.5022 25.7 18.2241 25.999C18.9461 26.2981 19.7202 26.4523 20.5017 26.4523L20.794 26.4448C21.4756 26.4112 22.1474 26.2608 22.7792 25.999C23.5011 25.7 24.1567 25.2613 24.7092 24.7087C25.2617 24.1562 25.7004 23.5005 25.9994 22.7785C26.2985 22.0565 26.4527 21.2823 26.4527 20.5008L26.4451 20.2055ZM30.3173 20.7426C30.2876 21.9497 30.035 23.1417 29.5725 24.2585C29.079 25.4497 28.3562 26.5325 27.4445 27.4442C26.5328 28.356 25.4502 29.0789 24.259 29.5723C23.1423 30.0349 21.9504 30.2875 20.7434 30.3172L20.5017 30.3202C19.2123 30.3202 17.9355 30.0658 16.7443 29.5723C15.5531 29.0789 14.4705 28.356 13.5588 27.4442C12.647 26.5324 11.9235 25.4498 11.4301 24.2585C10.9675 23.1417 10.7157 21.9496 10.686 20.7426L10.683 20.5008C10.683 17.8966 11.7175 15.3989 13.5588 13.5575C15.4001 11.716 17.8976 10.6815 20.5017 10.6815C23.1056 10.6815 25.6032 11.716 27.4445 13.5575C29.2858 15.3989 30.3203 17.8967 30.3203 20.5008L30.3173 20.7426Z" fill="#285BAB"/>
</svg>
