<svg width="232" height="307" viewBox="0 0 232 307" fill="none" xmlns="http://www.w3.org/2000/svg">
<path fill-rule="evenodd" clip-rule="evenodd" d="M96.822 4.21118C99.8122 4.21123 102.744 4.31394 105.618 4.50007H132C150.455 4.50034 167.963 7.91324 182 15C196.037 22.0869 203.88 27.9035 211.679 40.8116C219.737 53.7194 223.766 68.6514 223.766 85.6085C223.766 105.857 218.045 123.2 206.608 137.627C195.431 151.799 180.356 156.292 161.382 161.607L223.766 266.05H201.974L143 165.5H116.767L174.293 266.05H152.501L96.1073 165.5L63.9641 165.789L63.9641 283.717H189.76H223.766V300.789L46.9414 300.5L12.5002 300.789L11.8403 4.50007L96.822 4.21118ZM29.023 283.717H46.9414V165.5H29.023L29.023 283.717ZM66.283 148.067H98.2616C111.517 148.066 123.215 145.538 133.352 140.477C143.49 135.162 151.422 127.821 157.141 118.456C162.86 108.838 165.717 97.6987 165.717 85.044C165.717 72.39 162.859 61.5045 157.141 52.3934C151.422 43.0285 143.49 35.8153 133.352 30.7532C125.133 26.4439 115.888 23.8799 105.618 23.0649H66.283V148.067ZM31.3419 148.067H46.9414V22.7825H31.3419V148.067ZM166.763 29.184C169.843 32.6758 172.614 36.4587 175.073 40.5294C183.13 53.4369 187.16 68.3698 187.161 85.3263C187.16 105.574 181.439 122.912 170.002 137.339C168.434 139.326 166.779 141.217 165.057 143.031C166.882 142.314 172.56 141.625 174.293 140.759C184.431 135.444 192.364 128.103 198.082 118.738C203.8 109.121 206.658 97.9804 206.658 85.3263C206.658 72.6743 203.799 61.7924 198.082 52.6822C192.364 43.3174 184.431 36.0976 174.293 31.0355C173.105 30.4126 167.994 29.7338 166.763 29.184Z" fill="#285BAB"/>
</svg>
