<svg width="212" height="297" viewBox="0 0 212 297" fill="none" xmlns="http://www.w3.org/2000/svg">
<path fill-rule="evenodd" clip-rule="evenodd" d="M84.9817 0C87.9719 4.43283e-05 90.9035 0.102761 93.7777 0.288885H120.16C138.615 0.289159 156.123 3.70206 170.16 10.7888C184.196 17.8757 192.04 23.6924 199.838 36.6004C207.896 49.5083 211.926 64.4402 211.926 81.3973C211.926 101.646 206.205 118.989 194.767 133.416C183.59 147.588 168.515 152.081 149.541 157.395L211.926 261.839H190.133L131.16 161.289H104.927L162.453 261.839H140.66L84.267 161.289L52.1237 161.578L52.1237 279.506H177.919H211.926V296.578L35.1011 296.289L0.659882 296.578L0 0.288885L84.9817 0ZM17.1826 279.506H35.1011V161.289H17.1826L17.1826 279.506ZM54.4426 143.855H86.4212C99.677 143.855 111.375 141.327 121.512 136.266C131.65 130.95 139.582 123.61 145.301 114.245C151.019 104.627 153.877 93.4875 153.877 80.8328C153.877 68.1788 151.019 57.2933 145.301 48.1822C139.582 38.8173 131.649 31.6041 121.512 26.542C113.292 22.2327 104.048 19.6687 93.7778 18.8537H54.4426V143.855ZM19.5015 143.855H35.101V18.5714H19.5015V143.855ZM154.923 24.9728C158.002 28.4646 160.773 32.2475 163.233 36.3182C171.29 49.2257 175.32 64.1586 175.32 81.1151C175.32 101.363 169.599 118.701 158.162 133.127C156.594 135.115 154.938 137.006 153.217 138.82C155.041 138.102 160.72 137.413 162.453 136.548C172.591 131.233 180.523 123.892 186.242 114.527C191.96 104.91 194.818 93.7692 194.818 81.1151C194.817 68.4631 191.959 57.5812 186.242 48.4711C180.523 39.1062 172.591 31.8865 162.453 26.8243C161.265 26.2014 156.154 25.5227 154.923 24.9728Z" fill="#285BAB"/>
</svg>
