<svg width="197" height="38" viewBox="0 0 197 38" fill="none" xmlns="http://www.w3.org/2000/svg">
<g clip-path="url(#clip0_694_3749)">
<mask id="path-1-inside-1_694_3749" fill="white">
<path d="M138.603 0C141.89 0 143.534 0.000145299 145.108 0.319336C146.505 0.602613 147.858 1.07139 149.131 1.71289C150.565 2.43591 151.857 3.4532 154.44 5.4873L197 39H0V25.5996C3.69721e-10 16.6391 0.000291148 12.1589 1.74414 8.73633C3.27811 5.72573 5.72573 3.27811 8.73633 1.74414C12.1589 0.00029118 16.6391 3.70665e-10 25.5996 0H138.603Z"/>
</mask>
<path d="M138.603 0C141.89 0 143.534 0.000145299 145.108 0.319336C146.505 0.602613 147.858 1.07139 149.131 1.71289C150.565 2.43591 151.857 3.4532 154.44 5.4873L197 39H0V25.5996C3.69721e-10 16.6391 0.000291148 12.1589 1.74414 8.73633C3.27811 5.72573 5.72573 3.27811 8.73633 1.74414C12.1589 0.00029118 16.6391 3.70665e-10 25.5996 0H138.603Z" fill="#F5F5F0"/>
<path d="M138.603 0V-1V0ZM145.108 0.319336L145.307 -0.660709L145.307 -0.660716L145.108 0.319336ZM149.131 1.71289L149.581 0.819943L149.581 0.819932L149.131 1.71289ZM154.44 5.4873L155.059 4.70164L154.44 5.4873ZM197 39V40H199.886L197.619 38.2143L197 39ZM0 39H-1V40H0V39ZM0 25.5996H-1H0ZM1.74414 8.73633L0.853134 8.28234L0.853132 8.28234L1.74414 8.73633ZM8.73633 1.74414L8.28234 0.853132L8.28234 0.853134L8.73633 1.74414ZM25.5996 0V-1V0ZM138.603 0V1C141.93 1 143.457 1.00475 144.91 1.29939L145.108 0.319336L145.307 -0.660716C143.612 -1.00446 141.851 -1 138.603 -1V0ZM145.108 0.319336L144.91 1.29938C146.219 1.56496 147.488 2.00446 148.681 2.60585L149.131 1.71289L149.581 0.819932C148.229 0.138332 146.791 -0.359732 145.307 -0.660709L145.108 0.319336ZM149.131 1.71289L148.681 2.60584C150.005 3.27324 151.208 4.21444 153.822 6.27297L154.44 5.4873L155.059 4.70164C152.507 2.69196 151.126 1.59857 149.581 0.819943L149.131 1.71289ZM154.44 5.4873L153.822 6.27297L196.381 39.7857L197 39L197.619 38.2143L155.059 4.70164L154.44 5.4873ZM197 39V38H0V39V40H197V39ZM0 39H1V25.5996H0H-1V39H0ZM0 25.5996H1C1 21.1029 1.00085 17.7904 1.2148 15.1727C1.4278 12.5666 1.84701 10.7371 2.63515 9.19032L1.74414 8.73633L0.853132 8.28234C-0.10258 10.1581 -0.555441 12.28 -0.77855 15.0098C-1.00071 17.7279 -1 21.1358 -1 25.5996H0ZM1.74414 8.73633L2.63515 9.19032C4.07325 6.36789 6.36789 4.07325 9.19032 2.63515L8.73633 1.74414L8.28234 0.853134C5.08358 2.48298 2.48298 5.08358 0.853134 8.28234L1.74414 8.73633ZM8.73633 1.74414L9.19032 2.63515C10.7371 1.84701 12.5666 1.4278 15.1727 1.2148C17.7904 1.00085 21.1029 1 25.5996 1V0V-1C21.1358 -1 17.7279 -1.00071 15.0098 -0.77855C12.28 -0.555441 10.1581 -0.10258 8.28234 0.853132L8.73633 1.74414ZM25.5996 0V1H138.603V0V-1H25.5996V0Z" fill="#285BAB" mask="url(#path-1-inside-1_694_3749)"/>
</g>
<defs>
<clipPath id="clip0_694_3749">
<rect width="197" height="38" fill="white"/>
</clipPath>
</defs>
</svg>
