<svg width="72" height="107" viewBox="0 0 72 107" fill="none" xmlns="http://www.w3.org/2000/svg">
<rect width="71.615" height="72" rx="35.8075" fill="#6565EB"/>
<path fill-rule="evenodd" clip-rule="evenodd" d="M49.2687 16.6444L49.8136 16.7128C51.2539 16.9115 53.16 17.1787 54.2391 18.2599C55.1238 19.1425 55.4636 20.5785 55.6666 21.8606L55.7863 22.6855C56.0555 24.63 56.126 27.1772 55.6666 30.0065C54.7605 35.5902 51.7881 42.2531 44.3239 47.4116C44.2833 47.8134 44.2812 48.2194 44.2897 48.6254L44.3111 49.2323C44.3453 50.1661 44.3794 51.0999 44.1187 52.006C43.7127 53.4163 42.266 54.3459 40.9134 55.0126L40.2509 55.3267L39.3962 55.7028C37.7978 56.3824 35.6395 57.079 34.2868 55.7242C33.4748 54.9143 33.1414 53.7262 32.8701 52.5445L32.7696 52.1021C32.6548 51.544 32.5122 50.992 32.3422 50.4482C32.2354 50.1348 32.12 49.8178 31.9961 49.4972C31.8597 49.6647 31.7149 49.8252 31.5623 49.9781C30.825 50.7153 29.7245 51.2303 28.8185 51.5914C27.8291 51.9825 26.7094 52.3244 25.673 52.6064L25.1409 52.7475L24.1216 53.0018L23.1984 53.2155L22.0936 53.4505L21.4034 53.5852C21.0592 53.6489 20.7046 53.6279 20.3703 53.5241C20.0359 53.4202 19.7319 53.2366 19.4843 52.9891C19.2368 52.7415 19.0532 52.4375 18.9493 52.1031C18.8455 51.7688 18.8245 51.4142 18.8883 51.07L19.072 50.149L19.4011 48.6574L19.6661 47.5676L19.867 46.7983C20.149 45.7641 20.491 44.6443 20.8841 43.6571C21.2431 42.7489 21.7581 41.6484 22.4954 40.9112L22.6663 40.7466L22.5296 40.691C22.1643 40.5523 21.7944 40.4262 21.4205 40.3128L20.8286 40.1312C19.3456 39.6824 17.76 39.1995 16.7749 38.2122C15.5782 37.0177 15.9821 35.1992 16.559 33.6863L16.7941 33.1008L17.1723 32.246L17.4865 31.5835C18.1532 30.233 19.0827 28.7863 20.4931 28.3803C21.241 28.1666 22.0188 28.1538 22.801 28.1752L23.2711 28.1901C23.8822 28.2115 24.4912 28.235 25.0874 28.1773C30.2459 20.711 36.9088 17.7385 42.4926 16.8325C44.7325 16.4651 47.0118 16.4018 49.2687 16.6444ZM28.3014 43.7297C27.9651 43.4805 27.5632 43.3356 27.1453 43.3128C26.7274 43.29 26.3121 43.3904 25.9508 43.6015L25.7157 43.7597L25.517 43.937L25.2498 44.2746C24.6943 45.0781 24.378 46.1893 24.1322 47.2279L23.9015 48.2279L23.7925 48.6831L24.2006 48.5848L25.0939 48.3796C26.329 48.0912 27.6987 47.7172 28.5407 46.9586C28.9068 46.5927 29.1276 46.1064 29.1622 45.59C29.1968 45.0736 29.0428 44.5621 28.7287 44.1507L28.5535 43.9498L28.5022 43.9007L28.3014 43.7297ZM43.6508 28.8269C43.254 28.43 42.7829 28.1151 42.2644 27.9002C41.7459 27.6853 41.1901 27.5747 40.6289 27.5746C40.0676 27.5745 39.5118 27.6849 38.9932 27.8996C38.4747 28.1143 38.0035 28.4291 37.6065 28.8259C37.2096 29.2227 36.8947 29.6938 36.6798 30.2123C36.4649 30.7308 36.3543 31.2865 36.3542 31.8478C36.3541 32.409 36.4645 32.9648 36.6792 33.4834C36.8939 34.002 37.2086 34.4732 37.6054 34.8701C38.4068 35.6718 39.4938 36.1223 40.6273 36.1225C41.7609 36.1227 42.848 35.6726 43.6497 34.8712C44.4514 34.0698 44.9018 32.9828 44.902 31.8493C44.9022 30.7158 44.4521 29.6286 43.6508 28.8269Z" fill="#F6F6F6"/>
<path d="M71.615 98.2047C71.4468 98.4402 71.1987 98.7135 70.8708 99.0247C70.5428 99.3274 70.1349 99.6218 69.6471 99.9077C69.1593 100.185 68.5916 100.417 67.944 100.602C67.2964 100.787 66.5648 100.879 65.749 100.879C64.4875 100.879 63.3815 100.623 62.4312 100.11C61.4809 99.5966 60.745 98.8481 60.2235 97.8641C59.7021 96.8717 59.4414 95.6648 59.4414 94.2435C59.4414 92.8811 59.7231 91.6995 60.2866 90.6987C60.8585 89.6979 61.6406 88.9241 62.633 88.3775C63.6254 87.8308 64.765 87.5575 66.0518 87.5575C67.6665 87.5575 68.9238 88.0495 69.8237 89.0335C70.732 90.0175 71.2366 91.3378 71.3375 92.9946C71.3543 93.2638 71.3627 93.5245 71.3627 93.7768C71.3627 94.0207 71.3501 94.273 71.3249 94.5337C71.2156 94.5253 70.9885 94.5169 70.6437 94.5085C70.3073 94.4916 69.912 94.479 69.4578 94.4706C69.0037 94.4538 68.5454 94.4412 68.0828 94.4328C67.6287 94.4159 67.2376 94.4075 66.9096 94.4075C66.0602 94.4075 65.1897 94.4496 64.2982 94.5337C63.4068 94.6178 62.612 94.7145 61.914 94.8238C61.9224 95.0425 61.9434 95.257 61.9771 95.4672C62.0107 95.6775 62.0527 95.8793 62.1032 96.0727C62.2462 96.5858 62.5069 97.0315 62.8853 97.4099C63.2638 97.78 63.7137 98.0659 64.2352 98.2678C64.765 98.4696 65.3243 98.5705 65.913 98.5705C66.5353 98.5705 67.0778 98.478 67.5403 98.293C68.0029 98.108 68.3982 97.8809 68.7262 97.6118C69.0626 97.3427 69.3317 97.0862 69.5335 96.8423C69.7438 96.5984 69.9036 96.4175 70.0129 96.2998C70.0634 96.3419 70.1601 96.4344 70.3031 96.5773C70.4544 96.7119 70.6142 96.8759 70.7824 97.0693C70.9591 97.2628 71.123 97.4604 71.2744 97.6622C71.4342 97.8557 71.5478 98.0365 71.615 98.2047ZM61.9518 93.1334C62.5574 93.0325 63.268 92.9442 64.0838 92.8685C64.908 92.7928 65.8415 92.7549 66.8844 92.7549C67.431 92.7549 67.8936 92.7634 68.272 92.7802C68.6589 92.7886 68.928 92.8012 69.0794 92.818C69.0794 92.5405 69.0458 92.2461 68.9785 91.935C68.886 91.5145 68.7178 91.1066 68.4739 90.7113C68.23 90.316 67.8978 89.988 67.4773 89.7273C67.0652 89.4582 66.5437 89.3236 65.913 89.3236C65.1897 89.3236 64.5295 89.4792 63.9324 89.7904C63.3437 90.0931 62.8727 90.5305 62.5195 91.1024C62.1663 91.6658 61.9771 92.3428 61.9518 93.1334Z" fill="#2B3042"/>
<path d="M57.5684 98.3939C57.3666 98.806 57.026 99.2223 56.5466 99.6428C56.0672 100.055 55.4701 100.404 54.7552 100.69C54.0404 100.967 53.2288 101.106 52.3205 101.106C51.0842 101.106 50.0203 100.791 49.1289 100.16C48.2374 99.5292 47.552 98.6924 47.0726 97.6496C46.5932 96.5983 46.3535 95.4503 46.3535 94.2056C46.3535 92.8432 46.589 91.6364 47.06 90.5851C47.5309 89.5338 48.2206 88.7096 49.1289 88.1125C50.0371 87.507 51.1473 87.2042 52.4593 87.2042C53.2414 87.2042 53.9478 87.3346 54.5786 87.5953C55.2094 87.8476 55.7518 88.1924 56.206 88.6297C56.6601 89.0587 57.0175 89.5254 57.2783 90.03L55.5247 91.178C55.4827 91.0855 55.4028 90.9341 55.2851 90.7239C55.1757 90.5136 55.0033 90.2949 54.7678 90.0679C54.5408 89.8324 54.238 89.6347 53.8595 89.475C53.4895 89.3152 53.0227 89.2353 52.4593 89.2353C51.6771 89.2353 51.0127 89.4245 50.4661 89.8029C49.9194 90.173 49.5031 90.6944 49.2172 91.3672C48.9396 92.0316 48.8009 92.8012 48.8009 93.6758C48.8009 94.5168 48.9186 95.3116 49.1541 96.0601C49.398 96.8002 49.7848 97.4057 50.3147 97.8767C50.8445 98.3476 51.5468 98.5831 52.4214 98.5831C52.9512 98.5831 53.418 98.499 53.8217 98.3308C54.2254 98.1626 54.5702 97.965 54.8561 97.7379C55.1421 97.5108 55.365 97.3006 55.5247 97.1071C55.6929 96.9053 55.7939 96.7707 55.8275 96.7034L57.5684 98.3939Z" fill="#2B3042"/>
<path d="M35.922 101.283C34.8708 101.283 33.9162 101.144 33.0584 100.867C32.209 100.581 31.5319 100.126 31.0273 99.5041C30.5227 98.8733 30.2704 98.0365 30.2704 96.9937C30.2704 95.9929 30.5522 95.1645 31.1156 94.5085C31.6791 93.8525 32.4402 93.3689 33.399 93.0577C34.3662 92.7381 35.4469 92.5783 36.6411 92.5783C37.1962 92.5783 37.7386 92.6204 38.2684 92.7045C38.7983 92.7802 39.2566 92.8727 39.6435 92.982C40.0304 93.083 40.2911 93.1629 40.4256 93.2217C40.4004 92.9442 40.3499 92.6624 40.2743 92.3765C40.207 92.0822 40.1019 91.8256 39.9589 91.607C39.6393 91.0435 39.1725 90.5809 38.5586 90.2193C37.9531 89.8493 37.192 89.6642 36.2752 89.6642C35.3081 89.6642 34.4881 89.8745 33.8153 90.295C33.1425 90.7071 32.6379 91.1991 32.3015 91.771L30.2578 90.4212C30.6279 89.8745 31.1156 89.3909 31.7212 88.9704C32.3267 88.5499 33.0247 88.2177 33.8153 87.9738C34.6058 87.7299 35.4553 87.608 36.3636 87.608C37.7765 87.608 38.9455 87.8771 39.8706 88.4153C40.7957 88.9536 41.4727 89.6642 41.9016 90.5473C42.1203 90.993 42.2927 91.4808 42.4188 92.0107C42.545 92.5405 42.6207 93.1965 42.6459 93.9786C42.6627 94.8028 42.6796 95.5051 42.6964 96.0854C42.7216 96.6657 42.7468 97.1661 42.7721 97.5866C42.8141 98.1332 42.8982 98.4865 43.0244 98.6462C43.1505 98.806 43.3313 98.8859 43.5668 98.8859C43.8359 98.8859 44.063 98.7724 44.248 98.5453C44.4331 98.3098 44.5382 97.9818 44.5634 97.5613L45.7745 98.8985C45.724 99.605 45.4759 100.143 45.0302 100.513C44.5844 100.883 44.063 101.068 43.4659 101.068C42.9949 101.068 42.5786 100.98 42.217 100.803C41.8638 100.618 41.582 100.383 41.3718 100.097C41.1615 99.811 41.0396 99.5167 41.0059 99.2139C40.8377 99.5251 40.5097 99.8405 40.022 100.16C39.5426 100.48 38.9497 100.749 38.2432 100.967C37.5452 101.178 36.7714 101.283 35.922 101.283ZM36.3762 99.3022C36.9228 99.3022 37.4569 99.2181 37.9783 99.0499C38.4997 98.8817 38.9791 98.6589 39.4164 98.3813C39.8622 98.1038 40.228 97.7968 40.5139 97.4604C40.5055 96.939 40.5055 96.4764 40.5139 96.0727C40.5224 95.6607 40.535 95.2822 40.5518 94.9374C40.3079 94.8533 39.8411 94.744 39.1515 94.6094C38.4619 94.4664 37.6839 94.3949 36.8177 94.3949C36.0692 94.3949 35.388 94.4959 34.774 94.6977C34.1685 94.8911 33.6849 95.1729 33.3233 95.5429C32.9701 95.913 32.7935 96.3587 32.7935 96.8801C32.7935 97.5109 32.9448 98.0029 33.2476 98.3561C33.5588 98.7009 33.9835 98.9448 34.5217 99.0878C35.06 99.2307 35.6781 99.3022 36.3762 99.3022Z" fill="#2B3042"/>
<path d="M15.1035 106.556C15.2381 105.286 15.3558 103.936 15.4567 102.507C15.5661 101.085 15.6586 99.6513 15.7343 98.2047C15.8184 96.7582 15.8815 95.3705 15.9235 94.0417C15.974 92.7129 16.0118 91.5019 16.037 90.4086C16.0623 89.3068 16.0749 88.3943 16.0749 87.6711C16.4113 87.5701 16.8066 87.4987 17.2607 87.4566C17.7149 87.4062 18.1438 87.3809 18.5475 87.3809C18.5559 87.5996 18.5601 87.9066 18.5601 88.3018C18.5685 88.6887 18.5727 89.0335 18.5727 89.3363C18.7829 89.1008 19.0983 88.8359 19.5188 88.5415C19.9477 88.2388 20.4692 87.9738 21.0831 87.7468C21.7055 87.5197 22.3909 87.4062 23.1394 87.4062C24.7962 87.4062 26.0577 87.936 26.9239 88.9957C27.7986 90.0553 28.2359 91.5271 28.2359 93.411C28.2359 94.7314 28.0088 95.8835 27.5547 96.8675C27.109 97.8431 26.4656 98.6 25.6246 99.1383C24.7836 99.6765 23.7701 99.9456 22.5843 99.9456C22.0377 99.9456 21.4616 99.8657 20.856 99.7059C20.2589 99.5461 19.7207 99.3569 19.2413 99.1383C18.7619 98.9112 18.4297 98.7009 18.2447 98.5075C18.2447 98.6925 18.2279 99.0289 18.1942 99.5167C18.169 100.005 18.1354 100.568 18.0933 101.207C18.0513 101.855 18.005 102.511 17.9545 103.175C17.9041 103.84 17.8536 104.453 17.8032 105.017C17.7611 105.58 17.7149 106.018 17.6644 106.329C17.3785 106.379 17.0673 106.421 16.7309 106.455C16.4029 106.489 16.0917 106.514 15.7973 106.531C15.503 106.548 15.2717 106.556 15.1035 106.556ZM22.2437 97.4604C23.0931 97.4604 23.7701 97.288 24.2747 96.9432C24.7878 96.5984 25.1578 96.1064 25.3849 95.4672C25.612 94.8197 25.7255 94.0501 25.7255 93.1587C25.7255 92.0065 25.4522 91.115 24.9055 90.4843C24.3588 89.8451 23.5557 89.5255 22.496 89.5255C21.8484 89.5255 21.2513 89.6432 20.7047 89.8787C20.158 90.1142 19.6996 90.3791 19.3296 90.6735C18.9596 90.9678 18.6988 91.2117 18.5475 91.4052C18.5475 91.5481 18.539 91.8173 18.5222 92.2125C18.5138 92.6078 18.5012 93.0535 18.4844 93.5497C18.4676 94.0459 18.4507 94.5211 18.4339 94.9753C18.4255 95.421 18.4171 95.7658 18.4087 96.0097C18.5853 96.1611 18.846 96.3545 19.1908 96.59C19.5356 96.8171 19.9646 97.0189 20.4776 97.1955C20.9906 97.3721 21.5793 97.4604 22.2437 97.4604Z" fill="#2B3042"/>
<path d="M6.74912 101.169C5.95857 101.169 5.20586 101.056 4.491 100.829C3.78455 100.593 3.13277 100.29 2.53565 99.9203C1.94694 99.5419 1.43392 99.1298 0.996598 98.6841C0.559273 98.2383 0.227073 97.801 0 97.3721C0.0504607 97.3048 0.147177 97.2039 0.290149 97.0693C0.433121 96.9263 0.597118 96.7792 0.78214 96.6278C0.967163 96.468 1.14798 96.3208 1.32459 96.1863C1.50962 96.0433 1.661 95.9382 1.77874 95.8709C1.96376 96.1316 2.20765 96.4428 2.51042 96.8044C2.81318 97.166 3.17061 97.5235 3.58271 97.8767C4.00321 98.2215 4.47839 98.5117 5.00822 98.7471C5.54647 98.9742 6.13518 99.0877 6.77435 99.0877C7.58172 99.0877 8.2335 98.9364 8.7297 98.6336C9.22589 98.3224 9.58753 97.9398 9.8146 97.4856C10.0417 97.0231 10.1552 96.5647 10.1552 96.1106C10.1552 95.6816 10.0417 95.3032 9.8146 94.9752C9.58753 94.6472 9.27635 94.3571 8.88108 94.1048C8.4858 93.844 8.02745 93.6086 7.50603 93.3983C6.9846 93.188 6.43374 92.9946 5.85344 92.818C4.86105 92.5068 3.98639 92.1536 3.22948 91.7583C2.47257 91.3631 1.87966 90.8711 1.45074 90.2824C1.02183 89.6936 0.807371 88.9536 0.807371 88.0621C0.807371 87.1538 1.05547 86.4011 1.55167 85.804C2.04786 85.1984 2.70806 84.7485 3.53225 84.4541C4.35644 84.1514 5.24791 84 6.20666 84C7.08973 84 7.91392 84.1177 8.67924 84.3532C9.45297 84.5887 10.1258 84.8831 10.6977 85.2363C11.2696 85.5811 11.6943 85.9343 11.9718 86.296C11.8961 86.4137 11.7742 86.5819 11.606 86.8006C11.4378 87.0192 11.2611 87.2337 11.0761 87.4439C10.8995 87.6542 10.7439 87.8182 10.6094 87.9359C10.3823 87.6836 10.0543 87.4061 9.62537 87.1033C9.20487 86.7922 8.69606 86.5272 8.09894 86.3086C7.51023 86.0815 6.83322 85.968 6.0679 85.968C5.22689 85.968 4.55408 86.1698 4.04947 86.5735C3.54486 86.9688 3.29256 87.5028 3.29256 88.1756C3.29256 88.5373 3.38087 88.8484 3.55748 89.1091C3.73409 89.3699 3.96537 89.5927 4.25131 89.7777C4.53726 89.9544 4.85264 90.1099 5.19745 90.2445C5.54226 90.3791 5.88708 90.4926 6.23189 90.5851C7.06449 90.8374 7.86346 91.1023 8.62878 91.3799C9.40251 91.6574 10.0921 91.9896 10.6977 92.3765C11.3116 92.7633 11.7952 93.2427 12.1484 93.8146C12.5016 94.3781 12.6782 95.0719 12.6782 95.8961C12.6782 96.5857 12.5437 97.2459 12.2746 97.8767C12.0054 98.5074 11.6144 99.0709 11.1013 99.5671C10.5967 100.063 9.9786 100.454 9.24692 100.74C8.51524 101.026 7.68264 101.169 6.74912 101.169Z" fill="#2B3042"/>
</svg>
