<svg width="374" height="107" viewBox="0 0 374 107" fill="none" xmlns="http://www.w3.org/2000/svg">
<rect width="71.615" height="72" rx="35.8075" fill="#6565EB"/>
<path fill-rule="evenodd" clip-rule="evenodd" d="M49.2687 16.6444L49.8136 16.7128C51.2539 16.9115 53.16 17.1787 54.2391 18.2599C55.1238 19.1425 55.4636 20.5785 55.6666 21.8606L55.7863 22.6855C56.0555 24.63 56.126 27.1772 55.6666 30.0065C54.7605 35.5902 51.7881 42.2531 44.3239 47.4116C44.2833 47.8134 44.2812 48.2194 44.2897 48.6254L44.3111 49.2323C44.3453 50.1661 44.3794 51.0999 44.1187 52.006C43.7127 53.4163 42.266 54.3459 40.9134 55.0126L40.2509 55.3267L39.3962 55.7028C37.7978 56.3824 35.6395 57.079 34.2868 55.7242C33.4748 54.9143 33.1414 53.7262 32.8701 52.5445L32.7696 52.1021C32.6548 51.544 32.5122 50.992 32.3422 50.4482C32.2354 50.1348 32.12 49.8178 31.9961 49.4972C31.8597 49.6647 31.7149 49.8252 31.5623 49.9781C30.825 50.7153 29.7245 51.2303 28.8185 51.5914C27.8291 51.9825 26.7094 52.3244 25.673 52.6064L25.1409 52.7475L24.1216 53.0018L23.1984 53.2155L22.0936 53.4505L21.4034 53.5852C21.0592 53.6489 20.7046 53.6279 20.3703 53.5241C20.0359 53.4202 19.7319 53.2366 19.4843 52.9891C19.2368 52.7415 19.0532 52.4375 18.9493 52.1031C18.8455 51.7688 18.8245 51.4142 18.8883 51.07L19.072 50.149L19.4011 48.6574L19.6661 47.5676L19.867 46.7983C20.149 45.7641 20.491 44.6443 20.8841 43.6571C21.2431 42.7489 21.7581 41.6484 22.4954 40.9112L22.6663 40.7466L22.5296 40.691C22.1643 40.5523 21.7944 40.4262 21.4205 40.3128L20.8286 40.1312C19.3456 39.6824 17.76 39.1995 16.7749 38.2122C15.5782 37.0177 15.9821 35.1992 16.559 33.6863L16.7941 33.1008L17.1723 32.246L17.4865 31.5835C18.1532 30.233 19.0827 28.7863 20.4931 28.3803C21.241 28.1666 22.0188 28.1538 22.801 28.1752L23.2711 28.1901C23.8822 28.2115 24.4912 28.235 25.0874 28.1773C30.2459 20.711 36.9088 17.7385 42.4926 16.8325C44.7325 16.4651 47.0118 16.4018 49.2687 16.6444ZM28.3014 43.7297C27.9651 43.4805 27.5632 43.3356 27.1453 43.3128C26.7274 43.29 26.3121 43.3904 25.9508 43.6015L25.7157 43.7597L25.517 43.937L25.2498 44.2746C24.6943 45.0781 24.378 46.1893 24.1322 47.2279L23.9015 48.2279L23.7925 48.6831L24.2006 48.5848L25.0939 48.3796C26.329 48.0912 27.6987 47.7172 28.5407 46.9586C28.9068 46.5927 29.1276 46.1064 29.1622 45.59C29.1968 45.0736 29.0428 44.5621 28.7287 44.1507L28.5535 43.9498L28.5022 43.9007L28.3014 43.7297ZM43.6508 28.8269C43.254 28.43 42.7829 28.1151 42.2644 27.9002C41.7459 27.6853 41.1901 27.5747 40.6289 27.5746C40.0676 27.5745 39.5118 27.6849 38.9932 27.8996C38.4747 28.1143 38.0035 28.4291 37.6065 28.8259C37.2096 29.2227 36.8947 29.6938 36.6798 30.2123C36.4649 30.7308 36.3543 31.2865 36.3542 31.8478C36.3541 32.409 36.4645 32.9648 36.6792 33.4834C36.8939 34.002 37.2086 34.4732 37.6054 34.8701C38.4068 35.6718 39.4938 36.1223 40.6273 36.1225C41.7609 36.1227 42.848 35.6726 43.6497 34.8712C44.4514 34.0698 44.9018 32.9828 44.902 31.8493C44.9022 30.7158 44.4521 29.6286 43.6508 28.8269Z" fill="#F6F6F6"/>
<path d="M71.615 98.2047C71.4468 98.4402 71.1987 98.7135 70.8708 99.0247C70.5428 99.3274 70.1349 99.6218 69.6471 99.9077C69.1593 100.185 68.5916 100.417 67.944 100.602C67.2964 100.787 66.5648 100.879 65.749 100.879C64.4875 100.879 63.3815 100.623 62.4312 100.11C61.4809 99.5966 60.745 98.8481 60.2235 97.8641C59.7021 96.8717 59.4414 95.6648 59.4414 94.2435C59.4414 92.8811 59.7231 91.6995 60.2866 90.6987C60.8585 89.6979 61.6406 88.9241 62.633 88.3775C63.6254 87.8308 64.765 87.5575 66.0518 87.5575C67.6665 87.5575 68.9238 88.0495 69.8237 89.0335C70.732 90.0175 71.2366 91.3378 71.3375 92.9946C71.3543 93.2638 71.3627 93.5245 71.3627 93.7768C71.3627 94.0207 71.3501 94.273 71.3249 94.5337C71.2156 94.5253 70.9885 94.5169 70.6437 94.5085C70.3073 94.4916 69.912 94.479 69.4578 94.4706C69.0037 94.4538 68.5454 94.4412 68.0828 94.4328C67.6287 94.4159 67.2376 94.4075 66.9096 94.4075C66.0602 94.4075 65.1897 94.4496 64.2982 94.5337C63.4068 94.6178 62.612 94.7145 61.914 94.8238C61.9224 95.0425 61.9434 95.257 61.9771 95.4672C62.0107 95.6775 62.0527 95.8793 62.1032 96.0727C62.2462 96.5858 62.5069 97.0315 62.8853 97.4099C63.2638 97.78 63.7137 98.0659 64.2352 98.2678C64.765 98.4696 65.3243 98.5705 65.913 98.5705C66.5353 98.5705 67.0778 98.478 67.5403 98.293C68.0029 98.108 68.3982 97.8809 68.7262 97.6118C69.0626 97.3427 69.3317 97.0862 69.5335 96.8423C69.7438 96.5984 69.9036 96.4175 70.0129 96.2998C70.0634 96.3419 70.1601 96.4344 70.3031 96.5773C70.4544 96.7119 70.6142 96.8759 70.7824 97.0693C70.9591 97.2628 71.123 97.4604 71.2744 97.6622C71.4342 97.8557 71.5478 98.0365 71.615 98.2047ZM61.9518 93.1334C62.5574 93.0325 63.268 92.9442 64.0838 92.8685C64.908 92.7928 65.8415 92.7549 66.8844 92.7549C67.431 92.7549 67.8936 92.7634 68.272 92.7802C68.6589 92.7886 68.928 92.8012 69.0794 92.818C69.0794 92.5405 69.0458 92.2461 68.9785 91.935C68.886 91.5145 68.7178 91.1066 68.4739 90.7113C68.23 90.316 67.8978 89.988 67.4773 89.7273C67.0652 89.4582 66.5437 89.3236 65.913 89.3236C65.1897 89.3236 64.5295 89.4792 63.9324 89.7904C63.3437 90.0931 62.8727 90.5305 62.5195 91.1024C62.1663 91.6658 61.9771 92.3428 61.9518 93.1334Z" fill="#2B3042"/>
<path d="M57.5684 98.3939C57.3666 98.806 57.026 99.2223 56.5466 99.6428C56.0672 100.055 55.4701 100.404 54.7552 100.69C54.0404 100.967 53.2288 101.106 52.3205 101.106C51.0842 101.106 50.0203 100.791 49.1289 100.16C48.2374 99.5292 47.552 98.6924 47.0726 97.6496C46.5932 96.5983 46.3535 95.4503 46.3535 94.2056C46.3535 92.8432 46.589 91.6364 47.06 90.5851C47.5309 89.5338 48.2206 88.7096 49.1289 88.1125C50.0371 87.507 51.1473 87.2042 52.4593 87.2042C53.2414 87.2042 53.9478 87.3346 54.5786 87.5953C55.2094 87.8476 55.7518 88.1924 56.206 88.6297C56.6601 89.0587 57.0175 89.5254 57.2783 90.03L55.5247 91.178C55.4827 91.0855 55.4028 90.9341 55.2851 90.7239C55.1757 90.5136 55.0033 90.2949 54.7678 90.0679C54.5408 89.8324 54.238 89.6347 53.8595 89.475C53.4895 89.3152 53.0227 89.2353 52.4593 89.2353C51.6771 89.2353 51.0127 89.4245 50.4661 89.8029C49.9194 90.173 49.5031 90.6944 49.2172 91.3672C48.9396 92.0316 48.8009 92.8012 48.8009 93.6758C48.8009 94.5168 48.9186 95.3116 49.1541 96.0601C49.398 96.8002 49.7848 97.4057 50.3147 97.8767C50.8445 98.3476 51.5468 98.5831 52.4214 98.5831C52.9512 98.5831 53.418 98.499 53.8217 98.3308C54.2254 98.1626 54.5702 97.965 54.8561 97.7379C55.1421 97.5108 55.365 97.3006 55.5247 97.1071C55.6929 96.9053 55.7939 96.7707 55.8275 96.7034L57.5684 98.3939Z" fill="#2B3042"/>
<path d="M35.922 101.283C34.8708 101.283 33.9162 101.144 33.0584 100.867C32.209 100.581 31.5319 100.126 31.0273 99.5041C30.5227 98.8733 30.2704 98.0365 30.2704 96.9937C30.2704 95.9929 30.5522 95.1645 31.1156 94.5085C31.6791 93.8525 32.4402 93.3689 33.399 93.0577C34.3662 92.7381 35.4469 92.5783 36.6411 92.5783C37.1962 92.5783 37.7386 92.6204 38.2684 92.7045C38.7983 92.7802 39.2566 92.8727 39.6435 92.982C40.0304 93.083 40.2911 93.1629 40.4256 93.2217C40.4004 92.9442 40.3499 92.6624 40.2743 92.3765C40.207 92.0822 40.1019 91.8256 39.9589 91.607C39.6393 91.0435 39.1725 90.5809 38.5586 90.2193C37.9531 89.8493 37.192 89.6642 36.2752 89.6642C35.3081 89.6642 34.4881 89.8745 33.8153 90.295C33.1425 90.7071 32.6379 91.1991 32.3015 91.771L30.2578 90.4212C30.6279 89.8745 31.1156 89.3909 31.7212 88.9704C32.3267 88.5499 33.0247 88.2177 33.8153 87.9738C34.6058 87.7299 35.4553 87.608 36.3636 87.608C37.7765 87.608 38.9455 87.8771 39.8706 88.4153C40.7957 88.9536 41.4727 89.6642 41.9016 90.5473C42.1203 90.993 42.2927 91.4808 42.4188 92.0107C42.545 92.5405 42.6207 93.1965 42.6459 93.9786C42.6627 94.8028 42.6796 95.5051 42.6964 96.0854C42.7216 96.6657 42.7468 97.1661 42.7721 97.5866C42.8141 98.1332 42.8982 98.4865 43.0244 98.6462C43.1505 98.806 43.3313 98.8859 43.5668 98.8859C43.8359 98.8859 44.063 98.7724 44.248 98.5453C44.4331 98.3098 44.5382 97.9818 44.5634 97.5613L45.7745 98.8985C45.724 99.605 45.4759 100.143 45.0302 100.513C44.5844 100.883 44.063 101.068 43.4659 101.068C42.9949 101.068 42.5786 100.98 42.217 100.803C41.8638 100.618 41.582 100.383 41.3718 100.097C41.1615 99.811 41.0396 99.5167 41.0059 99.2139C40.8377 99.5251 40.5097 99.8405 40.022 100.16C39.5426 100.48 38.9497 100.749 38.2432 100.967C37.5452 101.178 36.7714 101.283 35.922 101.283ZM36.3762 99.3022C36.9228 99.3022 37.4569 99.2181 37.9783 99.0499C38.4997 98.8817 38.9791 98.6589 39.4164 98.3813C39.8622 98.1038 40.228 97.7968 40.5139 97.4604C40.5055 96.939 40.5055 96.4764 40.5139 96.0727C40.5224 95.6607 40.535 95.2822 40.5518 94.9374C40.3079 94.8533 39.8411 94.744 39.1515 94.6094C38.4619 94.4664 37.6839 94.3949 36.8177 94.3949C36.0692 94.3949 35.388 94.4959 34.774 94.6977C34.1685 94.8911 33.6849 95.1729 33.3233 95.5429C32.9701 95.913 32.7935 96.3587 32.7935 96.8801C32.7935 97.5109 32.9448 98.0029 33.2476 98.3561C33.5588 98.7009 33.9835 98.9448 34.5217 99.0878C35.06 99.2307 35.6781 99.3022 36.3762 99.3022Z" fill="#2B3042"/>
<path d="M15.1035 106.556C15.2381 105.286 15.3558 103.936 15.4567 102.507C15.5661 101.085 15.6586 99.6513 15.7343 98.2047C15.8184 96.7582 15.8815 95.3705 15.9235 94.0417C15.974 92.7129 16.0118 91.5019 16.037 90.4086C16.0623 89.3068 16.0749 88.3943 16.0749 87.6711C16.4113 87.5701 16.8066 87.4987 17.2607 87.4566C17.7149 87.4062 18.1438 87.3809 18.5475 87.3809C18.5559 87.5996 18.5601 87.9066 18.5601 88.3018C18.5685 88.6887 18.5727 89.0335 18.5727 89.3363C18.7829 89.1008 19.0983 88.8359 19.5188 88.5415C19.9477 88.2388 20.4692 87.9738 21.0831 87.7468C21.7055 87.5197 22.3909 87.4062 23.1394 87.4062C24.7962 87.4062 26.0577 87.936 26.9239 88.9957C27.7986 90.0553 28.2359 91.5271 28.2359 93.411C28.2359 94.7314 28.0088 95.8835 27.5547 96.8675C27.109 97.8431 26.4656 98.6 25.6246 99.1383C24.7836 99.6765 23.7701 99.9456 22.5843 99.9456C22.0377 99.9456 21.4616 99.8657 20.856 99.7059C20.2589 99.5461 19.7207 99.3569 19.2413 99.1383C18.7619 98.9112 18.4297 98.7009 18.2447 98.5075C18.2447 98.6925 18.2279 99.0289 18.1942 99.5167C18.169 100.005 18.1354 100.568 18.0933 101.207C18.0513 101.855 18.005 102.511 17.9545 103.175C17.9041 103.84 17.8536 104.453 17.8032 105.017C17.7611 105.58 17.7149 106.018 17.6644 106.329C17.3785 106.379 17.0673 106.421 16.7309 106.455C16.4029 106.489 16.0917 106.514 15.7973 106.531C15.503 106.548 15.2717 106.556 15.1035 106.556ZM22.2437 97.4604C23.0931 97.4604 23.7701 97.288 24.2747 96.9432C24.7878 96.5984 25.1578 96.1064 25.3849 95.4672C25.612 94.8197 25.7255 94.0501 25.7255 93.1587C25.7255 92.0065 25.4522 91.115 24.9055 90.4843C24.3588 89.8451 23.5557 89.5255 22.496 89.5255C21.8484 89.5255 21.2513 89.6432 20.7047 89.8787C20.158 90.1142 19.6996 90.3791 19.3296 90.6735C18.9596 90.9678 18.6988 91.2117 18.5475 91.4052C18.5475 91.5481 18.539 91.8173 18.5222 92.2125C18.5138 92.6078 18.5012 93.0535 18.4844 93.5497C18.4676 94.0459 18.4507 94.5211 18.4339 94.9753C18.4255 95.421 18.4171 95.7658 18.4087 96.0097C18.5853 96.1611 18.846 96.3545 19.1908 96.59C19.5356 96.8171 19.9646 97.0189 20.4776 97.1955C20.9906 97.3721 21.5793 97.4604 22.2437 97.4604Z" fill="#2B3042"/>
<path d="M6.74912 101.169C5.95857 101.169 5.20586 101.056 4.491 100.829C3.78455 100.593 3.13277 100.29 2.53565 99.9203C1.94694 99.5419 1.43392 99.1298 0.996598 98.6841C0.559273 98.2383 0.227073 97.801 0 97.3721C0.0504607 97.3048 0.147177 97.2039 0.290149 97.0693C0.433121 96.9263 0.597118 96.7792 0.78214 96.6278C0.967163 96.468 1.14798 96.3208 1.32459 96.1863C1.50962 96.0433 1.661 95.9382 1.77874 95.8709C1.96376 96.1316 2.20765 96.4428 2.51042 96.8044C2.81318 97.166 3.17061 97.5235 3.58271 97.8767C4.00321 98.2215 4.47839 98.5117 5.00822 98.7471C5.54647 98.9742 6.13518 99.0877 6.77435 99.0877C7.58172 99.0877 8.2335 98.9364 8.7297 98.6336C9.22589 98.3224 9.58753 97.9398 9.8146 97.4856C10.0417 97.0231 10.1552 96.5647 10.1552 96.1106C10.1552 95.6816 10.0417 95.3032 9.8146 94.9752C9.58753 94.6472 9.27635 94.3571 8.88108 94.1048C8.4858 93.844 8.02745 93.6086 7.50603 93.3983C6.9846 93.188 6.43374 92.9946 5.85344 92.818C4.86105 92.5068 3.98639 92.1536 3.22948 91.7583C2.47257 91.3631 1.87966 90.8711 1.45074 90.2824C1.02183 89.6936 0.807371 88.9536 0.807371 88.0621C0.807371 87.1538 1.05547 86.4011 1.55167 85.804C2.04786 85.1984 2.70806 84.7485 3.53225 84.4541C4.35644 84.1514 5.24791 84 6.20666 84C7.08973 84 7.91392 84.1177 8.67924 84.3532C9.45297 84.5887 10.1258 84.8831 10.6977 85.2363C11.2696 85.5811 11.6943 85.9343 11.9718 86.296C11.8961 86.4137 11.7742 86.5819 11.606 86.8006C11.4378 87.0192 11.2611 87.2337 11.0761 87.4439C10.8995 87.6542 10.7439 87.8182 10.6094 87.9359C10.3823 87.6836 10.0543 87.4061 9.62537 87.1033C9.20487 86.7922 8.69606 86.5272 8.09894 86.3086C7.51023 86.0815 6.83322 85.968 6.0679 85.968C5.22689 85.968 4.55408 86.1698 4.04947 86.5735C3.54486 86.9688 3.29256 87.5028 3.29256 88.1756C3.29256 88.5373 3.38087 88.8484 3.55748 89.1091C3.73409 89.3699 3.96537 89.5927 4.25131 89.7777C4.53726 89.9544 4.85264 90.1099 5.19745 90.2445C5.54226 90.3791 5.88708 90.4926 6.23189 90.5851C7.06449 90.8374 7.86346 91.1023 8.62878 91.3799C9.40251 91.6574 10.0921 91.9896 10.6977 92.3765C11.3116 92.7633 11.7952 93.2427 12.1484 93.8146C12.5016 94.3781 12.6782 95.0719 12.6782 95.8961C12.6782 96.5857 12.5437 97.2459 12.2746 97.8767C12.0054 98.5074 11.6144 99.0709 11.1013 99.5671C10.5967 100.063 9.9786 100.454 9.24692 100.74C8.51524 101.026 7.68264 101.169 6.74912 101.169Z" fill="#2B3042"/>
<rect x="137.904" width="72" height="72" rx="36" fill="#74C0FC"/>
<path d="M166.634 18.03C168.984 17.6913 171.474 20.2608 172.191 23.8063C172.908 27.3319 171.614 30.479 169.263 30.8376C166.933 31.1961 164.423 28.6266 163.686 25.0811C162.949 21.5555 164.284 18.4084 166.634 18.03ZM180.876 18.03C183.246 18.4084 184.561 21.5555 183.864 25.0811C183.107 28.6266 180.617 31.1961 178.266 30.8376C175.896 30.479 174.601 27.3319 175.338 23.8063C176.055 20.2608 178.545 17.6913 180.876 18.03ZM155.978 27.1925C158.248 26.2165 161.336 27.9892 162.949 31.0766C164.463 34.2237 163.945 37.5302 161.694 38.5062C159.443 39.4822 156.376 37.7293 154.802 34.6021C153.229 31.4749 153.787 28.1486 155.978 27.1925ZM191.831 27.1925C194.022 28.1486 194.58 31.4749 193.006 34.6021C191.433 37.7293 188.365 39.4822 186.114 38.5062C183.864 37.5302 183.346 34.2237 184.859 31.0766C186.473 27.9892 189.56 26.2165 191.831 27.1925ZM188.505 48.6646C188.584 50.5369 187.15 52.6085 185.437 53.3853C181.872 55.0186 177.649 51.6325 173.685 51.6325C169.721 51.6325 165.459 55.158 161.953 53.3853C159.961 52.4093 158.587 49.8199 158.846 47.6687C159.204 44.7008 162.77 43.1073 164.881 40.9362C167.69 38.1277 169.682 32.8493 173.685 32.8493C177.669 32.8493 179.78 38.048 182.469 40.9362C184.68 43.3663 188.365 45.4179 188.505 48.6646Z" fill="#F6F6F6"/>
<path d="M214.926 102.168C214.182 102.168 213.442 102.064 212.706 101.856C211.97 101.648 211.298 101.372 210.69 101.028C210.09 100.676 209.61 100.288 209.25 99.864C209.306 99.752 209.386 99.6 209.49 99.408C209.594 99.216 209.714 99.016 209.85 98.808C209.986 98.592 210.122 98.396 210.258 98.22C210.394 98.036 210.514 97.896 210.618 97.8C210.962 98.184 211.374 98.556 211.854 98.916C212.334 99.268 212.85 99.556 213.402 99.78C213.954 99.996 214.506 100.104 215.058 100.104C215.586 100.104 216.062 100.028 216.486 99.876C216.918 99.716 217.258 99.488 217.506 99.192C217.762 98.896 217.89 98.54 217.89 98.124C217.89 97.644 217.738 97.232 217.434 96.888C217.13 96.536 216.722 96.228 216.21 95.964C215.698 95.692 215.134 95.444 214.518 95.22C213.774 94.948 213.094 94.652 212.478 94.332C211.87 94.004 211.382 93.596 211.014 93.108C210.654 92.62 210.474 92 210.474 91.248C210.474 90.48 210.69 89.84 211.122 89.328C211.562 88.816 212.138 88.428 212.85 88.164C213.57 87.9 214.346 87.768 215.178 87.768C216.106 87.768 216.958 87.888 217.734 88.128C218.518 88.36 219.118 88.632 219.534 88.944C219.502 89.08 219.434 89.26 219.33 89.484C219.226 89.7 219.106 89.92 218.97 90.144C218.834 90.368 218.694 90.572 218.55 90.756C218.166 90.5 217.698 90.256 217.146 90.024C216.594 89.792 215.994 89.676 215.346 89.676C214.914 89.676 214.498 89.728 214.098 89.832C213.698 89.928 213.37 90.092 213.114 90.324C212.858 90.556 212.73 90.872 212.73 91.272C212.73 91.616 212.854 91.924 213.102 92.196C213.358 92.468 213.702 92.712 214.134 92.928C214.566 93.136 215.054 93.336 215.598 93.528C216.254 93.752 216.862 94.004 217.422 94.284C217.982 94.556 218.466 94.872 218.874 95.232C219.29 95.584 219.614 95.992 219.846 96.456C220.078 96.912 220.194 97.428 220.194 98.004C220.194 98.924 219.958 99.692 219.486 100.308C219.014 100.924 218.382 101.388 217.59 101.7C216.798 102.012 215.91 102.168 214.926 102.168Z" fill="#2B3042"/>
<path d="M208.642 100.428C208.458 100.692 208.13 100.956 207.658 101.22C207.186 101.492 206.622 101.628 205.966 101.628C205.046 101.628 204.362 101.388 203.914 100.908C203.466 100.42 203.17 99.748 203.026 98.892C202.89 98.036 202.822 97.06 202.822 95.964C202.822 95.26 202.83 94.492 202.846 93.66C202.862 92.828 202.882 91.968 202.906 91.08C202.938 90.192 202.97 89.32 203.002 88.464C203.034 87.6 203.066 86.792 203.098 86.04C203.13 85.28 203.162 84.616 203.194 84.048C203.562 84.016 203.898 84 204.202 84C204.41 84 204.618 84.008 204.826 84.024C205.034 84.04 205.246 84.06 205.462 84.084C205.43 84.66 205.394 85.344 205.354 86.136C205.314 86.92 205.27 87.756 205.222 88.644C205.182 89.532 205.146 90.42 205.114 91.308C205.082 92.196 205.054 93.024 205.03 93.792C205.006 94.56 204.994 95.216 204.994 95.76C204.994 96.368 205.026 96.956 205.09 97.524C205.154 98.084 205.29 98.544 205.498 98.904C205.706 99.264 206.022 99.444 206.446 99.444C206.774 99.444 207.026 99.364 207.202 99.204C207.378 99.044 207.53 98.84 207.658 98.592C207.706 98.656 207.778 98.776 207.874 98.952C207.978 99.12 208.082 99.312 208.186 99.528C208.298 99.736 208.394 99.924 208.474 100.092C208.562 100.26 208.618 100.372 208.642 100.428Z" fill="#2B3042"/>
<path d="M192.025 101.448C191.025 101.448 190.117 101.316 189.301 101.052C188.493 100.78 187.849 100.348 187.369 99.756C186.889 99.156 186.649 98.36 186.649 97.368C186.649 96.416 186.917 95.628 187.453 95.004C187.989 94.38 188.713 93.92 189.625 93.624C190.545 93.32 191.573 93.168 192.709 93.168C193.237 93.168 193.753 93.208 194.257 93.288C194.761 93.36 195.197 93.448 195.565 93.552C195.933 93.648 196.181 93.724 196.309 93.78C196.285 93.516 196.237 93.248 196.165 92.976C196.101 92.696 196.001 92.452 195.865 92.244C195.561 91.708 195.117 91.268 194.533 90.924C193.957 90.572 193.233 90.396 192.361 90.396C191.441 90.396 190.661 90.596 190.021 90.996C189.381 91.388 188.901 91.856 188.581 92.4L186.637 91.116C186.989 90.596 187.453 90.136 188.029 89.736C188.605 89.336 189.269 89.02 190.021 88.788C190.773 88.556 191.581 88.44 192.445 88.44C193.789 88.44 194.901 88.696 195.781 89.208C196.661 89.72 197.305 90.396 197.713 91.236C197.921 91.66 198.085 92.124 198.205 92.628C198.325 93.132 198.397 93.756 198.421 94.5C198.437 95.284 198.453 95.952 198.469 96.504C198.493 97.056 198.517 97.532 198.541 97.932C198.581 98.452 198.661 98.788 198.781 98.94C198.901 99.092 199.073 99.168 199.297 99.168C199.553 99.168 199.769 99.06 199.945 98.844C200.121 98.62 200.221 98.308 200.245 97.908L201.397 99.18C201.349 99.852 201.113 100.364 200.689 100.716C200.265 101.068 199.769 101.244 199.201 101.244C198.753 101.244 198.357 101.16 198.013 100.992C197.677 100.816 197.409 100.592 197.209 100.32C197.009 100.048 196.893 99.768 196.861 99.48C196.701 99.776 196.389 100.076 195.925 100.38C195.469 100.684 194.905 100.94 194.233 101.148C193.569 101.348 192.833 101.448 192.025 101.448ZM192.457 99.564C192.977 99.564 193.485 99.484 193.981 99.324C194.477 99.164 194.933 98.952 195.349 98.688C195.773 98.424 196.121 98.132 196.393 97.812C196.385 97.316 196.385 96.876 196.393 96.492C196.401 96.1 196.413 95.74 196.429 95.412C196.197 95.332 195.753 95.228 195.097 95.1C194.441 94.964 193.701 94.896 192.877 94.896C192.165 94.896 191.517 94.992 190.933 95.184C190.357 95.368 189.897 95.636 189.553 95.988C189.217 96.34 189.049 96.764 189.049 97.26C189.049 97.86 189.193 98.328 189.481 98.664C189.777 98.992 190.181 99.224 190.693 99.36C191.205 99.496 191.793 99.564 192.457 99.564Z" fill="#2B3042"/>
<path d="M165.546 101.304C165.482 100.728 165.426 100.04 165.378 99.24C165.33 98.44 165.286 97.588 165.246 96.684C165.206 95.78 165.174 94.872 165.15 93.96C165.126 93.048 165.106 92.184 165.09 91.368C165.074 90.544 165.066 89.824 165.066 89.208C165.186 89.168 165.346 89.128 165.546 89.088C165.746 89.048 165.958 89.012 166.182 88.98C166.406 88.948 166.618 88.924 166.818 88.908C167.018 88.884 167.182 88.872 167.31 88.872C167.318 89 167.326 89.188 167.334 89.436C167.342 89.676 167.35 89.932 167.358 90.204C167.374 90.476 167.382 90.724 167.382 90.948C167.39 91.164 167.394 91.316 167.394 91.404C167.458 91.236 167.582 91.008 167.766 90.72C167.958 90.432 168.218 90.14 168.546 89.844C168.882 89.548 169.298 89.3 169.794 89.1C170.29 88.9 170.874 88.8 171.546 88.8C172.154 88.8 172.666 88.928 173.082 89.184C173.506 89.44 173.85 89.776 174.114 90.192C174.386 90.6 174.59 91.044 174.726 91.524C174.806 91.804 174.862 92.084 174.894 92.364C174.934 92.644 174.962 92.916 174.978 93.18C175.114 92.42 175.37 91.696 175.746 91.008C176.13 90.312 176.646 89.744 177.294 89.304C177.95 88.864 178.75 88.644 179.694 88.644C180.566 88.644 181.282 88.824 181.842 89.184C182.402 89.544 182.838 90.052 183.15 90.708C183.462 91.364 183.678 92.144 183.798 93.048C183.926 93.944 183.99 94.936 183.99 96.024C183.99 96.6 183.974 97.212 183.942 97.86C183.918 98.508 183.882 99.14 183.834 99.756C183.794 100.364 183.75 100.908 183.702 101.388C183.51 101.412 183.314 101.428 183.114 101.436C182.914 101.452 182.714 101.46 182.514 101.46C182.322 101.46 182.118 101.452 181.902 101.436C181.694 101.428 181.482 101.416 181.266 101.4C181.426 100.216 181.55 99.12 181.638 98.112C181.734 97.104 181.782 96.204 181.782 95.412C181.782 93.9 181.602 92.752 181.242 91.968C180.882 91.184 180.29 90.792 179.466 90.792C178.722 90.792 178.122 91.012 177.666 91.452C177.218 91.892 176.874 92.484 176.634 93.228C176.402 93.972 176.242 94.812 176.154 95.748C176.066 96.684 176.014 97.648 175.998 98.64C175.99 99.064 175.982 99.504 175.974 99.96C175.966 100.408 175.962 100.856 175.962 101.304C175.842 101.312 175.682 101.32 175.482 101.328C175.29 101.344 175.094 101.352 174.894 101.352C174.662 101.352 174.43 101.344 174.198 101.328C173.966 101.32 173.786 101.304 173.658 101.28C173.666 100.744 173.67 100.228 173.67 99.732C173.678 99.236 173.682 98.74 173.682 98.244C173.682 97.308 173.65 96.404 173.586 95.532C173.53 94.66 173.414 93.876 173.238 93.18C173.062 92.476 172.794 91.916 172.434 91.5C172.074 91.084 171.594 90.876 170.994 90.876C170.546 90.876 170.118 90.992 169.71 91.224C169.31 91.456 168.95 91.748 168.63 92.1C168.31 92.444 168.054 92.808 167.862 93.192C167.67 93.568 167.558 93.9 167.526 94.188C167.574 95.468 167.63 96.616 167.694 97.632C167.766 98.648 167.83 99.48 167.886 100.128C167.95 100.768 167.994 101.176 168.018 101.352C167.946 101.36 167.818 101.368 167.634 101.376C167.45 101.384 167.286 101.388 167.142 101.388C166.838 101.388 166.534 101.38 166.23 101.364C165.934 101.348 165.706 101.328 165.546 101.304Z" fill="#2B3042"/>
<path d="M160.27 101.208C160.158 101.216 159.982 101.228 159.742 101.244C159.502 101.26 159.258 101.268 159.01 101.268C158.786 101.268 158.57 101.26 158.362 101.244C158.154 101.228 157.958 101.208 157.774 101.184C157.806 100.976 157.846 100.548 157.894 99.9C157.942 99.244 157.99 98.468 158.038 97.572C158.086 96.676 158.13 95.752 158.17 94.8C158.21 93.848 158.242 92.96 158.266 92.136C158.29 91.304 158.302 90.644 158.302 90.156C158.39 90.148 158.53 90.14 158.722 90.132C158.922 90.124 159.138 90.116 159.37 90.108C159.602 90.092 159.822 90.08 160.03 90.072C160.238 90.064 160.394 90.06 160.498 90.06C160.53 90.276 160.55 90.608 160.558 91.056C160.574 91.496 160.582 91.996 160.582 92.556C160.582 93.3 160.574 94.112 160.558 94.992C160.55 95.872 160.53 96.736 160.498 97.584C160.466 98.432 160.43 99.18 160.39 99.828C160.358 100.476 160.318 100.936 160.27 101.208ZM159.538 88.188C158.994 88.188 158.562 88.024 158.242 87.696C157.922 87.368 157.762 86.956 157.762 86.46C157.762 86.084 157.842 85.772 158.002 85.524C158.162 85.268 158.37 85.076 158.626 84.948C158.89 84.812 159.174 84.744 159.478 84.744C159.966 84.744 160.358 84.916 160.654 85.26C160.958 85.604 161.11 86.032 161.11 86.544C161.11 86.992 160.966 87.38 160.678 87.708C160.398 88.028 160.018 88.188 159.538 88.188Z" fill="#2B3042"/>
<path d="M143.768 101.352C143.616 101.352 143.432 101.352 143.216 101.352C143 101.36 142.784 101.36 142.568 101.352C142.368 101.344 142.14 101.332 141.884 101.316C141.628 101.308 141.44 101.296 141.32 101.28C141.4 100.616 141.468 99.892 141.524 99.108C141.588 98.316 141.64 97.428 141.68 96.444C141.72 95.452 141.752 94.328 141.776 93.072C141.8 91.808 141.812 90.372 141.812 88.764C142.004 88.732 142.232 88.708 142.496 88.692C142.768 88.668 143.044 88.656 143.324 88.656C143.5 88.656 143.676 88.66 143.852 88.668C144.036 88.676 144.196 88.692 144.332 88.716C144.34 88.804 144.344 88.964 144.344 89.196C144.352 89.428 144.352 89.684 144.344 89.964C144.344 90.244 144.344 90.492 144.344 90.708C144.64 90.38 145.06 90.044 145.604 89.7C146.148 89.356 146.756 89.068 147.428 88.836C148.1 88.596 148.776 88.476 149.456 88.476C150.672 88.476 151.596 88.72 152.228 89.208C152.86 89.688 153.288 90.4 153.512 91.344C153.744 92.288 153.86 93.46 153.86 94.86C153.86 95.404 153.844 96.02 153.812 96.708C153.788 97.396 153.744 98.124 153.68 98.892C153.624 99.66 153.548 100.44 153.452 101.232C153.34 101.248 153.168 101.26 152.936 101.268C152.712 101.284 152.472 101.292 152.216 101.292C151.96 101.292 151.716 101.288 151.484 101.28C151.252 101.272 151.068 101.256 150.932 101.232C151.036 100.552 151.132 99.844 151.22 99.108C151.308 98.364 151.38 97.628 151.436 96.9C151.492 96.164 151.52 95.472 151.52 94.824C151.52 93.992 151.456 93.264 151.328 92.64C151.208 92.016 150.964 91.532 150.596 91.188C150.236 90.844 149.704 90.672 149 90.672C148.272 90.672 147.604 90.792 146.996 91.032C146.388 91.272 145.856 91.556 145.4 91.884C144.952 92.212 144.588 92.504 144.308 92.76C144.276 94.112 144.228 95.352 144.164 96.48C144.1 97.608 144.032 98.588 143.96 99.42C143.888 100.252 143.824 100.896 143.768 101.352Z" fill="#2B3042"/>
<path d="M130.171 101.376C130.019 101.376 129.827 101.372 129.595 101.364C129.371 101.356 129.135 101.344 128.887 101.328C128.639 101.32 128.403 101.308 128.179 101.292C127.955 101.284 127.767 101.272 127.615 101.256C127.695 100.84 127.807 100.256 127.951 99.504C128.103 98.752 128.283 97.9 128.491 96.948C128.699 95.988 128.919 94.984 129.151 93.936C129.383 92.888 129.619 91.848 129.859 90.816C130.107 89.776 130.343 88.8 130.567 87.888C130.791 86.976 130.991 86.192 131.167 85.536C131.655 85.464 132.247 85.392 132.943 85.32C133.647 85.248 134.363 85.212 135.091 85.212C135.403 85.212 135.727 85.22 136.063 85.236C136.399 85.252 136.719 85.28 137.023 85.32C137.175 86.024 137.327 86.864 137.479 87.84C137.639 88.816 137.791 89.952 137.935 91.248C138.087 92.544 138.235 94.016 138.379 95.664C138.531 97.304 138.679 99.148 138.823 101.196C138.639 101.228 138.395 101.256 138.091 101.28C137.787 101.312 137.471 101.336 137.143 101.352C136.823 101.368 136.527 101.376 136.255 101.376C136.239 101.144 136.223 100.84 136.207 100.464C136.191 100.088 136.171 99.672 136.147 99.216C136.123 98.752 136.099 98.292 136.075 97.836C136.051 97.372 136.027 96.944 136.003 96.552C135.979 96.16 135.959 95.84 135.943 95.592C135.687 95.6 135.375 95.612 135.007 95.628C134.639 95.644 134.251 95.668 133.843 95.7C133.443 95.724 133.055 95.752 132.679 95.784C132.311 95.816 131.991 95.848 131.719 95.88C131.447 95.912 131.267 95.936 131.179 95.952C131.035 96.632 130.895 97.32 130.759 98.016C130.623 98.704 130.503 99.344 130.399 99.936C130.295 100.52 130.219 101 130.171 101.376ZM131.503 93.888C131.799 93.824 132.207 93.764 132.727 93.708C133.255 93.652 133.803 93.604 134.371 93.564C134.947 93.524 135.447 93.496 135.871 93.48C135.855 93.232 135.827 92.836 135.787 92.292C135.747 91.748 135.699 91.152 135.643 90.504C135.587 89.856 135.531 89.244 135.475 88.668C135.427 88.084 135.375 87.632 135.319 87.312C135.135 87.312 134.871 87.324 134.527 87.348C134.191 87.364 133.863 87.388 133.543 87.42C133.231 87.444 133.011 87.464 132.883 87.48C132.835 87.688 132.763 88.004 132.667 88.428C132.571 88.844 132.459 89.344 132.331 89.928C132.203 90.504 132.067 91.132 131.923 91.812C131.787 92.484 131.647 93.176 131.503 93.888Z" fill="#2B3042"/>
<rect x="278.693" y="0.192017" width="72" height="72" rx="36" fill="#FC644D"/>
<path d="M314.693 12.692C301.438 12.692 290.693 23.4369 290.693 36.692C290.693 49.9472 301.438 60.692 314.693 60.692C327.949 60.692 338.693 49.9472 338.693 36.692C338.693 23.4369 327.949 12.692 314.693 12.692ZM322.657 47.2985C322.279 47.674 321.884 48.0678 321.562 48.3901C321.273 48.6804 321.069 49.0385 320.965 49.4265C320.819 49.9743 320.701 50.5278 320.504 51.0591L318.821 55.593C317.489 55.8833 316.111 56.0469 314.693 56.0469V53.3972C314.857 52.1759 313.954 49.8881 312.503 48.4375C311.923 47.8569 311.597 47.0691 311.597 46.2475V43.1498C311.597 42.0233 310.99 40.9878 310.004 40.443C308.613 39.6736 306.635 38.5985 305.28 37.9162C304.169 37.3569 303.141 36.6446 302.217 35.8114L302.14 35.7417C301.479 35.1451 300.892 34.4712 300.392 33.7346C299.484 32.402 298.006 30.2101 297.045 28.7856C299.026 24.3823 302.596 20.8462 307.032 18.9252L309.355 20.0875C310.385 20.6023 311.597 19.8543 311.597 18.7027V17.6091C312.37 17.4843 313.157 17.4049 313.957 17.3749L316.696 20.1136C317.3 20.7185 317.3 21.6988 316.696 22.3036L316.242 22.7565L315.241 23.7572C314.939 24.0591 314.939 24.5498 315.241 24.8517L315.695 25.3056C315.997 25.6075 315.997 26.0981 315.695 26.4001L314.921 27.1743C314.849 27.2461 314.763 27.3031 314.669 27.342C314.575 27.3808 314.475 27.4008 314.373 27.4007H313.503C313.302 27.4007 313.108 27.4791 312.963 27.6204L312.003 28.5543C311.885 28.6689 311.807 28.8179 311.78 28.9798C311.752 29.1418 311.777 29.3082 311.85 29.4552L313.359 32.4736C313.616 32.9885 313.242 33.5943 312.667 33.5943H312.121C311.934 33.5943 311.754 33.5265 311.614 33.4046L310.716 32.6246C310.513 32.4483 310.267 32.328 310.003 32.2754C309.739 32.2228 309.466 32.2397 309.211 32.3246L306.195 33.3301C305.964 33.4069 305.764 33.5542 305.622 33.7511C305.48 33.9481 305.404 34.1847 305.404 34.4275C305.404 34.8659 305.652 35.2656 306.044 35.462L307.116 35.9981C308.027 36.454 309.031 36.691 310.049 36.691C311.067 36.691 312.235 39.332 313.146 39.7878H319.606C320.427 39.7878 321.214 40.1139 321.796 40.6946L323.12 42.0194C323.395 42.2936 323.612 42.619 323.76 42.9772C323.908 43.3353 323.985 43.7192 323.985 44.1069C323.984 44.7001 323.867 45.2874 323.639 45.8351C323.411 46.3828 323.078 46.8801 322.657 47.2985ZM331.048 38.4581C330.488 38.3178 329.999 37.9743 329.679 37.4933L327.939 34.8833C327.684 34.502 327.548 34.0538 327.548 33.5952C327.548 33.1367 327.684 32.6885 327.939 32.3072L329.835 29.464C330.059 29.1281 330.367 28.8552 330.729 28.6752L331.985 28.0472C333.293 30.6523 334.048 33.5827 334.048 36.692C334.048 37.531 333.977 38.3527 333.872 39.1636L331.048 38.4581Z" fill="#F6F6F6"/>
<path d="M372.125 98.7C371.965 98.924 371.729 99.184 371.417 99.48C371.105 99.768 370.717 100.048 370.253 100.32C369.789 100.584 369.249 100.804 368.633 100.98C368.017 101.156 367.321 101.244 366.545 101.244C365.345 101.244 364.293 101 363.389 100.512C362.485 100.024 361.785 99.312 361.289 98.376C360.793 97.432 360.545 96.284 360.545 94.932C360.545 93.636 360.813 92.512 361.349 91.56C361.893 90.608 362.637 89.872 363.581 89.352C364.525 88.832 365.609 88.572 366.833 88.572C368.369 88.572 369.565 89.04 370.421 89.976C371.285 90.912 371.765 92.168 371.861 93.744C371.877 94 371.885 94.248 371.885 94.488C371.885 94.72 371.873 94.96 371.849 95.208C371.745 95.2 371.529 95.192 371.201 95.184C370.881 95.168 370.505 95.156 370.073 95.148C369.641 95.132 369.205 95.12 368.765 95.112C368.333 95.096 367.961 95.088 367.649 95.088C366.841 95.088 366.013 95.128 365.165 95.208C364.317 95.288 363.561 95.38 362.897 95.484C362.905 95.692 362.925 95.896 362.957 96.096C362.989 96.296 363.029 96.488 363.077 96.672C363.213 97.16 363.461 97.584 363.821 97.944C364.181 98.296 364.609 98.568 365.105 98.76C365.609 98.952 366.141 99.048 366.701 99.048C367.293 99.048 367.809 98.96 368.249 98.784C368.689 98.608 369.065 98.392 369.377 98.136C369.697 97.88 369.953 97.636 370.145 97.404C370.345 97.172 370.497 97 370.601 96.888C370.649 96.928 370.741 97.016 370.877 97.152C371.021 97.28 371.173 97.436 371.333 97.62C371.501 97.804 371.657 97.992 371.801 98.184C371.953 98.368 372.061 98.54 372.125 98.7ZM362.933 93.876C363.509 93.78 364.185 93.696 364.961 93.624C365.745 93.552 366.633 93.516 367.625 93.516C368.145 93.516 368.585 93.524 368.945 93.54C369.313 93.548 369.569 93.56 369.713 93.576C369.713 93.312 369.681 93.032 369.617 92.736C369.529 92.336 369.369 91.948 369.137 91.572C368.905 91.196 368.589 90.884 368.189 90.636C367.797 90.38 367.301 90.252 366.701 90.252C366.013 90.252 365.385 90.4 364.817 90.696C364.257 90.984 363.809 91.4 363.473 91.944C363.137 92.48 362.957 93.124 362.933 93.876Z" fill="#2B3042"/>
<path d="M353.149 90.744C353.389 90.336 353.737 89.964 354.193 89.628C354.657 89.292 355.177 89.024 355.753 88.824C356.337 88.624 356.921 88.524 357.505 88.524C357.881 88.524 358.261 88.56 358.645 88.632C359.029 88.696 359.329 88.788 359.545 88.908L359.065 91.32C358.873 91.24 358.625 91.156 358.321 91.068C358.025 90.972 357.657 90.924 357.217 90.924C356.745 90.924 356.273 91.012 355.801 91.188C355.337 91.356 354.909 91.588 354.517 91.884C354.125 92.18 353.797 92.52 353.533 92.904C353.645 93.464 353.753 94.148 353.857 94.956C353.969 95.764 354.069 96.592 354.157 97.44C354.245 98.288 354.317 99.064 354.373 99.768C354.429 100.464 354.457 100.988 354.457 101.34C354.113 101.372 353.693 101.392 353.197 101.4C352.701 101.408 352.245 101.408 351.829 101.4C351.829 100.656 351.813 99.872 351.781 99.048C351.749 98.216 351.697 97.368 351.625 96.504C351.561 95.632 351.477 94.764 351.373 93.9C351.269 93.036 351.145 92.2 351.001 91.392C350.865 90.576 350.709 89.804 350.533 89.076C350.749 89.012 351.001 88.948 351.289 88.884C351.585 88.82 351.857 88.764 352.105 88.716C352.353 88.668 352.521 88.64 352.609 88.632C352.713 88.904 352.821 89.256 352.933 89.688C353.045 90.12 353.117 90.472 353.149 90.744Z" fill="#2B3042"/>
<path d="M345.185 89.3761C345.305 89.3441 345.477 89.3161 345.701 89.2921C345.933 89.2681 346.165 89.2561 346.397 89.2561C346.589 89.2561 346.797 89.2641 347.021 89.2801C347.253 89.2881 347.437 89.3041 347.573 89.3281C347.701 90.1041 347.809 90.8961 347.897 91.7041C347.985 92.5121 348.029 93.3081 348.029 94.0921C348.029 95.1641 347.937 96.1761 347.753 97.1281C347.569 98.0801 347.265 98.9201 346.841 99.6481C346.425 100.368 345.861 100.936 345.149 101.352C344.445 101.768 343.569 101.976 342.521 101.976C341.377 101.976 340.437 101.752 339.701 101.304C338.965 100.848 338.393 100.22 337.985 99.4201C337.577 98.6121 337.289 97.6841 337.121 96.6361C336.961 95.5881 336.881 94.4681 336.881 93.2761C336.881 92.5481 336.905 91.8121 336.953 91.0681C337.001 90.3241 337.053 89.5961 337.109 88.8841C337.253 88.8761 337.433 88.8721 337.649 88.8721C337.873 88.8721 338.073 88.8761 338.249 88.8841C338.497 88.9001 338.741 88.9241 338.981 88.9561C339.229 88.9801 339.433 89.0161 339.593 89.0641C339.513 89.7841 339.449 90.4961 339.401 91.2001C339.353 91.9041 339.329 92.5841 339.329 93.2401C339.329 94.6481 339.445 95.8401 339.677 96.8161C339.917 97.7921 340.273 98.5321 340.745 99.0361C341.225 99.5401 341.825 99.7921 342.545 99.7921C343.217 99.7921 343.777 99.5641 344.225 99.1081C344.681 98.6521 345.025 97.9921 345.257 97.1281C345.489 96.2561 345.605 95.1961 345.605 93.9481C345.605 93.2361 345.569 92.4921 345.497 91.7161C345.425 90.9321 345.321 90.1521 345.185 89.3761Z" fill="#2B3042"/>
<path d="M334.422 99.144C334.302 99.528 334.118 99.932 333.87 100.356C333.622 100.772 333.278 101.124 332.838 101.412C332.398 101.708 331.83 101.856 331.134 101.856C330.238 101.856 329.526 101.66 328.998 101.268C328.478 100.876 328.106 100.36 327.882 99.72C327.658 99.08 327.546 98.384 327.546 97.632C327.546 97.24 327.55 96.776 327.558 96.24C327.574 95.704 327.59 95.148 327.606 94.572C327.622 93.996 327.638 93.44 327.654 92.904C327.678 92.36 327.698 91.884 327.714 91.476C327.73 91.06 327.742 90.752 327.75 90.552C326.966 90.632 326.286 90.72 325.71 90.816C325.142 90.904 324.778 90.972 324.618 91.02C324.57 90.764 324.53 90.496 324.498 90.216C324.474 89.928 324.454 89.668 324.438 89.436C324.43 89.204 324.426 89.048 324.426 88.968C324.874 88.904 325.394 88.836 325.986 88.764C326.586 88.692 327.178 88.636 327.762 88.596C327.77 88.284 327.774 87.9 327.774 87.444C327.774 86.98 327.774 86.544 327.774 86.136C327.766 85.792 327.75 85.46 327.726 85.14C327.702 84.812 327.682 84.54 327.666 84.324L329.922 84.192C329.938 84.312 329.954 84.6 329.97 85.056C329.994 85.504 330.006 86.048 330.006 86.688C330.006 86.928 330.006 87.22 330.006 87.564C330.006 87.9 330.006 88.2 330.006 88.464C330.246 88.448 330.542 88.432 330.894 88.416C331.246 88.4 331.53 88.392 331.746 88.392C332.122 88.384 332.482 88.38 332.826 88.38C333.17 88.38 333.466 88.384 333.714 88.392C333.962 88.4 334.114 88.408 334.17 88.416C334.21 88.632 334.234 88.932 334.242 89.316C334.258 89.7 334.266 90.02 334.266 90.276C334.186 90.268 333.91 90.264 333.438 90.264C332.974 90.256 332.514 90.256 332.058 90.264C331.73 90.272 331.37 90.288 330.978 90.312C330.586 90.328 330.25 90.344 329.97 90.36C329.962 90.568 329.946 90.876 329.922 91.284C329.906 91.692 329.89 92.152 329.874 92.664C329.858 93.168 329.842 93.684 329.826 94.212C329.81 94.732 329.798 95.22 329.79 95.676C329.782 96.124 329.778 96.488 329.778 96.768C329.778 97.272 329.806 97.752 329.862 98.208C329.926 98.664 330.07 99.04 330.294 99.336C330.526 99.624 330.89 99.768 331.386 99.768C331.722 99.768 331.994 99.648 332.202 99.408C332.41 99.168 332.57 98.892 332.682 98.58C332.802 98.268 332.89 98.008 332.946 97.8C333.018 97.88 333.122 97.988 333.258 98.124C333.402 98.252 333.554 98.388 333.714 98.532C333.882 98.676 334.03 98.804 334.158 98.916C334.294 99.028 334.382 99.104 334.422 99.144Z" fill="#2B3042"/>
<path d="M313.096 101.532C312.944 101.532 312.76 101.532 312.544 101.532C312.328 101.54 312.112 101.54 311.896 101.532C311.696 101.524 311.468 101.512 311.212 101.496C310.956 101.488 310.768 101.476 310.648 101.46C310.728 100.796 310.796 100.072 310.852 99.288C310.916 98.496 310.968 97.608 311.008 96.624C311.048 95.632 311.08 94.508 311.104 93.252C311.128 91.988 311.14 90.552 311.14 88.944C311.332 88.912 311.56 88.888 311.824 88.872C312.096 88.848 312.372 88.836 312.652 88.836C312.828 88.836 313.004 88.84 313.18 88.848C313.364 88.856 313.524 88.872 313.66 88.896C313.668 88.984 313.672 89.144 313.672 89.376C313.68 89.608 313.68 89.864 313.672 90.144C313.672 90.424 313.672 90.672 313.672 90.888C313.968 90.56 314.388 90.224 314.932 89.88C315.476 89.536 316.084 89.248 316.756 89.016C317.428 88.776 318.104 88.656 318.784 88.656C320 88.656 320.924 88.9 321.556 89.388C322.188 89.868 322.616 90.58 322.84 91.524C323.072 92.468 323.188 93.64 323.188 95.04C323.188 95.584 323.172 96.2 323.14 96.888C323.116 97.576 323.072 98.304 323.008 99.072C322.952 99.84 322.876 100.62 322.78 101.412C322.668 101.428 322.496 101.44 322.264 101.448C322.04 101.464 321.8 101.472 321.544 101.472C321.288 101.472 321.044 101.468 320.812 101.46C320.58 101.452 320.396 101.436 320.26 101.412C320.364 100.732 320.46 100.024 320.548 99.288C320.636 98.544 320.708 97.808 320.764 97.08C320.82 96.344 320.848 95.652 320.848 95.004C320.848 94.172 320.784 93.444 320.656 92.82C320.536 92.196 320.292 91.712 319.924 91.368C319.564 91.024 319.032 90.852 318.328 90.852C317.6 90.852 316.932 90.972 316.324 91.212C315.716 91.452 315.184 91.736 314.728 92.064C314.28 92.392 313.916 92.684 313.636 92.94C313.604 94.292 313.556 95.532 313.492 96.66C313.428 97.788 313.36 98.768 313.288 99.6C313.216 100.432 313.152 101.076 313.096 101.532Z" fill="#2B3042"/>
<path d="M308.375 98.7C308.215 98.924 307.979 99.184 307.667 99.48C307.355 99.768 306.967 100.048 306.503 100.32C306.039 100.584 305.499 100.804 304.883 100.98C304.267 101.156 303.571 101.244 302.795 101.244C301.595 101.244 300.543 101 299.639 100.512C298.735 100.024 298.035 99.312 297.539 98.376C297.043 97.432 296.795 96.284 296.795 94.932C296.795 93.636 297.063 92.512 297.599 91.56C298.143 90.608 298.887 89.872 299.831 89.352C300.775 88.832 301.859 88.572 303.083 88.572C304.619 88.572 305.815 89.04 306.671 89.976C307.535 90.912 308.015 92.168 308.111 93.744C308.127 94 308.135 94.248 308.135 94.488C308.135 94.72 308.123 94.96 308.099 95.208C307.995 95.2 307.779 95.192 307.451 95.184C307.131 95.168 306.755 95.156 306.323 95.148C305.891 95.132 305.455 95.12 305.015 95.112C304.583 95.096 304.211 95.088 303.899 95.088C303.091 95.088 302.263 95.128 301.415 95.208C300.567 95.288 299.811 95.38 299.147 95.484C299.155 95.692 299.175 95.896 299.207 96.096C299.239 96.296 299.279 96.488 299.327 96.672C299.463 97.16 299.711 97.584 300.071 97.944C300.431 98.296 300.859 98.568 301.355 98.76C301.859 98.952 302.391 99.048 302.951 99.048C303.543 99.048 304.059 98.96 304.499 98.784C304.939 98.608 305.315 98.392 305.627 98.136C305.947 97.88 306.203 97.636 306.395 97.404C306.595 97.172 306.747 97 306.851 96.888C306.899 96.928 306.991 97.016 307.127 97.152C307.271 97.28 307.423 97.436 307.583 97.62C307.751 97.804 307.907 97.992 308.051 98.184C308.203 98.368 308.311 98.54 308.375 98.7ZM299.183 93.876C299.759 93.78 300.435 93.696 301.211 93.624C301.995 93.552 302.883 93.516 303.875 93.516C304.395 93.516 304.835 93.524 305.195 93.54C305.563 93.548 305.819 93.56 305.963 93.576C305.963 93.312 305.931 93.032 305.867 92.736C305.779 92.336 305.619 91.948 305.387 91.572C305.155 91.196 304.839 90.884 304.439 90.636C304.047 90.38 303.551 90.252 302.951 90.252C302.263 90.252 301.635 90.4 301.067 90.696C300.507 90.984 300.059 91.4 299.723 91.944C299.387 92.48 299.207 93.124 299.183 93.876Z" fill="#2B3042"/>
<path d="M293.052 88.284C293.42 88.348 293.764 88.424 294.084 88.512C294.404 88.6 294.676 88.68 294.9 88.752C295.124 88.816 295.26 88.86 295.308 88.884C295.172 89.42 294.976 90.096 294.72 90.912C294.464 91.72 294.172 92.596 293.844 93.54C293.524 94.484 293.184 95.444 292.824 96.42C292.472 97.388 292.124 98.308 291.78 99.18C291.444 100.052 291.132 100.808 290.844 101.448C290.588 101.496 290.236 101.52 289.788 101.52C289.596 101.52 289.408 101.512 289.224 101.496C289.04 101.48 288.884 101.464 288.756 101.448C288.3 100.504 287.856 99.5 287.424 98.436C286.992 97.364 286.576 96.272 286.176 95.16C285.776 94.048 285.4 92.952 285.048 91.872C284.704 90.792 284.388 89.772 284.1 88.812C284.204 88.78 284.348 88.744 284.532 88.704C284.716 88.656 284.912 88.608 285.12 88.56C285.328 88.504 285.532 88.452 285.732 88.404C285.932 88.356 286.1 88.312 286.236 88.272C286.364 88.784 286.544 89.416 286.776 90.168C287.008 90.912 287.264 91.704 287.544 92.544C287.832 93.384 288.12 94.212 288.408 95.028C288.704 95.836 288.98 96.572 289.236 97.236C289.492 97.892 289.7 98.408 289.86 98.784L289.692 98.82C289.9 98.324 290.124 97.744 290.364 97.08C290.604 96.408 290.852 95.688 291.108 94.92C291.372 94.152 291.628 93.376 291.876 92.592C292.124 91.8 292.348 91.036 292.548 90.3C292.748 89.556 292.916 88.884 293.052 88.284Z" fill="#2B3042"/>
<path d="M279.728 101.34C279.728 101.204 279.724 101 279.716 100.728C279.708 100.448 279.704 100.176 279.704 99.9121C279.704 99.6401 279.704 99.4401 279.704 99.3121C279.648 99.4081 279.524 99.5641 279.332 99.7801C279.14 99.9961 278.868 100.224 278.516 100.464C278.172 100.704 277.736 100.908 277.208 101.076C276.68 101.244 276.052 101.328 275.324 101.328C274.252 101.328 273.336 101.096 272.576 100.632C271.816 100.16 271.236 99.5041 270.836 98.6641C270.444 97.8241 270.248 96.8521 270.248 95.7481C270.248 94.7161 270.448 93.7561 270.848 92.8681C271.248 91.9721 271.848 91.2481 272.648 90.6961C273.448 90.1441 274.448 89.8681 275.648 89.8681C276.368 89.8681 277.008 89.9481 277.568 90.1081C278.136 90.2681 278.608 90.4601 278.984 90.6841C279.368 90.9001 279.64 91.0921 279.8 91.2601C279.808 90.9081 279.828 90.4721 279.86 89.9521C279.9 89.4321 279.94 88.8801 279.98 88.2961C280.02 87.7121 280.06 87.1481 280.1 86.6041C280.14 86.0521 280.176 85.5681 280.208 85.1521C280.248 84.7361 280.276 84.4441 280.292 84.2761C280.612 84.2761 280.964 84.2921 281.348 84.3241C281.74 84.3561 282.076 84.4001 282.356 84.4561C282.212 86.3281 282.1 88.1921 282.02 90.0481C281.948 91.8961 281.9 93.7641 281.876 95.6521C281.852 97.5321 281.84 99.4481 281.84 101.4C281.72 101.4 281.516 101.396 281.228 101.388C280.948 101.388 280.664 101.384 280.376 101.376C280.088 101.36 279.872 101.348 279.728 101.34ZM275.9 99.1201C276.452 99.1201 276.944 99.0401 277.376 98.8801C277.808 98.7121 278.176 98.5121 278.48 98.2801C278.784 98.0401 279.032 97.8041 279.224 97.5721C279.424 97.3321 279.564 97.1401 279.644 96.9961C279.644 96.8121 279.644 96.5441 279.644 96.1921C279.652 95.8321 279.656 95.4561 279.656 95.0641C279.664 94.6641 279.668 94.2921 279.668 93.9481C279.676 93.6041 279.684 93.3481 279.692 93.1801C279.508 93.0121 279.232 92.8281 278.864 92.6281C278.504 92.4281 278.08 92.2561 277.592 92.1121C277.104 91.9681 276.58 91.8961 276.02 91.8961C274.876 91.8961 274 92.2321 273.392 92.9041C272.792 93.5681 272.492 94.4721 272.492 95.6161C272.492 96.7681 272.784 97.6401 273.368 98.2321C273.96 98.8241 274.804 99.1201 275.9 99.1201Z" fill="#2B3042"/>
<path d="M259.82 101.556C259.668 101.556 259.476 101.552 259.244 101.544C259.02 101.536 258.784 101.524 258.536 101.508C258.288 101.5 258.052 101.488 257.828 101.472C257.604 101.464 257.416 101.452 257.264 101.436C257.344 101.02 257.456 100.436 257.6 99.684C257.752 98.932 257.932 98.08 258.14 97.128C258.348 96.168 258.568 95.164 258.8 94.116C259.032 93.068 259.268 92.028 259.508 90.996C259.756 89.956 259.992 88.98 260.216 88.068C260.44 87.156 260.64 86.372 260.816 85.716C261.304 85.644 261.896 85.572 262.592 85.5C263.296 85.428 264.012 85.392 264.74 85.392C265.052 85.392 265.376 85.4 265.712 85.416C266.048 85.432 266.368 85.46 266.672 85.5C266.824 86.204 266.976 87.044 267.128 88.02C267.288 88.996 267.44 90.132 267.584 91.428C267.736 92.724 267.884 94.196 268.028 95.844C268.18 97.484 268.328 99.328 268.472 101.376C268.288 101.408 268.044 101.436 267.74 101.46C267.436 101.492 267.12 101.516 266.792 101.532C266.472 101.548 266.176 101.556 265.904 101.556C265.888 101.324 265.872 101.02 265.856 100.644C265.84 100.268 265.82 99.852 265.796 99.396C265.772 98.932 265.748 98.472 265.724 98.016C265.7 97.552 265.676 97.124 265.652 96.732C265.628 96.34 265.608 96.02 265.592 95.772C265.336 95.78 265.024 95.792 264.656 95.808C264.288 95.824 263.9 95.848 263.492 95.88C263.092 95.904 262.704 95.932 262.328 95.964C261.96 95.996 261.64 96.028 261.368 96.06C261.096 96.092 260.916 96.116 260.828 96.132C260.684 96.812 260.544 97.5 260.408 98.196C260.272 98.884 260.152 99.524 260.048 100.116C259.944 100.7 259.868 101.18 259.82 101.556ZM261.152 94.068C261.448 94.004 261.856 93.944 262.376 93.888C262.904 93.832 263.452 93.784 264.02 93.744C264.596 93.704 265.096 93.676 265.52 93.66C265.504 93.412 265.476 93.016 265.436 92.472C265.396 91.928 265.348 91.332 265.292 90.684C265.236 90.036 265.18 89.424 265.124 88.848C265.076 88.264 265.024 87.812 264.968 87.492C264.784 87.492 264.52 87.504 264.176 87.528C263.84 87.544 263.512 87.568 263.192 87.6C262.88 87.624 262.66 87.644 262.532 87.66C262.484 87.868 262.412 88.184 262.316 88.608C262.22 89.024 262.108 89.524 261.98 90.108C261.852 90.684 261.716 91.312 261.572 91.992C261.436 92.664 261.296 93.356 261.152 94.068Z" fill="#2B3042"/>
</svg>
